<svg width="635" height="644" xmlns="http://www.w3.org/2000/svg">
 <g id="Layer_1">
  <title>Layer 1</title>
  <path stroke="null" id="svg_44" d="m82.49999,441.24809c1,0 -2,92.38938 -1,92.38938c1,0 8,32.80738 9,8.66151c1,-24.14587 8,-106.82522 0,-102.97567c-8,3.84956 -9,1.92478 -8,1.92478z" opacity="NaN" stroke-width="13" fill="#482816"/>
  <g id="svg_29">
   <path stroke="null" id="svg_1" d="m8,529.90444c0,0 5.3739,33.34206 56.42598,69.80994c51.05207,36.46788 128.97365,41.67758 155.84316,39.59369c26.86951,-2.08387 188.08658,3.12583 213.61261,-1.04193c25.52604,-4.16776 108.82152,6.25163 127.63018,-12.50328c18.80866,-18.75491 61.79988,-46.88727 61.79988,-75.01964c0,-28.13236 0,-47.9292 0,-47.9292c0,0 -142.40841,-6.25164 -142.40841,1.04193c0,7.29358 8.06085,51.05504 0,46.88727c-8.06086,-4.16775 -115.5389,2.08389 -147.78231,-2.08387c-32.24342,-4.16776 -119.56933,2.08387 -142.40841,0c-22.83909,-2.08388 -94.04329,-2.08388 -118.22585,-6.25164c-24.18256,-4.16775 -64.48683,-12.50327 -64.48683,-12.50327z" opacity="NaN" stroke-width="13" fill="#482816"/>
   <path stroke="null" id="svg_16" d="m8,525.03817c0,0 5.3739,19.96849 56.42598,41.80903c51.05207,21.84054 128.97365,24.96062 155.84316,23.71258c26.86951,-1.24803 188.08658,1.87205 213.61261,-0.62401c25.52604,-2.49606 108.82152,3.74409 127.63018,-7.48819c18.80866,-11.23228 61.79988,-28.08069 61.79988,-44.92911c0,-16.84841 0,-28.7047 0,-28.7047c0,0 -142.40841,-3.74409 -142.40841,0.62401c0,4.36811 8.06085,30.57676 0,28.08069c-8.06086,-2.49606 -115.5389,1.24804 -147.78231,-1.24803c-32.24342,-2.49606 -119.56933,1.24803 -142.40841,0c-22.83909,-1.24803 -94.04329,-1.24803 -118.22585,-3.74409c-24.18256,-2.49606 -69.48683,-7.48818 -64.48683,-7.48818z" opacity="NaN" stroke-width="13" fill="#FFAC8D"/>
   <path id="svg_23" d="m23.49999,531.33332c0,0 83,17 123,15c-22,-3 146.00003,4.33336 128.50001,1.66668c-17.50002,-2.66668 51.49998,-2.66668 91.49998,-0.66668c40,2 51,-1 78,-2c27,-1 22,2 42,1c11,6 47,26 48,26c1,0 0,7 -2,7c-2,0 -74,2 -74.49997,1.66668c0.49998,0.33332 -142.50002,-1.66668 -142.50002,-1.66668c0,0 -104,0 -104.49998,-0.33332c0.49998,0.33332 -62.50001,-3.66668 -63,-4c0.49999,0.33332 -76.50001,-17.66668 -76.50001,-17.66668c0,0 -41,-19 -41.49999,-19.33332c0.49999,0.33332 -29.50001,-12.66668 -6.50001,-6.66668z" opacity="NaN" stroke-width="13" stroke="null" fill="#845335"/>
   <path id="svg_24" d="m482.49998,512.33332c0,0 56,18 56,18c0,0 84,-23 84,-23c0,0 -139,-2 -139.49997,-2.33332c0.49998,0.33332 -0.50002,7.33332 -0.50002,7.33332z" opacity="NaN" stroke-width="13" stroke="null" fill="#482816"/>
   <path id="svg_25" d="m550.49997,585.33332c0,0 -7,-54 -6,-54c1,0 83,-22 83,-22c0,0 -3,33 -3,33c0,0 -57,35 -57.49997,34.66668c0.49997,0.33332 -16.50003,8.33332 -16.50003,8.33332z" opacity="NaN" stroke-width="13" stroke="null" fill="#482816"/>
  </g>
  <path id="svg_14" d="m331.49998,336.33332c0,0 4,-292.99999 6,-271.99999c19,0 208.99999,354.99999 231.99999,354.99999c-16,-14 -111,-174.99999 -166,-158c-55,17 -72,75 -72,75z" opacity="NaN" stroke-width="13" stroke="null" fill="#BBBBBB"/>
  <path stroke="null" id="svg_13" d="m313.49998,33.33332c-3,25.88995 -313.99999,482.19551 -304.99999,487.54725c9,5.35175 293.99999,-457.21104 298.99999,-370.20802c5,87.00302 9,-143.22918 6,-117.33924z" opacity="NaN" stroke-width="13" fill="#BBBBBB"/>
  <path stroke="null" id="svg_4" d="m330.46456,17.2429c0,0 244.19072,411.89162 258.5342,419.89162c14.34347,8 -246.0386,-306.26363 -256.1603,-128.5426c-10.1217,177.72103 4.34348,-258.75209 -2.3739,-291.34901z" opacity="NaN" stroke-width="13" fill="#ffffff"/>
  <path id="svg_34" d="m99,534c0.49999,0.33332 10.49999,7.33332 10.49999,7.33332l-10.49999,-7.33332z" opacity="NaN" stroke-width="13" stroke="null" fill="#FFAC8D"/>
  <path stroke="null" id="svg_31" d="m593.49997,445.33332c0,0 -81.28252,18 -82.29855,19c-1.01603,1 -386.09196,2 -386.09196,3c0,1 -39.62522,-17 -38.60919,-17c1.01603,0 404.38052,-17 406.41259,-16c2.03206,1 80.26648,0 82.29855,1c2.03206,1 18.28856,10 18.28856,10z" opacity="NaN" stroke-width="13" fill="#482816"/>
  <path stroke="null" id="svg_46" d="m479.49999,444.17468c1,0 -2,89.08903 -1,89.08903c1,0 8,31.63543 9,8.3521c1,-23.28333 8,-103.00919 0,-99.29715c-8,3.71204 -9,1.85602 -8,1.85602z" opacity="NaN" stroke-width="13" fill="#482816"/>
  <path stroke="null" id="svg_38" d="m592.49997,431.33332c0,0 43.71748,21 -82.29855,19c-126.01603,-2 -390.09196,-9 -386.09196,3c4,12 -72.62522,-16 -38.60919,-17c34.01603,-1 404.38052,-17 406.41259,-16c2.03206,1 80.26648,0 82.29855,1c2.03206,1 30.28856,3 18.28856,10z" opacity="NaN" stroke-width="13" fill="#482816"/>
  <path stroke="null" id="svg_32" d="m587.49997,431.33332c0,0 -81.28252,18 -82.29855,19c-1.01603,1 -386.09196,2 -386.09196,3c0,1 -39.62522,-17 -38.60919,-17c1.01603,0 404.38052,-17 406.41259,-16c2.03206,1 80.26648,0 82.29855,1c2.03206,1 18.28856,10 18.28856,10z" opacity="NaN" stroke-width="13" fill="#FFAC8D"/>
  <path stroke="null" id="svg_2" d="m313.99938,441.6349c1.34348,1.49528 0,-432.13648 -1.34346,-432.63489c1.34346,0.49842 16.12169,1.9937 16.12169,13.95595c0,11.96225 -2.68695,412.69782 -2.68695,418.67895c0,5.98112 -13.43476,-1.49529 -12.09128,0z" opacity="NaN" stroke-width="13" fill="#482816"/>
  <path stroke="null" id="svg_42" d="m313.99938,561.44906c1.34348,0.34372 0,-99.3345 -1.34346,-99.44907c1.34346,0.11457 16.12169,0.45829 16.12169,3.20803c0,2.74974 -2.68695,94.86617 -2.68695,96.24104c0,1.37487 -13.43476,-0.34372 -12.09128,0z" opacity="NaN" stroke-width="13" fill="#482816"/>
  <path stroke="null" id="svg_36" d="m122.49999,462.89035c1,0 -2,121.2675 -1,121.2675c1,0 8,43.06197 9,11.36883c1,-31.69313 8,-140.21555 0,-135.16274c-8,5.05281 -9,2.52641 -8,2.52641z" opacity="NaN" stroke-width="13" fill="#482816"/>
  <path stroke="null" id="svg_3" d="m311.31243,13.74677c1.34347,1.12403 -209.33877,511.15517 -254.44292,544.86837c-45.10415,33.7132 249.0778,-374.0388 251.63426,-234.00774c2.55646,140.03106 1.46518,-311.98466 2.80866,-310.86063z" opacity="NaN" stroke-width="13" fill="#ffffff"/>
  <path stroke="null" id="svg_45" d="m542.49999,451.89035c1,0 -2,121.2675 -1,121.2675c1,0 8,43.06197 9,11.36883c1,-31.69314 8,-140.21555 0,-135.16274c-8,5.05281 -9,2.52641 -8,2.52641z" opacity="NaN" stroke-width="13" fill="#482816"/>
 </g>
</svg>