<svg width="500" height="500" xmlns="http://www.w3.org/2000/svg">
 <g id="Layer_1">
  <title>Layer 1</title>
  <g transform="rotate(6 250 238)" id="svg_2">
   <path transform="rotate(148 390.897 292.65)" fill="#A98E49" stroke-width="5" opacity="NaN" d="m415.89722,238.28183c0,0 11,22 11,23c0,1 -10,22 -10.99999,21.00001c0.99999,0.99999 -15.00001,-4.00001 -16,-5c0.99999,0.99999 -6.00001,-3.00001 -7,-4c0.99999,0.99999 -22.00001,18.99998 -22.00001,18.99998c0,0 3,15 3,16c0,1 6,20 5.00001,19.00002c0.99999,0.99998 -7.00001,15.99998 -9.00001,18.99998c-2,3 -12,-4 -15,-6" id="svg_11"/>
   <path transform="rotate(-27 382.897 389.65)" fill="#A98E49" stroke-width="5" opacity="NaN" d="m407.89722,335.28183c0,0 11,22 11,23c0,1 -10,22 -10.99999,21.00001c0.99999,0.99999 -15.00001,-4.00001 -16,-5c0.99999,0.99999 -6.00001,-3.00001 -7,-4c0.99999,0.99999 -22.00001,18.99998 -22.00001,18.99998c0,0 3,15 3,16c0,1 6,20 5.00001,19.00002c0.99999,0.99998 -7.00001,15.99998 -9.00001,18.99998c-2,3 -12,-4 -15,-6" id="svg_13"/>
   <path transform="rotate(-21 399.897 190.65)" fill="#A98E49" stroke-width="5" opacity="NaN" d="m424.89722,136.28183c0,0 11,22 11,23c0,1 -10,22 -10.99999,21.00001c0.99999,0.99999 -15.00001,-4.00001 -16,-5c0.99999,0.99999 -6.00001,-3.00001 -7,-4c0.99999,0.99999 -22.00001,18.99998 -22.00001,18.99998c0,0 3,15 3,16c0,1 6,20 5.00001,19.00002c0.99999,0.99998 -7.00001,15.99998 -9.00001,18.99998c-2,3 -12,-4 -15,-6" id="svg_10"/>
   <path transform="rotate(-12 426.897 81.6502)" fill="#A98E49" stroke-width="5" opacity="NaN" d="m451.89722,27.28183c0,0 11,22 11,23c0,1 -10,22 -10.99999,21.00001c0.99999,0.99999 -15.00001,-4.00001 -16,-5c0.99999,0.99999 -6.00001,-3.00001 -7,-4c0.99999,0.99999 -22.00001,18.99998 -22.00001,18.99998c0,0 3,15 3,16c0,1 6,20 5.00001,19.00002c0.99999,0.99998 -7.00001,15.99998 -9.00001,18.99998c-2,3 -12,-4 -15,-6" id="svg_16"/>
   <g id="svg_14">
    <g id="svg_24">
     <polyline fill="none" stroke="#000" points="241.87001037597656,184.1911163330078 242.21014404296875,184.1911163330078 242.21014404296875,184.53126525878906 " id="svg_17" stroke-linecap="round"/>
     <g transform="rotate(-1 250.377 258.017)" stroke-width="0" id="svg_20" stroke="null">
      <path fill="#A98E49" id="svg_18" d="m354.22268,166.61053c-1.15385,0 -3.46153,0 -3.46153,0c-1.15382,0 -1.49179,-0.28282 -2.30767,-0.96564c-0.81592,-0.68284 -2.52231,-0.66879 -4.61536,-1.9313c-1.32377,-0.79851 -2.30767,-0.96564 -2.30767,-0.96564c0,-0.96567 -1.15382,-0.96567 -2.30768,-0.96567c0,0 0,-0.96564 -1.15385,-0.96564c-1.15383,0 -1.15383,0 -1.15383,0c-1.15382,0 -1.49179,-0.28282 -2.30767,-0.96563c-0.81588,-0.68282 0,-0.96564 -1.15382,-0.96564c0,0 -1.4918,-0.28285 -2.30768,-0.96567c-0.81588,-0.68281 -1.15385,-0.96564 -1.15385,-0.96564c0,0 -0.08783,-0.59611 -1.15382,-0.96564c-1.50757,-0.5226 -2.30768,-0.96566 -2.30768,-0.96566c0,-0.96564 -1.15382,-0.96564 -1.15382,-0.96564c-1.15382,0 -2.30768,0 -2.30768,0c-1.15382,0 -3.59095,2.81808 -6.92306,6.75958c-4.80566,5.68453 -9.2307,11.58786 -12.69224,15.4505c-3.46153,3.86261 -5.73294,8.12317 -8.07688,11.58786c-3.21589,4.75352 -6.26333,8.13404 -11.53841,13.51916c-4.13813,4.22444 -9.55861,9.39695 -14.99995,14.48483c-4.92734,4.60729 -10.38459,8.69092 -16.1538,15.4505c-5.76921,6.75958 -11.25668,12.70601 -17.30762,20.27874c-5.51757,6.9052 -10.84798,12.91823 -16.1538,19.31314c-5.13994,6.19498 -11.01383,12.15248 -16.15377,18.34747c-5.30579,6.39488 -10.06735,12.03551 -14.99995,18.34747c-4.23656,5.42129 -7.78107,11.76075 -12.69226,17.38177c-4.3609,4.99121 -8.90084,8.8953 -11.53842,11.58786c-2.06906,2.1122 -4.8121,4.6725 -8.07688,7.72522c-4.92734,4.60726 -7.98173,8.74565 -10.38456,11.58786c-3.33215,3.94153 -6.60456,6.00902 -10.3846,9.65658c-4.27656,4.12672 -11.03523,9.04596 -14.99994,12.55352c-2.85896,2.52929 -4.61535,4.82825 -8.07688,7.72522c-3.4615,2.89695 -6.73581,7.56854 -10.3846,10.62222c-1.82437,1.52683 -3.46153,1.93131 -3.46153,1.93131c-2.30768,1.9313 -4.61535,3.86264 -6.92306,6.75958c-2.30768,2.89694 -5.56662,4.92282 -6.92303,6.75958c-3.03305,4.10719 -5.76921,5.79394 -8.07688,7.72522c-3.46153,2.897 -5.76921,4.82828 -9.23074,7.72528c-2.30768,1.9313 -4.61535,3.86258 -6.92306,5.79394c-2.30768,1.93131 -4.27552,3.23124 -6.92307,4.82825c-2.09308,1.26252 -1.95392,1.40873 -3.46153,1.93133c-1.06599,0.36956 -1.15385,0.96564 -3.46153,1.93131c-2.30767,0.96564 -2.30767,0.96564 -3.46153,0.96564c-1.15385,0 -1.24168,0.36952 -2.30768,0c-1.50756,-0.52261 -3.46153,-3.86264 -4.61535,-5.79395c-1.15385,-1.9313 -1.15385,-1.9313 -1.15385,-1.9313c0,-0.96564 0,-1.93131 0,-3.86264c0,-1.93131 0.13654,-3.40695 1.15385,-3.86258c3.66799,-1.64286 3.4615,-4.82828 5.76921,-6.75964c1.15382,-0.96564 2.42064,-1.76173 4.61535,-2.89694c4.90757,-2.53835 9.65501,-6.33853 13.84609,-9.65659c3.02223,-2.3927 5.09869,-4.26708 6.92306,-5.79388c1.82438,-1.52686 5.23258,-2.23142 6.92307,-3.86264c2.39068,-2.30694 2.70712,-3.5782 4.61535,-5.79394c1.50859,-1.75168 4.61539,-4.82828 6.92306,-7.72522c2.30771,-2.897 5.0148,-5.50953 6.92306,-7.72528c1.50859,-1.75168 5.0148,-5.5095 6.92307,-7.72522c3.01717,-3.50339 5.43937,-6.96396 8.07688,-9.65653c3.10361,-3.16835 7.5256,-5.19593 10.38459,-7.72527c3.96468,-3.50751 6.92307,-6.75958 11.53842,-10.62219c4.61538,-3.86264 7.36738,-7.11884 10.38459,-10.62222c1.90823,-2.21575 5.00475,-4.16199 6.92303,-6.75959c2.57363,-3.48504 5.98876,-5.67953 8.07688,-8.69091c1.29501,-1.86757 4.16611,-4.01643 5.76921,-6.75958c1.8278,-3.1277 3.46153,-4.82828 5.76921,-6.75959c2.30767,-1.9313 5.43934,-4.06704 8.07688,-6.75961c3.10358,-3.16829 5.43934,-6.96399 8.07688,-9.65655c3.10358,-3.16832 5.43934,-5.03269 8.07689,-7.72522c1.03455,-1.05609 2.70715,-2.61256 4.61538,-4.82828c1.50859,-1.75168 4.5203,-4.23619 5.76921,-6.75958c0.44158,-0.89213 0.79912,-3.07659 2.30768,-4.82827c1.90823,-2.21575 4.28552,-5.99836 6.92306,-8.69092c2.06903,-2.11224 4.61535,-4.82828 6.92306,-7.72525c2.30768,-2.89697 3.50807,-7.38468 6.92306,-10.62219c2.75322,-2.61017 5.0148,-4.54386 6.92303,-6.75958c1.50862,-1.75168 3.46153,-4.82828 5.76921,-7.72525c2.30768,-2.89697 4.29688,-6.97467 8.07688,-10.62219c2.1383,-2.06335 4.61535,-5.79394 6.92306,-7.72525c2.30768,-1.9313 3.81946,-5.52259 6.92307,-8.69091c2.63754,-2.69257 4.8349,-5.67951 6.92306,-8.69089c1.29501,-1.86757 2.30768,-3.86264 5.76921,-7.72525c3.46153,-3.86261 4.95804,-7.35234 8.07688,-9.65655c1.93422,-1.42903 2.54632,-2.71607 4.61539,-4.82828c2.6375,-2.69253 3.86094,-4.54383 5.7692,-6.75958c1.50859,-1.75168 1.32619,-3.35494 2.30768,-3.86261c2.19475,-1.13522 2.52234,-3.56573 4.61535,-4.82828c3.97129,-2.39551 6.92306,-6.75958 10.3846,-8.69091c3.46153,-1.93131 3.94483,-4.26709 5.7692,-5.79392c1.82438,-1.52683 3.4615,-2.89697 5.76921,-4.82828c2.30768,-1.9313 2.98359,-1.53131 4.61535,-2.89694c1.6318,-1.36566 2.30768,-3.86261 4.61539,-5.79394c2.30767,-1.93131 3.46153,-3.86264 4.61535,-5.79395c0,0 1.42456,-2.07831 2.30768,-3.86261c1.2489,-2.52338 4.61538,-3.86263 4.61538,-3.86263c0,0 1.15382,0 2.30768,0c2.30767,0 2.38387,-0.11814 4.61538,0.96566c3.59825,1.74757 6.92303,3.86261 11.53842,5.79395c2.30768,0.96563 4.69154,1.81314 6.92306,2.89694c3.59821,1.74756 7.18766,2.25189 11.53842,3.86264c3.80459,1.40855 5.85703,1.56175 6.92306,1.9313c1.50753,0.52261 2.30767,0.96567 4.61535,1.93131c0,0 1.24168,-0.36953 2.30768,0c1.50757,0.52261 2.30767,1.9313 3.46153,1.9313c1.15385,0 2.30767,0 2.30767,0.96564c0,0.96567 -0.71228,1.03917 -1.15382,1.93131c-0.62445,1.26169 -2.14993,1.10742 -4.61538,2.89697c-4.35836,3.1635 -7.9818,4.2362 -9.23071,6.75958c-0.44157,0.89214 0,0.96564 0,1.9313c0,0.96567 -0.79909,1.14527 -2.30767,2.89698c-1.90824,2.21572 -1.95397,4.30566 -3.46154,4.82827c-1.06599,0.36953 -0.71228,0.07351 -1.15382,0.96567c-1.2489,2.52338 -2.19959,2.99682 -3.46153,3.86261c-3.21728,2.20737 -5.13515,5.2633 -8.07688,7.72525c-2.94173,2.46192 -2.64562,3.17979 -3.46153,3.86261c-0.81588,0.68281 -0.71228,0.0735 -1.15382,0.96564c-0.62446,1.26169 -2.30768,0.96563 -2.30768,0.96563c-1.15382,0 -1.15382,0.96567 -2.30768,1.93131c0,0 0,0 -1.15382,0c-1.15382,0 -1.15382,-0.96564 -2.30767,-0.96564l-1.15386,0" stroke="#000"/>
      <path fill="#A98E49" id="svg_19" d="m237.68468,487.20813c0,0 0.00004,-1.93131 1.15386,-3.86258c1.15385,-1.93134 1.51235,-3.94015 2.30767,-6.75958c0.59277,-2.10154 3.79452,-4.70109 5.76921,-8.69092c2.79264,-5.64245 2.9648,-9.78496 4.61535,-13.51916c0.89513,-2.02514 1.51242,-4.90579 2.30768,-7.72522c1.18554,-4.20304 2.96483,-9.78502 4.61535,-13.51917c1.79032,-4.0503 3.46153,-7.72527 4.61535,-11.58786c1.15382,-3.86263 3.10524,-8.76027 4.61536,-13.51922c1.87305,-5.9027 3.28523,-9.69644 4.61538,-13.51916c1.02017,-2.93186 2.94071,-5.57173 4.61535,-9.65652c1.90942,-4.6574 2.0652,-8.76666 3.46154,-11.58786c0.98732,-1.9949 1.15382,-3.86264 2.30767,-5.79395c1.15386,-1.9313 2.88026,-3.77357 3.46153,-7.72522c0.56394,-3.8337 1.7775,-7.77694 2.30768,-9.65658c0.59277,-2.1015 1.72641,-4.73921 2.30767,-8.69088c0.70492,-4.79211 1.72319,-9.53931 2.30768,-12.55356c0.55447,-2.85955 0.5294,-4.53222 1.15386,-5.79391c1.76626,-3.5686 0.41453,-6.8095 1.15382,-10.62222c0.58446,-3.01423 2.30767,-4.82828 2.30767,-6.75959c0,-1.9313 1.72882,-5.73401 2.30768,-11.58785c0.57102,-5.77422 1.72322,-9.53928 2.30768,-12.55353c0.55447,-2.85955 0.7309,-4.84997 1.15382,-7.72522c0.58127,-3.95167 0.09342,-6.86295 1.15382,-10.62222c0.59277,-2.1015 1.72322,-3.74536 2.30767,-6.75958c0.55447,-2.85955 0.57259,-6.67055 1.15382,-10.62219c0.56394,-3.83371 0,-7.72525 0,-10.62222c0,-1.93131 1.15386,-3.86261 1.15386,-6.75958c0,-1.93131 0.56936,-4.71103 1.15382,-7.72525c0.36963,-1.90638 0.56936,-3.74536 1.15382,-6.75958c0.18481,-0.95318 0,-3.86261 0,-6.75959c0,-1.9313 0,-3.86261 0,-4.82827c0,-0.96567 0,-2.89697 0,-3.86264c0,-1.93131 1.15386,-2.89697 1.15386,-5.79394c0,-1.93131 0,-4.82828 0,-4.82828c0,-1.93131 0.56105,-3.69241 1.15382,-5.79394c0.53021,-1.87967 0,-2.89698 0,-3.86261c0,0 -0.26511,-0.99151 0,-1.93131c0.59277,-2.1015 -0.47794,-4.42829 1.15382,-5.79394c0.81588,-0.68282 1.15382,-0.96564 1.15382,-1.93131c0,-0.96566 0,-2.89697 0,-3.86264c0,-0.96564 0.5294,-2.60091 1.15386,-3.86261c0.44157,-0.89213 0,-1.9313 0,-1.9313c1.15382,-0.96567 1.15382,-1.93131 1.15382,-2.89697c0,-0.96567 -0.81588,-1.24852 0,-1.93131c0.81588,-0.68281 1.15382,-0.96564 1.15382,-0.96564c0,-0.96566 0,-1.9313 0,-1.9313c1.15385,-1.93131 1.15385,-3.86261 1.15385,-5.79395c0,-0.96563 0,-1.9313 0,-1.9313c0,-0.96567 0,-1.93131 0,-2.89697c0,-0.96564 0.52937,-0.66961 1.15382,-1.93131c0.44158,-0.89216 -0.53021,-2.94861 0,-4.82827c0.59277,-2.10151 1.15382,-1.93131 1.15382,-3.86264c0,-1.93131 -1.63179,-4.42829 0,-5.79392c0.81592,-0.68284 0.33795,-1.24849 1.15386,-1.9313c0.81588,-0.68282 1.15382,0 1.15382,-0.96564c0,-0.96567 0,-0.96567 0,-1.93131c0,-0.96566 1.71491,-2.72677 2.30768,-4.82827c0.53021,-1.87964 1.15382,-1.93131 1.15382,-1.93131c1.15382,0 1.15382,-0.96564 1.15382,-1.9313c0,-1.93131 2.30768,-5.79395 5.76921,-9.65656c3.46153,-3.86263 5.7692,-5.79391 6.92306,-7.72524c1.15385,-1.93131 1.95294,-4.04224 3.46153,-5.79395c0.95412,-1.10787 1.68322,-1.63528 2.30768,-2.89697c0.44157,-0.89216 0,-1.9313 2.30767,-3.86261c2.30768,-1.9313 3.80422,-5.42104 6.92306,-7.72525c1.93422,-1.42899 1.4918,-2.21415 2.30768,-2.89697c1.6318,-1.36566 4.61539,-1.9313 6.92306,-3.86264c2.30768,-1.9313 2.75407,-4.7487 5.76921,-5.79394c2.13202,-0.73909 7.02395,-1.73232 12.69224,-3.86261c2.35364,-0.88456 2.30767,-1.93131 2.30767,-1.93131c1.15382,0 2.30768,-0.96566 2.30768,-0.96566c1.15385,-0.96567 2.30767,-0.96567 2.30767,-0.96567c2.30768,0 1.49183,-1.24849 2.30768,-1.9313c1.63176,-1.36563 2.30768,-1.93131 3.46153,-1.93131c0,0 0,-0.96567 1.15382,-1.9313c1.15382,-0.96567 2.30768,-1.93131 2.30768,-1.93131c0,-0.96567 1.24168,-0.59611 2.30767,-0.96567c1.50754,-0.5226 1.49183,-2.21415 2.30768,-2.89697c0.81592,-0.68284 3.25894,0.87113 4.61535,-0.96566c0.60661,-0.82145 0,-0.96567 1.15382,-0.96567c1.15382,0 1.15382,-0.96567 3.46157,-1.93131c0,0 2.30768,0 2.30768,0c0,-0.96566 0.8001,-1.40869 2.30767,-1.9313c1.066,-0.36953 2.98363,0.39996 4.61539,-0.96567c0.81588,-0.68281 1.32947,-0.22658 3.46149,-0.96566c1.50757,-0.52261 3.46157,-1.93131 5.76921,-1.93131c1.15382,0 4.61539,-0.96567 9.23071,-1.9313c4.61538,-0.96567 8.25257,-1.19223 10.38459,-1.93131c1.50757,-0.52261 1.15382,-0.96567 2.30768,-0.96567c1.15382,0 3.90314,-0.89213 3.46156,0c-0.62445,1.26172 -2.30771,2.89698 -4.61539,4.82828c-2.30767,1.93131 -1.49179,2.21413 -2.30767,2.89697c-0.81592,0.68284 -2.30771,0.96567 -2.30771,0.96567c-2.30768,1.9313 -2.42061,4.65873 -4.61532,5.79394c-0.98153,0.50768 -1.75405,2.24386 -3.46156,3.86261c-2.75322,2.61018 -3.4615,3.86261 -5.76921,3.86261c0,0 -0.11293,0.79612 -2.30768,1.93131c-1.96302,1.01535 -3.94066,0.18226 -4.61532,0.96566c-2.13348,2.47728 -6.71969,1.43522 -9.23077,1.93131c-2.2459,0.44371 -2.64562,-0.68282 -3.4615,0c-0.81588,0.68281 -1.15382,0.96567 -1.15382,0.96567c0,0 -1.49183,0.28282 -2.30771,0.96566c-0.81588,0.68282 -0.9839,1.1328 -2.30767,1.93131c-2.09305,1.26254 -4.82999,1.6344 -6.92307,2.89697c-1.32377,0.7985 -1.18472,1.70946 -2.30767,1.9313c-2.51108,0.4961 -4.4128,1.06018 -5.76921,2.89698c-0.60661,0.82141 -0.9839,1.1328 -2.30768,1.9313c-2.09304,1.26254 -3.01995,1.03914 -3.46153,1.93131c-0.62445,1.26169 -2.30767,0.96563 -3.46153,1.9313c-1.15382,0.96564 -1.15382,0.96567 -3.46149,2.89697c0,0 0.35371,0.44306 -1.15386,0.96567c-1.06599,0.36953 -0.71228,0.0735 -1.15382,0.96564c-0.62445,1.26169 -2.30768,0.96566 -2.30768,1.9313c0,0 -1.09442,2.21975 -2.30767,3.86261c-1.35645,1.8368 -2.83708,1.63528 -3.46153,2.89697c-0.44158,0.89217 -1.15386,0.96567 -2.30768,2.89698c-1.15382,1.9313 -2.30768,1.9313 -3.46153,3.86261c0,0 -0.17233,1.42365 -1.15382,1.9313c-2.19472,1.13519 -2.64565,3.1798 -3.46153,3.86261c-0.81592,0.68282 0,1.93131 0,1.93131c0,0.96566 -1.15382,1.9313 -1.15382,1.9313c-1.15386,0.96564 -1.15386,1.93131 -1.15386,1.93131c0,0.96566 0,1.9313 0,1.9313c0,0.96567 0,1.93131 0,3.86264c0,0 0.33794,0.28282 1.15386,0.96564c0.81591,0.68281 -0.44158,1.03917 0,1.9313c0.62445,1.26167 1.15382,0.96564 1.15382,1.93131c0,0.96564 1.15382,0.96564 2.30767,1.9313c0,0 1.4918,-0.68281 2.30768,0c0.81591,0.68282 0,0.96567 1.15382,0.96567c1.15385,0 2.30768,0 3.46153,0c0,0 1.25288,0.55966 3.46153,0c3.98174,-1.00893 9.7062,-2.86659 13.84609,-4.82828c1.41998,-0.67285 3.10782,-2.37436 4.61535,-2.89697c2.13203,-0.73908 6.03385,-2.25192 10.3846,-3.86264c3.80463,-1.40855 6.92306,-3.86261 6.92306,-3.86261c1.15382,0 2.30768,-0.96564 4.61539,-1.9313c4.61532,-1.93131 8.07688,-4.82828 9.2307,-5.79392c1.15382,-0.96566 1.15382,-1.9313 2.30768,-2.89697c2.30771,-1.9313 2.69711,-4.16198 4.61538,-6.75958c0.85785,-1.16167 1.4918,-1.24849 2.30768,-1.93131c1.63176,-1.36565 1.15382,-3.86263 2.30768,-6.75958c1.15388,-2.89697 1.68325,-2.60094 2.30771,-3.86264c0.44154,-0.89213 -0.66873,-1.04851 0,-2.89697c1.20555,-3.33231 2.86872,-3.69241 3.46149,-5.79391c0.26508,-0.93983 0.33794,-1.24852 1.15382,-1.93131c1.63177,-1.36566 1.05881,-3.27053 2.30771,-5.79391c0.88312,-1.7843 0.62364,-3.91428 1.15383,-5.79395c0.59276,-2.1015 0.88874,-2.9228 1.15382,-3.86261c0.59277,-2.1015 2.30767,-3.86261 2.30767,-4.82827c0,-0.96567 0,-0.96567 0,-0.96567c1.15382,-1.9313 2.30771,-3.86261 2.30771,-5.79394c0,-0.96567 0,-1.93131 1.15382,-1.93131c1.15382,0 1.15382,-0.96566 1.15382,-0.96566c1.15383,0 2.30768,0 2.30768,0c2.30771,-0.96567 5.56662,-2.02585 6.92306,-3.86262c0.60661,-0.82144 1.15382,-0.96566 2.30768,-0.96566c0,0 0,0.96566 0,1.9313c0,0 0,1.93131 0,2.89698c0,2.89697 0,4.82827 0,5.79394c0,0.96567 -0.56105,2.72677 -1.15382,4.82828c-0.79529,2.81946 0,4.82827 0,6.75958c0,0.96566 0,0.96566 0,2.89697c0,1.9313 -0.5694,2.77969 -1.15382,5.79394c-0.36963,1.90638 0,2.89697 0,3.86261c0,1.93131 -0.52937,2.60095 -1.15382,3.86264c-0.88312,1.7843 -1.15383,2.89697 -1.15383,4.82828c0,1.9313 -1.10212,4.39291 -2.30767,7.72525c-1.67183,4.62111 -1.81101,8.81932 -3.46157,12.55352c-0.89512,2.02514 -1.15382,3.86264 -1.15382,3.86264c0,0 -0.33794,0.28282 -1.15382,0.96564c-0.81588,0.68281 -1.15382,1.9313 -1.15382,2.89697c0,1.9313 -1.95294,5.0079 -3.46156,6.75958c-0.95409,1.10785 -0.33795,2.21416 -1.15383,2.89694c-0.81588,0.68282 -0.48326,0.40448 -2.30767,1.93131c-1.82441,1.52686 -3.10782,3.34 -4.61539,3.86261c-1.06599,0.36956 -1.86613,1.03917 -2.30767,1.9313c-1.24891,2.52339 -3.90796,3.78306 -6.92307,4.82828c-2.13199,0.73908 -1.49179,0.28282 -2.30767,0.96564c-1.6318,1.36566 -3.25895,-0.87113 -4.61539,0.96567c-0.60661,0.82144 -3.24541,2.131 -5.76921,3.86261c-3.21728,2.20737 -6.7531,3.0641 -8.07688,3.86263c-2.09305,1.26255 -2.3955,0.59611 -3.4615,0.96564c-1.50757,0.52261 -2.39557,0.59611 -3.46156,0.96567c-1.50754,0.52261 -2.75407,1.85175 -5.76921,2.89697c-1.06603,0.36956 -3.46153,0.96564 -3.46153,0.96564c-1.15386,0 -2.30768,0 -2.30768,0.96567c0,0 -1.24168,-0.36956 -2.30767,0c-1.50754,0.5226 -3.46153,0.96566 -4.61535,1.9313c0,0 -1.7754,0.58561 -4.61536,1.93131c-4.13988,1.96168 -6.92306,1.9313 -8.07688,1.9313c-1.15386,0 -1.15386,0 -2.30768,0.96564c-1.15382,0.96567 -1.49179,0.28282 -2.30767,0.96567c-0.81592,0.68281 -1.15382,1.9313 -1.15382,1.9313c-2.30768,1.93131 -3.79947,2.21416 -4.61536,2.89697c-0.81588,0.68282 0,0.96564 0,0.96564c-1.15382,0.96567 -2.89963,2.50493 -4.61535,4.82828c-1.91827,2.59759 -4.61538,4.82827 -4.61538,6.75958c0,0 0,1.9313 0,2.89697c0,0.96564 -0.52937,2.60095 -1.15383,3.86261c-1.32469,2.67644 -1.15382,4.82828 -1.15382,6.75961c0,0.96564 0,1.93131 0,1.93131c0,0.96563 0.44158,2.00483 0,2.89697c-0.62445,1.26166 -1.7149,2.72677 -2.30767,4.82828c-0.79529,2.81946 -0.56105,3.69241 -1.15382,5.79391c-0.53022,1.87966 -1.4498,3.6666 -2.30768,4.82828c-1.91827,2.59759 -0.62367,4.87994 -1.15382,6.75958c-0.59277,2.10153 -1.4918,3.17979 -2.30768,3.86261c-1.63179,1.36566 -0.56105,3.69244 -1.15382,5.79394c-0.79529,2.81947 -0.62364,5.84559 -1.15382,7.72525c-0.59277,2.10151 -1.71491,2.72677 -2.30768,4.82828c-0.2651,0.93983 0.53022,2.94861 0,4.82827c-0.59276,2.10154 -1.72321,3.74536 -2.30767,6.75959c-0.18481,0.95317 -0.16649,2.83337 -1.15382,4.82827c-1.3963,2.82123 -1.56836,6.80947 -2.30768,10.62219c-0.58446,3.01423 -0.27074,5.94095 -1.15385,7.72525c-0.62446,1.26167 -1.71488,2.72677 -2.30768,4.82828c-0.53022,1.87966 -1.15385,4.82828 -1.15385,6.75958c0,1.93131 0.53021,2.94861 0,4.82828c-0.59277,2.10153 -1.15383,5.79394 -1.15383,7.72522c0,1.9313 -1.15382,1.9313 -1.15382,3.86264c0,1.9313 -0.5294,1.63528 -1.15385,2.89697c-1.32469,2.67643 0.79529,3.94011 0,6.75958c-0.59277,2.1015 -1.15382,3.86261 -1.15382,5.79394c0,0.96564 0,1.93131 0,3.86261c0,1.93131 -0.35853,4.90576 -1.15382,7.72522c-0.59277,2.10154 -1.75321,3.90006 -2.30768,6.75961c-0.58446,3.01423 -1.72641,6.67055 -2.30768,10.62219c-0.70491,4.79211 -1.7264,7.63616 -2.30767,11.58786c-0.28194,1.91683 0.00003,3.86258 -1.15382,6.75959c-1.15382,2.89694 -2.276,6.41918 -3.46153,10.62222c-1.32548,4.6991 -3.40984,8.25552 -4.61539,11.58785c-1.33745,3.69684 -1.81098,7.85369 -3.46153,11.58783c-0.89516,2.02517 -0.7842,4.85324 -1.15382,6.75959c-0.58446,3.01425 -3.28524,5.83383 -4.61536,9.65658c-1.02016,2.93189 -2.30767,6.75958 -3.46153,9.65658c-1.15382,2.89694 -0.48509,6.84245 -1.15382,8.69089c-1.20555,3.3323 -3.46156,5.79394 -4.61538,8.69088c-1.15386,2.897 -2.47417,6.69605 -3.46153,8.69092c-1.39634,2.82117 -1.15383,3.86258 -2.30768,5.79394c-1.15382,1.93131 -1.35359,3.72038 -2.30768,4.82828c-1.50855,1.75168 -1.15382,2.89694 -2.30767,4.82825c-1.15386,1.93133 -1.3536,1.78912 -2.30768,2.897c-1.50859,1.75168 -0.2707,3.04397 -1.15382,4.82827c-1.24891,2.52336 -2.42064,4.6587 -4.61539,5.79389c-0.98152,0.50767 -0.79909,2.11096 -2.30767,3.86264c-1.90824,2.21575 -4.28552,4.06702 -6.92306,6.75958c-1.03452,1.05609 -2.30768,2.897 -2.30768,2.897c-1.15382,0.96564 -1.15382,1.9313 -1.15382,1.9313c-1.15382,0.96564 -1.15386,1.93131 -2.30768,2.89695c-1.15385,0.96569 -0.79909,1.14529 -2.30767,2.897c-0.95415,1.10787 -1.26679,2.72742 -3.46154,3.86264c-0.98152,0.50767 -1.15385,0.96564 -2.30767,0.96564c0,0 -1.4918,0.68281 -2.30768,0c-0.81588,-0.68282 -1.15385,-0.96564 -2.30767,-0.96564c0,0 0,-0.9657 0,-1.93134c0,0 0,-0.96563 0,-1.9313c0,-0.96564 0,-1.93131 0,-1.93131c0,-0.96569 0,-1.93133 0,-1.93133c0,-0.96564 0,-1.93131 -1.15382,-1.93131l0,-1.9313l0,-0.96564" stroke="#000"/>
     </g>
     <g transform="rotate(-1 246.377 250.017)" stroke-width="0" id="svg_23" stroke="null">
      <path fill="#FFFA8D" id="svg_21" d="m350.22268,158.61053c-1.15385,0 -3.46153,0 -3.46153,0c-1.15382,0 -1.49179,-0.28282 -2.30767,-0.96564c-0.81592,-0.68284 -2.52231,-0.66879 -4.61536,-1.9313c-1.32377,-0.79851 -2.30767,-0.96564 -2.30767,-0.96564c0,-0.96567 -1.15382,-0.96567 -2.30768,-0.96567c0,0 0,-0.96564 -1.15385,-0.96564c-1.15383,0 -1.15383,0 -1.15383,0c-1.15382,0 -1.49179,-0.28282 -2.30767,-0.96563c-0.81588,-0.68282 0,-0.96564 -1.15382,-0.96564c0,0 -1.4918,-0.28285 -2.30768,-0.96567c-0.81588,-0.68281 -1.15385,-0.96564 -1.15385,-0.96564c0,0 -0.08783,-0.59611 -1.15382,-0.96564c-1.50757,-0.5226 -2.30768,-0.96566 -2.30768,-0.96566c0,-0.96564 -1.15382,-0.96564 -1.15382,-0.96564c-1.15382,0 -2.30768,0 -2.30768,0c-1.15382,0 -3.59095,2.81808 -6.92306,6.75958c-4.80566,5.68453 -9.2307,11.58786 -12.69224,15.4505c-3.46153,3.86261 -5.73294,8.12317 -8.07688,11.58786c-3.21589,4.75352 -6.26333,8.13404 -11.53841,13.51916c-4.13813,4.22444 -9.55861,9.39695 -14.99995,14.48483c-4.92734,4.60729 -10.38459,8.69092 -16.1538,15.4505c-5.76921,6.75958 -11.25668,12.70601 -17.30762,20.27874c-5.51757,6.9052 -10.84798,12.91823 -16.1538,19.31314c-5.13994,6.19498 -11.01383,12.15248 -16.15377,18.34747c-5.30579,6.39488 -10.06735,12.03551 -14.99995,18.34747c-4.23656,5.42129 -7.78107,11.76075 -12.69226,17.38177c-4.3609,4.99121 -8.90084,8.8953 -11.53842,11.58786c-2.06906,2.1122 -4.8121,4.6725 -8.07688,7.72522c-4.92734,4.60726 -7.98173,8.74565 -10.38456,11.58786c-3.33215,3.94153 -6.60456,6.00902 -10.3846,9.65658c-4.27656,4.12672 -11.03523,9.04596 -14.99994,12.55352c-2.85896,2.52929 -4.61535,4.82825 -8.07688,7.72522c-3.4615,2.89695 -6.73581,7.56854 -10.3846,10.62222c-1.82437,1.52683 -3.46153,1.93131 -3.46153,1.93131c-2.30768,1.9313 -4.61535,3.86264 -6.92306,6.75958c-2.30768,2.89694 -5.56662,4.92282 -6.92303,6.75958c-3.03305,4.10719 -5.76921,5.79394 -8.07688,7.72522c-3.46153,2.897 -5.76921,4.82828 -9.23074,7.72528c-2.30768,1.9313 -4.61535,3.86258 -6.92306,5.79394c-2.30768,1.93131 -4.27552,3.23124 -6.92307,4.82825c-2.09308,1.26252 -1.95392,1.40873 -3.46153,1.93133c-1.06599,0.36956 -1.15385,0.96564 -3.46153,1.93131c-2.30767,0.96564 -2.30767,0.96564 -3.46153,0.96564c-1.15385,0 -1.24168,0.36952 -2.30768,0c-1.50756,-0.52261 -3.46153,-3.86264 -4.61535,-5.79395c-1.15385,-1.9313 -1.15385,-1.9313 -1.15385,-1.9313c0,-0.96564 0,-1.93131 0,-3.86264c0,-1.93131 0.13654,-3.40695 1.15385,-3.86258c3.66799,-1.64286 3.4615,-4.82828 5.76921,-6.75964c1.15382,-0.96564 2.42064,-1.76173 4.61535,-2.89694c4.90757,-2.53835 9.65501,-6.33853 13.84609,-9.65659c3.02223,-2.3927 5.09869,-4.26708 6.92306,-5.79388c1.82438,-1.52686 5.23258,-2.23142 6.92307,-3.86264c2.39068,-2.30694 2.70712,-3.5782 4.61535,-5.79394c1.50859,-1.75168 4.61539,-4.82828 6.92306,-7.72522c2.30771,-2.897 5.0148,-5.50953 6.92306,-7.72528c1.50859,-1.75168 5.0148,-5.5095 6.92307,-7.72522c3.01717,-3.50339 5.43937,-6.96396 8.07688,-9.65653c3.10361,-3.16835 7.5256,-5.19593 10.38459,-7.72527c3.96468,-3.50751 6.92307,-6.75958 11.53842,-10.62219c4.61538,-3.86264 7.36738,-7.11884 10.38459,-10.62222c1.90823,-2.21575 5.00475,-4.16199 6.92303,-6.75959c2.57363,-3.48504 5.98876,-5.67953 8.07688,-8.69091c1.29501,-1.86757 4.16611,-4.01643 5.76921,-6.75958c1.8278,-3.1277 3.46153,-4.82828 5.76921,-6.75959c2.30767,-1.9313 5.43934,-4.06704 8.07688,-6.75961c3.10358,-3.16829 5.43934,-6.96399 8.07688,-9.65655c3.10358,-3.16832 5.43934,-5.03269 8.07689,-7.72522c1.03455,-1.05609 2.70715,-2.61256 4.61538,-4.82828c1.50859,-1.75168 4.5203,-4.23619 5.76921,-6.75958c0.44158,-0.89213 0.79912,-3.07659 2.30768,-4.82827c1.90823,-2.21575 4.28552,-5.99836 6.92306,-8.69092c2.06903,-2.11224 4.61535,-4.82828 6.92306,-7.72525c2.30768,-2.89697 3.50807,-7.38468 6.92306,-10.62219c2.75322,-2.61017 5.0148,-4.54386 6.92303,-6.75958c1.50862,-1.75168 3.46153,-4.82828 5.76921,-7.72525c2.30768,-2.89697 4.29688,-6.97467 8.07688,-10.62219c2.1383,-2.06335 4.61535,-5.79394 6.92306,-7.72525c2.30768,-1.9313 3.81946,-5.52259 6.92307,-8.69091c2.63754,-2.69257 4.8349,-5.67951 6.92306,-8.69089c1.29501,-1.86757 2.30768,-3.86264 5.76921,-7.72525c3.46153,-3.86261 4.95804,-7.35234 8.07688,-9.65655c1.93422,-1.42903 2.54632,-2.71607 4.61539,-4.82828c2.6375,-2.69253 3.86094,-4.54383 5.7692,-6.75958c1.50859,-1.75168 1.32619,-3.35494 2.30768,-3.86261c2.19475,-1.13522 2.52234,-3.56573 4.61535,-4.82828c3.97129,-2.39551 6.92306,-6.75958 10.3846,-8.69091c3.46153,-1.93131 3.94483,-4.26709 5.7692,-5.79392c1.82438,-1.52683 3.4615,-2.89697 5.76921,-4.82828c2.30768,-1.9313 2.98359,-1.53131 4.61535,-2.89694c1.6318,-1.36566 2.30768,-3.86261 4.61539,-5.79394c2.30767,-1.93131 3.46153,-3.86264 4.61535,-5.79395c0,0 1.42456,-2.07831 2.30768,-3.86261c1.2489,-2.52338 4.61538,-3.86263 4.61538,-3.86263c0,0 1.15382,0 2.30768,0c2.30767,0 2.38387,-0.11814 4.61538,0.96566c3.59825,1.74757 6.92303,3.86261 11.53842,5.79395c2.30768,0.96563 4.69154,1.81314 6.92306,2.89694c3.59821,1.74756 7.18766,2.25189 11.53842,3.86264c3.80459,1.40855 5.85703,1.56175 6.92306,1.9313c1.50753,0.52261 2.30767,0.96567 4.61535,1.93131c0,0 1.24168,-0.36953 2.30768,0c1.50757,0.52261 2.30767,1.9313 3.46153,1.9313c1.15385,0 2.30767,0 2.30767,0.96564c0,0.96567 -0.71228,1.03917 -1.15382,1.93131c-0.62445,1.26169 -2.14993,1.10742 -4.61538,2.89697c-4.35836,3.1635 -7.9818,4.2362 -9.23071,6.75958c-0.44157,0.89214 0,0.96564 0,1.9313c0,0.96567 -0.79909,1.14527 -2.30767,2.89698c-1.90824,2.21572 -1.95397,4.30566 -3.46154,4.82827c-1.06599,0.36953 -0.71228,0.07351 -1.15382,0.96567c-1.2489,2.52338 -2.19959,2.99682 -3.46153,3.86261c-3.21728,2.20737 -5.13515,5.2633 -8.07688,7.72525c-2.94173,2.46192 -2.64562,3.17979 -3.46153,3.86261c-0.81588,0.68281 -0.71228,0.0735 -1.15382,0.96564c-0.62446,1.26169 -2.30768,0.96563 -2.30768,0.96563c-1.15382,0 -1.15382,0.96567 -2.30768,1.93131c0,0 0,0 -1.15382,0c-1.15382,0 -1.15382,-0.96564 -2.30767,-0.96564l-1.15386,0" stroke="#000"/>
      <path fill="#FFFA8D" id="svg_22" d="m233.68468,479.20813c0,0 0.00004,-1.93131 1.15386,-3.86258c1.15385,-1.93134 1.51235,-3.94015 2.30767,-6.75958c0.59277,-2.10154 3.79452,-4.70109 5.76921,-8.69092c2.79264,-5.64245 2.9648,-9.78496 4.61535,-13.51916c0.89513,-2.02514 1.51242,-4.90579 2.30768,-7.72522c1.18554,-4.20304 2.96483,-9.78502 4.61535,-13.51917c1.79032,-4.0503 3.46153,-7.72527 4.61535,-11.58786c1.15382,-3.86263 3.10524,-8.76027 4.61536,-13.51922c1.87305,-5.9027 3.28523,-9.69644 4.61538,-13.51916c1.02017,-2.93186 2.94071,-5.57173 4.61535,-9.65652c1.90942,-4.6574 2.0652,-8.76666 3.46154,-11.58786c0.98732,-1.9949 1.15382,-3.86264 2.30767,-5.79395c1.15386,-1.9313 2.88026,-3.77357 3.46153,-7.72522c0.56394,-3.8337 1.7775,-7.77694 2.30768,-9.65658c0.59277,-2.1015 1.72641,-4.73921 2.30767,-8.69088c0.70492,-4.79211 1.72319,-9.53931 2.30768,-12.55356c0.55447,-2.85955 0.5294,-4.53222 1.15386,-5.79391c1.76626,-3.5686 0.41453,-6.8095 1.15382,-10.62222c0.58446,-3.01423 2.30767,-4.82828 2.30767,-6.75959c0,-1.9313 1.72882,-5.73401 2.30768,-11.58785c0.57102,-5.77422 1.72322,-9.53928 2.30768,-12.55353c0.55447,-2.85955 0.7309,-4.84997 1.15382,-7.72522c0.58127,-3.95167 0.09342,-6.86295 1.15382,-10.62222c0.59277,-2.1015 1.72322,-3.74536 2.30767,-6.75958c0.55447,-2.85955 0.57259,-6.67055 1.15382,-10.62219c0.56394,-3.83371 0,-7.72525 0,-10.62222c0,-1.93131 1.15386,-3.86261 1.15386,-6.75958c0,-1.93131 0.56936,-4.71103 1.15382,-7.72525c0.36963,-1.90638 0.56936,-3.74536 1.15382,-6.75958c0.18481,-0.95318 0,-3.86261 0,-6.75959c0,-1.9313 0,-3.86261 0,-4.82827c0,-0.96567 0,-2.89697 0,-3.86264c0,-1.93131 1.15386,-2.89697 1.15386,-5.79394c0,-1.93131 0,-4.82828 0,-4.82828c0,-1.93131 0.56105,-3.69241 1.15382,-5.79394c0.53021,-1.87967 0,-2.89698 0,-3.86261c0,0 -0.26511,-0.99151 0,-1.93131c0.59277,-2.1015 -0.47794,-4.42829 1.15382,-5.79394c0.81588,-0.68282 1.15382,-0.96564 1.15382,-1.93131c0,-0.96566 0,-2.89697 0,-3.86264c0,-0.96564 0.5294,-2.60091 1.15386,-3.86261c0.44157,-0.89213 0,-1.9313 0,-1.9313c1.15382,-0.96567 1.15382,-1.93131 1.15382,-2.89697c0,-0.96567 -0.81588,-1.24852 0,-1.93131c0.81588,-0.68281 1.15382,-0.96564 1.15382,-0.96564c0,-0.96566 0,-1.9313 0,-1.9313c1.15385,-1.93131 1.15385,-3.86261 1.15385,-5.79395c0,-0.96563 0,-1.9313 0,-1.9313c0,-0.96567 0,-1.93131 0,-2.89697c0,-0.96564 0.52937,-0.66961 1.15382,-1.93131c0.44158,-0.89216 -0.53021,-2.94861 0,-4.82827c0.59277,-2.10151 1.15382,-1.93131 1.15382,-3.86264c0,-1.93131 -1.63179,-4.42829 0,-5.79392c0.81592,-0.68284 0.33795,-1.24849 1.15386,-1.9313c0.81588,-0.68282 1.15382,0 1.15382,-0.96564c0,-0.96567 0,-0.96567 0,-1.93131c0,-0.96566 1.71491,-2.72677 2.30768,-4.82827c0.53021,-1.87964 1.15382,-1.93131 1.15382,-1.93131c1.15382,0 1.15382,-0.96564 1.15382,-1.9313c0,-1.93131 2.30768,-5.79395 5.76921,-9.65656c3.46153,-3.86263 5.7692,-5.79391 6.92306,-7.72524c1.15385,-1.93131 1.95294,-4.04224 3.46153,-5.79395c0.95412,-1.10787 1.68322,-1.63528 2.30768,-2.89697c0.44157,-0.89216 0,-1.9313 2.30767,-3.86261c2.30768,-1.9313 3.80422,-5.42104 6.92306,-7.72525c1.93422,-1.42899 1.4918,-2.21415 2.30768,-2.89697c1.6318,-1.36566 4.61539,-1.9313 6.92306,-3.86264c2.30768,-1.9313 2.75407,-4.7487 5.76921,-5.79394c2.13202,-0.73909 7.02395,-1.73232 12.69224,-3.86261c2.35364,-0.88456 2.30767,-1.93131 2.30767,-1.93131c1.15382,0 2.30768,-0.96566 2.30768,-0.96566c1.15385,-0.96567 2.30767,-0.96567 2.30767,-0.96567c2.30768,0 1.49183,-1.24849 2.30768,-1.9313c1.63176,-1.36563 2.30768,-1.93131 3.46153,-1.93131c0,0 0,-0.96567 1.15382,-1.9313c1.15382,-0.96567 2.30768,-1.93131 2.30768,-1.93131c0,-0.96567 1.24168,-0.59611 2.30767,-0.96567c1.50754,-0.5226 1.49183,-2.21415 2.30768,-2.89697c0.81592,-0.68284 3.25894,0.87113 4.61535,-0.96566c0.60661,-0.82145 0,-0.96567 1.15382,-0.96567c1.15382,0 1.15382,-0.96567 3.46157,-1.93131c0,0 2.30768,0 2.30768,0c0,-0.96566 0.8001,-1.40869 2.30767,-1.9313c1.066,-0.36953 2.98363,0.39996 4.61539,-0.96567c0.81588,-0.68281 1.32947,-0.22658 3.46149,-0.96566c1.50757,-0.52261 3.46157,-1.93131 5.76921,-1.93131c1.15382,0 4.61539,-0.96567 9.23071,-1.9313c4.61538,-0.96567 8.25257,-1.19223 10.38459,-1.93131c1.50757,-0.52261 1.15382,-0.96567 2.30768,-0.96567c1.15382,0 3.90314,-0.89213 3.46156,0c-0.62445,1.26172 -2.30771,2.89698 -4.61539,4.82828c-2.30767,1.93131 -1.49179,2.21413 -2.30767,2.89697c-0.81592,0.68284 -2.30771,0.96567 -2.30771,0.96567c-2.30768,1.9313 -2.42061,4.65873 -4.61532,5.79394c-0.98153,0.50768 -1.75405,2.24386 -3.46156,3.86261c-2.75322,2.61018 -3.4615,3.86261 -5.76921,3.86261c0,0 -0.11293,0.79612 -2.30768,1.93131c-1.96302,1.01535 -3.94066,0.18226 -4.61532,0.96566c-2.13348,2.47728 -6.71969,1.43522 -9.23077,1.93131c-2.2459,0.44371 -2.64562,-0.68282 -3.4615,0c-0.81588,0.68281 -1.15382,0.96567 -1.15382,0.96567c0,0 -1.49183,0.28282 -2.30771,0.96566c-0.81588,0.68282 -0.9839,1.1328 -2.30767,1.93131c-2.09305,1.26254 -4.82999,1.6344 -6.92307,2.89697c-1.32377,0.7985 -1.18472,1.70946 -2.30767,1.9313c-2.51108,0.4961 -4.4128,1.06018 -5.76921,2.89698c-0.60661,0.82141 -0.9839,1.1328 -2.30768,1.9313c-2.09304,1.26254 -3.01995,1.03914 -3.46153,1.93131c-0.62445,1.26169 -2.30767,0.96563 -3.46153,1.9313c-1.15382,0.96564 -1.15382,0.96567 -3.46149,2.89697c0,0 0.35371,0.44306 -1.15386,0.96567c-1.06599,0.36953 -0.71228,0.0735 -1.15382,0.96564c-0.62445,1.26169 -2.30768,0.96566 -2.30768,1.9313c0,0 -1.09442,2.21975 -2.30767,3.86261c-1.35645,1.8368 -2.83708,1.63528 -3.46153,2.89697c-0.44158,0.89217 -1.15386,0.96567 -2.30768,2.89698c-1.15382,1.9313 -2.30768,1.9313 -3.46153,3.86261c0,0 -0.17233,1.42365 -1.15382,1.9313c-2.19472,1.13519 -2.64565,3.1798 -3.46153,3.86261c-0.81592,0.68282 0,1.93131 0,1.93131c0,0.96566 -1.15382,1.9313 -1.15382,1.9313c-1.15386,0.96564 -1.15386,1.93131 -1.15386,1.93131c0,0.96566 0,1.9313 0,1.9313c0,0.96567 0,1.93131 0,3.86264c0,0 0.33794,0.28282 1.15386,0.96564c0.81591,0.68281 -0.44158,1.03917 0,1.9313c0.62445,1.26167 1.15382,0.96564 1.15382,1.93131c0,0.96564 1.15382,0.96564 2.30767,1.9313c0,0 1.4918,-0.68281 2.30768,0c0.81591,0.68282 0,0.96567 1.15382,0.96567c1.15385,0 2.30768,0 3.46153,0c0,0 1.25288,0.55966 3.46153,0c3.98174,-1.00893 9.7062,-2.86659 13.84609,-4.82828c1.41998,-0.67285 3.10782,-2.37436 4.61535,-2.89697c2.13203,-0.73908 6.03385,-2.25192 10.3846,-3.86264c3.80463,-1.40855 6.92306,-3.86261 6.92306,-3.86261c1.15382,0 2.30768,-0.96564 4.61539,-1.9313c4.61532,-1.93131 8.07688,-4.82828 9.2307,-5.79392c1.15382,-0.96566 1.15382,-1.9313 2.30768,-2.89697c2.30771,-1.9313 2.69711,-4.16198 4.61538,-6.75958c0.85785,-1.16167 1.4918,-1.24849 2.30768,-1.93131c1.63176,-1.36565 1.15382,-3.86263 2.30768,-6.75958c1.15388,-2.89697 1.68325,-2.60094 2.30771,-3.86264c0.44154,-0.89213 -0.66873,-1.04851 0,-2.89697c1.20555,-3.33231 2.86872,-3.69241 3.46149,-5.79391c0.26508,-0.93983 0.33794,-1.24852 1.15382,-1.93131c1.63177,-1.36566 1.05881,-3.27053 2.30771,-5.79391c0.88312,-1.7843 0.62364,-3.91428 1.15383,-5.79395c0.59276,-2.1015 0.88874,-2.9228 1.15382,-3.86261c0.59277,-2.1015 2.30767,-3.86261 2.30767,-4.82827c0,-0.96567 0,-0.96567 0,-0.96567c1.15382,-1.9313 2.30771,-3.86261 2.30771,-5.79394c0,-0.96567 0,-1.93131 1.15382,-1.93131c1.15382,0 1.15382,-0.96566 1.15382,-0.96566c1.15383,0 2.30768,0 2.30768,0c2.30771,-0.96567 5.56662,-2.02585 6.92306,-3.86262c0.60661,-0.82144 1.15382,-0.96566 2.30768,-0.96566c0,0 0,0.96566 0,1.9313c0,0 0,1.93131 0,2.89698c0,2.89697 0,4.82827 0,5.79394c0,0.96567 -0.56105,2.72677 -1.15382,4.82828c-0.79529,2.81946 0,4.82827 0,6.75958c0,0.96566 0,0.96566 0,2.89697c0,1.9313 -0.5694,2.77969 -1.15382,5.79394c-0.36963,1.90638 0,2.89697 0,3.86261c0,1.93131 -0.52937,2.60095 -1.15382,3.86264c-0.88312,1.7843 -1.15383,2.89697 -1.15383,4.82828c0,1.9313 -1.10212,4.39291 -2.30767,7.72525c-1.67183,4.62111 -1.81101,8.81932 -3.46157,12.55352c-0.89512,2.02514 -1.15382,3.86264 -1.15382,3.86264c0,0 -0.33794,0.28282 -1.15382,0.96564c-0.81588,0.68281 -1.15382,1.9313 -1.15382,2.89697c0,1.9313 -1.95294,5.0079 -3.46156,6.75958c-0.95409,1.10785 -0.33795,2.21416 -1.15383,2.89694c-0.81588,0.68282 -0.48326,0.40448 -2.30767,1.93131c-1.82441,1.52686 -3.10782,3.34 -4.61539,3.86261c-1.06599,0.36956 -1.86613,1.03917 -2.30767,1.9313c-1.24891,2.52339 -3.90796,3.78306 -6.92307,4.82828c-2.13199,0.73908 -1.49179,0.28282 -2.30767,0.96564c-1.6318,1.36566 -3.25895,-0.87113 -4.61539,0.96567c-0.60661,0.82144 -3.24541,2.131 -5.76921,3.86261c-3.21728,2.20737 -6.7531,3.0641 -8.07688,3.86263c-2.09305,1.26255 -2.3955,0.59611 -3.4615,0.96564c-1.50757,0.52261 -2.39557,0.59611 -3.46156,0.96567c-1.50754,0.52261 -2.75407,1.85175 -5.76921,2.89697c-1.06603,0.36956 -3.46153,0.96564 -3.46153,0.96564c-1.15386,0 -2.30768,0 -2.30768,0.96567c0,0 -1.24168,-0.36956 -2.30767,0c-1.50754,0.5226 -3.46153,0.96566 -4.61535,1.9313c0,0 -1.7754,0.58561 -4.61536,1.93131c-4.13988,1.96168 -6.92306,1.9313 -8.07688,1.9313c-1.15386,0 -1.15386,0 -2.30768,0.96564c-1.15382,0.96567 -1.49179,0.28282 -2.30767,0.96567c-0.81592,0.68281 -1.15382,1.9313 -1.15382,1.9313c-2.30768,1.93131 -3.79947,2.21416 -4.61536,2.89697c-0.81588,0.68282 0,0.96564 0,0.96564c-1.15382,0.96567 -2.89963,2.50493 -4.61535,4.82828c-1.91827,2.59759 -4.61538,4.82827 -4.61538,6.75958c0,0 0,1.9313 0,2.89697c0,0.96564 -0.52937,2.60095 -1.15383,3.86261c-1.32469,2.67644 -1.15382,4.82828 -1.15382,6.75961c0,0.96564 0,1.93131 0,1.93131c0,0.96563 0.44158,2.00483 0,2.89697c-0.62445,1.26166 -1.7149,2.72677 -2.30767,4.82828c-0.79529,2.81946 -0.56105,3.69241 -1.15382,5.79391c-0.53022,1.87966 -1.4498,3.6666 -2.30768,4.82828c-1.91827,2.59759 -0.62367,4.87994 -1.15382,6.75958c-0.59277,2.10153 -1.4918,3.17979 -2.30768,3.86261c-1.63179,1.36566 -0.56105,3.69244 -1.15382,5.79394c-0.79529,2.81947 -0.62364,5.84559 -1.15382,7.72525c-0.59277,2.10151 -1.71491,2.72677 -2.30768,4.82828c-0.2651,0.93983 0.53022,2.94861 0,4.82827c-0.59276,2.10154 -1.72321,3.74536 -2.30767,6.75959c-0.18481,0.95317 -0.16649,2.83337 -1.15382,4.82827c-1.3963,2.82123 -1.56836,6.80947 -2.30768,10.62219c-0.58446,3.01423 -0.27074,5.94095 -1.15385,7.72525c-0.62446,1.26167 -1.71488,2.72677 -2.30768,4.82828c-0.53022,1.87966 -1.15385,4.82828 -1.15385,6.75958c0,1.93131 0.53021,2.94861 0,4.82828c-0.59277,2.10153 -1.15383,5.79394 -1.15383,7.72522c0,1.9313 -1.15382,1.9313 -1.15382,3.86264c0,1.9313 -0.5294,1.63528 -1.15385,2.89697c-1.32469,2.67643 0.79529,3.94011 0,6.75958c-0.59277,2.1015 -1.15382,3.86261 -1.15382,5.79394c0,0.96564 0,1.93131 0,3.86261c0,1.93131 -0.35853,4.90576 -1.15382,7.72522c-0.59277,2.10154 -1.75321,3.90006 -2.30768,6.75961c-0.58446,3.01423 -1.72641,6.67055 -2.30768,10.62219c-0.70491,4.79211 -1.7264,7.63616 -2.30767,11.58786c-0.28194,1.91683 0.00003,3.86258 -1.15382,6.75959c-1.15382,2.89694 -2.276,6.41918 -3.46153,10.62222c-1.32548,4.6991 -3.40984,8.25552 -4.61539,11.58785c-1.33745,3.69684 -1.81098,7.85369 -3.46153,11.58783c-0.89516,2.02517 -0.7842,4.85324 -1.15382,6.75959c-0.58446,3.01425 -3.28524,5.83383 -4.61536,9.65658c-1.02016,2.93189 -2.30767,6.75958 -3.46153,9.65658c-1.15382,2.89694 -0.48509,6.84245 -1.15382,8.69089c-1.20555,3.3323 -3.46156,5.79394 -4.61538,8.69088c-1.15386,2.897 -2.47417,6.69605 -3.46153,8.69092c-1.39634,2.82117 -1.15383,3.86258 -2.30768,5.79394c-1.15382,1.93131 -1.35359,3.72038 -2.30768,4.82828c-1.50855,1.75168 -1.15382,2.89694 -2.30767,4.82825c-1.15386,1.93133 -1.3536,1.78912 -2.30768,2.897c-1.50859,1.75168 -0.2707,3.04397 -1.15382,4.82827c-1.24891,2.52336 -2.42064,4.6587 -4.61539,5.79389c-0.98152,0.50767 -0.79909,2.11096 -2.30767,3.86264c-1.90824,2.21575 -4.28552,4.06702 -6.92306,6.75958c-1.03452,1.05609 -2.30768,2.897 -2.30768,2.897c-1.15382,0.96564 -1.15382,1.9313 -1.15382,1.9313c-1.15382,0.96564 -1.15386,1.93131 -2.30768,2.89695c-1.15385,0.96569 -0.79909,1.14529 -2.30767,2.897c-0.95415,1.10787 -1.26679,2.72742 -3.46154,3.86264c-0.98152,0.50767 -1.15385,0.96564 -2.30767,0.96564c0,0 -1.4918,0.68281 -2.30768,0c-0.81588,-0.68282 -1.15385,-0.96564 -2.30767,-0.96564c0,0 0,-0.9657 0,-1.93134c0,0 0,-0.96563 0,-1.9313c0,-0.96564 0,-1.93131 0,-1.93131c0,-0.96569 0,-1.93133 0,-1.93133c0,-0.96564 0,-1.93131 -1.15382,-1.93131l0,-1.9313l0,-0.96564" stroke="#000"/>
     </g>
    </g>
    <path fill="#A98E49" stroke-width="5" opacity="NaN" d="m357.89721,95.28183c0,0 -2.99996,6.00002 -0.99998,16.00001c1.99998,9.99999 -9.00002,30.99999 -9.00002,30.99999c0,0 -14,4 -14,4c0,0 -26,2 -26.99998,1.00001c0.99998,0.99999 3.99998,13.99999 3,13c0.99998,0.99999 20.99998,11.99999 54,-16" id="svg_25"/>
    <path fill="#A98E49" stroke-width="5" opacity="NaN" d="m331.89721,109.28183c0,0 -13,4 -13.99998,3.00001c0.99998,0.99999 -6.00002,13.99999 -7,13c0.99998,0.99999 -4.00002,10.99999 -3.00002,10.99999c1,0 14,3 13.00002,2.00001c0.99998,0.99999 11.99998,-6.00001 12.99998,-6.00001c1,0 8,-15 7.00002,-15.99999c0.99998,0.99999 -9.00002,-7.00001 -9.00002,-7.00001z" id="svg_26"/>
   </g>
   <path transform="rotate(148 389.897 261.65)" fill="#A98E49" stroke-width="5" opacity="NaN" d="m414.89722,207.28183c0,0 11,22 11,23c0,1 -10,22 -10.99999,21.00001c0.99999,0.99999 -15.00001,-4.00001 -16,-5c0.99999,0.99999 -6.00001,-3.00001 -7,-4c0.99999,0.99999 -22.00001,18.99998 -22.00001,18.99998c0,0 3,15 3,16c0,1 6,20 5.00001,19.00002c0.99999,0.99998 -7.00001,15.99998 -9.00001,18.99998c-2,3 -12,-4 -15,-6" id="svg_12"/>
   <path transform="rotate(40 388.897 50.6502)" fill="#A98E49" stroke-width="5" opacity="NaN" d="m413.89722,-3.71817c0,0 11,22 11,23c0,1 -10,22 -10.99999,21.00001c0.99999,0.99999 -15.00001,-4.00001 -16,-5c0.99999,0.99999 -6.00001,-3.00001 -7,-4c0.99999,0.99999 -22.00001,18.99998 -22.00001,18.99998c0,0 3,15 3,16c0,1 6,20 5.00001,19.00002c0.99999,0.99998 -7.00001,15.99998 -9.00001,18.99998c-2,3 -12,-4 -15,-6" id="svg_29"/>
   <path transform="rotate(148 382.897 279.65)" fill="#d1b879" stroke-width="5" opacity="NaN" d="m407.89722,225.28183c0,0 11,22 11,23c0,1 -10,22 -10.99999,21.00001c0.99999,0.99999 -15.00001,-4.00001 -16,-5c0.99999,0.99999 -6.00001,-3.00001 -7,-4c0.99999,0.99999 -22.00001,18.99998 -22.00001,18.99998c0,0 3,15 3,16c0,1 6,20 5.00001,19.00002c0.99999,0.99998 -7.00001,15.99998 -9.00001,18.99998c-2,3 -12,-4 -15,-6" id="svg_30"/>
   <path transform="rotate(157 389.897 193.65)" fill="#d1b879" stroke-width="5" opacity="NaN" d="m414.89722,139.28183c0,0 11,22 11,23c0,1 -10,22 -10.99999,21.00001c0.99999,0.99999 -15.00001,-4.00001 -16,-5c0.99999,0.99999 -6.00001,-3.00001 -7,-4c0.99999,0.99999 -22.00001,18.99998 -22.00001,18.99998c0,0 3,15 3,16c0,1 6,20 5.00001,19.00002c0.99999,0.99998 -7.00001,15.99998 -9.00001,18.99998c-2,3 -12,-4 -15,-6" id="svg_31"/>
   <path transform="rotate(40 387.897 46.6502)" fill="#dbbd72" stroke-width="5" opacity="NaN" d="m412.89722,-7.71817c0,0 11,22 11,23c0,1 -10,22 -10.99999,21.00001c0.99999,0.99999 -15.00001,-4.00001 -16,-5c0.99999,0.99999 -6.00001,-3.00001 -7,-4c0.99999,0.99999 -22.00001,18.99998 -22.00001,18.99998c0,0 3,15 3,16c0,1 6,20 5.00001,19.00002c0.99999,0.99998 -7.00001,15.99998 -9.00001,18.99998c-2,3 -12,-4 -15,-6" id="svg_32"/>
   <path fill="#845335" stroke-width="5" opacity="NaN" d="m258.33409,173.28183l15.56245,33.00001c1.03748,0.99999 -40.46235,38.99999 -40.46235,38.99999c0,0 -23.8624,32 -23.8624,33c0,1 -11.41245,23 -17.63743,29c-6.22497,6 -17.63743,15 -22.82491,19c-5.18748,4 -14.52494,13 -18.67492,23c-4.14998,10 -26.97489,18 -28.01237,17.00002c1.03748,0.99998 -13.48746,-14.00002 -14.52494,-15c1.03749,0.99998 10.37495,-8.00002 9.33746,-9c1.03748,0.99998 22.82489,-22.00002 24.89989,-23.00002c2.07499,-1 20.74991,-27 22.82491,-29c2.07499,-2 17.63743,-22 20.74991,-24c3.11249,-2 14.52494,-13 17.63743,-17c3.11249,-4 17.63743,-25 16.59995,-25.99999c1.03748,0.99999 8.29995,-18.00001 10.37494,-18.00001c2.07499,0 17.63743,-16 16.59995,-16.99999c1.03748,0.99999 -73.66221,120.99998 11.41244,-15.00001l-0.00001,0z" id="svg_33" stroke="null"/>
   <path fill="#845335" stroke-width="5" opacity="NaN" d="m262.89722,401.28182c0,-1 29.2,3 28.07694,2.00002c1.12306,0.99998 14.59998,-20.00002 16.84614,-29.00002c2.24615,-9 11.23077,-50 10.10771,-50.99998c1.12306,0.99998 5.61537,-30.00002 4.49231,-31c1.12306,0.99998 3.36921,-26.00002 4.49229,-30.00002c1.12308,-4 8.98462,-26 8.98462,-26c0,0 0,-8 -1.12306,-8.99999c1.12306,0.99999 -13.47694,-9.00001 -14.6,-10c1.12306,0.99999 -14.60002,4.99999 -14.60002,4.99999c0,0 -7.86154,44 -6.73846,44c1.12308,0 -1.12308,36 -1.12308,38c0,2 -23.58461,54 -22.46154,56c1.12308,2 -7.86154,28 -8.98462,30c-1.12308,2 -3.36923,12 -3.36923,11z" id="svg_34" stroke="null"/>
   <path fill="#ba7e5b" stroke-width="5" opacity="NaN" d="m259.89722,390.39796c0,-0.94628 27.19999,2.83885 26.15385,1.89259c1.04614,0.94626 13.59999,-18.92569 15.69229,-27.44224c2.0923,-8.51655 10.46154,-47.31417 9.4154,-48.26043c1.04614,0.94626 5.23076,-28.38852 4.18462,-29.33478c1.04614,0.94626 3.13844,-24.60339 4.1846,-28.38852c1.04615,-3.78513 8.36923,-24.60336 8.36923,-24.60336c0,0 0,-7.57027 -1.04614,-8.51654c1.04614,0.94627 -12.55386,-8.51656 -13.6,-9.46283c1.04614,0.94627 -13.60001,4.73141 -13.60001,4.73141c0,0 -7.32308,41.63646 -6.27692,41.63646c1.04615,0 -1.04616,34.0662 -1.04616,35.95877c0,1.89257 -21.96923,51.0993 -20.92308,52.99187c1.04616,1.89257 -7.32308,26.49593 -8.36923,28.3885c-1.04616,1.89257 -3.13846,11.3554 -3.13846,10.40912l0.00001,-0.00002z" id="svg_35" stroke="null"/>
   <path transform="rotate(6 191.406 260.824)" fill="#ba7e5b" stroke-width="5" opacity="NaN" d="m249.49275,164.28183l13.40645,33.00001c0.89375,0.99999 -34.85675,38.99999 -34.85675,38.99999c0,0 -20.55653,31.99999 -20.55653,32.99999c0,1 -9.83138,23 -15.19396,29c-5.36257,6 -15.19395,15 -19.66277,19c-4.46881,4 -12.51267,13 -16.08772,23c-3.57506,10 -23.23782,18 -24.13158,17.00002c0.89376,0.99998 -11.61892,-14.00002 -12.51267,-15c0.89376,0.99998 8.93762,-8.00002 8.04386,-9c0.89376,0.99998 19.66277,-22.00002 21.45029,-23.00002c1.78752,-1 17.87524,-27 19.66277,-29c1.78752,-2 15.19395,-22 17.87524,-24c2.68129,-2 12.51267,-12.99999 15.19396,-16.99999c2.68128,-4 15.19395,-25 14.3002,-25.99999c0.89375,0.99999 7.15009,-18.00001 8.93761,-18.00001c1.78753,0 15.19396,-16 14.30021,-16.99999c0.89375,0.99999 -63.45714,120.99998 9.83137,-15.00001l0.00002,0z" id="svg_37" stroke="null"/>
  </g>
 </g>

</svg>