<svg width="200" height="200" xmlns="http://www.w3.org/2000/svg">
 <g id="Layer_1">
  <title>Layer 1</title>
  <g stroke="null" id="svg_21">
   <path stroke="#000000" d="m40.57372,91.00161c0.252,0 0.72614,-0.27327 1.512,-0.68876c0.97474,-0.51534 2.51065,-1.1881 4.788,-1.60709c2.7617,-0.50809 5.29201,-0.91834 7.56001,-1.37751c2.268,-0.45917 4.78602,-0.94117 7.812,-1.14792c3.77778,-0.25812 7.05931,-0.20127 9.576,-0.45917c2.01896,-0.20689 3.78,-0.22958 6.3,-0.22958c3.276,0 5.99515,0.22734 7.81201,0.45916c0.74869,0.09553 1.26974,-0.12738 2.268,0c1.81686,0.23182 3.5093,0.80298 4.788,0.91834c0.50155,0.04524 0.45958,0.11164 1.008,0.22959c0.24526,0.05275 0.252,0.22959 0.504,0.22959c0,0 0.04362,0.19577 0.25199,0.45917c0.32947,0.41647 1.17923,1.27903 1.764,2.29584c0.73969,1.28617 1.56133,2.50057 2.52,4.13252c1.06354,1.81049 1.87986,3.63715 2.52,5.51002c0.61782,1.80758 0.97448,3.68125 1.512,5.51002c0.47454,1.61451 1.2567,3.15841 1.512,4.59168c0.20183,1.1331 0.12729,2.53012 0.252,3.90293c0.12643,1.39175 0.252,2.52543 0.252,3.67334c0,1.14792 0,2.06626 0,3.21418c0,1.14792 0,2.52542 0,3.90293c0,1.60709 -0.504,2.75501 -0.504,3.90293c0,1.14792 -0.37738,2.04923 -0.504,3.21418c-0.09932,0.91387 -0.21451,2.09696 -0.504,3.21417c-0.25893,0.99928 -0.39551,1.63763 -0.756,2.52543c-0.1955,0.48147 -0.57126,1.6174 -0.756,2.98459c-0.12695,0.9395 -0.88157,2.05201 -1.008,3.44376c-0.06235,0.6864 -0.39551,1.40804 -0.756,2.29584c-0.1955,0.48147 -0.252,0.91833 -0.252,1.3775c0,0.45917 -0.1941,0.92449 -0.252,1.14792c-0.12946,0.49963 -0.252,0.68875 -0.252,0.68875c0,0.22959 0,0.91834 0,1.37751c0,0.45916 -0.17101,1.17708 -0.504,1.83667c-0.614,1.21622 -1.48224,2.08297 -2.268,3.21417c-0.48587,0.69947 -1.23941,1.63284 -2.268,2.29584c-1.48346,0.9562 -2.96648,2.15472 -5.04,3.21418c-1.96589,1.00447 -3.78,1.83667 -5.796,2.52542c-2.01601,0.68875 -3.92146,1.81312 -5.29201,2.29584c-1.19851,0.42213 -2.51349,0.72069 -3.78,0.91834c-1.75633,0.27408 -3.7613,0.57339 -5.04,0.68875c-1.25387,0.11312 -2.772,0 -4.536,-0.22959c-1.764,-0.22958 -4.01857,-0.34408 -5.796,-0.45916c-1.00547,-0.0651 -2.27555,-0.11739 -3.276,-0.22959c-1.03124,-0.11566 -2.03577,-0.41092 -2.772,-0.68875c-0.5206,-0.19645 -1.008,-0.22958 -1.008,-0.45917c0,-0.22958 0,-0.22958 -0.252,-0.22958c0,0 -0.20479,-0.50664 -0.756,-0.91834c-0.70266,-0.5248 -1.43995,-0.96693 -2.016,-1.60709c-0.67782,-0.75327 -1.94786,-1.88921 -3.024,-2.98459c-1.42607,-1.45157 -2.61358,-2.69685 -3.276,-3.67334c-0.88873,-1.31008 -1.764,-2.75501 -2.772,-4.59168c-1.008,-1.83667 -2.016,-3.90293 -2.772,-5.28043c-0.756,-1.3775 -1.33272,-2.49519 -1.764,-3.44376c-0.60991,-1.34149 -0.72862,-3.03473 -1.26,-4.82126c-0.50195,-1.68761 -1.5087,-3.15842 -1.764,-4.59168c-0.20183,-1.1331 -0.504,-2.98459 -0.756,-5.05085c-0.252,-2.06626 -0.85655,-3.64995 -1.26,-5.28043c-0.33709,-1.36231 -0.504,-2.75501 -0.504,-4.13251c0,-1.60709 -0.12576,-3.20346 -0.252,-5.05085c-0.09395,-1.37484 -0.12557,-2.74077 -0.252,-4.13252c-0.12471,-1.37281 0.504,-2.98459 0.756,-4.59168c0.252,-1.60709 0.33899,-3.02523 0.756,-4.13252c0.36575,-0.97116 1.09914,-2.13637 1.764,-3.21418c0.61731,-1.00072 0.84324,-1.30988 1.26,-1.83667c0.32948,-0.41647 1.18248,-1.24226 2.016,-2.29584c0.65896,-0.83293 0.61352,-1.87134 1.26,-2.29584c0.20443,-0.13424 0.252,0 0.504,-0.45916c0.252,-0.45917 0.52867,-1.10762 1.008,-1.37751c0.21436,-0.1207 0.17474,-0.33492 0.504,-0.45917c0.23282,-0.08786 0.252,0 0.504,0c0.252,0 0.77518,0.14173 1.008,0.22959c0.32926,0.12425 0.504,0.22959 0.756,0.22959l0.252,0l0.252,0" id="svg_14" fill="#000000"/>
   <path stroke="#ffffff" d="m164.80978,154.59641c0,0 -0.36762,0.1592 -0.504,0.45917c-0.09644,0.21211 -0.25201,0.45916 -0.504,0.91833c-0.25199,0.45917 -0.80812,0.87533 -1.26,1.3775c-0.57606,0.64017 -0.756,1.14792 -1.512,1.60709c-0.75601,0.45917 -1.51201,1.14792 -2.016,1.60709c-0.504,0.45917 -0.756,0.45917 -1.26,0.91834c-0.504,0.45917 -1.60576,0.77716 -2.52,1.3775c-0.57823,0.37969 -1.06581,0.76497 -2.01601,1.14792c-0.83092,0.33488 -1.55036,0.51302 -2.016,0.68875c-0.32926,0.12425 -0.77622,0.30094 -1.512,0.45917c-0.54841,0.11794 -1.26,0.45917 -2.016,0.45917c-0.25201,0 -0.9774,0.34288 -1.764,0.45917c-1.24374,0.18388 -2.26801,0 -3.276,0c-1.00801,0 -2.016,0 -3.276,0c-1.26,0 -2.52,0.22958 -3.52801,0.22958c-0.756,0 -1.512,0 -2.26799,0c-1.00801,0 -2.01601,0.22958 -3.024,0.22958c-0.756,0 -1.00801,0 -1.512,0c-0.75601,0 -1.51201,0 -2.01601,0c-1.00799,0 -1.512,0 -2.26799,0c-1.00801,0 -2.03577,0.04824 -2.772,-0.22958c-0.5206,-0.19645 -0.85349,-0.44025 -1.512,-0.68875c-0.69845,-0.26357 -1.42317,-0.68245 -2.52,-0.91834c-0.49051,-0.10549 -1.008,-0.45917 -1.764,-0.68875c-0.756,-0.22958 -1.10549,-0.89942 -1.764,-1.14792c-0.46563,-0.17572 -0.756,-0.22958 -1.26,-0.68875c-0.252,-0.22959 -0.67874,-0.5645 -1.008,-0.68875c-0.46564,-0.17572 -0.79436,-0.28345 -1.26,-0.45917c-0.6585,-0.2485 -0.76274,-0.636 -1.008,-0.68875c-0.54842,-0.11795 -0.504,-0.22959 -1.008,-0.45917c-0.504,-0.22959 -1.008,-0.45917 -1.512,-0.68875c0,0 -0.252,0 -0.252,0c-0.252,-0.22959 -0.17475,-0.33492 -0.504,-0.45917c-0.23282,-0.08786 -0.252,-0.22959 -0.252,-0.45917c0,0 -0.04688,-0.38858 -0.504,-0.68875c-0.28911,-0.18985 -0.47316,-0.7039 -0.756,-1.14792c-0.45605,-0.71595 -0.80811,-1.33449 -1.26,-1.83667c-0.57604,-0.64015 -0.80394,-1.80947 -1.26,-2.52543c-0.56566,-0.88803 -0.89952,-1.63762 -1.26,-2.52542c-0.391,-0.96296 -1.008,-2.06625 -1.512,-3.44376c-0.504,-1.3775 -0.9698,-2.99495 -1.512,-4.59168c-0.47103,-1.38715 -1.12531,-2.48825 -1.512,-3.67334c-0.36614,-1.12212 -0.504,-2.52542 -1.008,-4.13251c-0.504,-1.60709 -1.008,-3.44376 -1.512,-5.28043c-0.504,-1.83667 -0.66545,-3.9169 -1.008,-5.51003c-0.39947,-1.85789 -1.008,-4.13251 -1.512,-6.19877c-0.504,-2.06626 -0.99416,-4.36339 -1.26,-6.65794c-0.23954,-2.06749 -0.37768,-3.66111 -0.504,-5.28043c-0.08932,-1.14503 -0.02435,-2.07014 0.25199,-3.44376c0.23165,-1.15147 0.50401,-2.75501 0.756,-3.67334c0.252,-0.91834 0.30849,-1.3552 0.504,-1.83668c0.36049,-0.8878 0.46551,-1.61657 0.756,-2.52542c0.2228,-0.69706 0.37453,-1.10745 0.504,-1.60709c0.0579,-0.22345 0.37454,-0.64828 0.504,-1.14792c0.17369,-0.67032 -0.09644,-0.70623 0,-0.91834c0.13638,-0.29997 0.39551,-0.71928 0.756,-1.60709c0.1955,-0.48147 0.252,-0.68875 0.252,-0.68875c0.252,-0.22959 0.57801,-0.10866 2.016,-0.91834c1.07182,-0.6035 2.79403,-1.10061 4.032,-1.60709c1.02807,-0.4206 2.28018,-0.29995 3.528,-0.45916c1.81686,-0.23182 3.55002,-0.55061 5.796,-0.91834c2.04528,-0.33488 4.27458,-0.80341 6.80401,-0.91834c2.76855,-0.1258 5.544,0 7.56,0c2.268,0 4.284,0 6.804,0c2.52,0 4.536,0.45917 6.3,0.45917c1.00801,0 2.016,0.22959 3.78,0.22959c2.26801,0 3.75677,0.11393 4.78801,0.22959c0.75033,0.08415 1.51625,-0.02218 3.02399,0.22958c1.26391,0.21104 1.97159,0.57081 2.52,0.68876c0.49052,0.10549 0.98351,0.51064 1.51201,0.68875c0.97447,0.32842 1.83781,0.52641 2.016,0.68875c0.17819,0.16234 0.71175,0.02248 1.00799,0.45917c0.13248,0.1953 0.25201,0.45917 0.504,0.45917c0,0 -0.17819,0.06724 0,0.22958c0.17819,0.16235 0.504,0 0.504,0c0.504,0 1.00801,0 1.00801,0c0.25199,0 0.50399,0 0.50399,0.22959c0,0.22959 0.30946,0.52279 0.75601,1.37751c0.54151,1.0365 1.36908,1.79131 2.016,3.21418c0.60992,1.34149 1.14941,2.78727 1.76399,4.3621c0.64291,1.64744 1.70847,3.46995 2.77201,5.28043c0.95867,1.63195 1.80443,3.20575 2.016,4.13251c0.31212,1.36725 0.77635,2.52188 1.00801,3.67335c0.27635,1.37362 0.756,2.75501 0.756,4.3621c0,1.37751 0.25199,2.52543 0.25199,4.3621c0,1.14792 0,2.52543 0,3.67335c0,0.91834 0.07781,2.31233 -0.25199,3.44376c-0.40908,1.40337 -0.504,2.75501 -0.756,4.13251c-0.25201,1.3775 -0.75601,2.52542 -1.00801,3.90293c-0.25199,1.3775 -0.62938,2.27881 -0.756,3.44376c-0.12415,1.14234 -0.25201,1.83667 -0.504,2.755c-0.25199,0.91834 -0.52805,1.83147 -0.756,2.75501c-0.28191,1.14213 -0.62132,2.25867 -1.00801,3.44376c-0.36614,1.12212 -0.56538,2.08283 -0.756,2.98459c-0.25663,1.21404 -0.5332,1.82837 -0.756,2.52542c-0.2905,0.90885 -0.17128,1.38344 -0.25201,1.83668c-0.12765,0.71662 -0.62653,1.33704 -0.756,1.83667c-0.1737,0.67032 -0.25199,1.14792 -0.25199,1.60709c0,0.22958 0,0.45916 0,0.68875c0,0.22958 0,0.91833 0,1.14792l0,0.45916" id="svg_15" fill="#000000"/>
   <path stroke="#ffffff" d="m67.53773,23.73346c0.252,0 0.72615,-0.27327 1.512,-0.68876c0.97474,-0.51534 2.51065,-1.1881 4.788,-1.60708c2.7617,-0.5081 5.292,-0.91834 7.56001,-1.37751c2.268,-0.45917 4.78602,-0.94117 7.812,-1.14792c3.77778,-0.25812 7.05932,-0.20128 9.576,-0.45918c2.01896,-0.20689 3.78,-0.22958 6.3,-0.22958c3.276,0 5.99515,0.22735 7.81201,0.45917c0.74869,0.09553 1.26975,-0.12738 2.268,0c1.81685,0.23183 3.50929,0.80299 4.788,0.91834c0.50154,0.04524 0.45958,0.11164 1.008,0.22959c0.24526,0.05274 0.252,0.22958 0.504,0.22958c0,0 0.04362,0.19578 0.252,0.45918c0.32947,0.41646 1.17923,1.27903 1.764,2.29583c0.73969,1.28617 1.56133,2.50057 2.52,4.13252c1.06355,1.81049 1.87987,3.63715 2.52001,5.51002c0.61783,1.80759 0.97447,3.68125 1.51199,5.51002c0.47455,1.61451 1.25671,3.15841 1.51201,4.59168c0.20183,1.1331 0.12729,2.53012 0.252,3.90293c0.12644,1.39175 0.252,2.52543 0.252,3.67334c0,1.14792 0,2.06626 0,3.21418c0,1.14792 0,2.52542 0,3.90293c0,1.60709 -0.504,2.75501 -0.504,3.90292c0,1.14792 -0.37739,2.04923 -0.504,3.21418c-0.09932,0.91387 -0.21452,2.09696 -0.504,3.21417c-0.25893,0.99927 -0.39551,1.63764 -0.756,2.52544c-0.19549,0.48147 -0.57125,1.6174 -0.756,2.98459c-0.12694,0.9395 -0.88156,2.05201 -1.008,3.44376c-0.06235,0.68641 -0.3955,1.40804 -0.756,2.29585c-0.1955,0.48147 -0.252,0.91833 -0.252,1.3775c0,0.45918 -0.19411,0.92449 -0.252,1.14792c-0.12946,0.49963 -0.252,0.68875 -0.252,0.68875c0,0.2296 0,0.91834 0,1.37751c0,0.45916 -0.17101,1.17709 -0.504,1.83667c-0.614,1.21622 -1.48223,2.08297 -2.26799,3.21417c-0.48587,0.69948 -1.23941,1.63284 -2.268,2.29584c-1.48345,0.9562 -2.96648,2.15472 -5.04001,3.21418c-1.96589,1.00447 -3.78,1.83667 -5.796,2.52543c-2.016,0.68875 -3.92146,1.81311 -5.292,2.29584c-1.19851,0.42213 -2.5135,0.7207 -3.78,0.91834c-1.75633,0.27408 -3.7613,0.57338 -5.04001,0.68875c-1.25387,0.11312 -2.77199,0 -4.536,-0.22959c-1.76399,-0.22958 -4.01858,-0.34408 -5.796,-0.45916c-1.00547,-0.0651 -2.27555,-0.11739 -3.276,-0.2296c-1.03123,-0.11565 -2.03577,-0.41092 -2.772,-0.68875c-0.52059,-0.19645 -1.008,-0.22958 -1.008,-0.45917c0,-0.22958 0,-0.22958 -0.252,-0.22958c0,0 -0.20479,-0.50665 -0.756,-0.91834c-0.70266,-0.5248 -1.43995,-0.96692 -2.016,-1.60709c-0.67782,-0.75327 -1.94786,-1.88921 -3.024,-2.98459c-1.42608,-1.45157 -2.61358,-2.69685 -3.276,-3.67334c-0.88873,-1.31008 -1.764,-2.75501 -2.772,-4.59168c-1.008,-1.83667 -2.016,-3.90294 -2.772,-5.28043c-0.756,-1.3775 -1.33273,-2.49519 -1.764,-3.44376c-0.60991,-1.34149 -0.72862,-3.03474 -1.25999,-4.82127c-0.50195,-1.6876 -1.50871,-3.15842 -1.764,-4.59169c-0.20183,-1.1331 -0.504,-2.98459 -0.756,-5.05085c-0.252,-2.06625 -0.85656,-3.64994 -1.26,-5.28043c-0.33709,-1.36231 -0.504,-2.75501 -0.504,-4.13251c0,-1.60709 -0.12576,-3.20346 -0.252,-5.05085c-0.09395,-1.37485 -0.12557,-2.74077 -0.252,-4.13252c-0.12471,-1.37281 0.504,-2.98459 0.756,-4.59168c0.252,-1.60709 0.33899,-3.02523 0.756,-4.13252c0.36575,-0.97116 1.09914,-2.13637 1.764,-3.21418c0.6173,-1.00072 0.84324,-1.30988 1.25999,-1.83667c0.32948,-0.41646 1.18248,-1.24226 2.016,-2.29584c0.65896,-0.83293 0.61352,-1.87134 1.26,-2.29584c0.20443,-0.13424 0.252,0 0.504,-0.45917c0.252,-0.45917 0.52867,-1.10762 1.008,-1.3775c0.21437,-0.1207 0.17475,-0.33492 0.504,-0.45918c0.23282,-0.08786 0.252,0 0.504,0c0.252,0 0.77518,0.14173 1.008,0.22959c0.32926,0.12425 0.50401,0.22959 0.756,0.22959l0.252,0l0.252,0" id="svg_20" fill="#000000"/>
  </g>
 </g>

</svg>