<svg width="400.00000000000006" height="200.00000000000003" xmlns="http://www.w3.org/2000/svg">
 <g id="Layer_1">
  <title>Layer 1</title>
  <path fill="#000000" opacity="NaN" d="m2.78998,4.743c-3.13877,3.33442 0.52566,33.2236 -0.13901,38.78954c-0.66468,5.56594 -0.23244,34.73543 0.0152,42.97567c0.24763,8.24024 -1.43797,50.35944 -0.91231,57.45818c0.52566,7.09875 -1.34455,51.44946 2.22646,53.62141c3.57101,2.17195 65.09976,0.48138 82.09256,0.14489c16.99281,-0.33649 58.63537,0.33649 77.80905,0.07245c19.17367,-0.26405 66.21187,0.958 101.00341,0.3832c34.79154,-0.5748 74.54646,-0.5748 84.58185,-0.5748c10.03539,0 34.49835,2.91263 42.47667,0.17874c7.97832,-2.73389 0.66466,-7.34993 4.31389,-27.85403c3.64923,-20.5041 0.63428,-23.53587 0.51046,-38.21474c-0.12382,-14.67887 1.54659,-35.28926 0,-46.29722c-1.54659,-11.00796 0.0152,-41.18693 -0.51046,-52.18202c-0.52566,-10.9951 4.43776,-28.88446 -0.26281,-30.71992c-4.70057,-1.83546 -62.42361,-1.04331 -82.75724,-0.85172c-20.33363,0.1916 -75.69122,-0.20447 -114.03857,0.58767c-38.34735,0.79214 -65.90343,-0.79213 -84.84468,0c-18.94125,0.79213 -68.62293,-0.20447 -87.84444,-0.39607c-19.22151,-0.1916 -20.58126,-0.45565 -23.72003,2.87877z" id="svg_3" fill-opacity="0.1" stroke="null" transform="rotate(-180 199.778 100.15)"/>
  <g id="svg_13">
   <ellipse fill="#396849" stroke="null" cx="360.05066" cy="161.08414" id="svg_2" rx="31.66023" ry="32.23938"/>
   <g id="svg_1" stroke="null">
    <g id="svg_11" stroke="null">
     <title stroke="null" id="svg_5">Layer 1</title>
     <path d="m352.66684,148.7614c0.1769,-0.02309 0.26256,0.2425 0.57545,0.48564c0.81593,0.63405 1.62237,2.01282 2.8048,3.74608c1.04391,1.53019 1.95031,2.57933 2.59806,3.39924c0.55544,0.70306 1.24812,1.28168 2.16967,2.52057c1.10294,1.48276 2.41617,3.22677 3.38026,4.23173c0.79039,0.8239 1.40846,1.46009 1.94801,1.98876c0.63587,0.62305 1.75619,1.82688 2.7302,2.82126c0.97401,0.99439 1.77506,1.60248 2.12491,1.96568c0.44597,0.46297 0.97401,0.99439 1.54946,1.48002c0.95908,0.80941 1.91817,1.61883 2.31672,2.12756c0.39855,0.50873 0.85803,0.67744 1.51962,1.11009c1.15541,0.7556 1.98521,1.93405 3.08399,2.7751c0.79584,0.60916 1.35961,1.11347 1.53454,1.29506c0.44597,0.46299 0.99436,0.75323 1.71143,1.27198c1.01409,0.73364 2.08015,1.41078 2.46378,1.73456c0.38363,0.32376 0.66186,0.55857 1.1509,0.97129c0.48905,0.41273 1.28331,0.49593 1.51962,1.1101c0.06555,0.17034 0.23416,0.1184 0.38363,0.32376c0.33423,0.45919 0.55788,0.90133 1.00385,1.36432c0.17492,0.18159 0.20673,0.34684 0.02984,0.36993c-0.1769,0.02308 -0.51577,0.25422 -0.85464,0.48534c-0.33887,0.23114 -1.01661,0.6934 -1.70929,0.97069c-0.69266,0.27731 -1.3704,0.73956 -1.70928,0.97069c-0.33887,0.23114 -0.51577,0.25422 -0.67774,0.46227c0,0 -0.16198,0.20804 -0.51577,0.25422c-0.35379,0.04616 -0.88447,0.11541 -1.06138,0.13849c-0.1769,0.02309 -0.53069,0.06925 -0.70758,0.09234c-0.53069,0.06924 -0.70758,0.09233 -1.06138,0.13849c-0.1769,0.02308 -0.35379,0.04617 -0.53069,0.06925c0,0 -0.11969,-0.10941 -0.41347,-0.6937c-0.41547,-0.8263 -0.72367,-1.80315 -0.88663,-2.12726c-0.23046,-0.45835 -0.61671,-0.34809 -0.75235,-0.46256c-0.27127,-0.22894 -0.54488,-0.71817 -1.18075,-1.34123c-0.35971,-0.35243 -0.78077,-0.43133 -0.94416,-0.62445c-0.25835,-0.30534 -0.59037,-0.67061 -0.98892,-1.17934c-0.39855,-0.50873 -0.59037,-0.67061 -0.79711,-1.01746c-0.20674,-0.34685 -0.39856,-0.50874 -0.79711,-1.01746c0,0 -0.30778,-0.5485 -0.41347,-0.6937c-0.23633,-0.32468 -0.44048,-0.2613 -0.76726,-0.64753c-0.25835,-0.30535 -0.27784,-0.57923 -0.41347,-0.6937c-0.13563,-0.11447 -0.31711,-0.18031 -0.57546,-0.48564c-0.32679,-0.38624 -0.88028,-0.6883 -1.34272,-1.13318c-0.28679,-0.27591 -0.36609,-0.78564 -0.60529,-0.85559c-0.16914,-0.04945 -0.25052,-0.36959 -0.41348,-0.69369c-0.11523,-0.22918 -0.34499,-0.0273 -0.57545,-0.48566c-0.16296,-0.32411 -0.41465,-0.89104 -0.82695,-1.38739c-0.57175,-0.68831 -0.71563,-0.85541 -0.79711,-1.01747c-0.11523,-0.22917 -0.38364,-0.32376 -0.59038,-0.67061c-0.20674,-0.34685 -0.59037,-0.67062 -0.78219,-0.83251c-0.19182,-0.16188 -0.23517,-0.31561 -0.39855,-0.50873c-0.25835,-0.30535 -0.42741,-0.34651 -0.59037,-0.67062c-0.11523,-0.22917 -0.38364,-0.32376 -0.38364,-0.32376c-0.20674,-0.34685 -0.33199,-0.53165 -0.41347,-0.6937c-0.23046,-0.45836 -0.76726,-0.64753 -0.76726,-0.64753c-0.20674,-0.34685 -0.43234,-0.4693 -0.78219,-0.83251c-0.44597,-0.46298 -0.73058,-0.874 -0.98893,-1.17935c-0.1634,-0.19311 -0.38363,-0.32376 -0.59037,-0.67061c-0.20674,-0.34685 -0.64722,-0.60814 -0.97401,-0.99439c-0.25835,-0.30535 -0.33203,-0.36527 -0.59038,-0.67062c-0.1634,-0.19311 -0.50892,-0.34218 -0.76726,-0.64753c-0.32679,-0.38623 -0.6547,-0.72017 -0.98893,-1.17935c-0.14947,-0.20535 -0.26292,-0.39426 -0.39855,-0.50874c-0.13563,-0.11447 -0.26359,-0.28437 -0.59038,-0.67061c-0.25835,-0.30535 -0.53876,-0.71212 -0.79711,-1.01747c-0.1634,-0.19311 -0.248,-0.2093 -0.38363,-0.32376c-0.27127,-0.22895 -0.23193,-0.77322 -0.44331,-1.06363c-0.23634,-0.3247 -0.4249,-0.18622 -0.56053,-0.30069c-0.13563,-0.11446 -0.20674,-0.34685 -0.20674,-0.34685c-0.20674,-0.34684 -0.39855,-0.50873 -0.59037,-0.67061c0,0 -0.1769,0.02308 -0.19182,-0.16189c-0.01492,-0.18496 -0.08602,-0.41734 -0.22166,-0.53181c-0.13563,-0.11446 -0.4453,-0.07151 -0.56053,-0.30068c-0.16296,-0.32411 -0.29286,-0.36352 -0.39855,-0.50874c-0.23634,-0.32469 -0.29287,-0.36352 -0.39856,-0.50872c-0.23633,-0.32469 -0.75235,-0.46257 -0.94416,-0.62445c-0.57545,-0.48566 -0.67289,-0.39552 -0.94416,-0.62445c-0.13563,-0.11447 -0.02984,-0.36993 -0.20674,-0.34685c-0.1769,0.02308 -0.0711,-0.23238 -0.20674,-0.34685c-0.13563,-0.11447 -0.32133,-0.23074 -0.56053,-0.30068c-0.16914,-0.04946 -0.19182,-0.16189 -0.19182,-0.16189c-0.1769,0.02308 -0.36871,-0.13881 -0.36871,-0.13881c-0.20674,-0.34685 -0.38363,-0.32376 -0.38363,-0.32376c0,0 -0.11034,0.00017 -0.19182,-0.16189c-0.11523,-0.22918 -0.20674,-0.34685 -0.22166,-0.53181c0,0 0,0 -0.01492,-0.18496c-0.01492,-0.18496 -0.01492,-0.18496 -0.02984,-0.36993c-0.01492,-0.18496 -0.19182,-0.16189 -0.20674,-0.34685c-0.01492,-0.18496 -0.01492,-0.18496 -0.02984,-0.36993c-0.01492,-0.18496 0.16198,-0.20805 0.16198,-0.20805c0,0 -0.076,-0.26274 0.14706,-0.39301c0.15772,-0.09211 0.16198,-0.20804 0.16198,-0.20804c-0.01492,-0.18496 0.18116,-0.13902 0.33887,-0.23114c0.22305,-0.13027 0.34313,-0.34707 0.50084,-0.43917c0.22305,-0.13027 0.50084,-0.43917 0.50084,-0.43917c0.35379,-0.04617 0.67874,-0.1808 1.22336,-0.34654c0.17222,-0.05242 0.35379,-0.04617 0.53069,-0.06925c0,0 0.1769,-0.02308 0.35379,-0.04616c0,0 0.1769,-0.02309 0.35379,-0.04617c0.1769,-0.02308 0.36871,0.13881 0.36871,0.13881c0.1769,-0.02309 0.23308,0.02432 0.36871,0.1388c0.13563,0.11447 0.19182,0.16189 0.38363,0.32377l0.1769,-0.02309l0.01492,0.18497l0.1769,-0.02309" id="svg_6" fill="#482816" stroke="null"/>
     <rect transform="matrix(0.421644 -0.394582 0.354882 0.440817 280.505 212.887)" rx="3" stroke-width="5" id="svg_7" height="27.83019" width="73" y="-20.01098" x="125.08781" fill="#999999" stroke="null"/>
     <path fill="#BBBBBB" stroke-width="5" opacity="NaN" d="m327.33445,153.55267c-0.13693,0 -0.68463,1.74008 -0.68463,1.74008c0,0 3.01239,3.74787 2.87547,3.61401c0.13693,0.13386 2.87547,2.8109 2.73854,2.67705c0.13693,0.13386 3.69703,-2.14164 3.83395,-2.27548c0.13693,-0.13386 3.14932,-4.81868 3.28625,-5.35409c0.13693,-0.53541 0.27385,-4.41713 0.27385,-4.55098c0,-0.13385 1.78005,-1.60622 2.73854,-2.40934c0.95849,-0.80311 1.5062,-1.20467 2.60161,-2.67705c1.09542,-1.47238 1.5062,-1.47238 1.64312,-2.14163c0.13693,-0.66926 0,-1.60622 0.13693,-3.21246c0.13693,-1.60622 0.13693,-1.74008 0.13693,-2.14163c0,-0.40155 2.32776,-3.48016 2.19083,-3.61401" id="svg_8" stroke="null"/>
     <path fill="#666666" stroke-width="5" opacity="NaN" d="m350.61204,153.28497c0,-0.13385 2.73854,-4.81868 3.14932,-4.95253c0.41078,-0.13386 2.87547,-3.74787 3.69703,-4.81868c0.82156,-1.07082 1.36927,-2.67705 2.19083,-2.94475c0.82156,-0.26771 2.19083,-2.14164 2.73854,-2.40934c0.54771,-0.26771 2.46469,-0.93697 3.01239,-0.80312c0.54771,0.13385 0.95849,1.60622 0.82156,1.47238c0.13692,0.13385 -15.60968,14.5899 -15.60968,14.45604l0,0l0.00001,0z" id="svg_9" stroke="null"/>
     <path fill="#845335" stroke-width="5" opacity="NaN" d="m378.95593,188.75582c8.76333,2.14163 0.95849,-2.67705 -0.95849,-4.68483c-1.91698,-2.00779 -2.32776,-2.40934 -2.73854,-3.21246c-0.41078,-0.80311 -1.5062,-2.81089 -2.19083,-3.21246c-0.68463,-0.40155 -4.10781,-3.21245 -4.38166,-3.61401c-0.27385,-0.40155 -1.91698,-2.27548 -2.73854,-2.94475c-0.82156,-0.66926 -3.5601,-4.14942 -3.83396,-4.68482c-0.27385,-0.53541 -2.19083,-3.21246 -2.46469,-3.34631c-0.27385,-0.13385 -0.41078,-0.40155 -1.09542,-0.93696c-0.68463,-0.53541 -2.19083,-1.87393 -3.01239,-2.67705c-0.82156,-0.80312 -2.0539,-2.40934 -2.46469,-2.94475c-0.41078,-0.53541 -0.82156,-1.07081 -0.95849,-1.07081" id="svg_10" stroke="null"/>
    </g>
   </g>
  </g>
 </g>

</svg>