<svg width="800" height="800" xmlns="http://www.w3.org/2000/svg">
 <g id="Layer_1">
  <title>Layer 1</title>
  <g transform="rotate(3 393.882 364.706)" id="svg_4">
   <path transform="rotate(0.910662 381.42 411.894)" fill="#000000" stroke-width="9" opacity="NaN" d="m70.89209,105.20718l195.95317,135.8397c1.45148,1.57951 104.50832,71.07888 108.86284,77.397c4.35451,6.31812 120.4749,85.29468 127.73242,91.61281c7.25752,6.31812 150.9565,102.66952 153.85951,104.24906c2.90301,1.57953 82.73577,80.55609 89.9933,83.71515c7.25752,3.15906 18.86956,22.11344 20.32107,23.69297c1.4515,1.57953 -18.86956,80.55609 -20.32107,82.13562c-1.4515,1.57953 -50.80267,23.69297 -55.15718,23.69297c-4.35451,0 -88.54179,-47.38593 -98.70233,-58.44265c-10.16053,-11.05672 -20.32107,-58.44265 -60.9632,-77.39703c-40.64214,-18.95437 -78.38126,-41.06781 -89.9933,-48.96547c-11.61204,-7.89766 17.41806,17.37484 -21.77257,-20.5339c-39.19063,-37.90875 -58.06019,-50.545 -82.73577,-69.49937c-24.67558,-18.95437 -30.4816,-28.43156 -62.41471,-47.38593c-31.93311,-18.95437 -30.4816,-17.37484 -56.60869,-39.48828c-26.12709,-22.11344 -23.22408,-28.43156 -63.86621,-47.38593c-40.64214,-18.95437 -23.22408,-7.89766 -60.9632,-30.01109c-37.73913,-22.11344 -55.15718,-34.74969 -69.67223,-50.545c-14.51505,-15.79531 -17.41806,-18.95437 -23.22408,-33.17015c-5.80602,-14.21578 -8.70903,-25.2725 -2.90301,-48.96547c5.80602,-23.69297 5.80602,-53.70406 23.22408,-58.44265c17.41806,-4.73859 49.35116,7.89766 49.35116,7.89766l0,-0.00002z" id="svg_1" stroke="null" fill-opacity="0.27"/>
   <path transform="rotate(0.910662 383.185 386.809)" fill="#000000" stroke-width="9" opacity="NaN" d="m36.45489,626.47734c0,-1.57953 63.86621,-78.97656 66.76922,-80.55609c2.90301,-1.57953 -18.86956,18.95437 40.64214,-36.32922c59.5117,-55.28359 26.12709,-18.95437 65.31772,-61.60171c39.19063,-42.64734 34.83612,-42.64734 55.15718,-58.44265c20.32107,-15.79531 18.86956,-15.79531 47.89966,-44.22687c29.0301,-28.43156 33.38461,-34.74969 58.06019,-63.18125c24.67558,-28.43156 11.61204,-25.2725 43.54514,-60.02218c31.93311,-34.74969 21.77257,-26.85203 46.44815,-48.96547c24.67558,-22.11344 23.22408,-26.85203 55.15718,-44.22687c31.93311,-17.37484 14.51505,-7.89766 52.25417,-30.01109c37.73913,-22.11344 52.25417,-31.59062 65.31772,-37.90875c13.06354,-6.31812 18.86956,-17.37484 26.12709,-14.21578c7.25752,3.15906 27.57859,14.21578 33.38461,26.85203c5.80602,12.63625 2.90301,1.57953 14.51505,25.2725c11.61204,23.69297 21.77257,28.43156 21.77257,44.22687c0,15.79531 18.86956,14.21578 -5.80602,41.06781c-24.67558,26.85203 7.25752,3.15906 -39.19063,41.06781c-46.44815,37.90875 -20.32107,15.79531 -62.41471,52.12453c-42.09364,36.32922 -58.06019,55.28359 -94.34781,77.39703c-36.28762,22.11344 -37.73913,17.37484 -66.76922,48.96547c-29.0301,31.59062 -43.54514,56.86312 -56.60869,67.91984c-13.06354,11.05672 -4.35451,1.57953 -30.4816,28.43156c-26.12709,26.85203 21.77257,-6.31812 -47.89966,48.96547c-69.67223,55.28359 -68.22073,53.70406 -91.4448,71.0789c-23.22408,17.37484 -5.80602,3.15906 -31.93311,25.2725c-26.12709,22.11344 -46.44815,37.90875 -69.67223,50.545c-23.22408,12.63625 -39.19063,25.2725 -49.35116,26.85203c-10.16053,1.57953 -2.90301,11.05672 -20.32107,-3.15906c-17.41806,-14.21578 -29.0301,-36.32922 -30.4816,-44.22687c-1.4515,-7.89766 -1.4515,-14.21578 -1.4515,-18.95437c0,-4.73859 5.80602,-28.43156 5.80602,-30.01109l0,-0.00003z" id="svg_2" stroke="null" fill-opacity="0.27"/>
   <path transform="rotate(0.910662 406.343 396.493)" fill="#ff0000" stroke-width="9" opacity="NaN" d="m95.8156,89.80604l195.95317,135.83971c1.45148,1.5795 104.50833,71.07887 108.86284,77.397c4.35451,6.31812 120.4749,85.29468 127.73242,91.61281c7.25752,6.31812 150.9565,102.66952 153.85951,104.24906c2.903,1.57953 82.73577,80.55608 89.99329,83.71515c7.25753,3.15907 18.86956,22.11344 20.32107,23.69297c1.4515,1.57953 -18.86957,80.55609 -20.32107,82.13562c-1.4515,1.57953 -50.80266,23.69297 -55.15718,23.69297c-4.35451,0 -88.54179,-47.38594 -98.70233,-58.44265c-10.16053,-11.05671 -20.32106,-58.44265 -60.9632,-77.39702c-40.64213,-18.95437 -78.38125,-41.06781 -89.99329,-48.96546c-11.61204,-7.89766 17.41806,17.37484 -21.77257,-20.53391c-39.19063,-37.90875 -58.06019,-50.54499 -82.73578,-69.49936c-24.67558,-18.95437 -30.4816,-28.43156 -62.41471,-47.38594c-31.9331,-18.95437 -30.4816,-17.37485 -56.60869,-39.48828c-26.12709,-22.11344 -23.22407,-28.43156 -63.86621,-47.38594c-40.64213,-18.95437 -23.22409,-7.89766 -60.9632,-30.01109c-37.73913,-22.11344 -55.15719,-34.74969 -69.67223,-50.545c-14.51505,-15.79531 -17.41806,-18.95437 -23.22407,-33.17016c-5.80602,-14.21578 -8.70903,-25.2725 -2.90301,-48.96546c5.80603,-23.69297 5.80603,-53.70406 23.22407,-58.44265c17.41806,-4.73859 49.35117,7.89765 49.35117,7.89765l0,-0.00002z" id="svg_5" stroke="null"/>
   <path transform="rotate(0.910662 546.321 568.543)" fill="#000000" stroke-width="9" fill-opacity="0.35" opacity="NaN" d="m733.21244,703.33104c0,0 11.61204,-53.70406 10.16057,-55.28356c1.45147,1.5795 -21.77261,-41.06784 -24.67562,-41.06784c-2.90301,0 -56.60869,-25.2725 -58.06016,-26.852c1.45147,1.5795 -69.67226,-36.32925 -71.12374,-37.90875c1.45147,1.5795 -56.60872,-45.80644 -58.06019,-47.38594c1.45148,1.5795 -82.7358,-26.85206 -82.7358,-26.85206c0,0 -24.67558,-28.43156 -26.12709,-28.43156c-1.4515,0 -47.89966,-6.31812 -49.35114,-7.89763c1.45148,1.5795 -8.70905,-3.475 -24.09498,-0.31591c13.64412,12.95213 40.06151,32.85422 55.15719,42.64734c3.19328,5.37038 50.22204,47.70181 48.77056,46.12231c1.45148,1.5795 65.31769,41.06778 65.31769,42.64731c0,1.57953 59.5117,30.01109 60.9632,30.01109c1.4515,0 26.12709,41.06781 27.57859,42.64734c1.4515,1.57953 13.06354,26.85203 13.06354,28.43156c0,1.57953 87.09029,44.22687 85.63882,42.64738c1.45147,1.57949 27.57856,-3.1591 27.57856,-3.1591l0,0.00002z" id="svg_8" stroke="null"/>
   <path transform="rotate(0.910662 159.949 240.675)" fill="#000000" stroke-width="9" fill-opacity="0.35" opacity="NaN" d="m21.33119,163.26735c0,0 8.70903,-52.12453 8.70903,-52.12453c0,0 29.0301,34.74969 31.93311,39.48828c2.90301,4.73859 15.96655,48.96547 26.12709,53.70406c10.16053,4.73859 49.35116,20.5339 52.25417,22.11344c2.90301,1.57953 44.99665,28.43156 55.15718,36.32922c10.16053,7.89766 56.60869,44.22687 58.06019,45.8064c1.4515,1.57953 44.99665,31.59062 44.99665,33.17015c0,1.57953 -23.20498,29.96953 -24.65646,28.39002c1.45148,1.5795 -61.71763,-55.3044 -63.16911,-56.88391c1.45148,1.57951 -71.25936,-32.79192 -106.67606,-55.22124c-35.12643,-18.32259 -58.06021,-47.38596 -59.5117,-48.96547c1.45149,1.57951 -11.03145,-6.94996 -23.22409,-45.80643l0,0.00001z" id="svg_9" stroke="null"/>
   <path transform="rotate(0.910662 411.884 350.732)" fill="#ff0000" stroke-width="9" opacity="NaN" d="m62.88548,598.96872c-0.02504,-1.59452 63.66528,-80.94734 66.59102,-82.59738c2.92573,-1.65003 -18.87962,19.49509 40.73504,-37.45117c59.61466,-56.94627 26.25656,-19.63388 65.41607,-63.43538c39.15951,-43.8015 34.73335,-43.71823 55.13842,-60.05203c20.40508,-16.33381 18.9297,-16.30606 47.98681,-45.56257c29.05712,-29.2565 33.38314,-35.71786 58.01409,-64.89111c24.63096,-29.17324 11.40253,-25.73438 43.31028,-61.42449c31.90775,-35.69011 21.70521,-27.52321 46.43631,-50.31836c24.73109,-22.79516 23.1806,-27.55097 55.36375,-45.70136c32.18316,-18.15038 14.62871,-8.25017 52.6383,-31.29514c38.0096,-23.04498 52.61327,-32.88967 65.79162,-39.51757c13.17835,-6.62789 18.90465,-17.90056 26.33167,-14.85031c7.42702,3.05026 28.25771,13.8233 34.35956,26.46844c6.10185,12.64513 2.97582,1.539 15.15448,25.23476c12.17865,23.69575 22.58149,28.28502 22.83185,44.23022c0.25036,15.94521 19.40538,13.98984 -5.25061,41.56857c-24.65598,27.57871 7.42702,3.05026 -39.18455,42.20697c-46.61156,39.15672 -20.40507,16.33381 -62.61551,53.81274c-42.21043,37.47893 -58.13927,56.91851 -94.67348,79.93572c-36.53421,23.01722 -38.08471,18.26142 -67.09175,50.70697c-29.00705,32.44555 -43.36035,58.23546 -56.46359,69.64691c-13.10324,11.41145 -4.40113,1.67779 -30.53251,29.28427c-26.13138,27.60647 22.03069,-6.79445 -47.9117,50.34612c-69.94239,57.14056 -68.49203,55.51828 -91.82285,73.50213c-23.33082,17.98383 -5.85148,3.30006 -32.05797,26.12298c-26.20649,22.82292 -46.61156,39.15672 -70.0175,52.35701c-23.40593,13.20027 -39.43491,26.26177 -49.7376,28.05058c-10.30268,1.78883 -2.77553,11.21716 -20.70551,-2.80043c-17.92999,-14.0176 -30.08362,-36.11884 -31.68419,-44.06369c-1.60058,-7.94484 -1.70072,-14.32293 -1.77583,-19.10649c-0.07511,-4.78356 5.45091,-28.8124 5.42587,-30.40692l0.00001,0.00001z" id="svg_3" stroke="null"/>
   <path transform="rotate(0.910662 253.912 562.346)" fill="#000000" stroke-width="9" opacity="NaN" d="m111.39037,693.25345c0,0 71.11308,-42.9531 90.28305,-58.77007c24.89347,-20.85063 73.8682,-59.07454 72.30243,-60.78859c1.56576,1.71405 73.59839,-56.55774 72.03263,-58.27179c1.56576,1.71405 43.84587,-34.27748 45.41173,-34.27739c1.56587,0.00009 6.26428,-17.13959 4.69841,-17.13968c-1.56587,-0.00009 -37.57936,-30.85399 -39.14512,-32.56804c1.56576,1.71405 -31.31922,39.42009 -40.71475,46.27555c-9.39553,6.85545 -53.24093,30.84893 -59.50489,41.13255c-6.26395,10.28362 -37.58307,47.98975 -37.58315,49.70374c-0.00008,1.71399 -56.37339,46.2747 -57.93926,46.27462c-1.56587,-0.00009 -40.7148,47.98957 -40.7148,47.98957c0,0 5.12953,-1.99718 -9.12629,30.43954l0.00001,-0.00001z" id="svg_6" fill-opacity="0.35" stroke="null"/>
   <path transform="rotate(0.910662 615.75 243.178)" fill="#000000" stroke-width="9" fill-opacity="0.35" opacity="NaN" d="m492.82317,366.57877c0,0 -20.35482,-30.85303 -21.92058,-32.56709c1.56576,1.71405 36.01685,-41.13388 34.45109,-42.84794c1.56576,1.71405 68.90078,-56.558 70.46665,-56.55791c1.56587,0.00009 59.5044,-30.84858 57.93865,-32.56264c1.56575,1.71406 32.88511,-41.13405 31.31936,-42.84811c1.56575,1.71406 39.14793,-27.42175 43.84553,-27.42149c4.6976,0.00026 39.14716,-10.28178 37.58141,-11.99584c1.56575,1.71406 14.09236,8.57074 14.09228,10.28473c-0.00008,1.71399 -29.75317,35.99222 -40.71488,49.70357c-23.4893,27.4226 -68.90114,63.41395 -92.39019,85.69456c-23.48906,22.28062 -37.58226,30.8498 -68.90057,51.41599c-31.31831,20.56619 -65.76876,49.70217 -65.76876,49.70217l0.00001,0z" id="svg_7" stroke="null"/>
   <path transform="rotate(0.910662 405.003 399.293)" fill="#ff0000" stroke-width="9" opacity="NaN" d="m94.47496,92.60567l195.95317,135.83971c1.45148,1.5795 104.50833,71.07887 108.86284,77.397c4.35451,6.31812 120.4749,85.29468 127.73242,91.61281c7.25752,6.31812 150.9565,102.66952 153.85951,104.24906c2.903,1.57953 82.73577,80.55608 89.99329,83.71515c7.25753,3.15907 18.86956,22.11344 20.32107,23.69297c1.4515,1.57953 -18.86957,80.55609 -20.32107,82.13562c-1.4515,1.57953 -50.80266,23.69297 -55.15718,23.69297c-4.35451,0 -88.54179,-47.38594 -98.70233,-58.44265c-10.16053,-11.05671 -20.32106,-58.44265 -60.9632,-77.39702c-40.64213,-18.95437 -78.38125,-41.06781 -89.99329,-48.96546c-11.61204,-7.89766 17.41806,17.37484 -21.77257,-20.53391c-39.19063,-37.90875 -58.06019,-50.54499 -82.73578,-69.49936c-24.67558,-18.95437 -30.4816,-28.43156 -62.41471,-47.38594c-31.9331,-18.95437 -30.4816,-17.37485 -56.60869,-39.48828c-26.12709,-22.11344 -23.22407,-28.43156 -63.86621,-47.38594c-40.64213,-18.95437 -23.22409,-7.89766 -60.9632,-30.01109c-37.73913,-22.11344 -55.15719,-34.74969 -69.67223,-50.545c-14.51505,-15.79531 -17.41806,-18.95437 -23.22407,-33.17016c-5.80602,-14.21578 -8.70903,-25.2725 -2.90301,-48.96546c5.80603,-23.69297 5.80603,-53.70406 23.22407,-58.44265c17.41806,-4.73859 49.35117,7.89765 49.35117,7.89765l0,-0.00002z" id="svg_12" stroke="null"/>
   <path transform="rotate(0.910662 544.98 571.343)" fill="#000000" stroke-width="9" fill-opacity="0.35" opacity="NaN" d="m731.87179,706.13068c0,0 11.61204,-53.70407 10.16057,-55.28356c1.45147,1.57949 -21.77261,-41.06785 -24.67562,-41.06785c-2.90301,0 -56.60869,-25.2725 -58.06016,-26.85199c1.45147,1.57949 -69.67227,-36.32926 -71.12373,-37.90875c1.45147,1.57949 -56.60872,-45.80644 -58.0602,-47.38594c1.45148,1.57949 -82.7358,-26.85207 -82.7358,-26.85207c0,0 -24.67559,-28.43155 -26.12709,-28.43155c-1.4515,0 -47.89966,-6.31813 -49.35114,-7.89764c1.45148,1.5795 -8.70905,-3.47499 -24.09498,-0.3159c13.64412,12.95213 40.0615,32.85421 55.15718,42.64734c3.19329,5.37037 50.22204,47.70181 48.77056,46.12231c1.45148,1.5795 65.3177,41.06778 65.3177,42.64731c0,1.57954 59.51169,30.01109 60.96319,30.01109c1.45151,0 26.12709,41.06781 27.5786,42.64734c1.4515,1.57954 13.06354,26.85203 13.06354,28.43156c0,1.57954 87.09028,44.22688 85.63881,42.64738c1.45147,1.5795 27.57856,-3.15909 27.57856,-3.15909l0.00001,0.00001z" id="svg_13" stroke="null"/>
   <path transform="rotate(0.910662 158.609 243.475)" fill="#000000" stroke-width="9" fill-opacity="0.35" opacity="NaN" d="m19.99054,166.06698c0,0 8.70903,-52.12453 8.70903,-52.12453c0,0 29.03009,34.74969 31.9331,39.48829c2.90301,4.73859 15.96655,48.96546 26.12709,53.70406c10.16053,4.73859 49.35116,20.5339 52.25418,22.11343c2.903,1.57954 44.99665,28.43156 55.15718,36.32922c10.16053,7.89766 56.60869,44.22687 58.06019,45.80641c1.45151,1.57953 44.99666,31.59062 44.99666,33.17014c0,1.57954 -23.20498,29.96953 -24.65647,28.39003c1.45149,1.5795 -61.71762,-55.3044 -63.1691,-56.88391c1.45148,1.57952 -71.25936,-32.79192 -106.67606,-55.22124c-35.12643,-18.32259 -58.06021,-47.38596 -59.5117,-48.96546c1.45149,1.5795 -11.03144,-6.94996 -23.22409,-45.80643l-0.00001,-0.00001z" id="svg_14" stroke="null"/>
  </g>
 </g>

</svg>