<svg width="635" height="449" xmlns="http://www.w3.org/2000/svg">
 <g id="Layer_1">
  <title>Layer 1</title>
  <path fill="#482816" stroke-width="13" opacity="NaN" d="m539.33248,318.16734c0,0 -8.77193,-145.45516 -9.60157,-145.50556c0.82964,0.0504 -2.67913,-27.31245 -3.50877,-27.36285c0.82964,0.0504 -6.1879,2.9307 -6.1879,2.9307c0,0 3.50877,15.84165 3.50877,18.72195c0,2.8803 3.50877,31.68331 3.50877,32.40338c0,0.72008 1.75439,41.04428 1.75439,41.76435c0,0.72008 6.14035,73.4349 2.63158,81.17252c-3.50877,7.73762 7.89473,-4.12449 7.89473,-4.12449z" id="svg_87" stroke="null" transform="rotate(180 529.683 235.106)"/>
  <path fill="#007f3f" stroke="null" stroke-width="13" opacity="NaN" d="m527.21026,151.11106c0,0 6.74157,12.92135 28.65169,14.60674c21.91011,1.68539 29.77528,-6.74157 42.13483,6.74157c12.35955,13.48315 19.66292,32.02248 25.8427,33.70787c6.17977,1.68539 -22.09431,-4.51894 -22.09431,12.65119c0,17.17014 -14.13705,-41.63443 -33.52367,-32.87591c-19.38663,8.75852 -43.25843,2.24719 -41.01124,-5.05618c2.24719,-7.30337 0,-29.77528 0,-29.77528z" id="svg_88"/>
  <path fill="#000000" stroke="null" stroke-width="13" opacity="NaN" d="m279.3998,383.69045c-0.82417,2.58242 13.33334,0.95238 12.98115,0.6905c0.35219,0.26188 20.82838,-3.54765 20.47619,-3.80952c0.35219,0.26187 36.54266,0.26187 36.19048,0c0.35218,0.26187 17.49504,-5.9286 17.14285,-6.19048c0.35219,0.26188 4.16171,6.92854 3.80953,6.66667c0.35218,0.26187 -5.3621,4.54759 -5.71429,4.28571" id="svg_90" fill-opacity="0.23"/>
  <g id="svg_93">
   <path transform="rotate(5 360.115 407.03)" fill="#845335" stroke="null" stroke-width="13" opacity="NaN" d="m359.10236,374.28367c3.10559,10.559 13,71 12.50002,70.50002c0.49998,0.49998 -6.51533,6.79951 -9.50002,-0.50002c-2.98469,-7.29954 -13,-75 -13.49998,-75.49998c0.49998,0.49998 9.25774,-8.78574 10.49998,5.49998z" id="svg_91"/>
   <path transform="rotate(5 362.536 407.622)" fill="#FFAC8D" stroke="null" stroke-width="13" opacity="NaN" d="m361.52607,374.74585c3.10559,10.55901 13,71 12.50002,70.50002c0.49998,0.49998 -8.67899,7.38774 -9.50002,-0.50002c-0.82104,-7.88775 -13,-75 -13.49998,-75.49998c0.49998,0.49998 9.25774,-8.78573 10.49998,5.49998z" id="svg_92"/>
  </g>
  <g stroke="null" id="svg_96">
   <path stroke="null" fill="#845335" stroke-width="13" opacity="NaN" d="m281.09,376.99939c0.65073,10.71156 -3.30471,70.2971 -3.67941,69.7125c0.37469,0.5846 -10.11843,5.11454 -9.14406,-2.55846c0.97436,-7.67299 4.20452,-74.09688 3.82982,-74.68149c0.37469,0.5846 10.99682,-6.31562 8.99364,7.52745z" id="svg_94"/>
   <path stroke="null" fill="#FFAC8D" stroke-width="13" opacity="NaN" d="m278.11367,376.53506c0.65073,10.71156 -3.30471,70.2971 -3.67941,69.7125c0.37469,0.5846 -10.11843,5.11454 -9.14406,-2.55846c0.97436,-7.67299 4.20452,-74.09688 3.82982,-74.68149c0.37469,0.5846 10.99682,-6.31562 8.99364,7.52745z" id="svg_95"/>
  </g>
  <g transform="rotate(-3 318.304 437.445)" id="svg_99" stroke="null">
   <path fill="#845335" stroke-width="13" opacity="NaN" d="m285.98115,432.53459c11.0948,-0.84238 72.94584,2.04582 72.34631,2.43092c0.59953,-0.3851 5.35463,7.78665 -2.4914,9.18846c-7.84604,1.40181 -76.90151,-2.87746 -77.50104,-2.49236c0.59953,-0.3851 -6.7424,-10.88209 7.64613,-9.12702z" id="svg_97" stroke="null"/>
   <path fill="#FFAC8D" stroke-width="13" opacity="NaN" d="m285.30139,430.6504c11.09479,-0.84238 72.94583,2.04581 72.3463,2.43091c0.59953,-0.3851 5.48154,10.02533 -2.4914,9.18846c-7.97292,-0.83685 -76.90151,-2.87745 -77.50104,-2.49235c0.59953,-0.3851 -6.74239,-10.88209 7.64614,-9.12702z" id="svg_98" stroke="null"/>
  </g>
  <g id="svg_102" stroke="null">
   <path fill="#845335" stroke-width="13" opacity="NaN" d="m287.13492,409.40159c10.67374,-0.84239 70.17753,2.04581 69.60074,2.43091c0.57679,-0.3851 5.15143,7.78666 -2.39684,9.18847c-7.54828,1.4018 -73.98308,-2.87746 -74.55987,-2.49236c0.57679,-0.3851 -6.48652,-10.88209 7.35597,-9.12702z" id="svg_100" stroke="null"/>
   <path fill="#FFAC8D" stroke-width="13" opacity="NaN" d="m286.48132,407.51659c10.67375,-0.84238 70.17754,2.04581 69.60075,2.43091c0.57679,-0.3851 5.27351,10.02533 -2.39685,9.18846c-7.67035,-0.83685 -73.98307,-2.87745 -74.55987,-2.49235c0.5768,-0.3851 -6.48651,-10.88209 7.35597,-9.12702z" id="svg_101" stroke="null"/>
  </g>
  <g transform="rotate(-3 317.221 390.263)" id="svg_105" stroke="null">
   <path fill="#845335" stroke-width="13" opacity="NaN" d="m287.8436,385.35283c10.08392,-0.84239 66.29956,2.04581 65.75465,2.43091c0.54491,-0.3851 4.86677,7.78666 -2.26439,9.18847c-7.13117,1.4018 -69.89483,-2.87746 -70.43974,-2.49236c0.54491,-0.3851 -6.12808,-10.88209 6.94948,-9.12702z" id="svg_103" stroke="null"/>
   <path fill="#FFAC8D" stroke-width="13" opacity="NaN" d="m287.22577,383.46864c10.08392,-0.84239 66.29956,2.04581 65.75465,2.43091c0.54491,-0.3851 4.98211,10.02533 -2.26439,9.18846c-7.2465,-0.83686 -69.89483,-2.87746 -70.43974,-2.49235c0.54491,-0.38511 -6.12808,-10.8821 6.94948,-9.12702z" id="svg_104" stroke="null"/>
  </g>
 </g>

</svg>