<svg width="635" height="440" xmlns="http://www.w3.org/2000/svg">
 <g id="Layer_1">
  <title>Layer 1</title>
  <rect id="svg_12" height="1" width="2" y="431.33331" x="634.49997" stroke-width="13" stroke="null" fill="#000000"/>
  <path id="svg_14" d="m332.49998,333.33332c0,0 4,-292.99999 6,-271.99999c19,0 237.99999,226.99999 260.99999,226.99999c-16,-14 -140,-47 -194.99999,-30c-55,17 -72,75 -72,75z" opacity="NaN" stroke-width="13" stroke="null" fill="#BBBBBB"/>
  <path stroke="null" id="svg_1" d="m6,321.90444c0,0 5.3739,33.34206 56.42598,69.80994c51.05207,36.46788 128.97365,41.67758 155.84316,39.59369c26.86951,-2.08387 188.08658,3.12583 213.61261,-1.04193c25.52604,-4.16776 108.82152,6.25163 127.63018,-12.50328c18.80866,-18.75491 61.79988,-46.88727 61.79988,-75.01964c0,-28.13236 0,-47.9292 0,-47.9292c0,0 -142.40841,-6.25164 -142.40841,1.04193c0,7.29358 8.06085,51.05504 0,46.88727c-8.06086,-4.16775 -115.5389,2.08389 -147.78231,-2.08387c-32.24342,-4.16776 -119.56933,2.08387 -142.40841,0c-22.83909,-2.08388 -94.04329,-2.08388 -118.22585,-6.25164c-24.18256,-4.16775 -64.48683,-12.50327 -64.48683,-12.50327z" opacity="NaN" stroke-width="13" fill="#482816"/>
  <path stroke="null" id="svg_16" d="m6,317.03817c0,0 5.3739,19.96849 56.42598,41.80903c51.05207,21.84054 128.97365,24.96062 155.84316,23.71258c26.86951,-1.24803 188.08658,1.87205 213.61261,-0.62401c25.52604,-2.49606 108.82152,3.74409 127.63018,-7.48819c18.80866,-11.23228 61.79988,-28.08069 61.79988,-44.92911c0,-16.84841 0,-28.7047 0,-28.7047c0,0 -142.40841,-3.74409 -142.40841,0.62401c0,4.36811 8.06085,30.57676 0,28.08069c-8.06086,-2.49606 -115.5389,1.24804 -147.78231,-1.24803c-32.24342,-2.49606 -119.56933,1.24803 -142.40841,0c-22.83909,-1.24803 -94.04329,-1.24803 -118.22585,-3.74409c-24.18256,-2.49606 -64.48683,-7.48818 -64.48683,-7.48818z" opacity="NaN" stroke-width="13" fill="#FFAC8D"/>
  <path stroke="null" id="svg_13" d="m314.49998,30.33332c-3,25.88995 -352.99999,319.19551 -305.99999,286.54726c47,-32.64825 294.99999,-256.21104 299.99999,-169.20803c5,87.00302 9,-143.22918 6,-117.33924z" opacity="NaN" stroke-width="13" fill="#BBBBBB"/>
  <path stroke="null" id="svg_3" d="m311.31243,9.74677c1.34347,1.12403 -180.33877,270.15518 -281.44292,302.86838c-101.10414,32.7132 276.0778,-132.03881 278.63426,7.99225c2.55646,140.03106 1.46518,-311.98466 2.80866,-310.86063z" opacity="NaN" stroke-width="13" fill="#ffffff"/>
  <path stroke="null" id="svg_4" d="m331.46456,14.2429c0,0 264.19072,266.89162 278.5342,274.89162c14.34347,8 -266.0386,-161.26364 -276.1603,16.45739c-10.1217,177.72103 4.34348,-258.75209 -2.3739,-291.34901z" opacity="NaN" stroke-width="13" fill="#ffffff"/>
  <path id="svg_23" d="m19.49999,323.33332c0,0 83,17 123,15c-22,-3 146.00003,4.33336 128.50001,1.66668c-17.50002,-2.66668 51.49998,-2.66668 91.49998,-0.66668c40,2 51,-1 78,-2c27,-1 22,2 42,1c11,6 47,26 48,26c1,0 0,7 -2,7c-2,0 -74,2 -74.49997,1.66668c0.49998,0.33332 -142.50002,-1.66668 -142.50002,-1.66668c0,0 -104,0 -104.49998,-0.33332c0.49998,0.33332 -62.50001,-3.66668 -63,-4c0.49999,0.33332 -76.50001,-17.66668 -76.50001,-17.66668c0,0 -41,-19 -41.49999,-19.33332c0.49999,0.33332 -29.50001,-12.66668 -6.50001,-6.66668z" opacity="NaN" stroke-width="13" stroke="null" fill="#845335"/>
  <path stroke="null" id="svg_2" d="m314.99938,353.10067c1.34348,1.19965 0,-346.70078 -1.34346,-347.10066c1.34346,0.39988 16.12169,1.59953 16.12169,11.19678c0,9.59725 -2.68695,331.10524 -2.68695,335.90387c0,4.79862 -13.43476,-1.19967 -12.09128,0z" opacity="NaN" stroke-width="13" fill="#482816"/>
  <path id="svg_24" d="m480.49998,304.33332c0,0 56,18 56,18c0,0 84,-23 84,-23c0,0 -139,-2 -139.49997,-2.33332c0.49998,0.33332 -0.50002,7.33332 -0.50002,7.33332z" opacity="NaN" stroke-width="13" stroke="null" fill="#482816"/>
  <path id="svg_25" d="m548.49997,377.33332c0,0 -7,-54 -6,-54c1,0 83,-22 83,-22c0,0 -3,33 -3,33c0,0 -57,35 -57.49997,34.66668c0.49997,0.33332 -16.50003,8.33332 -16.50003,8.33332z" opacity="NaN" stroke-width="13" stroke="null" fill="#482816"/>
 </g>
</svg>