<svg width="635" height="449.00000000000006" xmlns="http://www.w3.org/2000/svg">
 <g id="Layer_1">
  <title>Layer 1</title>
  <rect fill="#000000" stroke="null" stroke-width="13" x="634.49997" y="431.33331" width="2" height="1" id="svg_12"/>
  <path fill="#BBBBBB" stroke="null" stroke-width="13" opacity="NaN" d="m332.49998,333.33332c0,0 4,-292.99999 6,-271.99999c19,0 237.99999,226.99999 260.99999,226.99999c-16,-14 -140,-47 -194.99999,-30c-55,17 -72,75 -72,75z" id="svg_14"/>
  <path fill="#482816" stroke-width="13" opacity="NaN" d="m6.47619,321.90444c0,0 5.3739,33.34206 56.42598,69.80994c51.05207,36.46788 128.97365,41.67758 155.84316,39.59369c26.86951,-2.08387 188.08658,3.12583 213.61261,-1.04193c25.52604,-4.16776 108.82152,6.25163 127.63018,-12.50328c18.80866,-18.75491 61.79988,-46.88727 61.79988,-75.01964c0,-28.13236 0,-47.9292 0,-47.9292c0,0 -142.40841,-6.25164 -142.40841,1.04193c0,7.29358 8.06085,51.05504 0,46.88727c-8.06086,-4.16775 -115.5389,2.08389 -147.78231,-2.08387c-32.24342,-4.16776 -119.56933,2.08387 -142.40841,0c-22.83909,-2.08388 -94.04329,-2.08388 -118.22585,-6.25164c-24.18256,-4.16775 -64.48683,-12.50327 -64.48683,-12.50327z" id="svg_1" stroke="null"/>
  <path fill="#FFAC8D" stroke-width="13" opacity="NaN" d="m6,317.03817c0,0 5.3739,19.96849 56.42598,41.80903c51.05207,21.84054 128.97365,24.96062 155.84316,23.71258c26.86951,-1.24803 188.08658,1.87205 213.61261,-0.62401c25.52604,-2.49606 108.82152,3.74409 127.63018,-7.48819c18.80866,-11.23228 61.79988,-28.08069 61.79988,-44.92911c0,-16.84841 0,-28.7047 0,-28.7047c0,0 -142.40841,-3.74409 -142.40841,0.62401c0,4.36811 8.06085,30.57676 0,28.08069c-8.06086,-2.49606 -115.5389,1.24804 -147.78231,-1.24803c-32.24342,-2.49606 -119.56933,1.24803 -142.40841,0c-22.83909,-1.24803 -94.04329,-1.24803 -118.22585,-3.74409c-24.18256,-2.49606 -64.48683,-7.48818 -64.48683,-7.48818z" id="svg_16" stroke="null"/>
  <path fill="#BBBBBB" stroke-width="13" opacity="NaN" d="m314.49998,30.33332c-3,25.88995 -352.99999,319.19551 -305.99999,286.54726c47,-32.64825 294.99999,-256.21104 299.99999,-169.20803c5,87.00302 9,-143.22918 6,-117.33924l0,0.00001z" id="svg_13" stroke="null"/>
  <path fill="#ffffff" stroke-width="13" opacity="NaN" d="m311.31243,9.74677c1.34347,1.12403 -180.33877,270.15518 -281.44292,302.86838c-101.10414,32.7132 276.0778,-132.03881 278.63426,7.99225c2.55646,140.03106 1.46518,-311.98466 2.80866,-310.86063z" id="svg_3" stroke="null"/>
  <path fill="#ffffff" stroke-width="13" opacity="NaN" d="m331.46456,14.2429c0,0 264.19072,266.89162 278.5342,274.89162c14.34347,8 -266.0386,-161.26364 -276.1603,16.45739c-10.1217,177.72103 4.34348,-258.75209 -2.3739,-291.34901z" id="svg_4" stroke="null"/>
  <path fill="#845335" stroke="null" stroke-width="13" opacity="NaN" d="m19.49999,323.33332c0,0 83,17 123,15c-22,-3 146.00003,4.33336 128.50001,1.66668c-17.50002,-2.66668 51.49998,-2.66668 91.49998,-0.66668c40,2 51,-1 78,-2c27,-1 22,2 42,1c11,6 47,26 48,26c1,0 0,7 -2,7c-2,0 -74,2 -74.49997,1.66668c0.49998,0.33332 -142.50002,-1.66668 -142.50002,-1.66668c0,0 -104,0 -104.49998,-0.33332c0.49998,0.33332 -62.50001,-3.66668 -63,-4c0.49999,0.33332 -76.50001,-17.66668 -76.50001,-17.66668c0,0 -41,-19 -41.49999,-19.33332c0.49999,0.33332 -29.50001,-12.66668 -6.50001,-6.66668l-0.00001,0z" id="svg_23"/>
  <path fill="#482816" stroke-width="13" opacity="NaN" d="m314.99938,353.10067c1.34348,1.19965 0,-346.70078 -1.34346,-347.10066c1.34346,0.39988 16.12169,1.59953 16.12169,11.19678c0,9.59725 -2.68695,331.10524 -2.68695,335.90387c0,4.79862 -13.43476,-1.19967 -12.09128,0l0,0.00001z" id="svg_2" stroke="null"/>
  <path fill="#482816" stroke="null" stroke-width="13" opacity="NaN" d="m480.49998,304.33332c0,0 56,18 56,18c0,0 84,-23 84,-23c0,0 -139,-2 -139.49997,-2.33332c0.49998,0.33332 -0.50002,7.33332 -0.50002,7.33332l-0.00001,0z" id="svg_24"/>
  <path fill="#482816" stroke="null" stroke-width="13" opacity="NaN" d="m548.49997,377.33332c0,0 -7,-54 -6,-54c1,0 83,-22 83,-22c0,0 -3,33 -3,33c0,0 -57,35 -57.49997,34.66668c0.49997,0.33332 -16.50003,8.33332 -16.50003,8.33332z" id="svg_25"/>
  <path transform="rotate(13 274.678 407.527)" id="svg_11" d="m273.66855,374.65061c3.10559,10.55901 13,71 12.50002,70.50002c0.49998,0.49998 -8.67899,7.38774 -9.50002,-0.50002c-0.82103,-7.88776 -13,-75 -13.49998,-75.49998c0.49998,0.49998 9.25774,-8.78573 10.49998,5.49998z" opacity="NaN" stroke-width="13" stroke="null" fill="#845335"/>
  <path transform="rotate(13 271.345 407.051)" id="svg_15" d="m270.33522,374.17442c3.10559,10.55901 13,71 12.50002,70.50002c0.49998,0.49998 -8.67899,7.38774 -9.50002,-0.50002c-0.82104,-7.88775 -13,-75 -13.49998,-75.49998c0.49998,0.49998 9.25774,-8.78573 10.49998,5.49998z" opacity="NaN" stroke-width="13" stroke="null" fill="#FFAC8D"/>
  <path fill-opacity="0.23" id="svg_57" d="m279.3998,381.69045c0,0 14.7619,-9.52381 14.40972,-9.78569c0.35219,0.26188 11.30457,-1.64288 11.30457,-0.21431c0,1.42857 -12.38095,10.95238 -12.73314,10.6905c0.35219,0.26188 20.82838,-3.54765 20.47619,-3.80952c0.35219,0.26188 36.54266,0.26188 36.19048,0c0.35219,0.26188 17.49504,-5.9286 17.14286,-6.19048c0.35218,0.26188 4.16171,6.92855 3.80952,6.66667c0.35218,0.26188 -5.3621,4.54759 -5.71429,4.28571" opacity="NaN" stroke-width="13" stroke="null" fill="#000000"/>
  <g id="svg_22">
   <path transform="rotate(5 360.829 405.03)" id="svg_58" d="m359.81627,372.28367c3.10559,10.559 13,71 12.50002,70.50002c0.49998,0.49998 -6.51533,6.79951 -9.50002,-0.50002c-2.98469,-7.29954 -13,-75 -13.49998,-75.49998c0.49998,0.49998 9.25774,-8.78574 10.49998,5.49998z" opacity="NaN" stroke-width="13" stroke="null" fill="#845335"/>
   <path transform="rotate(5 363.25 405.622)" id="svg_59" d="m362.23998,372.74585c3.10559,10.55901 13,71 12.50002,70.50002c0.49998,0.49998 -8.67899,7.38774 -9.50002,-0.50002c-0.82104,-7.88775 -13,-75 -13.49998,-75.49998c0.49998,0.49998 9.25774,-8.78573 10.49998,5.49998z" opacity="NaN" stroke-width="13" stroke="null" fill="#FFAC8D"/>
  </g>
  <g transform="rotate(-3 317.935 388.263)" stroke="null" id="svg_56">
   <path stroke="null" id="svg_61" d="m288.55751,383.35283c10.08392,-0.84239 66.29956,2.04581 65.75465,2.43091c0.54491,-0.3851 4.86677,7.78666 -2.26439,9.18847c-7.13118,1.4018 -69.89483,-2.87746 -70.43974,-2.49236c0.54491,-0.3851 -6.12808,-10.88209 6.94948,-9.12702z" opacity="NaN" stroke-width="13" fill="#845335"/>
   <path stroke="null" id="svg_62" d="m287.93968,381.46864c10.08392,-0.84239 66.29955,2.04581 65.75464,2.43091c0.54491,-0.3851 4.98212,10.02533 -2.26439,9.18846c-7.2465,-0.83686 -69.89483,-2.87746 -70.43974,-2.49235c0.54491,-0.38511 -6.12807,-10.8821 6.94949,-9.12702z" opacity="NaN" stroke-width="13" fill="#FFAC8D"/>
  </g>
  <g transform="rotate(-3 318.649 437.55)" stroke="null" id="svg_38">
   <path stroke="null" id="svg_64" d="m285.78531,432.63953c11.28067,-0.84238 74.16792,2.04582 73.55834,2.43092c0.60958,-0.3851 5.44434,7.78665 -2.53314,9.18846c-7.97748,1.40181 -78.18985,-2.87746 -78.79943,-2.49236c0.60958,-0.3851 -6.85535,-10.88209 7.77423,-9.12702z" opacity="NaN" stroke-width="13" fill="#845335"/>
   <path stroke="null" id="svg_65" d="m285.09416,430.75534c11.28067,-0.84238 74.16791,2.04581 73.55833,2.43091c0.60958,-0.3851 5.57338,10.02533 -2.53313,9.18846c-8.1065,-0.83685 -78.18986,-2.87745 -78.79944,-2.49235c0.60958,-0.3851 -6.85534,-10.88209 7.77424,-9.12702z" opacity="NaN" stroke-width="13" fill="#FFAC8D"/>
  </g>
  <g stroke="null" id="svg_41">
   <path stroke="null" id="svg_67" d="m285.91266,407.40159c10.90949,-0.84239 71.72754,2.04581 71.13801,2.43091c0.58952,-0.3851 5.2652,7.78666 -2.44979,9.18847c-7.715,1.4018 -75.61714,-2.87746 -76.20667,-2.49236c0.58952,-0.3851 -6.62979,-10.88209 7.51844,-9.12702z" opacity="NaN" stroke-width="13" fill="#845335"/>
   <path stroke="null" id="svg_68" d="m285.24463,405.51659c10.9095,-0.84238 71.72754,2.04581 71.13801,2.43091c0.58952,-0.3851 5.38999,10.02533 -2.44979,9.18846c-7.83977,-0.83685 -75.61714,-2.87745 -76.20667,-2.49235c0.58952,-0.3851 -6.62978,-10.88209 7.51844,-9.12702z" opacity="NaN" stroke-width="13" fill="#FFAC8D"/>
  </g>
  <path transform="rotate(180 530.654 229.28)" stroke="null" id="svg_70" d="m540.30336,312.3421c0,0 -8.77193,-145.45516 -9.60158,-145.50556c0.82965,0.0504 -2.67913,-27.31245 -3.50877,-27.36285c0.82965,0.0504 -6.1879,2.93071 -6.1879,2.93071c0,0 3.50877,15.84165 3.50877,18.72195c0,2.8803 3.50877,31.6833 3.50877,32.40338c0,0.72008 1.75439,41.04428 1.75439,41.76435c0,0.72008 6.14035,73.4349 2.63158,81.17252c-3.50877,7.73762 7.89474,-4.12449 7.89474,-4.12449z" opacity="NaN" stroke-width="13" fill="#482816"/>
  <path id="svg_71" d="m528.13059,143.81309c0,0 10.52632,0.87719 24.5614,-5.26316c14.03509,-6.14035 63.4278,5.04723 64.2915,5.26316c0.8637,0.21592 -44.99325,8.77193 -49.37922,7.89474c-4.38596,-0.87719 -38.33658,18.64847 -40.15595,14.68486c-1.81936,-3.96361 1.55945,-11.17609 1.55945,-10.2989c0,0.87719 -0.87719,-12.2807 -0.87719,-12.2807z" opacity="NaN" stroke-width="13" stroke="null" fill="#8CD79F"/>
 </g>

</svg>