<svg width="635" height="448.99999999999994" xmlns="http://www.w3.org/2000/svg">
 <g id="Layer_1">
  <title>Layer 1</title>
  <g id="svg_107">
   <path transform="rotate(180 529.683 235.106)" stroke="null" id="svg_125" d="m539.33248,318.16734c0,0 -8.77193,-145.45516 -9.60157,-145.50556c0.82964,0.0504 -2.67913,-27.31245 -3.50877,-27.36285c0.82964,0.0504 -6.1879,2.9307 -6.1879,2.9307c0,0 3.50877,15.84165 3.50877,18.72195c0,2.8803 3.50877,31.68331 3.50877,32.40338c0,0.72008 1.75439,41.04428 1.75439,41.76435c0,0.72008 6.14035,73.4349 2.63158,81.17252c-3.50877,7.73762 7.89473,-4.12449 7.89473,-4.12449z" opacity="NaN" stroke-width="13" fill="#482816"/>
   <path transform="rotate(-55 478.973 184.2)" id="svg_126" d="m430.29088,148.76623c0,0 6.74158,12.92135 28.65169,14.60675c21.91011,1.68539 29.77528,-6.74158 42.13483,6.74157c12.35955,13.48315 19.66292,32.02247 25.8427,33.70786c6.17977,1.6854 -22.09431,-4.51894 -22.09431,12.6512c0,17.17013 -14.13704,-41.63443 -33.52367,-32.87591c-19.38663,8.75851 -43.25843,2.24719 -41.01124,-5.05618c2.2472,-7.30338 0,-29.77529 0,-29.77529z" opacity="NaN" stroke-width="13" stroke="null" fill="#ff0000"/>
  </g>
  <g transform="rotate(71 587.209 348.851)" id="svg_86">
   <path fill-opacity="0.23" id="svg_128" d="m552.18097,323.85146c0,0 14.7619,-9.52381 14.40972,-9.78568c0.35218,0.26187 11.30456,-1.64289 11.30456,-0.21432c0,1.42858 -12.38095,10.95238 -12.73314,10.69051c0.35219,0.26187 20.82838,-3.54765 20.47619,-3.80953c0.35219,0.26188 36.54267,0.26188 36.19048,0c0.35219,0.26188 17.49504,-5.92859 17.14286,-6.19047c0.35218,0.26188 4.16171,6.92854 3.80952,6.66666c0.35219,0.26188 -5.3621,4.5476 -5.71428,4.28572" opacity="NaN" stroke-width="13" stroke="null" fill="#000000"/>
   <g id="svg_131">
    <path transform="rotate(5 632.896 347.191)" id="svg_129" d="m631.88353,314.44469c3.10559,10.559 13,71 12.50002,70.50002c0.49998,0.49998 -6.51533,6.79951 -9.50002,-0.50002c-2.98469,-7.29954 -13,-75 -13.49998,-75.49998c0.49998,0.49998 9.25774,-8.78574 10.49998,5.49998z" opacity="NaN" stroke-width="13" stroke="null" fill="#845335"/>
    <path transform="rotate(5 635.317 347.783)" id="svg_130" d="m634.30724,314.90687c3.10559,10.55901 13,71 12.50002,70.50002c0.49998,0.49998 -8.67899,7.38774 -9.50002,-0.50002c-0.82104,-7.88775 -13,-75 -13.49998,-75.49998c0.49998,0.49998 9.25774,-8.78573 10.49998,5.49998z" opacity="NaN" stroke-width="13" stroke="null" fill="#FFAC8D"/>
   </g>
   <g id="svg_134">
    <path transform="rotate(13 547.459 349.688)" id="svg_132" d="m546.44971,316.81163c3.10559,10.55901 13,71 12.50002,70.50002c0.49998,0.49998 -8.67899,7.38774 -9.50002,-0.50002c-0.82103,-7.88776 -13,-75 -13.49998,-75.49998c0.49998,0.49998 9.25774,-8.78573 10.49998,5.49998z" opacity="NaN" stroke-width="13" stroke="null" fill="#845335"/>
    <path transform="rotate(13 544.483 349.212)" id="svg_133" d="m543.47334,316.33544c3.10559,10.55901 13,71 12.50002,70.50002c0.49998,0.49998 -8.67899,7.38774 -9.50002,-0.50002c-0.82104,-7.88775 -13,-75 -13.49998,-75.49998c0.49998,0.49998 9.25774,-8.78573 10.49998,5.49998z" opacity="NaN" stroke-width="13" stroke="null" fill="#FFAC8D"/>
   </g>
   <g transform="rotate(-3 591.085 377.606)" stroke="null" id="svg_137">
    <path stroke="null" id="svg_135" d="m558.76231,372.6956c11.0948,-0.84238 72.94585,2.04582 72.34631,2.43092c0.59954,-0.3851 5.35463,7.78665 -2.4914,9.18846c-7.84603,1.40181 -76.9015,-2.87746 -77.50104,-2.49236c0.59954,-0.3851 -6.74239,-10.88209 7.64613,-9.12702z" opacity="NaN" stroke-width="13" fill="#845335"/>
    <path stroke="null" id="svg_136" d="m558.08255,370.81141c11.0948,-0.84238 72.94584,2.04581 72.3463,2.43091c0.59954,-0.3851 5.48155,10.02533 -2.49139,9.18846c-7.97293,-0.83685 -76.90151,-2.87745 -77.50105,-2.49235c0.59954,-0.3851 -6.74238,-10.88209 7.64614,-9.12702z" opacity="NaN" stroke-width="13" fill="#FFAC8D"/>
   </g>
   <g stroke="null" id="svg_140">
    <path stroke="null" id="svg_138" d="m559.91608,349.56261c10.67374,-0.84239 70.17753,2.04581 69.60074,2.43091c0.57679,-0.3851 5.15143,7.78666 -2.39684,9.18847c-7.54828,1.4018 -73.98308,-2.87746 -74.55987,-2.49236c0.57679,-0.3851 -6.48652,-10.88209 7.35597,-9.12702z" opacity="NaN" stroke-width="13" fill="#845335"/>
    <path stroke="null" id="svg_139" d="m559.26249,347.67761c10.67375,-0.84238 70.17753,2.04581 69.60074,2.43091c0.57679,-0.3851 5.27351,10.02533 -2.39684,9.18846c-7.67036,-0.83685 -73.98308,-2.87745 -74.55987,-2.49235c0.57679,-0.3851 -6.48651,-10.88209 7.35597,-9.12702z" opacity="NaN" stroke-width="13" fill="#FFAC8D"/>
   </g>
   <g transform="rotate(-3 590.002 330.424)" stroke="null" id="svg_143">
    <path stroke="null" id="svg_141" d="m560.62477,325.51385c10.08392,-0.84239 66.29956,2.04581 65.75465,2.43091c0.54491,-0.3851 4.86677,7.78666 -2.26439,9.18847c-7.13117,1.4018 -69.89483,-2.87746 -70.43974,-2.49236c0.54491,-0.3851 -6.12808,-10.88209 6.94948,-9.12702z" opacity="NaN" stroke-width="13" fill="#845335"/>
    <path stroke="null" id="svg_142" d="m560.00694,323.62966c10.08392,-0.84239 66.29956,2.04581 65.75465,2.43091c0.54491,-0.3851 4.98211,10.02533 -2.26439,9.18846c-7.2465,-0.83686 -69.89483,-2.87746 -70.43974,-2.49235c0.54491,-0.38511 -6.12808,-10.8821 6.94948,-9.12702z" opacity="NaN" stroke-width="13" fill="#FFAC8D"/>
   </g>
  </g>
 </g>

</svg>