<svg width="500" height="500" xmlns="http://www.w3.org/2000/svg">
 <g id="Layer_1">
  <title>Layer 1</title>
  <ellipse stroke="null" fill="#396849" cx="250" cy="250" id="svg_6" rx="211.73919" ry="217.24768"/>
  <path transform="rotate(-15 211 190.167)" stroke="null" id="svg_2" d="m69,159.43875l108.4791,0l33.52088,-99.43875l33.5209,99.43875l108.47909,0l-87.76128,61.45583l33.52261,99.43875l-87.76132,-61.4575l-87.7613,61.4575l33.52262,-99.43875l-87.76131,-61.45583z" fill="#9e9722"/>
  <path transform="rotate(-15 219.471 200.758)" stroke="null" id="svg_7" d="m100.47078,170.78233l90.90855,0l28.09144,-83.33247l28.09145,83.33247l90.90853,0l-73.54642,51.50171l29.38891,91.7819l-80.16745,-56.87817l-68.22146,48.42874l28.0929,-83.33247l-73.54645,-51.50171z" fill="#eded10"/>
  <path stroke="null" fill-opacity="0.48" id="svg_9" d="m59.04759,344.14284c0,0 59.28571,147.66666 232.42857,118.52381c166.9881,-36.41666 186.59525,-204.57142 161.33336,-274.66665c-12.2143,52.6111 -0.14288,101.88888 -147.11906,188.30951c-116.5,38.48412 -173.95239,-3.98414 -246.64287,-32.16667z" opacity="NaN" fill="#000000"/>
 </g>

</svg>