<svg width="500" height="500" xmlns="http://www.w3.org/2000/svg">
 <g id="Layer_1">
  <title>Layer 1</title>
  <g stroke="null" id="svg_5">
   <path stroke="null" d="m213.14236,188.64144c1.27894,-0.15901 1.89827,1.67032 4.16045,3.34504c5.89908,4.36721 11.72956,13.86397 20.27844,25.80232c7.54735,10.53969 14.10055,17.76592 18.78374,23.4133c4.01577,4.84261 9.02379,8.82801 15.68652,17.36124c7.97413,10.21295 17.46865,22.2254 24.43892,29.1474c5.71445,5.67487 10.18299,10.05682 14.0839,13.69819c4.59731,4.29141 12.69709,12.5832 19.73904,19.43228c7.04197,6.84915 12.83349,11.03764 15.36286,13.5392c3.2243,3.1889 7.04197,6.84915 11.20246,10.19416c6.93408,5.57509 13.86819,11.15018 16.74969,14.65424c2.88149,3.50407 6.20347,4.66609 10.98668,7.64613c8.35353,5.20445 14.35285,13.32137 22.29696,19.11434c5.75381,4.19579 9.82985,7.66938 11.09454,8.92016c3.22429,3.18897 7.18913,5.18805 12.37346,8.76116c7.33175,5.05314 15.03926,9.71718 17.81285,11.94725c2.77363,2.23002 4.78518,3.8474 8.32088,6.69014c3.53575,2.84275 9.27818,3.41587 10.9867,7.64614c0.47388,1.17326 1.69292,0.81558 2.77363,2.23002c2.41644,3.16277 4.03339,6.2082 7.25771,9.39713c1.26465,1.25077 1.49467,2.38901 0.21574,2.54799c-1.27894,0.15901 -3.72896,1.751 -6.17899,3.34296c-2.44997,1.592 -7.35002,4.776 -12.35797,6.68596c-5.00787,1.90998 -9.90788,5.09394 -12.35791,6.68594c-2.44997,1.592 -3.72896,1.751 -4.9,3.184c0,0 -1.17107,1.433 -3.72896,1.751c-2.55786,0.31797 -6.39465,0.79496 -7.67364,0.95392c-1.27894,0.15901 -3.83683,0.47698 -5.11576,0.63598c-3.83683,0.47698 -5.11576,0.63598 -7.67364,0.95392c-1.27894,0.15901 -2.55786,0.31797 -3.83683,0.47698c0,0 -0.86538,-0.75356 -2.98936,-4.77806c-3.00382,-5.69146 -5.23203,-12.41977 -6.41028,-14.65214c-1.66622,-3.15706 -4.45878,-2.39764 -5.43939,-3.18604c-1.96122,-1.57688 -3.93942,-4.94667 -8.5367,-9.23814c-2.60064,-2.42757 -5.64488,-2.97092 -6.82621,-4.30109c-1.86782,-2.10315 -4.26832,-4.61906 -7.14982,-8.1231c-2.88149,-3.5041 -4.26832,-4.61906 -5.76301,-7.00811c-1.4947,-2.38902 -2.88152,-3.50407 -5.76305,-7.00809c0,0 -2.22522,-3.77793 -2.98936,-4.77806c-1.70865,-2.23638 -3.18461,-1.79976 -5.54725,-4.46009c-1.86781,-2.1032 -2.00877,-3.98961 -2.98936,-4.77806c-0.9806,-0.78843 -2.29267,-1.24189 -4.16048,-3.34504c-2.36268,-2.66031 -6.36432,-4.74088 -9.70771,-7.80513c-2.07343,-1.90041 -2.64682,-5.41131 -4.37618,-5.89309c-1.22286,-0.34067 -1.8112,-2.54565 -2.98943,-4.77804c-0.83311,-1.57853 -2.49423,-0.18804 -4.16041,-3.3451c-1.17816,-2.23236 -2.9979,-6.13731 -5.97875,-9.5561c-4.13373,-4.74099 -5.17392,-5.89191 -5.76301,-7.00811c-0.83311,-1.57853 -2.77366,-2.23002 -4.26835,-4.61904c-1.4947,-2.38902 -4.26832,-4.61906 -5.65515,-5.73409c-1.38683,-1.11502 -1.70022,-2.17385 -2.88149,-3.50407c-1.86782,-2.10315 -3.09013,-2.38667 -4.26832,-4.61906c-0.83311,-1.57853 -2.77366,-2.23002 -2.77366,-2.23002c-1.4947,-2.38902 -2.40029,-3.66189 -2.98936,-4.77809c-1.6662,-3.15703 -5.54725,-4.46009 -5.54725,-4.46009c-1.4947,-2.38902 -3.12576,-3.23247 -5.65515,-5.73409c-3.22429,-3.18897 -5.28202,-6.01997 -7.14984,-8.12314c-1.18134,-1.33017 -2.77363,-2.23002 -4.26832,-4.61906c-1.4947,-2.38902 -4.6793,-4.18878 -7.04197,-6.84915c-1.86782,-2.10315 -2.40054,-2.51589 -4.26835,-4.61904c-1.18134,-1.33017 -3.67947,-2.35692 -5.54725,-4.46009c-2.36268,-2.66031 -4.7334,-4.96038 -7.14984,-8.12314c-1.08065,-1.41442 -1.9009,-2.71562 -2.88149,-3.50407c-0.98062,-0.78846 -1.90571,-1.95871 -4.26835,-4.61904c-1.86785,-2.10318 -3.89519,-4.90496 -5.76301,-7.00811c-1.18134,-1.33017 -1.793,-1.44162 -2.77363,-2.23002c-1.96128,-1.57689 -1.67685,-5.32579 -3.20511,-7.32611c-1.70871,-2.23641 -3.072,-1.28259 -4.05259,-2.07105c-0.9806,-0.7884 -1.4947,-2.38902 -1.4947,-2.38902c-1.4947,-2.38902 -2.88149,-3.50407 -4.26832,-4.61906c0,0 -1.27894,0.15901 -1.38683,-1.11502c-0.10787,-1.27399 -0.62193,-2.87462 -1.6026,-3.66301c-0.9806,-0.7884 -3.21947,-0.49258 -4.05256,-2.07107c-1.17816,-2.23236 -2.11736,-2.50388 -2.88149,-3.50407c-1.70871,-2.23641 -2.11739,-2.50388 -2.88153,-3.50405c-1.70865,-2.23638 -5.43939,-3.18604 -6.82621,-4.30109c-4.16041,-3.3451 -4.86492,-2.72423 -6.82621,-4.30112c-0.9806,-0.7884 -0.21574,-2.54799 -1.4947,-2.38902c-1.27894,0.15901 -0.51407,-1.60059 -1.4947,-2.38902c-0.9806,-0.7884 -2.32318,-1.5893 -4.05257,-2.07101c-1.22286,-0.34067 -1.38683,-1.11502 -1.38683,-1.11502c-1.27894,0.15901 -2.66573,-0.95605 -2.66573,-0.95605c-1.49469,-2.38905 -2.77363,-2.23005 -2.77363,-2.23005c0,0 -0.79773,0.00115 -1.38683,-1.11502c-0.83311,-1.57853 -1.4947,-2.38902 -1.6026,-3.66301c0,0 0,0 -0.10787,-1.27399c-0.10787,-1.27399 -0.10787,-1.27399 -0.21574,-2.54799c-0.10787,-1.27399 -1.38683,-1.11502 -1.4947,-2.38902c-0.10787,-1.27399 -0.10787,-1.27399 -0.21574,-2.54799c-0.10787,-1.27399 1.17107,-1.433 1.17107,-1.433c0,0 -0.54944,-1.80979 1.06323,-2.70699c1.14031,-0.63443 1.17107,-1.433 1.17107,-1.433c-0.10787,-1.27399 1.30974,-0.95753 2.44997,-1.592c1.61264,-0.89723 2.48077,-2.39053 3.62106,-3.02494c1.61264,-0.89723 3.62106,-3.02494 3.62106,-3.02494c2.55789,-0.31797 4.90724,-1.24531 8.84474,-2.38694c1.24512,-0.36101 2.55786,-0.31797 3.8368,-0.47698c0,0 1.27894,-0.15901 2.55786,-0.31797c0,0 1.27894,-0.15901 2.55789,-0.31797c1.27894,-0.15901 2.66573,0.95605 2.66573,0.95605c1.27894,-0.15901 1.68514,0.16757 2.66573,0.95605c0.9806,0.7884 1.38683,1.11502 2.77363,2.23002l1.27894,-0.15901l0.10787,1.27399l1.27894,-0.15901" id="svg_2" fill="#482816"/>
   <rect stroke="null" transform="matrix(3.04844 -2.71781 2.56576 3.03627 -171.488 20.5357)" rx="3" stroke-width="5" id="svg_8" height="27.83019" width="73" y="71.57187" x="3.03464" fill="#999999"/>
   <path stroke="null" fill="#BBBBBB" stroke-width="5" opacity="NaN" d="m29.99173,221.64286c-0.98997,0 -4.94984,11.98535 -4.94984,11.98535c0,0 21.77931,25.81459 20.78935,24.89265c0.98996,0.92193 20.78933,19.36092 19.79937,18.43899c0.98996,0.92193 26.72914,-14.75121 27.71911,-15.67316c0.98997,-0.92195 22.76927,-33.19019 23.75924,-36.87799c0.98997,-3.6878 1.97994,-30.42434 1.97994,-31.34629c0,-0.92195 12.86959,-11.0634 19.79937,-16.59509c6.92978,-5.5317 10.88965,-8.29755 18.8094,-18.43899c7.91975,-10.14145 10.88965,-10.14145 11.87962,-14.75119c0.98997,-4.60975 0,-11.0634 0.98997,-22.12679c0.98997,-11.0634 0.98997,-11.98535 0.98997,-14.75119c0,-2.76585 16.82946,-23.97069 15.8395,-24.89263" id="svg_1"/>
   <path stroke="null" fill="#666666" stroke-width="5" opacity="NaN" d="m198.28636,219.79896c0,-0.92195 19.79937,-33.19019 22.76927,-34.11214c2.96991,-0.92195 20.78934,-25.81459 26.72915,-33.19019c5.93981,-7.3756 9.89968,-18.43899 15.83949,-20.28289c5.93981,-1.8439 15.83949,-14.75119 19.79937,-16.59509c3.95987,-1.8439 17.81943,-6.45365 21.77931,-5.5317c3.95987,0.92195 6.92978,11.0634 5.93983,10.14146c0.98995,0.92194 -112.85641,100.49251 -112.85641,99.57056l-0.00001,0z" id="svg_3"/>
   <path stroke="null" fill="#845335" stroke-width="5" opacity="NaN" d="m403.20982,464.11562c63.35798,14.75119 6.92978,-18.43899 -6.92978,-32.26824c-13.85956,-13.82925 -16.82946,-16.59509 -19.79937,-22.12679c-2.96991,-5.5317 -10.88965,-19.36094 -15.83949,-22.12679c-4.94984,-2.76585 -29.69905,-22.12679 -31.67899,-24.89264c-1.97994,-2.76585 -13.85956,-15.67314 -19.79937,-20.28289c-5.93981,-4.60975 -25.73918,-28.58044 -27.71912,-32.26824c-1.97994,-3.6878 -15.83949,-22.12679 -17.81943,-23.04874c-1.97994,-0.92195 -2.96991,-2.76585 -7.91975,-6.45365c-4.94984,-3.6878 -15.83949,-12.9073 -21.77931,-18.43899c-5.93981,-5.5317 -14.84953,-16.59509 -17.81943,-20.28289c-2.96991,-3.6878 -5.93981,-7.3756 -6.92978,-7.3756" id="svg_4"/>
  </g>
 </g>

</svg>