<svg width="200" height="200" xmlns="http://www.w3.org/2000/svg">
 <g id="Layer_1">
  <title>Layer 1</title>
  <path d="m174.08901,70.77719c0,0.32437 -1.11818,0.44093 -2.26551,0.97309c-2.99187,1.38774 -8.9876,2.64924 -16.61375,4.54113c-6.73269,1.67025 -11.44929,3.1614 -15.10342,4.21677c-3.13338,0.90497 -5.83632,2.07718 -11.32754,3.56804c-6.57216,1.78431 -14.31071,3.91195 -18.87926,5.51424c-3.74545,1.31362 -6.64164,2.342 -9.06205,3.24367c-2.85247,1.06263 -8.30688,2.9193 -12.83789,4.54113c-4.53103,1.62184 -7.41024,2.98637 -9.06205,3.56803c-2.10566,0.74147 -4.53103,1.62184 -6.79654,2.59493c-3.77584,1.62184 -7.5517,3.24367 -9.81721,3.8924c-2.26551,0.64874 -3.18937,1.45777 -5.28618,2.59493c-3.66194,1.98596 -8.8606,3.31917 -12.83791,5.18987c-2.8807,1.35492 -5.21546,2.30411 -6.04137,2.59493c-2.10566,0.74146 -3.56742,1.69408 -6.04137,2.9193c-3.4987,1.73272 -6.79654,3.56804 -8.30688,4.21677c-1.51033,0.64874 -2.60571,1.11921 -4.53102,1.9462c-1.92532,0.82698 -2.68021,2.25604 -5.28619,2.59494c-0.72277,0.094 -0.60186,0.40756 -1.51033,0.64874c-2.0314,0.53926 -3.93569,0.88037 -6.04137,1.62184c-0.8259,0.29083 -1.51033,0.32436 -1.51033,0c0,-0.32438 -0.75517,-0.9731 -1.51033,-1.62184c-0.75517,-0.64874 -2.26551,-1.9462 -3.02068,-3.24368c-0.75517,-1.29746 -2.26551,-2.59493 -3.02067,-3.24366c-0.75517,-0.64874 -0.75517,-0.9731 -1.51035,-1.29746c0,0 -0.75517,-0.32438 -0.75517,-0.9731c0,-0.64874 0,-1.62182 0,-1.9462c0,-0.32438 0,-0.9731 0,-1.29746c0,-0.9731 0,-1.29746 0,-1.9462c0,-0.32438 0,-0.64874 0,-0.9731c0,0 0.50514,-0.20118 3.02068,-0.64874c3.55752,-0.63294 7.66667,-1.0492 9.06205,-1.29746c1.97336,-0.3511 1.73153,-1.06812 2.26551,-1.29746c1.06798,-0.45872 3.18887,-0.88359 6.04137,-1.94621c1.6136,-0.60111 2.15431,-1.35361 3.02068,-1.62183c1.36988,-0.42409 3.02068,-0.97309 5.28619,-1.62183c2.26551,-0.64874 3.02068,-0.97309 4.53102,-1.29746c1.51033,-0.32437 2.26551,-0.64874 4.53102,-1.29747c0,0 2.37829,-0.47821 3.02068,-0.64874c1.43641,-0.38132 1.28791,-0.76103 3.02067,-1.29746c1.36988,-0.42409 2.48669,-0.41937 3.02068,-0.64874c0.53399,-0.22935 0.89563,-0.54902 2.26551,-0.9731c1.73277,-0.53643 3.24497,-1.49657 5.28621,-2.27057c1.26591,-0.48001 3.36715,-0.54929 3.77584,-0.97309c0.289,-0.29967 1.6253,-0.40048 3.02067,-0.64874c0.9867,-0.17555 0.29218,-0.62201 2.26552,-0.97309c1.39538,-0.24825 3.81862,-0.62198 6.04135,-1.29746c3.08237,-0.93673 3.83335,-1.17333 4.53103,-1.29746c0.98667,-0.17555 1.51033,-0.64874 3.02067,-0.9731c1.51033,-0.32437 3.02067,-0.97309 3.77586,-1.29746c0.75517,-0.32437 1.39914,-0.38051 2.26551,-0.64874c1.36986,-0.42409 1.6253,-0.72484 3.02067,-0.97309c0.98667,-0.17555 1.51033,-0.64874 1.51033,-0.64874c1.51033,-0.32437 2.32301,-0.5246 3.0207,-0.64874c1.97336,-0.35109 3.02067,-1.29746 3.02067,-1.29746c1.51033,-0.32437 2.12403,-0.71582 3.77584,-1.29746c2.10568,-0.74146 3.91634,-1.19775 5.28621,-1.62184c0.86637,-0.26822 1.51033,-0.64874 3.02067,-0.97309c1.51033,-0.32437 2.79827,-1.0854 4.53103,-1.62183c1.36986,-0.42409 1.65081,-0.54902 3.02067,-0.9731c0.86637,-0.26822 1.65081,-0.87338 3.02067,-1.29746c1.73276,-0.53643 3.25479,-1.08257 5.28621,-1.62183c0.90847,-0.24117 1.73153,-0.41937 2.26551,-0.64874c0.53399,-0.22936 1.28791,-0.43667 3.02067,-0.9731c1.36988,-0.4241 3.16117,-0.87338 4.53103,-1.29746c0.86637,-0.26822 0.97636,-0.41937 1.51033,-0.64874c1.06798,-0.45873 3.24626,-0.30768 4.53103,-0.64874c1.43643,-0.38132 0.97636,-0.74375 1.51033,-0.9731c0.53398,-0.22935 1.51033,-0.32437 1.51033,-0.32437c1.51033,-0.32437 2.26551,-0.64874 3.02067,-0.97309c0,0 0,-0.32437 0.75517,-0.32437c0.75517,0 1.73153,-0.095 2.26551,-0.32437c0.53398,-0.22935 0.52367,-0.79755 1.51035,-0.97309c1.39538,-0.24825 1.62311,-0.47821 2.26551,-0.64874c1.43643,-0.38132 1.62311,-0.47821 2.26551,-0.64874c1.43641,-0.38132 2.26551,-1.29746 3.02067,-1.62183c2.26552,-0.97309 1.95272,-1.1631 3.0207,-1.62183c0.53398,-0.22935 1.51033,0 1.51033,-0.32438c0,-0.32437 0.97636,-0.095 1.51033,-0.32437c0.53398,-0.22935 1.10164,-0.54929 1.51033,-0.97309c0.289,-0.29967 0.75517,-0.32437 0.75517,-0.32437c0,-0.32437 0.75517,-0.64874 0.75517,-0.64874c1.51035,-0.32437 1.51035,-0.64874 1.51035,-0.64874c0,0 0.05749,-0.20024 0.75517,-0.32437c0.98667,-0.17555 1.51033,-0.32437 2.26551,-0.32437c0,0 0,0 0.75517,0c0.75517,0 0.75517,0 1.51033,0c0.75517,0 0.75517,-0.32437 1.51033,-0.32437c0.75517,0 0.75517,0 1.51033,0c0.75519,0 0.75519,0.32437 0.75519,0.32437c0,0 1.10164,-0.09944 1.51033,0.32437c0.289,0.29967 0.75517,0.32437 0.75517,0.32437c0.75517,0 0.46617,0.34906 0.75517,0.64874c0.40869,0.4238 1.22135,0.67342 1.51033,0.97309c0.40869,0.4238 1.51033,0.97309 1.51033,0.97309c0,0.64874 0.37265,1.25807 0.75517,2.27057c0.12096,0.32018 0,0.64874 0,0.97309c0,0 0,0.32437 0,0.64874c0,0 0,0.32437 0,0.64874c0,0.32437 -0.75517,0.64874 -0.75517,0.64874c0,0.32437 -0.22118,0.41937 -0.75517,0.64874c-0.53398,0.22935 -0.75517,0.32437 -1.51033,0.64874l0,0.32437l-0.75517,0l0,0.32437" id="svg_2" fill="#000000" stroke="#000" transform="rotate(-29 86.1385 96.1933)"/>
  <path transform="rotate(-3 151.283 61.2179)" d="m144.50549,33.88278c0.27472,0 0.37692,0.10579 1.37363,0.82418c1.8911,1.36303 3.74802,4.46558 6.31868,7.96703c1.85373,2.52493 3.43645,4.57215 4.94505,6.86813c1.21626,1.85107 2.90953,4.59735 4.94505,9.34066c2.09239,4.87583 3.14914,9.38291 3.84615,11.53846c0.45517,1.40768 1.0685,2.75771 1.64836,4.39561c0.78336,2.21268 1.64835,4.12088 1.92308,4.94505c0,0 0.14848,0.0147 0.27472,0.54945c0.14113,0.59786 0.54945,0.54945 0.27472,0.54945c-0.27472,0 -1.37363,0.00001 -3.29669,0.54945c-1.92308,0.54945 -3.08318,1.57253 -4.12088,2.47253c-0.58702,0.50912 -1.2655,1.52445 -2.74725,2.47253c-1.03491,0.66216 -1.72882,0.90464 -1.92308,1.0989c-0.19426,0.19426 -0.27472,0 -0.27472,0c-0.54945,0.54945 -1.09891,1.0989 -1.09891,1.0989c0,-0.27472 -0.14696,-0.36009 -0.54945,-0.82417c-0.56921,-0.6563 -0.49173,-1.6699 -0.82417,-2.47253c-0.23508,-0.56754 -0.5444,-1.2945 -0.82417,-2.74725c-0.31172,-1.61861 -1.05074,-3.58827 -1.64836,-5.21978c-0.50887,-1.38917 -0.7059,-2.50906 -1.09889,-3.57143c-0.42625,-1.1523 -0.64429,-2.24642 -1.09891,-3.57143c-0.39873,-1.1621 -0.7397,-1.97417 -1.09889,-2.47253c-0.45435,-0.63037 -0.60173,-1.6158 -1.09891,-2.47253c-0.61667,-1.06264 -1.09889,-1.64835 -1.37363,-2.1978c-0.27472,-0.54945 -0.74564,-1.15705 -1.37363,-1.92308c-0.73895,-0.90137 -1.8671,-1.69265 -2.74725,-2.74725c-0.78723,-0.94326 -1.56981,-1.98123 -2.1978,-2.74725c-0.49265,-0.60092 -1.02037,-1.15705 -1.64835,-1.92308c-0.73895,-0.90138 -1.817,-1.72994 -2.47253,-2.47253c-0.40654,-0.46053 -0.87172,-0.78372 -1.09889,-1.0989c-0.35919,-0.49835 -0.90578,-1.26754 -1.64836,-1.92308c-0.46054,-0.40655 -0.82417,-0.54945 -1.09889,-0.82417l-0.27473,0l0,-0.27473l0,0" id="svg_3" stroke="#000" fill="#000000"/>
 </g>

</svg>