<svg width="800" height="800" xmlns="http://www.w3.org/2000/svg">
 <g id="Layer_1">
  <title>Layer 1</title>
  <rect rx="100" id="svg_4" height="805" width="803" y="-5.5" x="0" stroke-width="13" stroke="null" fill="#EDB6DC"/>
  <path id="svg_13" d="m47.2357,558.03053c1.19793,0 16.771,84.30099 15.57308,83.63193c1.19791,0.66904 46.71922,4.6834 62.29227,28.10034c15.57305,23.41693 2.39584,50.17914 50.31298,78.27948c47.91713,28.10033 307.86757,12.04299 317.451,8.02867c9.58343,-4.01434 89.84462,-61.5531 87.44877,-133.81109c-2.39586,-72.25798 136.30375,-88.73942 185.42917,-115.12053c49.12542,-26.38111 -167.46022,52.22934 -201.00222,54.2365c-33.54201,2.00716 -129.37627,-0.66907 -129.37627,-0.66907c0,0 -13.17721,25.42411 -14.37513,24.75507c1.19791,0.66904 -121.82504,-18.35962 -216.82504,-7.35962c-7,-14 -9.5834,-28.10031 -5.98963,-26.09315c3.59377,2.00717 -136.53273,-19.68337 -153.33482,-4.01433c-16.80209,15.66904 1.19791,10.03582 2.39584,10.03582l0,-0.00002z" opacity="NaN" stroke-width="6" fill="#482816"/>
  <line stroke="#000000" id="svg_147" y2="116.10152" x2="340.69706" y1="599.15953" x1="380.22869" stroke-width="14" fill="none"/>
  <line stroke="#000000" id="svg_167" y2="29.12432" x2="333.50949" y1="597.82141" x1="373.04112" stroke-width="6" fill="none"/>
  <path id="svg_175" d="m332.6237,40.68486c0,0 -19.88433,5.81296 -30.38926,-1.93765c-10.50493,-7.75061 -18.38362,23.25185 -22.88574,14.20947c-4.50211,-9.04239 1.12553,36.16955 0.75036,35.71878c0.37517,0.45077 24.01126,-30.5517 30.01408,-18.27989c6.00282,12.27181 22.88574,3.87531 24.01126,-0.64589c1.12553,-4.52119 -1.5007,-29.06482 -1.5007,-29.06482z" opacity="NaN" stroke-width="2" fill="#ffffff"/>
  <line stroke="#000000" id="svg_144" y2="121.45394" x2="234.08144" y1="633.95038" x1="273.61308" stroke-width="6" fill="none"/>
  <g id="svg_51">
   <path id="svg_151" d="m151.10616,529.03324l208.78457,0.60845c1.30489,0.60841 30.01277,-205.04121 -36.5373,-201.39062c-66.55009,3.65058 -217.91888,2.43373 -219.22377,1.82531c1.30489,0.60842 100.47755,55.3672 46.97651,198.95686l-0.00001,0z" opacity="NaN" stroke-width="5" fill="#ffffff"/>
   <path id="svg_7" d="m164.99998,442.99997c0,0 4,26 6,28c2,2 15,17 17,22c2,5 6,10 7,11c1,1 11,12 13,14c2,2 21,13 20.00002,12.00003c0.99998,0.99997 -67.00002,-0.00003 -66.00002,-0.00003c1,0 -7,-27 -7.99998,-27.99997c0.99998,0.99997 10.99998,-59.00003 10.99998,-59.00003z" opacity="NaN" stroke-width="6" fill="#666666"/>
  </g>
  <path id="svg_21" d="m226.99998,579.99997c0,0 -29,10 -29.99998,9.00003c0.99998,0.99997 -4.00002,10.99997 -5,10c0.99998,0.99997 30.99998,12.99997 31.99998,12.99997c1,0 41,6 40.00002,5.00003c0.99998,0.99997 46.99998,-0.00003 47.99998,0.99997c1,1 41,-6 41,-6c0,0 17,-8 16.00002,-8.99997c0.99998,0.99997 -142.00002,-23.00003 -142.00002,-23.00003z" opacity="NaN" stroke-width="6" fill="#482816"/>
  <line stroke="#000000" id="svg_142" y2="292.73213" x2="419.76032" y1="658.0364" x1="459.29196" stroke-width="6" fill="none"/>
  <g id="svg_33">
   <path id="svg_156" d="m122.09855,323.81239l191.66854,0.42255c1.19792,0.42249 27.55234,-142.38776 -33.54201,-139.85267c-61.09435,2.53509 -172.50166,3.52125 -148.5431,3.94377c23.95856,0.42252 39.53163,35.7727 -9.58344,135.48636l0.00001,-0.00001z" opacity="NaN" stroke-width="5" fill="#ffffff"/>
   <path id="svg_8" d="m139.99998,269.99998c1,0 22,19 26,22c4,3 37,16 39,16c2,0 26,0 30,1c4,1 46,-1 47,-1c1,0 22,1 24,1c2,0 5,19 4.00002,18.00002c0.99998,0.99998 -61.00002,-2.00002 -62.00002,-2.00002c-1,0 -80,0 -80.99998,-0.99998c0.99998,0.99998 -46.00002,-0.00002 -47,-1c0.99998,0.99998 18.99998,-53.00002 19.99998,-53.00002z" opacity="NaN" stroke-width="6" fill="#666666"/>
  </g>
  <g id="svg_35">
   <path id="svg_141" d="m37.2357,566.03053c1.19793,0 16.771,84.30099 15.57308,83.63193c1.19791,0.66904 46.71922,4.6834 62.29227,28.10034c15.57305,23.41693 2.39584,50.17914 50.31298,78.27948c47.91713,28.10033 307.86757,12.04299 317.451,8.02867c9.58343,-4.01434 89.84462,-61.5531 87.44877,-133.81109c-2.39586,-72.25798 114.30375,-98.73942 157.42917,-112.12053c43.12542,-13.38111 -139.46022,49.22934 -173.00222,51.2365c-33.54201,2.00716 -129.37627,-0.66907 -129.37627,-0.66907c0,0 -13.17721,25.42411 -14.37513,24.75507c-149.80209,32.66904 -216.82504,-7.35962 -216.82504,-7.35962c0,0 -9.5834,-28.10031 -5.98963,-26.09315c3.59377,2.00717 -152.13691,-3.34528 -153.33482,-4.01433c1.19791,0.66904 1.19791,10.03582 2.39584,10.03582l0,-0.00002z" opacity="NaN" stroke-width="6" fill="#724831"/>
   <path id="svg_20" d="m10.2357,570.03053c1.19793,0 16.771,84.30099 15.57308,83.63193c1.19791,0.66904 46.71922,4.6834 62.29227,28.10034c15.57305,23.41693 2.39584,50.17914 50.31298,78.27948c47.91713,28.10033 307.86757,12.04299 317.451,8.02867c9.58343,-4.01434 89.84462,-61.5531 87.44877,-133.81109c-2.39586,-72.25798 185.30375,-105.73942 185.42917,-118.12053c0.12542,-12.38111 -167.46022,55.22934 -201.00222,57.2365c-33.54201,2.00716 -129.37627,-0.66907 -129.37627,-0.66907c0,0 -13.17721,25.42411 -14.37513,24.75507c-122.80209,59.66904 -216.82504,-7.35962 -216.82504,-7.35962c0,0 -9.5834,-28.10031 -5.98963,-26.09315c3.59377,2.00717 -128.53273,-13.68337 -131.33482,-6.01433c-2.80209,7.66904 -20.80209,12.03582 -19.60416,12.03582l0,-0.00002z" opacity="NaN" stroke-width="6" fill="#8e5b3d"/>
  </g>
  <g id="svg_30">
   <path id="svg_36" d="m259.32689,532.63437l223.04796,0.66908c28.94639,-11.37397 27.27142,-221.45737 -39.0334,-221.45736c-66.30483,0 -123.79481,4.01432 -181.49148,2.00717c15.76918,24.75503 54.63295,60.88403 -2.52308,218.78111z" opacity="NaN" stroke-width="5" fill="#ffffff"/>
   <path id="svg_37" d="m265.99998,532.99997c0,0 18,-63 17.00002,-63.99997c0.99998,0.99997 11.99998,-48.00002 11,-49c0.99998,0.99998 27.99998,34.99997 27.99998,35.99997c0,1 47,37 48,38c1,1 63,12 65,13c2,1 50.99999,-11 50.00002,-11.99997c0.99997,0.99997 14.99997,-62.00002 10.99997,-65.00002c-4,-3 -2,-60 -3,-60c-1,0 14,93.99999 14,93.99999c0,0 -13,68 -13,68c0,0 -18,5 -19,5c-1,0 -208.99999,-4 -208.99999,-4z" opacity="NaN" stroke-width="6" fill="#BBBBBB"/>
  </g>
  <g id="svg_31">
   <path id="svg_39" d="m230.75368,299.95171l244.8327,-0.80302c11.18848,-42.2845 -25.90028,-175.28653 -70.62332,-174.75237c-44.72304,0.53416 -163.1384,0.37746 -145.4826,4.44278c17.65581,4.06531 8.331,110.40518 -28.72679,171.11261l0.00001,0z" opacity="NaN" stroke-width="5" fill="#ffffff"/>
   <path id="svg_40" d="m479.99997,275.99998c0,0 -23,20 -24,20c-1,0 -42.99999,0 -48.99999,1c-6,1 -68,-3 -68.99998,-3.99998c0.99998,0.99998 -58.00002,-3.00002 -59,-4c0.99998,0.99998 -28.00002,-11.00002 -29,-12c0.99998,0.99998 -13.00002,26.99998 -14,26c0.99998,0.99998 117.99998,-1.00002 118.99998,-1.00002c1,0 72,2 72,2c0,0 54.99999,-4 53.99999,-4c-1,0 -1,-24 -1,-24z" opacity="NaN" stroke-width="6" fill="#666666"/>
  </g>
  <g id="svg_32">
   <path id="svg_42" d="m492.68883,538.95597c0,0 175.53619,-99.0202 234.33061,-56.20066c58.79442,42.81954 -331.97133,-264.94595 -259.52821,-210.0834c72.44312,54.86255 25.19761,266.28406 25.19761,266.28406l-0.00001,0z" opacity="NaN" stroke-width="6" fill="#ffffff"/>
   <path id="svg_43" d="m502.99997,532.99997c0,0 25,-28 26,-28c1,0 13,-13 21,-15c8,-2 30,-19 34,-19c4,0 28,-2 31,-2c3,0 60,-13 60,-11c0,2 15,5 15,6c0,1 21,5 20.00003,4.00003c0.99997,0.99997 -76.00003,15.99997 -77.00003,15.99997c-1,0 -37,13 -39,13c-2,0 -52,21 -53,22c-1,1 -38,14 -38,14z" opacity="NaN" stroke-width="6" fill="#BBBBBB"/>
  </g>
  <g id="svg_34">
   <path id="svg_48" d="m40.01705,539.61358c-38.33371,48.17199 25.15649,-17.39544 74.27155,-8.02867c49.11506,9.36678 62.29227,26.76222 59.89642,20.07166c-2.39586,-14.71922 -89.84462,-436.22414 -64.68813,-310.44172c25.15649,125.78243 -31.14614,250.22673 -69.47984,298.39873z" opacity="NaN" stroke-width="5" fill="#ffffff"/>
   <path id="svg_49" d="m154.99998,492.99997c0,0 -10,-28 -10,-28c0,0 -21,-11 -21.99998,-11.99997c0.99998,0.99997 -20.00002,7.99997 -22.00001,10.99997c-2,3 -17,41 -17.99999,40.00003c0.99999,0.99997 -36.00001,44.99997 -35.00001,44.99997c1,0 40,-17 41,-17c1,0 33.99999,-1 33.99999,0c0,1 27,12 27,13c0,1 20,10 19.00002,9.00003c0.99998,0.99997 -14.00002,-61.00003 -14.00002,-61.00003z" opacity="NaN" stroke-width="6" fill="#BBBBBB"/>
  </g>
  <path fill="#482816" stroke-width="6" opacity="NaN" d="m27.99999,653.33331c2,-1 42,7 52,29c10,22 18,40 22,44c4,4 7,30 31,36c24,6 85,15 100,17c15,2 147,-5 161,-5c14,0 84,-6 90,-9c6,-3 55,-40 56,-46c1,-6 30,-50 30,-50c0,0 -51,28 -60,43c-9,15 -36,20 -75,36c-39,16 -137,7 -213.99999,4c-77,-3 -110,-83 -124,-88" id="svg_1"/>
  <path fill="#482816" stroke-width="6" opacity="NaN" d="m222.99998,581.33331c0,0 -23,8 -23.99998,7.66669c0.99998,0.33331 -12.00002,10.33331 -13,10c0.99998,0.33331 44.99998,18.33331 44,18c0.99998,0.33331 65.99998,6.33331 66.99998,6.33331c1,0 55,-14 54.00002,-14.33331c0.99998,0.33331 13.99998,-7.66669 14.99998,-7.66669c1,0 -20,-16 -20.99998,-16.33331c0.99998,0.33331 -52.00002,9.33331 -52.00002,9.33331c0,0 -44,0 -44.99998,-0.33331c0.99998,0.33331 -25.00002,-12.66669 -25.00002,-12.66669z" id="svg_2"/>
  <path fill="#724831" stroke-width="6" opacity="NaN" d="m14.99999,606.33331c-1,5 40.00003,4.33337 81.00001,14.66669c40.99998,10.33331 22.99998,1.33331 57.99998,35.33331c35,34 4,40 53,50c49,10 86,11 119,9c33,-2 67,7 105,-11c38,-18 34.00005,-8.66662 61.00002,-28.33331c26.99997,-19.66669 50.99997,-15.66669 50.99997,-15.66669c0,0 22,-4 21.00003,-4.33331c0.99997,0.33331 -9.00003,24.33331 -10,24c0.99997,0.33331 -48.00003,37.33331 -47.00003,37.33331c1,0 -31,20 -31.99997,19.66669c0.99997,0.33331 -78.00002,27.33331 -79,27c0.99998,0.33331 -122.00002,0.33331 -123.00002,0.33331c-1,0 -76,-5 -76.99998,-5.33331c0.99998,0.33331 -49.00002,-20.66669 -48.00002,-20.66669c1,0 -25.99997,-41.66662 -46.99998,-62.33331c-21.00001,-20.66669 -41.00001,-13.66669 -42,-14c0.99999,0.33331 -35.00001,-0.66669 -34.00001,-0.66669c1,0 -16,-68 -10,-55z" id="svg_3"/>
 </g>

</svg>