<svg width="635" height="440" xmlns="http://www.w3.org/2000/svg">
 <g id="Layer_1">
  <title>Layer 1</title>
  <g stroke="null" id="svg_25">
   <rect stroke="null" fill="#000000" stroke-width="13" x="660.30313" y="431.33331" width="2.19681" height="1" id="svg_12"/>
   <path stroke="null" fill="#482816" stroke-width="13" opacity="NaN" d="m15.10109,412.14305c30.66421,0.48298 399.5326,-2.51122 433.99511,-5.10633c34.46252,-2.59511 190.68536,9.51673 180.41314,-4.66629c-10.27222,-14.18302 -8.83998,-32.68037 -19.72287,-35.27549c-10.88291,-2.59511 -249.14463,-20.53576 -292.67623,-23.13088c-43.53161,-2.59511 -161.42969,1.29755 -192.26456,0c-30.83489,-1.29755 -118.64301,-3.66955 -98.86169,32.49621z" id="svg_15"/>
   <path stroke="null" fill="#BBBBBB" stroke-width="13" opacity="NaN" d="m35.45239,153.76762c0,0 276.76901,-162.1904 279.46919,-140.35707c25.65176,0 182.26251,137.23803 213.31465,137.23803c-21.60148,-14.55555 -153.91058,-50.94442 -228.16567,-33.26983c-74.2551,17.6746 -229.51577,13.51587 -264.61818,36.38887z" id="svg_14"/>
   <path stroke="null" fill="#FFAC8D" stroke-width="13" opacity="NaN" d="m27.25192,369.51608c18.51338,10.87981 391.43205,9.96497 425.89456,7.36986c34.46252,-2.59511 133.98147,5.358 158.81166,-1.54724c24.83019,-6.90525 -84.44517,-50.35496 -95.32807,-52.95008c-10.88291,-2.59511 -155.98823,1.29756 -199.51983,-1.29755c-43.53161,-2.59511 -161.42969,1.29755 -192.26456,0c-30.83489,-1.29755 -90.51466,0.78181 -86.71086,12.74225z" id="svg_16"/>
   <path stroke="null" fill="#BBBBBB" stroke-width="13" opacity="NaN" d="m509.33495,141.29144c-4.05028,26.91732 -541.38718,201.90159 -444.18051,179.3943c97.20668,-22.5073 453.63115,-1.25911 436.07995,-12.69247c-17.55121,-11.43336 12.15083,-193.61914 8.10056,-166.70183l0,0.00001z" id="svg_13"/>
   <path stroke="null" fill="#845335" stroke-width="13" opacity="NaN" d="m55.02877,331.20671c-23.62665,-2.7725 249.09208,-1.73282 303.09579,0.34655c54.00371,2.07936 68.85473,-1.03968 105.30724,-2.07936c36.4525,-1.03968 29.70204,2.07936 56.7039,1.03968c14.85102,6.23809 63.45436,27.03173 64.80445,27.03173c1.35009,0 0,7.27777 -2.70019,7.27777c-2.70019,0 -99.90686,2.07936 -100.58187,1.73282c0.67502,0.34655 -192.38825,-1.73282 -192.38825,-1.73282c0,0 -140.40965,0 -141.08467,-0.34655c0.67502,0.34655 -84.38081,-3.81218 -85.05584,-4.15873l-8.10056,-29.1111z" id="svg_23"/>
   <path stroke="null" fill="#482816" stroke-width="13" opacity="NaN" d="m41.527,328.09854c1.81382,0.64684 0,-186.93803 -1.8138,-187.15364c1.8138,0.21561 21.76578,0.86245 21.76578,6.03721c0,5.17475 -3.62763,178.52905 -3.62763,181.11643c0,2.58737 -18.13817,-0.64685 -16.32435,0l0,0.00001z" id="svg_2"/>
   <path stroke="null" fill="#482816" stroke-width="13" opacity="NaN" d="m22.6257,370.7255c1.81382,0.64684 0,-186.93803 -1.8138,-187.15364c1.8138,0.21561 21.76578,0.86245 21.76578,6.03721c0,5.17475 -3.62763,178.52905 -3.62763,181.11643c0,2.58737 -18.13817,-0.64686 -16.32435,0l0,0z" id="svg_7"/>
   <path stroke="null" fill="#482816" stroke-width="13" opacity="NaN" d="m505.95891,329.13822c1.81382,0.64684 0,-186.93803 -1.8138,-187.15364c1.8138,0.21561 21.76578,0.86245 21.76578,6.03721c0,5.17475 -3.62763,178.52905 -3.62763,181.11643c0,2.58737 -18.13817,-0.64686 -16.32435,0l0,0z" id="svg_8"/>
   <path stroke="null" fill="#ffffff" stroke-width="13" opacity="NaN" d="m517.49691,40.12482c0,0 128.04824,37.12869 132.85403,38.14241c4.80578,1.01372 -138.88973,-4.40776 -137.32107,-2.11768c1.56866,2.29008 6.60585,-32.24416 4.46704,-36.02473z" id="svg_4"/>
   <path stroke="null" fill="#482816" stroke-width="13" opacity="NaN" d="m508.99662,147.60487c0.80125,0.38595 0,-111.53922 -0.80124,-111.66786c0.80124,0.12865 9.61495,0.51459 9.61495,3.60218c0,3.08759 -1.60249,106.52188 -1.60249,108.06568c0,1.54379 -8.01247,-0.38596 -7.21122,0l0,0z" id="svg_19"/>
   <path stroke="null" fill="#ffffff" stroke-width="13" opacity="NaN" d="m324.11903,10.76103c-29.23831,-4.02978 -285.32694,161.31206 -305.71895,174.52975c-20.392,13.21769 576.59464,-20.83399 574.64572,5.19035c-1.94891,26.02434 -239.68846,-175.69032 -268.92677,-179.7201z" id="svg_3"/>
   <path stroke="null" fill="#482816" stroke-width="13" opacity="NaN" d="m592.95191,188.74962c-1.81382,-0.64684 0,186.93803 1.8138,187.15364c-1.8138,-0.21561 -21.76578,-0.86245 -21.76578,-6.03721c0,-5.17475 3.62763,-178.52905 3.62763,-181.11643c0,-2.58737 18.13817,0.64686 16.32435,0l0,0z" id="svg_9"/>
  </g>
 </g>

</svg>