<svg width="500" height="500" xmlns="http://www.w3.org/2000/svg">
 <g id="Layer_1">
  <title>Layer 1</title>
  <g id="svg_23">
   <path stroke="#000000" id="svg_1" d="m-7.76128,219.47738" opacity="NaN" fill="#000000"/>
   <g stroke="null" id="svg_21">
    <path stroke="#000000" fill="#482816" stroke-width="0" opacity="NaN" d="m42.22109,335.08661l-14.78159,3.32877c0.44791,0.47551 -19.2609,68.95251 2.23963,75.61c21.50052,6.65749 215.0052,49.45561 12.54197,-78.93875l0,-0.00001z" id="svg_19"/>
    <path stroke="#000000" fill="#482816" stroke-width="0" opacity="NaN" d="m250.05946,349.72634c-180.06686,-47.36383 -232.9223,68.03168 -216.79692,69.754c16.1254,1.72233 211.42179,46.50267 212.31764,46.50267c0.89585,0 193.50473,-79.22673 202.01532,-83.96313c8.5106,-4.73641 -17.46919,15.07029 -197.53605,-32.29354z" id="svg_18"/>
    <path stroke="#C48157" fill="#FFB27C" stroke-width="0" opacity="NaN" d="m242.26176,373.95121l-194.43442,-30.96762c-27.91896,-9.91518 -27.09026,65.77898 -1.10818,72.41492c25.98209,6.63596 186.26294,39.73174 190.91728,40.15051c4.65434,0.41878 4.62531,-81.59782 4.62531,-81.59782z" id="svg_9"/>
    <path stroke="#C48157" fill="#C48157" stroke-width="0" opacity="NaN" d="m445.62085,294.72446l-194.43442,-30.96762c-27.91896,-9.91518 -27.09026,65.77896 -1.10818,72.41492c25.98208,6.63595 186.26294,39.73174 190.91728,40.1505c4.65433,0.41878 4.62532,-81.5978 4.62532,-81.5978z" id="svg_11"/>
    <path stroke="#C48157" fill="#FFB27C" stroke-width="0" opacity="NaN" d="m239.0091,380.49253c0,0 204.25494,-77.93506 203.80704,-78.34958c0.4479,0.41453 -1.34381,79.17868 -1.34381,80.00778c0,0.8291 -204.25494,76.27686 -204.70285,75.86235c0.44791,0.41451 -0.44794,-50.82456 2.23961,-77.52053l0,-0.00001z" id="svg_16"/>
    <path stroke="#000000" fill="#482816" stroke-width="0" opacity="NaN" d="m249.44668,258.10914c-16.68653,-2.71738 -237.31969,83.33271 -220.63316,85.14428c16.68655,1.81159 215.07098,37.1374 215.99801,37.1374c0.92703,0 206.50951,-79.88801 202.77431,-84.8699c-3.7352,-4.98187 -181.45263,-34.69444 -198.13917,-37.4118l0,0.00001z" id="svg_12"/>
   </g>
   <path stroke="#000000" id="svg_8" d="m334.82966,251.64581l-38.75827,-32.11443c-21.28623,-17.01915 46.30798,-44.55168 124.40179,-18.39188c78.09381,26.1598 15.52345,40.8175 -5.77486,49.53743c-21.29831,8.71993 3.11025,62.06241 17.33068,79.07821c14.22043,17.0158 54.52957,69.73394 37.94854,117.85408c-16.58104,48.12014 -119.13559,71.97211 -172.41992,15.25278c-53.28433,-56.71933 12.89353,-116.93918 27.7774,-135.34793c14.88387,-18.40875 31.68039,-39.05075 9.49465,-75.86824l-0.00001,0l0,-0.00002z" opacity="NaN" fill="#96674e" stroke-width="0"/>
   <path id="svg_10" d="m376.19985,230.77803c-38.4352,-2.19918 -65.75549,-8.48498 -65.37002,-16.51518c0.38547,-8.0302 25.83022,-18.25331 66.76541,-11.05413c40.9352,7.19917 57.2555,10.98498 56.87003,19.01518c-0.38547,8.0302 -19.83022,10.75332 -58.26542,8.55413z" opacity="NaN" stroke-width="0" stroke="#000000" fill="#633d27"/>
   <path id="svg_2" d="m325.83891,243.70804c0,0 58.38926,16.77852 87.91946,6.71141c29.5302,-10.06712 -6.04027,2.01342 -6.37582,1.67787c0.33555,0.33555 -1.00673,23.15434 -1.67787,23.15434c-0.67114,0 9.39597,26.1745 9.06042,25.83894c0.33555,0.33556 17.78522,26.51005 17.78522,27.1812c0,0.67114 12.75167,20.13422 12.41612,19.79867c0.33555,0.33555 5.03354,26.51005 -41.94633,27.85233c-46.97986,1.34228 -86.57717,3.35571 -81.20805,-10.73825c5.36913,-14.09396 -28.18792,-8.0537 -11.40939,-22.8188c16.77852,-14.7651 24.83225,-26.17446 18.45639,-20.46978c-6.37586,5.70468 3.69126,-3.69129 10.40267,-14.42954c6.71141,-10.73826 5.36912,-30.20134 4.69798,-32.21477c-0.67114,-2.01342 -13.42281,-31.54362 -17.44966,-32.21476c-4.02685,-0.67114 -0.67114,0.67114 -0.67114,0.67114z" opacity="NaN" stroke-width="0" stroke="#000000" fill="#633d27"/>
   <path id="svg_15" d="m330.55554,247.91665c4.30555,4.99999 14.58333,26.38889 13.88891,25.69446c0.69443,0.69443 -2.08335,31.24998 -2.08335,31.24998c0,0 -10.41667,13.88889 -11.11109,13.19446c0.69443,0.69443 27.08332,2.08332 23.61109,13.88887c-3.47222,11.80556 56.94444,2.08333 56.25002,1.38891c0.69442,0.69443 10.41665,-21.52779 9.72222,-22.22222c0.69442,0.69443 -14.63891,-40.97224 -14.63891,-45.1389c0,-4.16667 5.61112,-13.88889 4.91669,-14.58332c0.69442,0.69443 -35.22222,1.08335 -46.52778,0.27778c-11.30556,-0.80557 -38.33334,-8.75001 -34.0278,-3.75002z" opacity="NaN" stroke-width="0" stroke="#000000" fill="#482816"/>
   <path id="svg_6" d="m372.93552,230.00698c-25.45244,-1.26587 -40.36217,-5.03527 -40.1069,-9.65755c0.25526,-4.62227 15.57851,-8.06779 41.03095,-6.80191c25.45244,1.26587 37.86217,6.76211 37.6069,11.38438c-0.25526,4.62227 -13.07851,6.34096 -38.53095,5.07508z" opacity="NaN" stroke-width="0" fill="#492c1c" stroke="#000000"/>
   <path stroke="#000000" id="svg_20" d="m372.74985,230.70721c-11.37424,-0.63764 -18.03712,-2.53635 -17.92305,-4.86467c0.11407,-2.32831 6.96175,-4.06388 18.33599,-3.42623c11.37424,0.63764 16.91992,3.40619 16.80584,5.7345c-0.11407,2.32831 -5.84455,3.19405 -17.21878,2.5564z" opacity="NaN" stroke-width="0" fill="#000000"/>
   <g stroke="null" id="svg_14" stroke-width="0">
    <path stroke="null" d="m41.63835,35.51403c0,0 0.04043,0.37651 1.5113,0c1.6445,-0.42093 3.77827,-1.63873 7.55653,-1.63873c5.28957,0 14.30714,0.4052 24.18089,1.63873c9.78777,1.22279 16.62435,1.63873 21.15828,1.63873c3.77827,0 9.09725,-0.6459 15.11305,0c7.66869,0.82337 13.62617,2.6888 19.64698,3.27748c8.41432,0.82269 19.63889,1.7198 33.24873,3.27748c7.55227,0.86438 11.16094,2.08827 14.3574,3.27748c3.64453,1.35591 10.67637,1.95796 18.89132,4.09683c7.6712,1.99729 12.72374,4.47828 16.62435,5.73558c3.69335,1.19049 9.09386,3.1685 15.11305,4.91621c5.31401,1.54293 8.94547,3.6589 12.84609,4.91621c3.69335,1.19049 9.82349,3.27748 15.86872,4.91621c6.04522,1.63873 9.01806,3.39571 10.57913,4.09683c2.20769,0.99156 6.86974,2.2907 12.09043,4.91621c4.59856,2.31263 7.55653,4.09683 10.57916,5.73558c3.0226,1.63873 6.04522,4.09683 9.06783,6.55494c3.0226,2.4581 6.21815,5.51403 9.82349,9.01307c3.98142,3.86401 7.394,7.56058 10.57913,10.6518c3.60534,3.49901 6.18532,6.40981 9.06785,9.83241c3.97984,4.7255 7.07818,7.91357 10.5791,12.29052c2.47555,3.09497 3.48132,6.69891 5.28959,10.6518c1.95793,4.28008 4.95975,8.76929 6.80089,13.1099c1.99699,4.70806 2.69728,8.30267 3.77827,11.47114c1.17248,3.43672 1.92467,6.64699 3.02258,10.6518c1.15952,4.22954 1.79499,8.29045 3.02263,13.92927c1.09803,5.04349 1.92467,9.10509 3.02258,13.10987c1.15952,4.22954 1.94167,7.48329 3.02263,10.6518c1.17245,3.43672 1.57246,7.46201 2.26694,10.6518c0.38823,1.78315 1.85799,3.02629 2.26694,4.09683c0.28917,0.75698 0,1.63873 0,2.4581l0.75569,0.81937l0,0.81937" id="svg_33" fill="none"/>
    <path stroke="null" d="m38.61572,33.87528c0.75566,0 1.5113,0 1.5113,0c0.75566,0 0.75566,0 0.75566,0.81937c0,0.81937 0,0.81937 0,1.63873c0,0.81937 0,0.81937 0,2.4581c0,1.63873 0,2.4581 0,3.27748c0,0 0,0.81937 0,3.27748c0,1.63873 0,3.27748 0,4.09683c0,0.81937 0,2.4581 0,4.09683c0,2.4581 0,4.91621 0,8.19369c0,2.4581 0,3.27748 0,5.73558c0,1.63873 0.75566,4.09683 1.5113,6.55496c0.75566,2.4581 1.1231,3.95244 1.5113,5.73558c0.17361,0.79744 0.40841,1.68258 0.75566,3.27748c0.38821,1.78315 1.16408,1.68258 1.5113,3.27748c0.38821,1.78315 0.97699,1.05935 1.5113,1.63873c1.06865,1.15876 1.14871,2.72329 2.26697,4.09683c1.80311,2.21475 4.00397,2.31151 5.28957,4.91621c0.35656,0.72241 2.12539,2.62756 3.77827,4.09683c2.10702,1.87297 4.09477,3.62067 5.28957,4.91621c1.19479,1.29553 2.99529,1.73368 5.28957,2.4581c2.99138,0.94453 5.70454,3.24075 8.31216,4.09683c2.16969,0.71232 4.48416,0.93761 6.04522,1.63873c2.20769,0.99156 6.12607,0.88571 9.06783,1.63873c1.64448,0.42096 3.80754,1.24498 6.04522,1.63876c2.35873,0.41505 5.28957,1.63873 8.31216,1.63873c2.26697,0 4.5509,1.33838 6.80086,1.63873c3.09229,0.41276 7.55653,1.63873 12.09046,1.63873c3.0226,0 4.55344,1.37624 6.04522,1.63873c2.35873,0.41505 5.30501,1.23324 9.82349,1.63873c4.5808,0.41108 8.34147,1.24498 10.57913,1.63876c2.35873,0.41505 5.28957,0.81935 8.31219,0.81935c4.5339,0 7.5858,-0.39374 9.82349,0c2.35873,0.41505 3.77827,0.81937 6.80086,0.81937c3.0226,0 5.28959,0 6.80086,0c1.51133,0 2.95294,0.40659 6.04522,0.81935c5.24995,0.70078 9.7538,0.40659 12.84611,0.81937c2.24996,0.30034 3.77827,0 6.04522,0c3.0226,0 7.48686,0.40659 10.57913,0.81935c2.99996,0.40044 6.04522,0.81937 9.06785,0.81937c3.0226,0 6.81992,-0.09721 10.57913,0.81937c3.03974,0.74117 5.30426,0.49642 8.31216,0.81935c3.83434,0.41169 8.43347,0.50921 12.84611,1.63873c3.28898,0.84189 5.07195,2.44305 9.06783,3.27748c2.96809,0.61981 8.39708,0.44823 12.09046,1.63873c3.9006,1.25731 6.74066,1.77637 9.82349,3.27748c3.71219,1.80757 7.61581,2.28589 9.82349,3.27748c1.56107,0.70115 2.95184,0.9041 3.77827,1.63876c2.107,1.87297 5.40991,2.13908 7.55651,3.27748c2.44752,1.29798 3.77827,2.4581 5.28959,3.27748c1.51133,0.81937 4.01309,2.07703 5.28959,3.27748c1.80524,1.69765 3.91882,2.20618 5.28959,3.27748c1.73384,1.3551 3.3149,4.02934 5.28954,4.91621c1.39627,0.62712 2.26694,1.63873 3.77827,2.4581c1.51133,0.81937 2.58345,1.98192 3.77827,3.27748c1.19482,1.29553 2.88992,2.53831 3.77827,4.09683c0.39728,0.697 0.07399,2.31424 1.51133,3.27748c1.28559,0.86154 1.51133,1.63876 3.02263,3.27748c0.75564,0.81935 1.27896,1.79113 2.26694,3.27748c1.24971,1.88007 2.39772,3.15681 3.02258,4.09683c0.98798,1.48632 1.68865,2.58284 2.26698,4.09683c0.81788,2.14107 2.39772,2.33744 3.02258,3.27748c0.98795,1.48632 2.13429,2.53831 3.02263,4.09683c0.39726,0.69697 0,1.63873 0.75564,2.4581c0.75564,0.81937 1.85799,1.38756 2.26694,2.4581c0.28917,0.75701 0,1.63876 0,1.63876c0.75569,0.81937 1.10236,2.20692 1.51133,3.27748c0.28917,0.75701 0.75564,0.81937 0.75564,1.63876l0.75569,0" id="svg_46" fill="#000000"/>
    <path stroke="null" id="svg_7" d="m43.09045,39.23537c0,-0.96888 175.71106,94.95039 174.82365,93.98152c0.88742,0.96887 130.45214,20.3465 149.08816,78.4794c18.63602,58.13289 7.09944,-75.57276 -30.17261,-100.76368c-37.27205,-25.19092 -73.65666,-83.32381 -179.26078,-79.44829c-105.60413,3.87553 -114.47843,8.71993 -114.47843,7.75105l0.00001,0z" opacity="NaN" fill="#ffffff"/>
    <path stroke="null" d="m38.61572,33.87528c0.75566,0 1.5113,0 1.5113,0c0.75566,0 0.75566,0 0.75566,0.81937c0,0.81937 0,0.81937 0,1.63873c0,0.81937 0,0.81937 0,2.4581c0,1.63873 0,2.4581 0,3.27748c0,0 0,0.81937 0,3.27748c0,1.63873 0,3.27748 0,4.09683c0,0.81937 0,2.4581 0,4.09683c0,2.4581 0,4.91621 0,8.19369c0,2.4581 0,3.27748 0,5.73558c0,1.63873 0.75566,4.09683 1.5113,6.55496c0.75566,2.4581 1.1231,3.95244 1.5113,5.73558c0.17361,0.79744 0.40841,1.68258 0.75566,3.27748c0.38821,1.78315 1.16408,1.68258 1.5113,3.27748c0.38821,1.78315 0.97699,1.05935 1.5113,1.63873c1.06865,1.15876 1.14871,2.72329 2.26697,4.09683c1.80311,2.21475 4.00397,2.31151 5.28957,4.91621c0.35656,0.72241 2.12539,2.62756 3.77827,4.09683c2.10702,1.87297 4.09477,3.62067 5.28957,4.91621c1.19479,1.29553 2.99529,1.73368 5.28957,2.4581c2.99138,0.94453 5.70454,3.24075 8.31216,4.09683c2.16969,0.71232 4.48416,0.93761 6.04522,1.63873c2.20769,0.99156 6.12607,0.88571 9.06783,1.63873c1.64448,0.42096 3.80754,1.24498 6.04522,1.63876c2.35873,0.41505 5.28957,1.63873 8.31216,1.63873c2.26697,0 4.5509,1.33838 6.80086,1.63873c3.09229,0.41276 7.55653,1.63873 12.09046,1.63873c3.0226,0 4.55344,1.37624 6.04522,1.63873c2.35873,0.41505 5.30501,1.23324 9.82349,1.63873c4.5808,0.41108 8.34147,1.24498 10.57913,1.63876c2.35873,0.41505 5.28957,0.81935 8.31219,0.81935c4.5339,0 7.5858,-0.39374 9.82349,0c2.35873,0.41505 3.77827,0.81937 6.80086,0.81937c3.0226,0 5.28959,0 6.80086,0c1.51133,0 2.95294,0.40659 6.04522,0.81935c5.24995,0.70078 9.7538,0.40659 12.84611,0.81937c2.24996,0.30034 3.77827,0 6.04522,0c3.0226,0 7.48686,0.40659 10.57913,0.81935c2.99996,0.40044 6.04522,0.81937 9.06785,0.81937c3.0226,0 6.81992,-0.09721 10.57913,0.81937c3.03974,0.74117 5.30426,0.49642 8.31216,0.81935c3.83434,0.41169 8.43347,0.50921 12.84611,1.63873c3.28898,0.84189 5.07195,2.44305 9.06783,3.27748c2.96809,0.61981 8.39708,0.44823 12.09046,1.63873c3.9006,1.25731 6.74066,1.77637 9.82349,3.27748c3.71219,1.80757 7.61581,2.28589 9.82349,3.27748c1.56107,0.70115 2.95184,0.9041 3.77827,1.63876c2.107,1.87297 5.40991,2.13908 7.55651,3.27748c2.44752,1.29798 3.77827,2.4581 5.28959,3.27748c1.51133,0.81937 4.01309,2.07703 5.28959,3.27748c1.80524,1.69765 3.91882,2.20618 5.28959,3.27748c1.73384,1.3551 3.3149,4.02934 5.28954,4.91621c1.39627,0.62712 2.26694,1.63873 3.77827,2.4581c1.51133,0.81937 2.58345,1.98192 3.77827,3.27748c1.19482,1.29553 2.88992,2.53831 3.77827,4.09683c0.39728,0.697 0.07399,2.31424 1.51133,3.27748c1.28559,0.86154 1.51133,1.63876 3.02263,3.27748c0.75564,0.81935 1.27896,1.79113 2.26694,3.27748c1.24971,1.88007 2.39772,3.15681 3.02258,4.09683c0.98798,1.48632 1.68865,2.58284 2.26698,4.09683c0.81788,2.14107 2.39772,2.33744 3.02258,3.27748c0.98795,1.48632 2.13429,2.53831 3.02263,4.09683c0.39726,0.69697 0,1.63873 0.75564,2.4581c0.75564,0.81937 1.85799,1.38756 2.26694,2.4581c0.28917,0.75701 0,1.63876 0,1.63876c0.75569,0.81937 1.10236,2.20692 1.51133,3.27748c0.28917,0.75701 0.75564,0.81937 0.75564,1.63876l0.75569,0" id="svg_13" fill="#000000"/>
   </g>
   <path stroke="#000000" id="svg_22" d="m303.66791,331.66665c0,0 -178.19586,-27.5 -178.19586,-27.5c0,0 -91.97206,35.83333 -91.97206,35.83333c0,0 238.14193,17.5 267.70438,4.16667c29.56245,-13.33333 2.46354,-12.5 2.46354,-12.5z" opacity="NaN" stroke-width="0" fill="#21120a"/>
  </g>
 </g>

</svg>