<svg width="500" height="500" xmlns="http://www.w3.org/2000/svg">
 <g id="Layer_1">
  <title>Layer 1</title>
  <g stroke="null" id="svg_20">
   <path stroke="null" stroke-width="13" id="svg_1" d="m120.91606,389.8715c18.98652,121.67858 157.16623,84.92151 194.08447,73.51414c36.91824,-11.40737 12.65768,0 74.89129,-20.27976c62.23361,-20.27976 81.22013,-43.0945 82.27494,-64.64174c1.05481,-21.54725 6.32884,-117.87612 -20.04133,-144.49331c-26.37017,-26.61719 -99.15185,-38.02456 -85.43936,-68.4442c13.71249,-30.41964 46.4115,13.94234 60.12399,-11.40737c13.71249,-25.3497 -35.86344,-78.58408 -63.28841,-82.38654c-27.42498,-3.80246 -48.52112,11.40737 -77.0009,21.54725c-28.47979,10.13988 -51.68554,-1.26749 -84.38455,-1.26749c-32.69901,0 -72.78168,44.36198 -74.89129,83.65402c-2.10961,39.29204 46.4115,-16.47731 72.78168,-7.60491c26.37017,8.8724 50.63073,10.13988 24.26056,38.02456c-26.37017,27.88467 -84.38455,27.88467 -89.65859,74.78163c-5.27403,46.89695 -32.69901,-12.67485 -13.71249,109.00373z" opacity="NaN" fill="#FABA6F"/>
   <path stroke="null" id="svg_2" d="m138.84777,188.34135c0,0 42.19228,-32.95461 43.24708,-32.95461c1.05481,0 51.68554,-11.40737 65.39803,-10.13988c13.71249,1.26749 55.90477,-7.60491 67.50764,-16.47731c11.60288,-8.8724 49.57593,-17.74479 60.12399,1.26749c10.54807,19.01228 48.52112,-1.26749 48.52112,8.8724c0,10.13988 2.10961,26.61719 -8.43846,26.61719c-10.54807,0 -33.75382,-12.67485 -34.80861,-13.09733c1.05479,0.42248 -7.38367,13.09733 -9.49328,20.70224c-2.10961,7.60491 2.10961,15.20982 2.10961,15.20982c0,0 35.86344,17.74479 35.86344,17.74479c61.1788,25.3497 -15.8221,10.13988 -34.80863,26.61719c-18.98652,16.47731 9.4933,18.16732 -27.42496,37.60208c-36.91826,19.43475 -46.41152,9.29487 -70.67208,1.68996c-24.26056,-7.60491 -54.84996,26.61719 -69.61726,-5.06994c-8.43846,-20.27976 37.97308,-36.33454 24.26057,-42.24949c-13.71251,-5.91495 -40.08265,5.91495 -22.15095,-12.67485c17.9317,-18.5898 17.93173,-24.5047 6.32884,-30.41965c-11.60289,-5.91495 -14.76731,-13.51986 -14.76731,-13.51986c0,0 -61.1788,20.27976 -61.1788,20.27976z" opacity="NaN" stroke-width="13" fill="#422C10"/>
   <path stroke="null" id="svg_3" d="m118.80644,365.78928c0,0 -5.27403,25.3497 11.60288,58.30432c16.87691,32.95461 29.53459,43.0945 51.68554,46.89695c22.15095,3.80246 46.4115,21.54725 81.22013,19.01228c34.80863,-2.53497 58.01438,6.33743 77.0009,1.26749c18.98652,-5.06994 75.9461,-20.27976 85.43936,-35.48959c9.49326,-15.20982 43.24708,-26.61719 52.74035,-59.5718c9.49326,-32.95461 0,-62.10677 -4.21923,-79.85157c-4.21923,-17.74479 -16.87691,62.10677 -30.5894,72.24666c-13.71249,10.13988 -48.52112,40.55953 -79.11052,46.89695c-30.5894,6.33743 -41.13747,39.29204 -68.56245,27.88467c-27.42498,-11.40737 -62.23361,-13.94234 -82.27494,-29.15216c-20.04133,-15.20982 -59.06919,19.01228 -62.23361,-17.74479c-3.16442,-36.75707 -30.5894,-59.5718 -32.69901,-50.69941z" opacity="NaN" stroke-width="13" fill="#5b3521"/>
   <path stroke="null" id="svg_4" d="m230.61597,109.75727c0,1.26749 44.30189,6.33743 52.74035,0c8.43846,-6.33743 25.31537,-12.67485 31.64421,-12.67485c6.32884,0 22.15095,-13.94234 30.5894,-7.60491c8.43846,6.33743 22.15095,-2.53497 34.80863,15.20982c12.65768,17.74479 5.27403,20.27976 11.60288,22.81473c6.32884,2.53497 -43.24708,-29.15216 -44.30187,-29.57464" opacity="NaN" stroke-width="13" fill="#5b3521"/>
   <ellipse stroke="null" transform="matrix(0.0368122 1.26671 -1.05416 0.0442346 470.451 343.511)" ry="51.69084" rx="31.01863" id="svg_9" cy="394.35341" cx="63.05818" stroke-width="13" fill="#BBBBBB"/>
   <g stroke="null" id="svg_13">
    <ellipse stroke="null" ry="51.33315" rx="29.00719" id="svg_7" cy="158.55545" cx="118.27904" stroke-width="13" fill="#5b3521"/>
    <ellipse stroke="null" ry="51.33315" rx="29.00719" id="svg_12" cy="159.82293" cx="111.9502" stroke-width="13" fill="#FABA6F"/>
   </g>
   <g stroke="null" transform="matrix(0.62 -1.02542 0.853357 0.745009 -153.825 194.766)" id="svg_16">
    <ellipse stroke="null" ry="40.5" rx="27.5" id="svg_14" cy="204.45404" cx="95.1335" stroke-width="13" fill="#5b3521"/>
    <ellipse stroke="null" ry="40.5" rx="27.5" id="svg_15" cy="205.45404" cx="89.1335" stroke-width="13" fill="#FABA6F"/>
   </g>
   <g stroke="null" transform="matrix(0.649404 0.998792 -0.831199 0.780342 290.981 55.3935)" id="svg_19">
    <ellipse stroke="null" ry="40.5" rx="27.5" id="svg_17" cy="322.18707" cx="59.12243" stroke-width="13" fill="#5b3521"/>
    <ellipse stroke="null" ry="40.5" rx="27.5" id="svg_18" cy="323.18707" cx="53.12243" stroke-width="13" fill="#FABA6F"/>
   </g>
  </g>
 </g>
</svg>