<svg width="200" height="200" xmlns="http://www.w3.org/2000/svg">
 <g id="Layer_1">
  <title>Layer 1</title>
  <g stroke-width="4" id="svg_16">
   <path transform="rotate(-31 94.3309 109.07)" fill="#000000" id="svg_2" d="m139.36373,79.92031c0,0.37201 -0.57254,0.50569 -1.16,1.11604c-1.53191,1.59159 -4.60187,3.0384 -8.50665,5.2082c-3.4473,1.91559 -5.86232,3.62579 -7.73332,4.83618c-1.60437,1.0379 -2.98834,2.38231 -5.79999,4.09216c-3.36511,2.04641 -7.32744,4.48658 -9.66665,6.32424c-1.91777,1.50658 -3.40068,2.68602 -4.63999,3.72014c-1.46054,1.21872 -4.25333,3.34813 -6.57332,5.2082c-2.32,1.86008 -3.79423,3.42505 -4.63999,4.09215c-1.07815,0.85039 -2.32,1.86008 -3.47999,2.97612c-1.93333,1.86008 -3.86666,3.72014 -5.02666,4.46417c-1.16,0.74403 -1.63304,1.67191 -2.70666,2.97611c-1.875,2.27768 -4.53685,3.80673 -6.57332,5.95223c-1.47499,1.55395 -2.67044,2.64256 -3.09333,2.97611c-1.07815,0.85037 -1.82661,1.94293 -3.09333,3.34813c-1.79142,1.98725 -3.47999,4.09216 -4.25333,4.83618c-0.77333,0.74403 -1.33419,1.28362 -2.32,2.23208c-0.98581,0.94846 -1.37233,2.58743 -2.70666,2.97612c-0.37007,0.1078 -0.30817,0.46743 -0.77333,0.74403c-1.04013,0.61848 -2.01517,1.00969 -3.09333,1.86008c-0.42288,0.33354 -0.77333,0.37201 -0.77333,0c0,-0.37202 -0.38667,-1.11605 -0.77333,-1.86008c-0.38667,-0.74403 -1.16,-2.23208 -1.54666,-3.72015c-0.38667,-1.48805 -1.16,-2.97611 -1.54666,-3.72013c-0.38667,-0.74403 -0.38667,-1.11605 -0.77333,-1.48805c0,0 -0.38667,-0.37202 -0.38667,-1.11605c0,-0.74403 0,-1.86006 0,-2.23208c0,-0.37202 0,-1.11605 0,-1.48805c0,-1.11605 0,-1.48805 0,-2.23208c0,-0.37202 0,-0.74403 0,-1.11605c0,0 0.25864,-0.23073 1.54666,-0.74403c1.82154,-0.72591 3.92552,-1.20332 4.63999,-1.48805c1.01041,-0.40267 0.88659,-1.22501 1.16,-1.48805c0.54683,-0.5261 1.63278,-1.01339 3.09333,-2.2321c0.8262,-0.68941 1.10306,-1.55245 1.54666,-1.86007c0.70141,-0.48639 1.54666,-1.11604 2.70666,-1.86007c1.16,-0.74403 1.54666,-1.11604 2.32,-1.48805c0.77333,-0.37201 1.16,-0.74404 2.32,-1.48806c0,0 1.21774,-0.54845 1.54666,-0.74403c0.73548,-0.43732 0.65944,-0.87282 1.54666,-1.48805c0.70141,-0.48639 1.27325,-0.48098 1.54666,-0.74403c0.27341,-0.26305 0.45859,-0.62966 1.16,-1.11605c0.88722,-0.61524 1.6615,-1.71641 2.70666,-2.60409c0.64818,-0.55051 1.72406,-0.62998 1.93333,-1.11604c0.14797,-0.34369 0.83219,-0.45931 1.54666,-0.74404c0.50521,-0.20133 0.1496,-0.71338 1.16,-1.11604c0.71447,-0.28472 1.95523,-0.71335 3.09332,-1.48805c1.57825,-1.07433 1.96277,-1.34569 2.32,-1.48805c0.5052,-0.20133 0.77333,-0.74404 1.54666,-1.11605c0.77333,-0.37201 1.54666,-1.11604 1.93333,-1.48805c0.38667,-0.37201 0.71639,-0.43641 1.16,-0.74403c0.7014,-0.48639 0.83219,-0.83132 1.54666,-1.11604c0.5052,-0.20133 0.77333,-0.74404 0.77333,-0.74404c0.77333,-0.37201 1.18944,-0.60166 1.54667,-0.74403c1.01041,-0.40266 1.54666,-1.48805 1.54666,-1.48805c0.77333,-0.37201 1.08755,-0.82096 1.93333,-1.48805c1.07816,-0.85038 2.00526,-1.37369 2.70666,-1.86008c0.44361,-0.30762 0.77333,-0.74403 1.54666,-1.11604c0.77333,-0.37201 1.43279,-1.24483 2.32,-1.86007c0.7014,-0.48639 0.84526,-0.62966 1.54666,-1.11605c0.44361,-0.30762 0.84526,-1.00167 1.54666,-1.48805c0.88721,-0.61524 1.66653,-1.24159 2.70666,-1.86007c0.46516,-0.27659 0.88659,-0.48098 1.16,-0.74403c0.27342,-0.26306 0.65944,-0.50081 1.54666,-1.11605c0.70141,-0.4864 1.6186,-1.00167 2.32,-1.48805c0.44361,-0.30762 0.49992,-0.48098 0.77333,-0.74403c0.54683,-0.52611 1.66216,-0.35287 2.32,-0.74403c0.73549,-0.43733 0.49992,-0.853 0.77333,-1.11605c0.27341,-0.26305 0.77333,-0.37201 0.77333,-0.37201c0.77333,-0.37201 1.16,-0.74403 1.54666,-1.11604c0,0 0,-0.37201 0.38667,-0.37201c0.38667,0 0.88659,-0.10896 1.16,-0.37201c0.27341,-0.26305 0.26814,-0.91471 0.77334,-1.11604c0.71447,-0.28472 0.83108,-0.54845 1.16,-0.74403c0.73549,-0.43733 0.83108,-0.54846 1.16,-0.74404c0.73548,-0.43732 1.16,-1.48805 1.54666,-1.86007c1.16,-1.11604 0.99984,-1.33396 1.54667,-1.86007c0.27341,-0.26305 0.77333,0 0.77333,-0.37202c0,-0.37201 0.49992,-0.10896 0.77333,-0.37201c0.27341,-0.26305 0.56407,-0.62998 0.77333,-1.11604c0.14797,-0.34369 0.38667,-0.37201 0.38667,-0.37201c0,-0.37201 0.38667,-0.74403 0.38667,-0.74403c0.77334,-0.37201 0.77334,-0.74403 0.77334,-0.74403c0,0 0.02944,-0.22965 0.38667,-0.37201c0.5052,-0.20133 0.77333,-0.37201 1.16,-0.37201c0,0 0,0 0.38667,0c0.38667,0 0.38667,0 0.77333,0c0.38667,0 0.38667,-0.37201 0.77333,-0.37201c0.38667,0 0.38667,0 0.77333,0c0.38667,0 0.38667,0.37201 0.38667,0.37201c0,0 0.56407,-0.11405 0.77333,0.37201c0.14797,0.34369 0.38667,0.37201 0.38667,0.37201c0.38667,0 0.23869,0.40033 0.38667,0.74403c0.20926,0.48606 0.62536,0.77235 0.77333,1.11604c0.20926,0.48606 0.77333,1.11604 0.77333,1.11604c0,0.74404 0.1908,1.44288 0.38667,2.6041c0.06194,0.36721 0,0.74403 0,1.11604c0,0 0,0.37201 0,0.74403c0,0 0,0.37201 0,0.74404c0,0.37201 -0.38667,0.74403 -0.38667,0.74403c0,0.37201 -0.11326,0.48098 -0.38667,0.74403c-0.27341,0.26305 -0.38667,0.37201 -0.77333,0.74403l0,0.37201l-0.38667,0l0,0.37201" stroke="#000"/>
   <path transform="rotate(-20 107.326 75.3281)" fill="#000000" id="svg_15" d="m41.3102,26.8392c0.3181,0 0.95908,0.08843 1.59053,0c1.30175,-0.1823 3.18586,-0.20795 5.08969,-0.36186c2.24369,-0.18138 5.40779,-0.36186 9.22506,-0.36186c3.49916,0 7.00907,0.29194 10.81559,1.08557c4.78635,0.99792 7.65833,0.91174 10.17937,1.44743c1.28928,0.27396 2.23447,0.69018 3.49916,1.08557c3.20237,1.0012 6.45595,1.86401 9.54316,3.25671c1.98362,0.89486 3.34702,1.72831 4.77158,2.533c2.07419,1.17164 5.08969,2.17115 7.95264,3.25672c1.90863,0.72371 3.21055,1.72372 5.7259,2.89486c2.8995,1.34999 6.41281,3.14669 8.90695,4.70415c1.62598,1.01534 2.5702,1.75427 3.81727,2.533c1.62597,1.01533 3.23801,2.44023 5.08969,3.98043c1.64418,1.36762 2.51076,2.58282 4.13537,3.98043c2.18259,1.87762 4.20817,3.52073 5.72589,5.066c1.00563,1.02388 1.59053,2.17114 2.86295,3.61858c1.59053,1.80929 3.41315,3.33953 4.77159,5.066c0.90008,1.14395 1.33237,1.99824 2.22674,3.25671c1.28053,1.80187 2.88727,2.15081 3.81727,3.61858c0.58819,0.9283 1.07681,2.30576 1.90863,3.61857c1.05217,1.6606 2.34924,3.02947 3.18106,4.34229c0.78912,1.24544 1.39054,2.0795 2.22674,3.61858c0.74791,1.37659 1.59054,2.89484 2.54485,3.98043c0.3181,0.36186 0.58036,1.121 0.95432,1.80929c0.83618,1.53906 1.90863,2.89485 2.54484,3.98043c0.63621,1.08558 1.01485,2.12828 1.59053,3.25671c1.07107,2.0995 1.96917,3.93755 2.54485,5.066c0.35702,0.69984 0.59729,1.47132 0.95431,2.17115c0.57567,1.12845 1.27243,2.17114 1.90864,3.61858c0.3181,0.72371 0.3181,1.44743 0.63621,1.44743c0,0 0.07463,0.41694 0.3181,1.08558c0.17216,0.47278 0.09318,0.8297 0.31811,1.08556c0.22494,0.25588 0.63621,0.36186 0.63621,0.72371c0,0 0,0.72373 0,0.72373c0,0.36185 0.31811,0.72371 0.31811,0.72371c0.3181,0.72371 0.3181,1.44743 0.3181,1.80929c0,0.36185 0,0.36185 0,0.72371c0,0.36185 0.46406,0.61278 0.63621,1.08556c0.12174,0.33432 0.09317,0.46785 0.31811,0.72373c0.44987,0.51174 0.31811,1.44743 0.31811,1.44743c0,0 0.09751,-0.52789 -0.31811,-0.72371c-0.2939,-0.13848 -0.73069,-0.94583 -1.59053,-1.80929c-0.53325,-0.53549 -1.38254,-0.979 -1.90863,-1.80929c-0.41592,-0.65641 -1.11979,-1.56454 -1.59053,-2.17114c-0.75905,-0.97812 -1.27242,-1.44744 -1.90864,-2.17115c-0.3181,-0.36185 -1.24621,-0.50184 -1.59052,-1.44743c-0.24347,-0.66862 -0.63622,-1.08558 -1.27243,-1.80929c-0.63621,-0.72371 -1.97441,-1.37963 -2.54484,-2.17114c-0.72715,-1.00897 -1.27244,-1.80929 -1.90864,-2.533c-0.3181,-0.36186 -0.63621,-0.72374 -1.27242,-1.44744c-0.31811,-0.36185 -0.43509,-1.65148 -1.59053,-2.89485c-0.83321,-0.89661 -1.30356,-1.74576 -1.90863,-2.17115c-0.2706,-0.19024 -0.36563,-0.53347 -0.63622,-0.72371c-0.60507,-0.42539 -0.95431,-1.44743 -1.27242,-1.80929c-0.3181,-0.36185 -0.50444,-0.57382 -0.95432,-1.08558c-0.44987,-0.51174 -0.6362,-1.08556 -0.95431,-1.44743c-0.31811,-0.36186 -0.31811,-0.72371 -0.31811,-0.72371c-0.3181,-0.72371 -0.702,-1.37963 -1.27242,-2.17114c-0.72715,-1.00897 -1.10519,-2.22519 -1.27242,-2.533c-0.37396,-0.6883 -1.08806,-1.11663 -1.27243,-1.80929c-0.33236,-1.24872 -1.38254,-2.06457 -1.90863,-2.89486c-0.41592,-0.65641 -0.69127,-1.03228 -0.95432,-1.44743c-0.4159,-0.65641 -0.42823,-0.61713 -0.95432,-1.44743c-0.4159,-0.6564 -0.89847,-0.75914 -1.27242,-1.44743c-0.33447,-0.61562 -0.63621,-1.44743 -1.27242,-2.17114c-0.63621,-0.72372 -1.4677,-1.19305 -2.22674,-2.17114c-0.47074,-0.6066 -0.63621,-1.08558 -0.95432,-1.44743c-0.63621,-0.72371 -1.18147,-1.16217 -1.90863,-2.17114c-0.57043,-0.79151 -0.54253,-0.84898 -1.27243,-1.44743c-0.57704,-0.47311 -1.09762,-0.88673 -1.90863,-1.80929c-0.81101,-0.92256 -1.33976,-2.06769 -2.22674,-2.89486c-0.69581,-0.64888 -1.17873,-1.5727 -1.90864,-2.17114c-0.57704,-0.47311 -0.92451,-0.76114 -1.27242,-1.08558c-0.88699,-0.82716 -1.59053,-1.44743 -2.54484,-2.17114c-0.95431,-0.72372 -1.14067,-0.93568 -1.59054,-1.44743c-0.44987,-0.51174 -1.32308,-0.58282 -2.22674,-1.08558c-1.03032,-0.57322 -1.61474,-0.94709 -1.90863,-1.08557c-0.41563,-0.19583 -0.82516,-0.90935 -1.59052,-1.44743c-0.8557,-0.60159 -1.90863,-1.08557 -2.54485,-1.44743c-0.63621,-0.36186 -1.90863,-0.72372 -3.18105,-1.44743c-1.27242,-0.72371 -2.45115,-1.5727 -3.18106,-2.17114c-0.57704,-0.47311 -1.90863,-0.72371 -2.86295,-1.08557c-0.95431,-0.36186 -1.68914,-0.84585 -2.54484,-1.44743c-0.38268,-0.26904 -1.29738,-0.64766 -2.22674,-1.08557c-1.31432,-0.61929 -2.56584,-1.40316 -3.18106,-1.80929c-0.992,-0.65486 -1.90863,-1.08557 -3.18105,-1.80929c-1.27242,-0.72371 -1.88769,-1.13778 -2.54484,-1.44743c-0.92937,-0.4379 -1.49595,-0.91962 -2.54484,-1.44743c-1.19946,-0.60358 -2.48878,-1.26152 -3.18106,-1.44743c-0.3096,-0.08314 -0.64986,0.10486 -0.95431,0c-1.09774,-0.37808 -2.22674,-0.72372 -2.86295,-1.08558c-0.63621,-0.36186 -1.27242,-0.36186 -2.54484,-0.72371c-1.27242,-0.36186 -2.18811,-0.90228 -3.18105,-1.08558c-0.314,-0.05796 -0.63622,0 -1.27242,0c-1.27242,0 -2.83362,-0.54142 -4.13537,-0.72371c-0.63144,-0.08843 -1.1749,-0.16602 -1.59053,-0.36186c-0.88167,-0.41543 -2.54485,-0.36186 -3.81727,-0.36186c-0.95432,0 -1.57261,-0.06815 -2.54484,-0.36186c-1.56769,-0.47358 -2.86295,-0.36186 -3.81727,-0.36186c-0.95432,0 -1.88768,-0.05221 -2.54484,-0.36186c-0.92937,-0.4379 -1.90863,-0.36186 -2.86295,-0.36186c-0.63621,0 -1.61606,0.24941 -2.54484,0c-0.69228,-0.1859 -1.27242,-0.72371 -1.59053,-0.72371c-0.3181,0 -1.29972,-0.51399 -1.90863,-0.72371c-1.09774,-0.37808 -1.30356,-1.02204 -1.90863,-1.44743c-0.54119,-0.38048 -0.88974,-0.09281 -1.27242,-0.36186c-0.8557,-0.60159 -1.33159,-0.61246 -1.90863,-1.08558c-0.7299,-0.59844 -1.21636,-1.26152 -1.90863,-1.44743c-0.92879,-0.24941 -1.6837,-0.10599 -1.90863,-0.36186c-0.22493,-0.25587 0,-0.36186 -0.31811,-0.36186c0,0 0,-0.36186 0,-0.72372c0,0 0.31811,0 0.31811,-0.36186c0,-0.36186 0.34232,-0.22338 0.63621,-0.36186c0.41563,-0.19584 0.63621,-0.72372 0.63621,-0.72372l0.31811,0l0.63621,0l0.31811,0" stroke="#000"/>
  </g>
 </g>

</svg>