<svg width="800" height="800" xmlns="http://www.w3.org/2000/svg">
 <g id="Layer_1">
  <title>Layer 1</title>
  <g id="svg_8" stroke="null">
   <path fill="#000000" stroke-width="9" opacity="NaN" d="m259.98146,111.53333c157.75165,12.51589 294.43004,79.45739 353.68658,153.80852c59.25653,74.35115 89.98377,154.68453 99.23853,163.03944c9.25476,8.35491 34.99023,86.45586 40.78565,92.59456c5.79541,6.13872 16.79704,8.58242 -18.44413,-113.45764c-35.24118,-122.04005 -94.58726,-203.72637 -108.81738,-221.33353c-14.23011,-17.60716 -58.07825,-48.12403 -83.72007,-63.33831c-25.64183,-15.21426 -48.94758,-26.50602 -91.70699,-38.13093c-42.75941,-11.62493 -46.21875,-13.84112 -115.47457,-16.9685c-69.25582,-3.12737 -116.02595,8.15051 -154.5405,16.22653c-38.51455,8.07602 -142.94967,28.50396 -144.07293,30.21028l223.06583,-2.65046l-0.00001,0.00001l-0.00001,0.00002l0,0.00001z" id="svg_3" stroke="null"/>
   <path fill="#000000" stroke-width="9" opacity="NaN" d="m35.33165,668.06755c1.45834,2.8773 -13.12498,8.63189 7.29167,30.21161c20.41664,21.57972 1.45833,5.75459 29.16666,15.82512c27.70831,10.07054 61.24996,23.01837 69.99996,17.26377c8.75001,-5.75459 24.79165,-31.65025 36.45833,-38.84349c11.66665,-7.19324 -5.83333,-7.19324 -1.45834,-38.84349c4.37499,-31.65025 -4.375,-24.45701 10.20833,-37.40483c14.58332,-12.94783 26.24998,-25.89566 36.45832,-31.65025c10.20833,-5.7546 5.83332,0 18.95832,-18.70244c13.12499,-18.70242 -49.58331,64.73917 17.49999,-23.01836c67.0833,-87.75752 103.54163,-135.23291 116.66661,-146.74208c13.12499,-11.50919 23.33333,-27.33431 43.74999,-44.59808c20.41665,-17.26379 -29.16666,17.26377 27.70831,-25.89567c56.87497,-43.15943 42.29165,-31.65025 56.87497,-43.15943c14.58333,-11.50919 18.95832,-11.50919 29.16666,-28.77296c10.20833,-17.26377 26.24999,-33.08891 20.41665,-37.40483c-5.83332,-4.31595 -17.49999,-12.94783 -26.24998,-23.01837c-8.75,-10.07054 -53.95831,-27.33431 -55.41664,-25.89566c-1.45834,1.43865 -20.41665,14.38647 -21.87499,17.26377c-1.45834,2.8773 7.29166,-14.38648 -8.75,20.14107c-16.04167,34.52755 -10.20833,25.89566 -18.95832,46.03672c-8.75,20.14107 -7.29167,20.14107 -14.58333,37.40483c-7.29166,17.26377 11.66666,-1.43865 -20.41665,28.77296c-32.08331,30.21161 -11.66666,11.50919 -32.08331,31.65026c-20.41665,20.14107 -11.66666,14.38647 -32.08332,30.21161c-20.41665,15.82512 2.91666,-2.8773 -26.24999,24.45701c-29.16666,27.33431 -30.62499,28.77296 -39.37498,40.28214c-8.75,11.50919 -4.37499,8.63189 -14.58332,23.01837c-10.20833,14.38647 -8.75,20.14107 -18.95832,28.77296c-10.20833,8.63189 -10.20833,5.75459 -32.08332,23.01836c-21.87499,17.26379 -34.99998,27.33432 -40.83332,34.52756c-5.83332,7.19324 -8.75,7.19324 -18.95832,21.57972c-10.20833,14.38647 -7.29166,7.19324 -16.04166,24.45701c-8.75,17.26377 -7.29166,12.94783 -14.58333,20.14107c-7.29166,7.19324 -40.83331,40.28214 -48.12498,41.72079" id="svg_4" stroke="null"/>
   <path fill="#000000" stroke-width="9" opacity="NaN" d="m472.83146,165.96066c0,0 53.95831,43.15943 52.50032,41.72112c1.458,1.43833 36.45798,20.14074 34.99998,18.70242c1.458,1.43833 56.87463,-67.61678 55.41664,-69.0551c1.458,1.43833 -7.292,-33.08922 -8.75,-34.52755c1.458,1.43833 -42.29198,-27.33463 -48.12532,-28.77327c-5.83333,-1.43865 -45.20832,0 -46.66631,-1.43833c1.458,1.43833 -39.37532,73.37073 -39.37532,73.37073l0.00001,-0.00001l0,-0.00001z" id="svg_6" stroke="null"/>
   <path id="svg_14" d="m473.99997,145.99998c-56.26686,-21.95076 30,8 30,8c0,0 37,-39 36.00003,-39.99998c0.99997,0.99998 3.99997,-15.00001 3,-16c0.99997,0.99999 -39.00003,-6.00001 -40,-7c0.99997,0.99999 -18.00003,37.99998 -19,37c0.99997,0.99998 -10.00003,17.99998 -10.00003,17.99998z" opacity="NaN" stroke-width="9" stroke="null" fill="#000000"/>
  </g>
  <path stroke="null" fill="#BBBBBB" stroke-width="9" opacity="NaN" d="m258.09252,111.13492c153.68325,12.12099 286.83672,76.95038 344.56504,148.95561c57.72831,72.00525 87.6631,149.80398 96.67918,157.89528c9.01608,8.0913 45.77836,97.28631 51.42431,103.23133c5.64595,5.94503 4.67332,-5.24665 -29.65898,-123.43614c-34.33231,-118.18949 -92.14786,-197.29847 -106.01099,-214.3501c-13.86312,-17.05163 -56.58042,-46.60564 -81.56094,-61.33988c-24.98053,-14.73423 -47.68523,-25.66971 -89.34188,-36.92784c-41.65665,-11.25814 -45.02677,-13.40441 -112.49649,-16.43312c-67.46972,-3.0287 -113.03365,7.89335 -150.55491,15.71456c-37.52126,7.82121 -139.26301,27.60461 -140.3573,29.2571l217.31298,-2.56683l-0.00001,0.00001l-0.00001,0.00002z" id="svg_9"/>
  <path stroke="null" fill="#d8d8d8" stroke-width="9" opacity="NaN" d="m464.45314,165.22947c0,0 54.82945,44.37681 53.34792,42.89792c1.48154,1.4789 37.04658,20.70884 35.56504,19.22995c1.48154,1.4789 57.79285,-69.52401 56.31132,-71.0029c1.48154,1.4789 -7.40973,-34.02255 -8.89127,-35.50145c1.48154,1.4789 -42.97477,-28.10565 -48.90228,-29.58487c-5.92751,-1.47923 -45.93819,0 -47.41972,-1.4789c1.48154,1.4789 -40.01102,75.44026 -40.01102,75.44026l0.00001,-0.00001z" id="svg_11"/>
  <path stroke="null" fill="#845335" stroke-width="9" opacity="NaN" d="m38.23641,665.73609c1.42073,2.84758 -12.78649,8.54273 7.10362,29.89953c19.8901,21.3568 1.42072,5.69514 28.41445,15.66165c26.99372,9.96651 59.67033,22.78059 68.19467,17.08544c8.52435,-5.69515 24.15228,-31.32331 35.51807,-38.44224c11.36577,-7.11894 -5.68289,-7.11894 -1.42073,-38.44225c4.26216,-31.3233 -4.26217,-24.20437 9.94506,-37.01845c14.20722,-12.81408 25.573,-25.62816 35.51806,-31.32331c9.94506,-5.69515 5.68288,0 18.46939,-18.50925c12.7865,-18.50923 -48.30456,64.07043 17.04867,-22.78058c65.35323,-86.85101 100.8713,-133.83599 113.65779,-145.22627c12.7865,-11.39031 22.73157,-27.05196 42.62168,-44.1374c19.89011,-17.08546 -28.41445,17.08544 26.99372,-25.62818c55.40817,-42.7136 41.20095,-31.3233 55.40817,-42.7136c14.20723,-11.39031 18.46939,-11.39031 28.41445,-28.47575c9.94506,-17.08544 25.57301,-32.74711 19.89011,-37.01845c-5.68288,-4.27136 -17.04867,-12.81408 -25.573,-22.78059c-8.52434,-9.96652 -52.56673,-27.05196 -53.98745,-25.62817c-1.42073,1.42379 -19.89011,14.23786 -21.31084,17.08544c-1.42073,2.84759 7.10361,-14.23786 -8.52434,19.93303c-15.62796,34.17089 -9.94506,25.62816 -18.46939,45.56117c-8.52434,19.93302 -7.10362,19.93302 -14.20723,37.01845c-7.10361,17.08544 11.36578,-1.42379 -19.89011,28.47575c-31.25588,29.89953 -11.36578,11.39031 -31.25588,31.32332c-19.89011,19.93302 -11.36578,14.23786 -31.25589,29.89953c-19.89011,15.66164 2.84144,-2.84759 -25.57301,24.20437c-28.41445,27.05196 -29.83517,28.47575 -38.3595,39.86603c-8.52434,11.39031 -4.26216,8.54273 -14.20722,22.7806c-9.94506,14.23785 -8.52434,19.93302 -18.46939,28.47574c-9.94506,8.54273 -9.94506,5.69515 -31.25589,22.78059c-21.31084,17.08546 -34.09733,27.05196 -39.78023,34.1709c-5.68288,7.11893 -8.52434,7.11893 -18.46939,21.3568c-9.94506,14.23786 -7.10361,7.11893 -15.62795,24.20437c-8.52434,17.08544 -7.10361,12.81408 -14.20723,19.93302c-7.10361,7.11894 -39.78022,39.86604 -46.88384,41.28983" id="svg_10"/>
  <path stroke="null" fill="#a87455" stroke-width="9" opacity="NaN" d="m42.53179,662.71795c1.14247,2.53718 -10.28221,7.61154 5.71235,26.64036c15.99455,19.02883 1.14247,5.07435 22.84938,13.95447c21.7069,8.88012 47.98368,20.29742 54.83849,15.22306c6.85482,-5.07436 19.42197,-27.90895 28.56172,-34.25189c9.13974,-6.34295 -4.56988,-6.34295 -1.14247,-34.25189c3.4274,-27.90894 -3.42741,-21.566 7.99728,-32.98329c11.42468,-11.4173 20.56443,-22.83459 28.56172,-27.90895c7.99728,-5.07436 4.56987,0 14.85209,-16.49167c10.28222,-16.49165 -38.84393,57.0865 13.70963,-20.29741c52.55356,-77.38391 81.11528,-119.24735 91.39749,-129.39604c10.28222,-10.14872 18.27951,-24.10319 34.27407,-39.32625c15.99456,-15.22308 -22.84938,15.22306 21.7069,-22.83461c44.55628,-38.05765 33.13159,-27.90894 44.55628,-38.05765c11.42469,-10.14872 14.85209,-10.14872 22.84938,-25.37178c7.99728,-15.22306 -1.43556,-61.17755 -6.00544,-64.98329c-80.95922,112.65247 -83.10713,94.16082 -108.24143,120.8012c-25.1343,26.64036 -9.13975,10.14872 -25.1343,27.90896c-15.99456,17.76024 -9.13975,12.68588 -25.13431,26.64036c-15.99456,13.95446 2.28493,-2.53719 -20.56444,21.566c-22.84938,24.10319 -23.99184,25.37178 -30.84665,35.52048c-6.85482,10.14872 -3.4274,7.61154 -11.42468,20.29743c-7.99728,12.68587 -6.85482,17.76024 -14.85209,25.37177c-7.99728,7.61154 -7.99728,5.07436 -25.13431,20.29742c-17.13703,15.22308 -27.41924,24.10319 -31.98913,30.44614c-4.56987,6.34294 -6.85482,6.34294 -14.85209,19.02883c-7.99728,12.68588 -5.71234,6.34294 -12.56716,21.566c-6.85482,15.22306 -5.71234,11.4173 -11.42469,17.76024c-5.71234,6.34295 -31.98912,35.52049 -37.70147,36.78908" id="svg_5"/>
  <path transform="rotate(6 500.508 124.009)" stroke="null" id="svg_15" d="m472.24288,164.02102c0.38452,0.61565 42.29692,-24.6262 42.29692,-24.6262c0,0 17.6878,-35.09234 17.30329,-35.70798c0.38451,0.61564 -17.68781,-19.08532 -18.07232,-19.70096c0.38451,0.61564 -20.76395,6.77219 -21.9175,11.08177c-1.15355,4.30959 -8.07487,17.23835 -6.15228,25.85752c1.92259,8.61917 -2.69162,16.62268 -3.46066,17.85399c-0.76903,1.23131 -13.07359,12.3131 -13.07359,13.54441c0,1.23131 2.69162,11.08179 3.07614,11.69745z" opacity="NaN" stroke-width="9" fill="#f2f2f2"/>
  <path transform="rotate(-110 549.508 111.009)" stroke="null" id="svg_17" d="m521.24288,151.02102c0.38452,0.61565 42.29692,-24.6262 42.29692,-24.6262c0,0 17.6878,-35.09234 17.30329,-35.70798c0.38451,0.61564 -17.68781,-19.08532 -18.07232,-19.70096c0.38451,0.61564 -20.76395,6.77219 -21.9175,11.08177c-1.15355,4.30959 -8.07487,17.23835 -6.15228,25.85752c1.92259,8.61917 -2.69162,16.62268 -3.46066,17.85399c-0.76903,1.23131 -13.07359,12.3131 -13.07359,13.54441c0,1.23131 2.69162,11.08179 3.07614,11.69745z" opacity="NaN" stroke-width="9" fill="#f2f2f2"/>
 </g>

</svg>