<svg width="200" height="200" xmlns="http://www.w3.org/2000/svg">
 <g id="Layer_1">
  <title>Layer 1</title>
  <path stroke-width="10" fill="#000000" id="svg_3" d="m173.30994,42.75682c-0.34578,0.78602 -0.76477,1.06668 -1.72894,1.96505c-1.13454,1.05711 -2.99143,2.92118 -5.53261,5.10913c-2.98138,2.56698 -6.22419,4.71611 -8.29893,6.68117c-2.07473,1.96504 -4.13713,4.33517 -6.22418,7.07417c-2.40638,3.15807 -4.74806,6.00681 -6.56999,7.8602c-1.6498,1.6783 -3.53701,2.64481 -5.18681,4.32311c-1.45753,1.4827 -3.3686,3.2679 -5.8784,5.50214c-2.34178,2.08466 -5.2627,3.79844 -7.95313,5.89514c-2.85186,2.2225 -5.01894,3.97113 -7.60734,5.89515c-2.26022,1.68008 -3.80368,3.53708 -5.8784,5.10912c-2.07473,1.57205 -4.19851,3.44332 -6.56998,5.10913c-2.1211,1.48993 -4.40067,3.25947 -5.8784,4.71612c-1.30614,1.2875 -3.1972,2.6031 -4.84103,3.9301c-2.20182,1.77743 -4.64163,3.70538 -6.56997,5.50214c-1.51271,1.40948 -2.56261,2.63017 -4.14946,3.9301c-1.25452,1.02768 -2.7147,2.44061 -4.14945,3.53708c-1.6732,1.27869 -2.67873,2.89703 -4.14946,3.93011c-1.31545,0.92401 -2.30231,2.10929 -4.14945,3.93009c-1.30614,1.2875 -3.24073,2.11639 -4.49525,3.14407c-1.19014,0.97495 -2.43689,2.33365 -3.80367,3.53709c-1.75033,1.54115 -3.36896,3.2795 -5.18682,4.71612c-1.65542,1.30825 -3.15774,2.26189 -4.49524,3.14407c-1.07833,0.71123 -2.86785,1.36503 -4.84103,2.75106c-1.47073,1.0331 -2.80331,1.60389 -4.14946,1.96506c-0.75252,0.20191 -1.31297,0.88681 -1.72894,1.17901c-0.93017,0.65337 -1.72894,0.39302 -2.42052,0.39302c-0.34579,0 -0.69158,0 -1.38315,0c-1.03737,0 -2.42052,0 -3.80367,0c-1.38315,0 -2.42052,0 -3.11209,0c-0.69158,0 -2.07473,0 -3.11209,0c-1.38315,0 -2.44764,-0.31042 -3.45788,-0.78601c-0.71435,-0.3363 -1.10169,-0.27218 -1.72894,-0.78601c-0.79343,-0.64997 -1.10888,-1.49841 -1.72894,-2.35806c-0.79043,-1.09584 -1.38316,-2.35806 -1.72894,-3.14407c-0.34579,-0.78603 -0.56483,-1.58088 -0.69158,-2.75108c-0.1742,-1.60828 -0.29076,-3.21152 -0.69158,-4.71612c-0.36129,-1.35621 -0.69158,-1.96504 -0.69158,-2.75106c0,-1.17903 -0.17159,-2.32183 -0.34579,-3.93011c-0.12675,-1.1702 0,-2.35806 0,-3.14407c0,-0.78601 -0.1426,-2.36475 0,-4.32311c0.17349,-2.38244 0.51642,-4.66838 0.69158,-5.89514c0.22156,-1.55174 -0.10222,-1.97079 0,-3.14408c0.17374,-1.9942 0.34579,-4.71611 0.69158,-6.28815c0.34579,-1.57204 0.34579,-1.96505 0.34579,-2.35806c0,-0.39301 0,-0.78601 0.34579,-1.57204c0.34579,-0.78602 0.36429,-0.60544 1.03736,-0.78602c0.75252,-0.20191 1.83022,-0.90112 2.07473,-1.17902c0.48902,-0.5558 1.38833,-0.29698 2.07473,-0.39302c1.41504,-0.19799 3.11209,-0.78601 4.49525,-1.17903c1.38315,-0.39301 2.76631,-0.78601 4.14946,-1.17902c1.38315,-0.39302 3.11209,-0.39302 4.49524,-0.39302c0.69158,0 1.72894,-0.39301 3.45788,-0.39301c2.07473,0 5.51647,-0.58913 8.29892,-0.78602c2.41584,-0.17095 4.15347,0.14652 6.22419,0c2.78245,-0.19688 5.18682,-0.39301 6.91577,-0.39301c0.69158,0 1.38315,0 1.38315,0c0.34579,0 0.69158,0 1.03737,0c0.34579,0 0.34579,0 0.69158,0c0.34579,0 0.34579,0 0.69157,0c0.34579,0 0.34579,0 0.69158,0c0.34579,0 0.34579,0 0.69157,0c0.34579,0 0.69158,0.39301 1.38315,0.39301c0.34579,0 0.34579,0 0.69158,0c0.34579,0 0.34579,0.39302 0.34579,0.39302c0.34579,0 0.34579,0.39301 0.34579,0.39301c0.34579,0 0.34579,0.39301 0.34579,0.39301c0,0.39302 0,0.39302 0,0.78602c0,0.39301 0,0.39301 0,0.78601c0,0.39302 0,0.39302 0,0.78602c0,0.39301 0,0.78602 0,1.17903c0,0 -0.34579,0.78601 -0.69158,1.57204c0,0 0,0 0.34579,0c0.34579,0 0.34579,0 0.69157,0c0.34579,0 0.34579,0 0.69158,0c0.34579,0 0.69157,0 1.72894,0c2.07473,0 3.45788,0 4.14946,0c0,0 0.34579,0 0.69157,0c0,0 0.34579,0 0.69158,0c0.34579,0 0.69157,0 0.69157,0c0.69158,0 1.33223,-0.06802 1.72895,-0.39301c0.62726,-0.51384 1.10168,-0.27219 1.72894,-0.78602c0.39671,-0.32499 0.88147,-0.7684 2.07473,-1.17903c0.66191,-0.22778 1.38315,-0.78601 2.07473,-1.17903c0.69157,-0.39301 1.86272,-1.53965 2.7663,-1.96504c0.63894,-0.3008 0.69158,-0.78602 1.03737,-0.78602c0.34579,0 0.69158,-0.39301 1.03737,-0.78601c0.69157,-0.78602 1.14457,-0.91866 2.07473,-1.57204c1.24795,-0.8766 2.18192,-2.09768 3.11209,-2.75107c0.41599,-0.2922 0.58557,-0.96634 1.03737,-1.17903c0.63894,-0.3008 1.38315,-1.17902 2.07473,-1.57204c0.69157,-0.39301 0.64065,-0.85405 1.03737,-1.17903c0.62726,-0.51384 1.52799,-0.55763 2.07472,-1.17903c0.54674,-0.62141 0.7179,-0.63563 1.03737,-0.78602c0.4518,-0.21269 0.47957,-1.14665 1.38315,-1.57204c0.63894,-0.3008 1.17115,-1.14665 2.07473,-1.57204c0.63894,-0.3008 0.44707,-0.11511 0.69158,-0.39301c0.24451,-0.2779 0.58973,-0.52907 1.38315,-1.17903c0.62726,-0.51383 1.03737,-0.78602 1.03737,-0.78602c0.34579,0 0.23978,-0.57332 0.69157,-0.78601c0.31947,-0.1504 0.34579,0 1.03737,-0.78602c0.34579,-0.39301 1.44816,-1.18925 3.1121,-2.35806c0.93017,-0.65338 1.3924,-1.08874 1.72894,-1.17903c0.75252,-0.20191 0.72543,-0.71702 1.38315,-1.17902c0.29415,-0.20662 0.58557,-0.57333 1.03737,-0.78602c0.63894,-0.3008 1.03737,-0.78602 2.07473,-1.17903c1.03737,-0.39301 1.70617,-1.23574 2.42052,-1.57204c1.01025,-0.47559 2.00995,-1.26031 2.7663,-1.96504c0.96417,-0.89837 1.66824,-0.43149 2.07473,-1.17903c0.18179,-0.33432 0.98645,-1.24705 1.38316,-1.57204c0.62726,-0.51384 1.13863,-0.90113 1.38314,-1.17903c0.48901,-0.55579 1.51179,-0.54437 2.7663,-1.57205c1.19014,-0.97495 1.7628,-1.89605 2.42053,-2.35805c0.29416,-0.20662 1.10168,-0.66519 1.72894,-1.17903c0.79342,-0.64996 1.44747,-1.0582 2.07473,-1.57204c0.39671,-0.32499 0.69157,-1.17903 1.38316,-1.17903c0,0 0.02632,-0.24261 0.34578,-0.39301c0.4518,-0.2127 0.64065,-0.85405 1.03737,-1.17903c0.62726,-0.51384 0.89413,-0.23021 1.38316,-0.78602c0.24451,-0.2779 0.41011,-0.66518 1.03737,-1.17903c0.3967,-0.32498 0.64065,-0.46103 1.03737,-0.78601c0.62726,-0.51384 1.03735,-0.39302 2.07471,-1.17903c0,0 0.58558,-0.57332 1.03737,-0.78602c0.63894,-0.30081 1.62295,-0.96633 2.07473,-1.17903c0.31948,-0.1504 0.40566,0.05788 0.69159,-0.39301c0.4521,-0.71291 1.03735,-1.17903 1.72894,-1.57204c0,0 0.45298,-0.13264 1.38314,-0.78602c0.83198,-0.5844 1.38316,-1.57204 2.07473,-2.35805c0.69157,-0.78602 1.35077,-0.82666 1.72894,-1.17903c0.96417,-0.89838 1.68798,-1.64682 2.76632,-2.35806c0.66875,-0.44109 1.24275,-1.38065 2.07471,-1.96505c0.93016,-0.65338 2.46618,-1.47587 3.80368,-2.35806c1.07832,-0.71123 1.72894,-1.17903 2.07471,-1.57204c0.69157,-0.78603 1.28131,-1.31509 2.07473,-1.96505c0.62726,-0.51385 1.03737,-0.39301 1.72894,-1.17903c0.34579,-0.39301 1.40948,-0.63562 1.72895,-0.78602c0.90359,-0.42539 1.13865,-0.90114 1.38314,-1.17903c0.24451,-0.2779 0.35505,-0.30271 0.69159,-0.39301c0.75252,-0.2019 1.09,-0.48521 1.72894,-0.78602c0.45178,-0.2127 0.34578,-0.78602 1.03737,-0.78602c0,0 0.69157,-0.39301 0.69157,-0.39301c0.34579,-0.39301 0.69157,-0.39301 0.69157,-0.39301c0.34579,0 0.44707,0.1151 0.69159,0.39301c0.24451,0.2779 0.10128,0.11512 0.34578,0.39301c0.48901,0.5558 0.34579,1.17903 0.34579,1.57204c0,0 0,0.78602 0,1.17903c0,0.39301 -0.30348,1.20497 -0.69157,1.96505c-0.62579,1.2256 -1.38316,2.35806 -2.07473,3.14407c-0.34579,0.39301 -0.69159,0.78602 -0.69159,0.78602c0,0.39301 -0.41011,0.66518 -1.03737,1.17903c-0.39671,0.32498 -0.79877,0.52565 -1.72894,1.17903c-0.83196,0.5844 -2.03376,1.64682 -3.1121,2.35806c-0.66875,0.44109 -1.03735,0.39301 -1.03735,0.39301c-0.34579,0 -0.37211,0.24261 -0.69159,0.39301c-0.90359,0.42539 -2.21723,0.77366 -3.45787,1.57204c-0.85108,0.54769 -1.03737,0.78602 -1.03737,0.78602c-0.34579,0 -0.34579,0 -0.69157,0c-0.34579,0 -0.34579,0.39301 -0.34579,0.39301c-0.34579,0 -0.37211,0.24261 -0.69157,0.39301c-0.4518,0.21269 -1.03737,0.78602 -1.38316,0.78602c-0.69157,0 -0.44706,0.50812 -0.69157,0.78601c-0.48903,0.55581 -1.34117,0.58695 -2.42053,0.78602c-0.34131,0.06295 -0.23977,0.57332 -0.69157,0.78602c-0.31948,0.1504 -1.03737,0.78601 -1.03737,0.78601c-0.34579,0 -0.34579,0.39301 -0.69157,0.78602l0,0" stroke="#000"/>
 </g>

</svg>