<svg width="200" height="200" xmlns="http://www.w3.org/2000/svg">
 <g id="Layer_1">
  <title>Layer 1</title>
  <path fill="#000000" opacity="NaN" d="m2.14309,4.743c-1.564,3.33442 0.26193,33.2236 -0.06927,38.78954c-0.3312,5.56594 -0.11582,34.73543 0.00757,42.97567c0.12339,8.24024 -0.71652,50.35944 -0.45459,57.45818c0.26193,7.09875 -0.66997,51.44946 1.10941,53.62141c1.77937,2.17195 32.43809,0.48138 40.90531,0.14489c8.46722,-0.33649 29.217,0.33649 38.77091,0.07245c9.55391,-0.26405 32.99224,0.958 50.32826,0.3832c17.33602,-0.5748 37.14522,-0.5748 42.14568,-0.5748c5.00046,0 17.18993,2.91263 21.16539,0.17874c3.97546,-2.73389 0.33119,-7.34993 2.14954,-27.85403c1.81835,-20.5041 0.31605,-23.53587 0.25436,-38.21474c-0.0617,-14.67887 0.77064,-35.28926 0,-46.29722c-0.77064,-11.00796 0.00757,-41.18693 -0.25436,-52.18202c-0.26193,-10.9951 2.21126,-28.88446 -0.13095,-30.71992c-2.34222,-1.83546 -31.10461,-1.04331 -41.23651,-0.85172c-10.1319,0.1916 -37.71563,-0.20447 -56.82346,0.58767c-19.10783,0.79214 -32.83854,-0.79213 -42.27664,0c-9.4381,0.79213 -34.19363,-0.20447 -43.77138,-0.39607c-9.57775,-0.1916 -10.25529,-0.45565 -11.81928,2.87877l0.00001,0z" id="svg_3" fill-opacity="0.1" stroke="null"/>
  <g id="svg_11">
   <ellipse fill="#396849" stroke="null" cx="163.43356" cy="162.82566" id="svg_9" rx="30.35714" ry="30.35714"/>
   <g id="svg_10" stroke="null">
    <g id="svg_1" stroke="null">
     <title stroke="null">Layer 1</title>
     <g id="svg_2" stroke="null">
      <path d="m176.22899,135.95173c0,0 0,0 0.27485,0.07425c0,0 0.57119,0.48222 1.05891,0.99002c0.86216,0.89768 1.41164,1.38546 1.84296,1.90579c0.34098,0.41136 0.67542,0.91446 1.02851,1.50979c0.40258,0.67878 1.10916,1.50839 1.53769,2.3513c0.30302,0.59603 0.26893,0.79927 0.47878,1.36128c0.25221,0.67545 0.88114,1.63659 0.94744,2.89582c0.04688,0.89041 0.17736,1.34794 0.44838,1.88104c0.19165,0.37696 -0.12124,0.32319 -0.05067,0.86627c0.09699,0.7464 0.29201,1.49591 0.42811,2.22755c0.10759,0.57841 0.18117,0.96909 0.46865,1.53453c0.13551,0.26655 0.61579,1.00426 1.01837,1.68303c0.3531,0.59533 0.52924,1.18733 0.74352,1.60878c0.30302,0.59603 0.49905,1.01478 0.74352,1.60879c0.24445,0.59401 0.47878,1.36128 0.73338,1.78204c0.25459,0.42076 0.49905,1.01478 0.7435,1.60878c0.24446,0.59401 0.48892,1.18803 0.73338,1.78204c0.24446,0.59402 0.40752,1.16861 0.45852,1.70779c0.08668,0.91643 0.59537,1.72338 0.70298,2.3018c0.1361,0.73164 0.07606,1.05512 0.18365,1.63354c0.17012,0.91455 0.04613,1.58015 0.14312,2.32655c0.11763,0.90514 -0.21571,1.35494 -0.12161,2.07905c0.09699,0.7464 0.29201,1.49591 0.42811,2.22755c0.1076,0.57842 0.20393,1.28703 0.18366,1.63354c-0.0304,0.51977 -0.07094,1.21278 -0.12161,2.07905c-0.05067,0.86627 -0.10134,1.73254 -0.15201,2.5988c-0.0608,1.03953 0.07945,2.14127 -0.18241,3.11857c-0.17993,0.67158 -0.76266,1.17088 -0.92593,1.50978c-0.14603,0.30312 -0.03608,0.76675 -0.63079,1.23753c-0.40798,0.32295 -0.59026,0.54451 -0.59026,0.54451c-0.56999,0.198 -0.97799,0.20983 -1.13998,0.39601c-0.11455,0.13164 -0.33085,0.17008 -0.56999,0.198c-0.53473,0.06244 -0.29414,0.50108 -0.60039,0.71777c-0.3424,0.24226 -0.56999,0.198 -0.56999,0.198c-0.285,0.099 -0.46557,0.23961 -0.58012,0.37125c-0.16199,0.18619 -0.66423,0.26409 -1.13998,0.39601c-0.76712,0.21271 -1.13998,0.39601 -1.16024,0.74252c0,0 -0.03525,0.13557 -0.56999,0.198c-0.23915,0.02792 -0.618,0.13092 -1.12984,0.22276c-0.32373,0.05808 -0.285,0.09901 -0.55986,0.02476c0,0 -0.27487,-0.07425 -1.09945,-0.29701c-0.54972,-0.1485 -1.04606,-0.36816 -1.63903,-0.61877c-0.26519,-0.11207 -0.58919,-0.20046 -1.08931,-0.47026c-0.35363,-0.19077 -0.53959,-0.32175 -1.08931,-0.47026c-0.54972,-0.1485 -1.56914,-0.67308 -2.44334,-1.18803c-0.76672,-0.45163 -1.27402,-0.94534 -2.14821,-1.46028c-0.76673,-0.45164 -1.16287,-0.75767 -1.60863,-1.13852c-0.71877,-0.61412 -0.9136,-1.18372 -1.30337,-1.58404c-0.62847,-0.64548 -1.10226,-1.15688 -1.56809,-1.83154c-0.28889,-0.41841 -0.2588,-0.97252 -0.46866,-1.53453c-0.25221,-0.67545 -0.76616,-1.00759 -1.01837,-1.68304c-0.06995,-0.18733 0.04053,-0.69302 -0.1938,-1.46028c-0.23433,-0.76727 -0.17352,-1.80679 -0.13298,-2.49981c0.0304,-0.51977 0.07094,-1.21278 0.12161,-2.07905c0.0608,-1.03953 0.67133,-1.93054 0.72201,-2.79682c0.0304,-0.51977 -0.02699,-1.06779 0.08107,-1.38603c0.17086,-0.50319 0.43493,-0.94755 0.65106,-1.58404c0.17086,-0.50319 0.47006,-0.90759 0.64093,-1.41078c0.16209,-0.47737 -0.10673,-1.09137 0.11147,-1.90579c0.17993,-0.67158 0.6308,-1.23752 0.68147,-2.1038c0.04054,-0.69302 -0.17044,-1.47281 0.12161,-2.07904c0.16326,-0.3389 0.62066,-1.06428 0.66119,-1.75729c0.0304,-0.51976 0.05067,-0.86627 0.07094,-1.21278c0.01013,-0.17325 0.0304,-0.51977 0.0608,-1.03953c0.0304,-0.51976 0.3458,-1.13853 0.3762,-1.65828c0.0304,-0.51977 0.33567,-0.96527 0.36607,-1.48504c0.04054,-0.69302 0.22667,-1.50646 0.4066,-2.17805c0.17456,-0.65153 0.0608,-1.03953 0.08107,-1.38603c0.0304,-0.51976 0.1952,-0.98184 0.36607,-1.48503c0.16209,-0.47737 0.0608,-1.03953 0.08107,-1.38603c0.02027,-0.34651 -0.02737,-0.71316 0.07094,-1.21278c0.19934,-1.01302 0.6612,-1.75729 0.72201,-2.79682c0.04054,-0.69302 -0.06075,-1.25517 0.10134,-1.73254c0.17086,-0.50319 0.21062,-1.17932 0.39647,-2.0048c0.18952,-0.84182 0.36607,-1.48504 0.38633,-1.83154c0.02027,-0.34651 0.04054,-0.69302 0.05067,-0.86627c0.01013,-0.17325 0.0304,-0.51976 0.05067,-0.86627c0.02027,-0.34651 0.0304,-0.51976 0.04054,-0.69302l0.02027,-0.34651l0,0l0.01013,-0.17325" id="svg_8" fill="#f9c9a9" stroke-width="8" stroke="null"/>
      <path d="m178.557,133.29947c0.06103,0.11008 -0.29657,0.35997 -0.58587,0.75639c-0.7544,1.03374 -2.55211,2.5897 -4.78462,4.66629c-1.97095,1.8333 -3.29129,3.22658 -4.33301,4.27211c-0.89326,0.89653 -1.59014,1.80278 -3.17346,3.34167c-1.895,1.84181 -4.1213,4.01955 -5.37049,5.42269c-1.02412,1.15035 -1.81366,2.04414 -2.46554,2.80543c-0.76825,0.89719 -2.27026,2.5533 -3.50303,3.95601c-1.23277,1.40272 -1.9533,2.40739 -2.40452,2.91551c-0.5752,0.64772 -1.23277,1.40272 -1.81865,2.15911c-0.97645,1.26066 -1.95291,2.52132 -2.59981,3.16764c-0.6469,0.64632 -0.80826,1.09466 -1.306,1.875c-0.86928,1.3628 -2.38297,2.79316 -3.38098,4.17617c-0.72284,1.00169 -1.33672,1.763 -1.56233,2.01706c-0.5752,0.64772 -0.89212,1.24597 -1.5013,2.12713c-0.86152,1.24616 -1.63556,2.48935 -2.02615,2.99361c-0.39058,0.50426 -0.67385,0.86997 -1.17174,1.51279c-0.4979,0.64281 -0.48525,1.26978 -1.30601,1.875c-0.22764,0.16786 -0.1276,0.25153 -0.39058,0.50426c-0.58804,0.56513 -1.17021,1.0391 -1.74541,1.68683c-0.22561,0.25406 -0.45161,0.39418 -0.51263,0.28411c-0.06103,-0.11008 -0.4394,-0.18818 -0.81777,-0.26628c-0.37837,-0.0781 -1.13512,-0.2343 -1.63554,-0.53255c-0.50042,-0.29825 -1.25717,-0.45445 -1.63554,-0.53255c-0.37837,-0.0781 -0.4394,-0.18818 -0.75674,-0.15619c0,0 -0.31735,0.03197 -0.4394,-0.18818c-0.12206,-0.22016 -0.30513,-0.55038 -0.36616,-0.66046c-0.06103,-0.11008 -0.18308,-0.33023 -0.24411,-0.4403c-0.18308,-0.33023 -0.24411,-0.44031 -0.36616,-0.66046c-0.06103,-0.11008 -0.12206,-0.22016 -0.18308,-0.33023c0,0 0.1336,-0.16329 0.90322,-0.78838c1.0884,-0.884 2.4048,-1.79824 2.83171,-2.14497c0.60374,-0.49036 0.38675,-0.6882 0.52485,-0.86647c0.27619,-0.35657 0.91612,-0.89971 1.68438,-1.79691c0.43459,-0.50753 0.47654,-0.86461 0.72014,-1.11861c0.38517,-0.40161 0.84219,-0.89845 1.48909,-1.54477c0.6469,-0.64632 0.84219,-0.89845 1.2938,-1.29264c0.4516,-0.39419 0.6469,-0.64632 1.2938,-1.29264c0,0 0.71726,-0.60967 0.90322,-0.78838c0.4158,-0.39961 0.29396,-0.50053 0.78116,-1.00852c0.38517,-0.40161 0.76512,-0.61009 0.90321,-0.78838c0.1381,-0.17828 0.2007,-0.35479 0.58587,-0.7564c0.48721,-0.50799 0.81983,-1.11829 1.36704,-1.76493c0.33936,-0.40103 1.03952,-0.8198 1.09851,-1.0405c0.04171,-0.15606 0.47631,-0.44164 0.90321,-0.78838c0.30188,-0.24518 -0.01786,-0.26605 0.58588,-0.75639c0.42691,-0.34673 1.17908,-0.92939 1.80643,-1.57674c0.86997,-0.89771 1.08035,-1.11927 1.2938,-1.29264c0.30187,-0.24518 0.39058,-0.50426 0.84219,-0.89845c0.4516,-0.39419 0.84219,-0.89845 1.03748,-1.15058c0.19529,-0.25213 0.4033,-0.39232 0.6469,-0.64632c0.38517,-0.4016 0.41528,-0.55171 0.84219,-0.89844c0.30186,-0.24518 0.39058,-0.50426 0.39058,-0.50426c0.4516,-0.39419 0.68977,-0.61501 0.90322,-0.78838c0.60374,-0.49036 0.78116,-1.00852 0.78116,-1.00852c0.4516,-0.39419 0.58626,-0.64247 1.03748,-1.15058c0.5752,-0.64772 1.10393,-1.14317 1.4891,-1.54478c0.2436,-0.254 0.39058,-0.50426 0.84219,-0.89845c0.4516,-0.39419 0.74557,-0.89472 1.23278,-1.40272c0.38516,-0.4016 0.45702,-0.49685 0.84219,-0.89845c0.2436,-0.254 0.39599,-0.60692 0.78116,-1.00852c0.4872,-0.50799 0.90106,-0.97964 1.4891,-1.54477c0.26298,-0.25274 0.50881,-0.46804 0.6469,-0.64632c0.13809,-0.17828 0.35498,-0.39046 0.84219,-0.89845c0.38517,-0.40161 0.90864,-0.89104 1.2938,-1.29264c0.2436,-0.254 0.25249,-0.32598 0.39058,-0.50426c0.27618,-0.35657 1.04395,-0.71507 1.41585,-1.07249c0.41581,-0.39961 0.19146,-0.43606 0.32955,-0.61434c0.13809,-0.17828 0.4516,-0.39419 0.4516,-0.39419c0.4516,-0.39419 0.6469,-0.64632 0.84219,-0.89845c0,0 -0.06103,-0.11008 0.19529,-0.25213c0.25632,-0.14206 0.56984,-0.35796 0.70793,-0.53624c0.13809,-0.17828 0.02769,-0.36916 0.32956,-0.61434c0.42691,-0.34673 0.46094,-0.46761 0.6469,-0.64632c0.41581,-0.39961 0.46094,-0.46761 0.6469,-0.64632c0.4158,-0.39961 0.52485,-0.86647 0.72013,-1.1186c0.58588,-0.75639 0.44396,-0.76204 0.72014,-1.11861c0.13809,-0.17828 0.51263,-0.28411 0.4516,-0.39419c-0.06103,-0.11008 0.31352,-0.2159 0.4516,-0.39419c0.13809,-0.17828 0.27057,-0.39364 0.32955,-0.61434c0.04171,-0.15606 0.19529,-0.25213 0.19529,-0.25213c-0.06103,-0.11008 0.13426,-0.36221 0.13426,-0.36221c0.45161,-0.39419 0.39058,-0.50427 0.39058,-0.50427c0,0 -0.01816,-0.07877 0.19529,-0.25213c0.30187,-0.24518 0.4516,-0.39419 0.70793,-0.53624c0,0 0,0 0.25632,-0.14205c0.25632,-0.14206 0.25632,-0.14206 0.51263,-0.28411c0.25632,-0.14205 0.19529,-0.25213 0.4516,-0.39419c0.25632,-0.14206 0.25632,-0.14206 0.51263,-0.28411c0.25633,-0.14206 0.31735,-0.03198 0.31735,-0.03198c0,0 0.35521,-0.24098 0.57366,-0.17403c0.15447,0.04733 0.31735,-0.03198 0.31735,-0.03198c0.25632,-0.14206 0.2239,0.03077 0.37837,0.0781c0.21845,0.06694 0.54125,-0.00122 0.69571,0.04612c0.21845,0.06694 0.69571,0.04612 0.69571,0.04612c0.12206,0.22016 0.36318,0.35684 0.68351,0.62848c0.10129,0.0859 0.12206,0.22016 0.18308,0.33023c0,0 0.06103,0.11008 0.12206,0.22016c0,0 0.06103,0.11008 0.12206,0.22016c0.06103,0.11008 -0.13426,0.36221 -0.13426,0.36221c0.06103,0.11008 0.00383,0.18392 -0.13426,0.36221c-0.13809,0.17828 -0.19529,0.25213 -0.39058,0.50426l0.06103,0.11008l-0.25632,0.14206l0.06103,0.11008" id="svg_7" fill="#482816" stroke-width="0" stroke="#000"/>
      <path fill="#f9c9a9" stroke-width="8" opacity="NaN" d="m172.24175,132.98081c-2.34725,4.4465 3.2867,8.29321 4.4299,3.4555c1.1432,-4.83771 -12.00361,5.80525 -10.14591,3.73194" id="svg_6" stroke="null"/>
      <path fill="#c4a38d" stroke-width="8" opacity="NaN" d="m164.95385,176.38194c0,0 1.0003,5.80525 1.5719,6.49635c0.5716,0.6911 2.2864,0.13822 2.1435,0c0.1429,0.13822 3.1438,-20.18015 3.1438,-20.18015c0,0 -0.1429,-10.22829 -0.1429,-10.36651c0,-0.13822 1.0003,-9.12253 1.0003,-9.12253c0,0 -0.7145,-4.1466 -0.8574,-4.1466c-0.1429,0 -2.2864,14.3749 -2.4293,14.23668c0.1429,0.13822 -3.28671,16.03354 -3.4296,15.89532c0.1429,0.13822 -1.1432,5.94346 -1.2861,5.80525c0.1429,0.13822 0.2858,1.3822 0.2858,1.3822l0,0l0,0l0,-0.00001z" id="svg_5" stroke="null"/>
      <path fill="#7c5540" stroke-width="8" opacity="NaN" d="m125.65631,181.63431c0,0 2.15904,1.79686 2.01511,1.65865c0.14393,0.13822 3.02266,0.13822 3.16659,0.13822c0.14394,0 3.5984,-3.04084 3.74234,-3.17906c0.14394,-0.13822 6.90893,-12.57803 6.765,-12.71625c0.14393,0.13822 7.1968,-7.46389 7.05287,-7.60211c0.14393,0.13822 10.3634,-12.16337 10.21947,-12.30159c0.14393,0.13822 6.765,-6.49635 6.62106,-6.63457c0.86361,0.41466 -3.02266,3.59372 -3.45447,5.39059c-1.43936,-0.55288 -19.43138,18.10684 -19.57531,17.96862c0.14393,0.13822 -4.17415,3.59372 -4.31808,3.4555c0.14393,0.13822 -5.90138,8.98431 -6.04532,8.84609c0.14393,0.13822 -5.32564,3.73194 -5.32564,3.87016c0,0.13822 -0.86362,1.10576 -0.86362,1.10576l0,0l0,-0.00001z" id="svg_4" stroke="null"/>
     </g>
    </g>
   </g>
  </g>
 </g>

</svg>