<svg width="200.00000000000003" height="200.00000000000003" xmlns="http://www.w3.org/2000/svg">
 <g id="Layer_1">
  <title>Layer 1</title>
  <g transform="rotate(11 104.616 84.5026)" stroke="null" id="svg_17" stroke-width="6">
   <path stroke="#000" d="m25.5039,96.18151c0,0 0.19539,0.56383 1.40021,1.48447c1.26999,0.97045 2.80042,1.48447 3.50053,1.48447c0.35006,0 0.7001,0.37112 1.40021,0.74224c1.40021,0.74224 3.18107,0.66576 4.90074,1.48447c0.71404,0.33995 1.40021,0.74224 1.75026,0.74224c0.7001,0 1.46532,0.62814 2.10031,1.11336c0.40161,0.30688 1.05016,0.37111 1.05016,0.37111c0.7001,0.37111 1.31657,0.89659 2.45037,1.48447c0.9944,0.5156 1.46532,0.62814 2.10031,1.11336c0.40161,0.30688 1.11528,0.62814 1.75026,1.11336c0.80321,0.61376 1.75026,1.48447 2.45037,1.85559c0.7001,0.37111 1.75026,1.11336 2.80042,1.48447c1.05016,0.37111 1.75026,1.11336 2.45037,1.48447c0.7001,0.37111 1.42332,0.69683 2.10032,1.11336c1.09163,0.67162 1.40021,1.11334 2.10032,1.48447c0.7001,0.37112 1.42003,1.08275 2.45037,1.85559c1.4288,1.07175 2.51548,1.74149 3.15048,2.22671c0.4016,0.30688 0.94607,0.94313 2.10031,1.48447c1.31991,0.61902 2.15259,0.91825 2.45037,1.11336c0.66584,0.43628 0.88219,0.86236 1.40022,1.48447c0.83528,1.00313 1.81538,1.7415 2.45037,2.22671c0.40161,0.30688 1.40021,0.74224 2.10032,1.48447c1.05016,1.11336 2.10032,1.85559 2.45037,2.22671c0.35005,0.37111 1.0768,0.60022 1.40021,0.74224c1.3721,0.60254 1.99722,1.98404 2.80042,2.59782c0.63499,0.48522 0.99859,0.43536 1.40021,0.74225c0.63499,0.48521 1.47431,1.00726 2.45037,1.85559c0.38284,0.33274 0.5928,0.54139 1.05016,0.74224c0.32341,0.14201 0.40334,0.45819 1.05016,0.74224c0.45735,0.20085 0.59701,0.87071 1.40021,1.48447c0.63499,0.48522 1.75026,1.11334 2.80042,1.48446c0,0 0.62904,0.83744 1.05016,1.11337c0.94163,0.61699 2.05419,1.22045 3.50053,1.85559c1.0227,0.44911 1.02711,0.79578 1.75026,1.11334c1.0227,0.44911 2.67704,1.47427 4.20063,1.85559c1.36276,0.34106 2.12778,0.29312 3.15048,0.74224c1.44632,0.63514 3.47481,1.60355 6.30094,2.22671c2.08468,0.45967 3.52863,0.48643 4.55069,0.74224c0.76181,0.19066 2.11596,0.65369 4.20063,1.11337c1.41306,0.31158 2.73873,0.92268 3.50053,1.11334c1.36276,0.34106 3.14859,0.01837 6.30095,0.37113c3.49854,0.39152 6.26865,0.55526 7.70115,0.74224c1.04228,0.13603 2.45037,0.37111 3.85058,0.37111c2.45037,0 3.89713,0.15976 5.25079,-0.37111c0.73412,-0.2879 1.7415,-0.4319 3.85058,-0.74224c3.13975,-0.46199 5.86586,-1.47961 8.0512,-1.85559c0.69106,-0.11888 1.05017,0 1.75026,0c1.05015,0 3.1245,-0.55577 4.90073,-0.74225c0.34836,-0.03657 1.40022,0 2.10032,0c1.40022,0 3.15048,0 4.55069,0c0.35005,0 0.7001,0 1.05017,0c1.05015,0 3.15047,0 4.90073,0c0.35005,0 0.72675,0.14201 1.05015,0c0.45736,-0.20085 1.40022,-0.74224 2.80043,-0.74224c0.35005,0 0.56615,-0.02824 0.7001,-0.37111c0.18945,-0.48489 1.33419,-0.7922 2.10032,-1.85559c0.67192,-0.93264 0.72675,-1.71359 1.05015,-1.85559c0.45736,-0.20085 0.67127,-0.51467 1.05017,-1.48446c0.40188,-1.0286 0.35005,-1.48447 0.35005,-1.85559c0,-0.37111 0.1606,-0.62845 0.35005,-1.11334c0.40188,-1.02862 0,-1.85559 0,-2.59784c0,-1.11334 0.17274,-1.43939 0.35005,-2.59783c0.05608,-0.36632 0,-1.11334 0,-2.22671c0,-1.11334 0,-1.48446 0,-2.59782c0,0 0,-0.74224 0,-0.74224c0,-0.74224 0.35005,-2.22671 0.7001,-3.34007c0.35007,-1.11336 0.35007,-1.85559 0.35007,-2.59783c0,0 0,-0.74224 0,-1.11336c0,-0.74224 0,-1.11336 0,-1.85559c0,0 0,-0.37112 0,-1.11336c0,-1.11336 0,-2.22671 0,-3.34007c0,-0.37111 0,-0.74224 0,-0.74224c0,-0.74224 0,-1.48447 0,-2.22671c0,-0.74224 0,-0.74224 0,-1.11336c0,-0.37111 0,-1.11334 0,-2.59783c0,-1.11336 0,-2.22671 0,-3.34007c0,-0.37111 0,-1.11334 0,-1.85559c0,-0.37111 0,-0.74224 -0.35007,-1.48447c0,0 0.13396,-0.39939 0,-0.74224c-0.18945,-0.48488 -0.35005,-0.74224 -0.35005,-0.74224c0,-0.37111 -0.35005,-0.74224 -0.35005,-0.74224c0,-0.37111 0,-0.74224 -0.35005,-0.74224c0,0 -0.45258,0.26242 -0.7001,0c-0.24752,-0.26242 -0.10252,-0.10869 -0.35005,-0.37111c-0.24752,-0.26242 -0.35007,-0.37111 -0.35007,-0.37111c-0.35005,0 -0.7001,0 -0.7001,0c-0.35005,0 -0.7001,0 -0.7001,0c0,-0.37112 -0.35005,-0.37112 -0.70011,-0.37112c0,0 -0.35005,0 -0.7001,0c0,0 -0.35005,0 -0.7001,0c0,0 -0.35941,-0.08527 -0.7001,0c-0.76181,0.19066 -0.70011,0.37112 -1.05017,0.37112c-0.35005,0 -0.35005,0 -0.7001,0c-0.35005,0 -0.35005,0 -0.70011,0c-0.35005,0 -0.7001,0 -1.40019,0c-0.70011,0 -1.05017,0 -1.75026,0c-0.35005,0 -0.7001,0 -1.75026,0c-0.7001,0 -1.75026,0 -1.75026,0c-0.7001,0 -1.40019,0 -1.40019,0c-0.7001,0 -0.7001,0 -1.05017,0c-0.35005,0 -0.7534,-0.28404 -1.40019,0c-0.45736,0.20085 -0.80265,0.10869 -1.05017,0.37111c-0.24752,0.26242 0,0.37111 -0.35005,1.11336c-0.35005,0.74224 -0.7001,1.11336 -0.7001,1.48447c0,0.37111 -0.35005,0.74224 -0.35005,1.11336c0,1.11336 0,1.48447 0,2.59783c0,0.74224 0,1.11336 0,1.48447c0,0.37112 0,0.74224 0,1.48447c0,0.74224 0,1.11336 0,1.48447c0,0.37111 -0.16062,0.62847 -0.35007,1.11336c-0.13397,0.34286 -0.35005,0.37111 -0.35005,0.37111c-0.7001,0 -2.05781,0.92536 -3.15047,1.11336c-1.03659,0.17834 -1.75026,0 -1.75026,0c-1.40019,0 -2.45037,0 -3.50051,0c-0.70011,0 -1.40022,0 -2.10032,0c-0.70011,0 -2.46393,0.19277 -3.50054,0.37111c-1.09266,0.18798 -2.11905,0.2006 -2.80041,0.37112c-0.7618,0.19066 -1.75026,0.37111 -2.45037,0.37111c-0.70011,0 -1.05017,0 -1.05017,0c-0.35005,0 -0.7001,0 -1.05015,0c-0.35005,0 -0.35005,0 -1.05017,0c-0.7001,0 -1.75025,0 -2.45037,0c-0.35005,0 -0.35005,0 -0.7001,0c-0.7001,0 -0.94285,-0.17027 -1.40022,-0.37111c-0.32341,-0.14201 -0.10252,-0.10869 -0.35005,-0.37112c-0.24752,-0.26242 -0.7001,-0.37111 -0.7001,-0.74224c0,-0.37112 -0.10252,-0.47983 -0.35005,-0.74224c-0.49505,-0.52483 -0.17021,-1.41906 -0.35005,-2.22671c-0.08042,-0.36118 0,-0.74224 0,-1.11336c0,-0.74224 0,-1.85559 0,-2.59783c0,-1.11336 0,-1.85559 0,-2.22671c0,-0.74224 0,-1.48447 0,-2.22671c0,-1.48447 0,-3.34005 0,-5.19565c0,-1.11336 0.35005,-1.85559 0.35005,-2.96894c0,-1.48447 0,-2.96895 0,-4.0823c0,-1.48447 0,-2.59783 0,-3.34007c0,-0.74224 0,-1.48447 0,-2.22671c0,-0.74224 0,-1.48447 0,-2.2267c0,-0.37112 0,-1.11336 0,-1.48447c0,-0.37111 0,-0.74224 0,-1.48447c0,-0.74224 0,-1.11336 0,-1.48447c0,0 0,-0.37111 0,-0.74224c0,0 0,-0.37111 0,-0.74224c0,0 0,-0.37112 0,-0.74224c0,-0.37111 0,-0.74224 0,-1.85559c0,-0.37111 0,-1.11334 0,-1.48447c0,-0.37111 0,-1.11336 0,-1.85559c0,-0.74224 0,-1.48447 0,-1.48447c0,-0.37111 0,-0.74224 0,-0.74224c0,-0.37112 0,-0.74224 0,-1.11336c0,-0.37111 0,-0.37111 0,-0.74224c0,-0.37111 0,-1.11336 0,-1.85559c0,-0.74224 0,-1.11336 0,-1.48447c0,-0.74224 0.17021,-0.67683 0.35005,-1.48447c0.16085,-0.72238 0,-1.11336 0,-1.48447c0,0 0,-0.37112 0,-0.74224c0,-0.37112 0,-0.74224 0,-0.74224c0,-0.37111 0,-0.74224 0,-0.74224c0,-0.37112 0,-0.74224 0,-1.48447c0,0 0,-0.37112 0,-0.74224c0,0 0,-0.74224 0,-1.48447c0,-0.74224 0,-0.74224 0,-1.11336c0,-0.37112 0,-1.11336 0,-1.85559c0,-0.74224 0,-1.48447 0,-2.22671c0,-0.74224 0,-1.48447 0,-2.22671c0,-0.74224 0,-1.48447 0,-2.2267c0,-0.74224 0,-1.48447 0,-2.22671c0,-0.37112 0,-1.11336 0,-1.85559c0,-1.11336 0,-1.85559 0,-2.96895c0,-1.11336 0,-1.85559 0,-2.59783c0,-0.74224 0.35005,-1.85559 0.35005,-2.96895c0,-0.74224 0,-1.48447 0,-1.85559c0,-1.11336 0.17021,-1.41906 0.35005,-2.22671c0.16085,-0.72238 0,-1.48447 0,-2.22671c0,-0.37112 0,-0.74224 0,-1.11336c0,-0.37112 0,-0.74224 0,-1.48447c0,-0.74224 0,-1.11336 0,-1.48447c0,0 0,-0.37112 0,-0.74224c0,-0.37112 0,-0.74224 0,-0.74224c-0.35005,0 -0.7001,0 -0.7001,-0.37112c0,0 -0.35005,0 -0.7001,0c-0.70011,0 -1.07681,0.14201 -1.40022,0c-0.45736,-0.20085 -0.7001,-0.37112 -0.7001,-0.37112c-0.35007,0 -0.70011,0 -0.70011,0.37112c0,0 -0.1606,0.25735 -0.35005,0.74224c-0.13396,0.34287 -0.35005,1.11336 -0.35005,1.85559c0,0.74224 0,1.48447 0,2.22671c0,0.74224 0,0.74224 0,1.48447c0,0 0,0.74224 0,1.11336c0,0.37112 0,1.11336 0,1.85559c0,0.37112 0.26963,1.12328 0.35005,1.48447c0.17984,0.80765 0.35005,1.48447 0.35005,2.96895c0,0.74224 0.35005,1.85559 0.35005,2.96895c0,0.74224 0.35007,1.11336 0.35007,2.22671c0,0.37111 0,1.11336 0,1.48447c0,0.37112 0,0.74224 0,1.48447c0,0.74224 0,1.85559 0,2.59783c0,0.74224 0,1.85559 0,2.59783c0,0.37112 0,0.74224 0,1.48447c0,0.37112 0,0.74224 0,1.11336c0,0.37111 0,1.11336 0,1.11336c-0.35007,1.11336 -0.70011,1.48447 -0.70011,2.2267c0,0.74224 0,1.48447 0,2.22671c0,0 -0.17021,0.30571 -0.35005,1.11336c-0.08042,0.36119 -0.35005,1.85559 -0.35005,2.59783c0,0.74224 0,0.74224 0,1.11336c0,0.37112 0,0.74224 0,1.48447c0,0.74224 0,1.48447 0,2.22671c0,0.37111 0,0.37111 0,1.11336c0,0.37111 0,1.11336 0,1.85559c0,0.37112 0,1.11336 0,1.48447c0,0.37112 0,1.11336 0,1.85559c0,0.74224 0,0.74224 0,1.11336c0,0.37111 0,0.37111 0,1.11336c0,0.74224 0,1.48447 0,2.22671c0,0.37111 0,0.74224 0,1.11336c0,0.37111 0,0.37111 0,0.74224c0,0.37112 0,0.37112 0,1.11336c0,0.74224 -0.17021,0.67683 -0.35005,1.48447c-0.16085,0.72238 0,1.48447 0,2.22671c0,0.74224 0.13396,1.51273 0,1.85559c-0.18945,0.48488 -0.35005,1.11336 -0.35005,1.48447c0,0.74224 0,1.11336 0,1.85559c0,0.37111 0,1.48447 0,1.85559c0,1.11336 0,1.48447 0,1.85559c0,0.74224 0.16085,1.50433 0,2.22671c-0.17984,0.80765 -0.1892,1.50433 -0.35005,2.22671c-0.17984,0.80765 -0.35006,1.48447 -0.35006,2.2267c0,0.37112 0,0.74224 0,1.48447c0,0.74224 0,1.48447 0,2.59783c0,0.74224 0,1.85559 0,2.22671c0,1.11336 0,1.11336 0,1.85559c0,0.37112 0,0.74224 0,0.74224c0,0.74224 0,1.48447 0,2.22671c0,0.37111 0.16061,0.99957 0.35006,1.48447c0.13397,0.34286 0.17021,0.67683 0.35005,1.48447c0.08044,0.36119 0,1.11336 0,1.48447c0,0.37111 0,0.74224 0,0.74224c0.35005,0.37111 0.35005,0.74224 0.35005,0.74224c0,0.37111 -0.35005,0.37111 -0.35005,0.37111c-0.35005,0 -0.7001,0 -0.7001,0c-0.35006,0 -0.45259,0.10869 -0.7001,0.37111c-0.24752,0.26242 -0.7001,0 -0.7001,0c-0.35006,0 -0.7001,0 -1.05016,0c-0.35006,0 -0.35006,0 -0.7001,0c-0.35005,0 -0.7001,0 -1.05016,0c-0.35005,0 -0.7001,0 -1.05016,0c-0.35005,0 -1.05016,0 -1.75026,0c-0.7001,0 -1.40022,0 -2.10032,0c-0.35006,0 -1.05016,0 -1.75026,0c-0.7001,0 -1.40021,0 -1.75026,0c-0.35006,0 -0.7001,0 -1.05016,0c-1.05016,0 -1.05016,0 -1.40022,0c-0.35005,0 -0.35005,0 -1.05016,0c-0.35005,0 -1.40021,0 -2.45037,0c-0.35005,0 -1.0768,0.14203 -1.40021,0c-0.45735,-0.20085 -1.75026,-0.74224 -3.15048,-0.74224c-1.05016,0 -1.75026,-0.37112 -2.10032,-0.37112c-0.35005,0 -0.7001,0 -1.40021,0c-1.40021,0 -2.45037,0 -3.15048,0c-0.35005,0 -0.7001,0 -1.05016,0c-0.35005,0 -0.7001,0 -1.40021,0c-0.35005,0 -0.7001,0 -1.05016,0c-0.35005,0 -1.05016,0 -1.75026,0c-0.35006,0 -0.7001,0 -1.05016,0c-0.35006,0 -1.06888,0.17053 -1.75026,0c-0.76181,-0.19066 -1.40021,-0.37111 -2.45037,-0.37111c-0.7001,0 -1.75026,0 -2.45037,0c-0.7001,0 -0.63841,-0.18046 -1.40021,-0.37111c-0.68138,-0.17053 -1.60527,0.52483 -2.10032,0c-0.24752,-0.26242 0,-0.37111 -0.35006,-0.37111c-0.35005,0 -0.99859,-0.06424 -1.40021,-0.37112c-0.63499,-0.48522 -1.05016,-0.37111 -1.40021,-0.37111c-0.35005,0 -0.94284,-0.54139 -1.40021,-0.74224c-0.64681,-0.28404 -1.29291,-0.54139 -1.75026,-0.74224c-0.32341,-0.14203 -0.7001,0 -1.40021,0c-0.7001,0 -1.8302,0.05494 -2.80042,-0.37112c-0.45735,-0.20085 -1.05016,-0.37111 -1.40021,-0.37111c-0.7001,0 -1.2929,-0.17026 -1.75026,-0.37111c-0.32341,-0.14203 -1.05015,-0.37112 -1.05015,-0.37112c-0.7001,0 -0.7001,0 -1.40022,0c0,0 -0.76522,0.11411 -1.40021,-0.37111c-0.40161,-0.30688 -1.05953,-0.28585 -1.40021,-0.37111c-0.76181,-0.19066 -1.29291,-0.54139 -1.75026,-0.74224c-0.97022,-0.42607 -1.75026,0 -2.45037,-0.37111c0,0 -0.35005,-0.37111 -0.7001,-0.37111c-0.7001,0 -1.29291,-0.54139 -1.75026,-0.74224c-0.32341,-0.14203 -1.2552,0.52485 -1.75026,0c-0.24752,-0.26242 -0.72675,-0.60022 -1.05016,-0.74224c-0.45736,-0.20085 -1.05016,-0.74224 -1.05016,-0.74224c-0.7001,0 -1.05016,0 -1.75026,-0.37112c-0.7001,-0.37111 -1.41894,-0.57169 -2.10032,-0.74224c-0.7618,-0.19066 -1.05541,-0.28044 -1.75026,-0.37112c-1.43249,-0.18696 -2.45037,-0.74224 -3.15048,-0.74224c-0.7001,0 -0.94285,-0.17026 -1.40021,-0.37111c-0.64681,-0.28404 -1.05016,-0.37112 -1.75026,-0.37112c-0.7001,0 -0.7001,0 -1.40022,0c-0.35005,0 -0.75339,-0.08707 -1.40021,-0.37111c-0.45736,-0.20085 -0.63841,-0.55158 -1.40022,-0.74224c-0.68137,-0.17053 -1.40021,0 -2.10031,-0.37111c-0.7001,-0.37111 -1.15268,-0.47981 -1.40022,-0.74224c-0.49506,-0.52485 -0.94285,-0.17026 -1.40021,-0.37111c-0.64681,-0.28404 -1.15268,0.26242 -1.40022,0c-0.24752,-0.26242 -0.35006,-0.37111 -0.7001,-0.37111c0,0 -0.45258,0.26242 -0.7001,0c-0.24753,-0.26242 -0.24274,-0.54139 -0.7001,-0.74224c-0.32341,-0.14203 -0.7001,0 -0.7001,0c-0.35006,0 -0.7001,-0.37111 -1.05016,-0.37111c-0.35006,0 -1.40021,-0.37112 -1.75026,-0.37112c-0.35006,0 -0.7001,-0.37111 -0.7001,-0.37111c-0.35006,0 -0.7001,-0.37111 -1.40021,-0.37111c-0.35006,0 -0.80264,0.26242 -1.05016,0c-0.24752,-0.26242 -0.35006,-0.37111 -0.7001,-0.37111c-0.35006,0 -0.63841,-0.18047 -1.40021,-0.37112c-1.02207,-0.2558 -2.38867,-0.18046 -3.15047,-0.37111c-0.34069,-0.08527 -0.5928,-0.17026 -1.05016,-0.37111c-0.97022,-0.42606 -1.75026,0 -2.45037,0c0,0 0,0 0,0c0,0.37111 0,0.74224 0,0.74224c0,0 0.10252,0.10871 0.35006,0.37112c0.24752,0.26242 0.10252,0.10869 0.35006,0.37111c0.24752,0.26242 -0.24752,0.47981 0,0.74224c0.24752,0.26242 0.7001,0 0.7001,0.37112c0,0.37111 0,0.37111 0.35006,0.37111c0,0 0.10252,0.10869 0.35006,0.37111c0.24752,0.26242 0.7001,0.37112 0.7001,0.37112c0.35006,0 0.7001,0 1.40021,0c0,0 0.24274,0.54139 0.7001,0.74224c0.64681,0.28404 1.42685,0.2291 1.75026,0.37112c0.45736,0.20085 1.05016,0.37111 1.40021,0.37111c0,0 0.35006,0 0.7001,0c0.35006,0 0.7001,0.37111 1.05016,0.37111c0,0 0.7001,0.37112 1.05016,0.37112c0.35006,0 0.80264,0.10869 1.05016,0.37111c0.24752,0.26242 1.05016,0.37111 1.40021,0.37111c0.7001,0 0.7001,0 1.05016,0l0.35006,0l0,0l0,0.37112" id="svg_2" fill="#000000"/>
   <path stroke="#000" d="m122.81851,18.61783c0,0 -0.65864,0.07061 -1.75026,0.74224c-0.67699,0.41652 -1.75026,0.74224 -2.10032,0.74224c-0.35005,0 -0.75339,0.08708 -1.40021,0.37112c-0.45735,0.20085 -0.86613,0.79766 -1.05016,1.11336c-0.41152,0.70591 -1.40021,0.74224 -2.45037,1.48447c-1.05016,0.74224 -2.58059,1.62738 -3.85058,2.59783c-0.80321,0.61376 -1.40021,1.11336 -2.10031,1.48447c-0.7001,0.37112 -1.15412,0.97004 -2.10032,1.85559c-0.58681,0.5492 -1.77337,1.06795 -2.45037,1.48447c-1.09163,0.67162 -1.75026,1.11336 -2.10032,1.48447c-0.7001,0.74224 -1.79647,1.39367 -3.15048,2.22671c-1.09163,0.67162 -2.26092,1.3707 -2.45037,1.85559c-0.13397,0.34286 -0.63453,0.44787 -1.40022,1.11336c-0.97606,0.84833 -2.03885,0.77857 -2.45037,1.48447c-0.36807,0.63138 -0.64855,0.80648 -1.05016,1.11336c-0.63499,0.48522 -1.75026,1.11336 -2.10032,1.48447c-0.35005,0.37111 -0.8607,0.25735 -1.05015,0.74224c-0.13397,0.34286 -0.38432,0.67707 -1.05016,1.11336c-0.29778,0.19512 -0.7001,0.37111 -1.05016,0.74224c-0.35006,0.37112 -0.84673,0.89768 -1.40022,1.48447c-0.55348,0.58678 -0.7001,1.11336 -0.7001,1.48447c0,0 0.18403,0.42654 0,0.74224c-0.41152,0.70591 -0.7001,0.74224 -0.7001,1.11336c0,0.37112 0,0.74224 0,1.11336c0,0 0,0.37111 0,0.74224c0,0.37112 0,0.74224 0,1.48447c0,0.74224 0.52027,1.41906 0.7001,2.2267c0.16085,0.72238 -0.16085,1.50433 0,2.22671c0.17984,0.80766 0.51065,1.3707 0.7001,1.85559c0.13397,0.34286 0,0.74224 0,1.11336c0,0.37111 0.35006,0.74224 0.35006,1.11334c0,0.37112 0.1606,0.25736 0.35005,0.74224c0.13397,0.34286 0,1.11336 0,1.11336c0,0.37111 -0.14499,0.95964 0.35005,1.48447c0.24753,0.26242 0.08213,0.79874 0.35006,1.48447c0.18945,0.48488 0.7001,0.74224 0.7001,1.11334c0,0.37112 -0.13397,1.1416 0,1.48447c0.18945,0.48489 0.7001,0.74224 0.7001,1.11336c0,0.37111 0.52027,0.67683 0.7001,1.48447c0.08043,0.36118 0.52026,0.67683 0.7001,1.48447c0.08043,0.36118 0.52027,0.67683 0.7001,1.48447c0.08043,0.36119 0.7001,1.11336 1.05016,1.85559c0.35005,0.74224 0.59248,1.18238 1.05016,1.85559c0.57892,0.85155 0.73437,1.79044 1.40021,2.22671c0.29778,0.19511 0.38432,1.04819 1.05016,1.48447c0.29778,0.19511 0.38432,1.04819 1.05016,1.48447c0.59554,0.39022 0.38432,1.04819 1.05016,1.48447c0.29778,0.19511 1.05016,0.37111 1.05016,0.74224c0,0 0.3767,0.60021 0.7001,0.74224c0.91474,0.4017 1.40021,1.48447 2.10032,2.22671c0,0 0.45461,0.35202 1.05016,0.74224c0.66583,0.43627 0.35005,0.74224 1.05016,1.48447c0,0 0.35005,0.37111 0.7001,0.74224c0.35005,0.37111 0.94253,0.81127 1.40021,1.48447c0.28946,0.42577 0.72675,0.60022 1.05016,0.74224c0.45735,0.20085 0.28835,1.29381 1.05016,1.48447c0.34068,0.08527 0.7001,0.37111 0.7001,0.74224c0,0 -0.10731,0.17027 0.35006,0.37112c0.32341,0.14203 0.35005,0.37111 0.7001,0.37111c0,0 0.35006,0 0.35006,0.37111c0,0 0,0.37112 0.35005,0.37112c0,0 0.35005,0 0.35005,0.37111c0,0 0.37671,0.22909 0.7001,0.37111c0.45736,0.20085 0.7001,0.74224 0.7001,0.74224c0.35006,0.37111 0.7001,0.37111 0.7001,0.37111c0,0.37112 0.45258,0.10869 0.7001,0.37112c0.24752,0.26242 0.24274,0.54139 0.7001,0.74224c0.32341,0.14203 0.64856,0.06424 1.05016,0.37111c0.63499,0.48522 1.08443,0.67709 1.75026,1.11336c0.29778,0.19511 0.76522,-0.11411 1.40021,0.37112c0.4016,0.30688 0.76522,0.25701 1.40021,0.74224c0.40162,0.30689 1.05016,0.37112 2.10032,0.74224c1.05016,0.37111 1.46532,0.25701 2.10032,0.74224c0.4016,0.30688 0.74667,0.21135 2.10032,0.74224c0.73413,0.28791 1.40021,0.37112 2.10032,0.74224c0.7001,0.37111 1.33217,0.53753 2.80041,1.11336c1.35366,0.53088 2.10032,0.74224 2.45037,0.74224c0.35006,0 0.5928,0.54139 1.05017,0.74224c0.6468,0.28404 0.72675,0.22909 1.05015,0.37111c0.45736,0.20085 0.71884,0.2006 1.40022,0.37112c0.7618,0.19066 1.40019,0.74224 1.40019,0.74224c0.35007,0.37112 1.08762,0.40117 2.45039,0.74224c1.5236,0.38132 2.80041,1.48447 2.80041,1.48447c0.35005,0 0.80263,-0.26242 1.05015,0c0.24752,0.26242 0,0 -0.35005,0c0,0 0.10763,-0.44014 -0.35005,-1.11336c-0.28945,-0.42577 -0.63865,-0.40743 -1.05017,-1.11336c-0.36807,-0.63138 -0.7001,-1.48447 -1.40019,-2.96894c-0.35005,-0.74224 -0.56612,-1.1416 -0.7001,-1.48447c-0.18945,-0.4849 -0.76072,-0.68758 -1.05017,-1.11336c-0.45769,-0.6732 -0.7001,-1.11337 -1.05015,-1.48447c-0.35007,-0.37112 -0.76522,-0.99925 -1.40022,-1.48447c-0.80321,-0.61376 -1.46081,-1.42981 -1.75026,-1.85559c-0.45769,-0.6732 -1.05015,-1.48447 -1.05015,-1.48447c0,0 -0.14662,-0.89768 -0.7001,-1.48447c-0.55348,-0.58678 -0.7534,-1.20042 -1.40021,-1.48447c-0.91474,-0.4017 -0.75238,-1.28936 -1.05016,-1.48447c-0.66584,-0.43628 -0.75238,-1.28937 -1.05016,-1.48447c-0.66584,-0.43627 -1.02132,-1.25692 -1.40022,-2.22671c-0.26792,-0.68574 -0.43218,-0.79873 -0.7001,-1.48447c-0.37889,-0.96978 -0.7001,-1.48447 -1.40021,-2.22671c0,0 -0.51065,-0.25735 -0.7001,-0.74224c-0.26792,-0.68574 -0.41064,-1.42982 -0.7001,-1.85559c-0.45768,-0.6732 -0.35005,-1.11336 -0.7001,-1.48447c0,0 -0.52027,-0.3057 -0.7001,-1.11336c-0.08043,-0.36118 -0.52027,-0.67683 -0.7001,-1.48447c-0.08043,-0.36119 -0.43218,-1.16986 -0.7001,-1.85559c-0.18945,-0.48489 -0.43219,-1.16986 -0.7001,-1.85559c-0.37889,-0.96978 -0.88931,-1.1332 -1.05016,-1.85559c-0.17984,-0.80766 -1.10244,-1.66049 -1.40021,-1.85559c-0.66583,-0.43627 -0.59248,-1.5535 -1.05016,-2.2267c-0.57892,-0.85155 -1.05016,-1.48447 -1.40021,-2.22671c0,0 -0.06059,-0.6876 -0.35005,-1.11336c-0.45769,-0.6732 -0.56615,-1.88385 -0.7001,-2.22671c-0.18945,-0.48488 -0.35005,-1.11336 -0.35005,-1.85559c0,-1.11336 0,-2.59783 0,-3.71118c0,-1.11336 -0.35006,-1.85559 -0.35006,-2.59783c0,-0.74224 0,-1.48447 0,-2.59783c0,-0.74224 0,-1.48447 0,-2.22671c0,-0.74224 0,-1.48447 0,-2.22671c0,-0.74224 0.35006,-1.48447 0.35006,-2.59783c0,-0.37112 0.35005,-1.11336 0.7001,-1.85559c0.35006,-0.74224 0.4682,-1.59952 1.05016,-2.59783c0.26027,-0.44646 0.59248,-1.18239 1.05016,-1.85559c0.57892,-0.85155 0.76522,-1.37037 1.40021,-1.85559c0.80321,-0.61376 0.59701,-1.24183 1.40022,-1.85559c0.63499,-0.48522 1.05015,-1.11334 1.75026,-1.85559c0.35005,-0.37112 0.45258,-0.4798 0.7001,-0.74224c0.24753,-0.26242 0.35005,-0.37112 0.7001,-0.74224c0.35006,-0.37112 0.7001,-0.74224 1.05016,-1.11336c0,0 0.45259,-0.10871 0.7001,-0.37112c0.24753,-0.26242 0.35005,-0.37111 0.7001,-0.74224c0.35005,-0.37111 0.45258,-0.10871 0.7001,-0.37112c0.24752,-0.26242 0.02665,-0.22909 0.35005,-0.37111c0.45736,-0.20085 0.37671,-0.22909 0.7001,-0.37112c0.45735,-0.20085 0.35005,-0.74224 0.7001,-0.74224c0.35005,0 0.45257,-0.10869 0.7001,-0.37112c0.24753,-0.26242 0.35006,0 0.7001,0c0.35005,0 0.35005,0 0.7001,0c0.35005,0 0.35005,0 1.05016,0c0.7001,0 1.05015,-0.37112 1.75026,-0.37112c1.05015,0 2.1003,0 3.15047,-0.37111c1.05015,-0.37111 1.75026,-0.37112 2.10032,-0.37112c0.35005,0 0.90516,0.52485 1.40022,0c0.24752,-0.26242 0.7001,-0.37111 0.7001,-0.37111c0.35005,0 0.45258,-0.10869 0.7001,-0.37112c0.49505,-0.52483 1.50274,0.26242 1.75026,0c0.24752,-0.26242 0,-0.74224 -0.35005,-0.74224c0,0 -0.02665,-0.2291 -0.35005,-0.37112c-0.45739,-0.20085 -0.5928,-0.54139 -1.05017,-0.74224c-0.32341,-0.14203 -0.35005,-0.37112 -0.7001,-0.37112c-0.35005,0 -0.7001,0 -1.40022,-0.37111c-0.7001,-0.37111 -1.01736,-0.78062 -1.40019,-1.11336c-0.97606,-0.84834 -1.769,-1.31394 -2.45039,-1.48447c-0.7618,-0.19066 -1.2768,-1.10315 -2.80041,-1.48447c-1.70343,-0.42632 -3.43883,-0.55158 -4.20063,-0.74224c-0.34069,-0.08527 -0.10253,-0.10869 -0.35006,-0.37112c-0.49505,-0.52483 -1.05016,0 -1.40021,-0.37112c0,0 -0.35005,0 -0.7001,0c0,0 -0.35006,0 -0.7001,0c0,0 -0.35005,-0.37112 -0.7001,-0.37112c-0.35005,0 -0.73756,-0.03004 -2.10032,-0.37112c-0.7618,-0.19066 -1.05016,-0.74224 -1.40021,-0.74224l0,0l-0.35005,0" id="svg_12" fill="#000000"/>
   <path stroke="#000" d="m188.62839,101.74827c0,0 0,-0.37111 0,-0.74224c0,-0.74224 0,-1.11336 0,-1.48447c0,-0.74224 0,-0.74224 0,-1.11336c0,-0.74224 -0.14499,-1.33076 0.35005,-1.85559c0.24752,-0.26242 0.35005,-0.37112 0.35005,-0.37112c0,-0.37111 0.35005,-0.37111 0.35005,-0.37111c0.35005,0 0.35005,-0.37111 0.35005,-0.74224c0,0 0.16602,-0.05543 0.35005,-0.37111c0.41152,-0.70591 0.70011,-0.74224 1.05017,-1.11336c0,0 0,-0.37111 0,0c0,0 -0.28858,-0.33479 -0.7001,0.37112c-0.18403,0.3157 0,0.37111 -0.35007,0.37111c-0.35005,0 -0.35005,0 -0.7001,0c-0.35005,0 -0.7001,0 -1.05015,0c0,0 0,0.37111 -0.35007,0.37111c-0.35005,0 -0.45258,0.10869 -0.7001,0.37111c-0.24752,0.26242 -0.7001,0 -1.05015,0c0,0 -0.35005,0 -0.70011,0c0,0 0,0 -0.7001,0c0,0 -0.35005,0 -0.7001,0c0,0 -0.35005,0 -0.70011,0c0,0 -0.35005,0 -0.7001,0c0,0 -0.35005,0 -0.35005,0c-0.35005,0 0,-0.37111 -0.35005,-0.37111c-0.35005,0 0.13397,0.39937 0,0.74224c-0.18945,0.48488 -0.43218,1.16986 -0.7001,1.85559c-0.18945,0.4849 -0.70011,1.11336 -0.70011,1.48447c0,0 -0.51065,0.62847 -0.7001,1.11334c-0.13397,0.34287 0,0.37112 0,0.37112c0,0.37111 -0.35005,0.74224 -0.35005,0.74224c-0.35005,0 -0.35005,0.37112 -0.35005,0.74224c0,0 0.18403,0.42655 0,0.74224c-0.41152,0.70591 -0.70011,0.74224 -1.05017,1.48447l0,0" id="svg_14" fill="#000000"/>
  </g>
 </g>

</svg>