<svg width="635" height="439.99999999999994" xmlns="http://www.w3.org/2000/svg">
 <g id="Layer_1">
  <title>Layer 1</title>
  <rect id="svg_36" height="2" width="1" y="530.99998" x="593.49997" stroke-width="13" stroke="null" fill="#000000"/>
  <path fill="#482816" stroke="#000" opacity="NaN" d="m-66.50001,545.99998" id="svg_9"/>
  <g stroke="null" id="svg_2">
   <rect stroke="#000" fill="#aa6e4e" x="329.99566" y="210.87667" width="55.6763" height="140.58346" id="svg_10"/>
   <rect stroke="#000" id="svg_7" height="108.6864" width="179.67033" y="34.93287" x="206.25711" fill="#ffffff"/>
   <rect stroke="#000" fill="#604131" x="273.8968" y="213.95842" width="55.6763" height="140.58346" id="svg_1"/>
   <rect stroke="#000" fill="#aa6e4e" x="268.77117" y="225.47559" width="55.6763" height="140.58346" id="svg_35"/>
   <g stroke="null" stroke-width="0" id="svg_21">
    <path stroke="#000" fill="#ffffef" opacity="NaN" d="m310.2221,391.8149c-1.07898,-0.7147 208.24275,-66.4675 208.24275,-65.7528c0,0.7147 5.39489,-130.79089 5.34768,-131.36263c0.0472,0.57173 -206.03758,42.02458 -206.08479,41.45286c0.0472,0.57173 -236.24897,-12.29295 -235.16999,-12.29295c1.07898,0 269.74449,-38.59403 270.82347,-37.87933" id="svg_15"/>
    <path stroke="#000" fill="#ffffef" opacity="NaN" d="m88.21164,379.55891c-1.06204,-1.44922 1.06203,-157.24031 1.01555,-157.81997c0.04647,0.57967 232.62933,13.62264 232.58286,13.04298c0.04647,0.57966 -6.32566,158.54458 -8.44971,157.09536c-2.12404,-1.44922 -224.08668,-10.86914 -225.1487,-12.31836z" id="svg_14"/>
   </g>
   <path stroke="#000" stroke-width="0" fill="#4D2425" opacity="NaN" d="m51.3674,220.96227c0,0 309.82522,19.14747 309.05643,12.99293c-0.7688,-6.15455 0.70153,-120.08192 -2.34003,-127.05709c-3.04155,-6.97517 -151.41939,-71.25596 -151.45303,-71.11917c0.03363,-0.1368 -159.87615,62.09248 -159.87615,62.09248c0,0 6.91918,107.36259 4.61278,123.09087l0.00001,-0.00001l-0.00001,-0.00001z" id="svg_17"/>
   <path stroke="#000" stroke-width="0" fill="#7c4041" opacity="NaN" d="m205.40692,34.27447l232.14308,-32.68744l132.2331,63.59695l-210.6504,39.66262l-153.72578,-70.57212l0,-0.00001z" id="svg_19"/>
   <path stroke="#000" stroke-width="0" fill="#4D2425" opacity="NaN" d="m359.8466,104.02596l210.61676,-38.84198l1.53759,126.51005l-212.95679,43.08181l0.80243,-130.74988l0.00001,-0.00001l0,0.00001z" id="svg_20"/>
   <path stroke="#000" stroke-width="0" fill="#FFDFB8" opacity="NaN" d="m131.6024,382.34807c1.53759,0.68384 0,-130.61308 0,-130.61308c0,0 136.07708,5.4707 136.04345,4.92367c0.03363,0.54705 -2.27276,132.5278 -2.27276,132.5278c0,0 -135.30829,-7.52222 -133.77069,-6.83839z" id="svg_22"/>
   <path stroke="#000" stroke-width="0" fill="#ccb192" opacity="NaN" d="m364.54791,309.86124c0,0 -0.7688,-48.55251 -0.80243,-49.09955c0.03363,0.54705 37.70469,-6.29134 37.67106,-6.83839c0.03363,0.54705 -1.50396,44.99653 -1.50396,44.99653c0,0 -35.36467,10.94141 -35.36467,10.94141z" id="svg_23"/>
   <path stroke="#000" stroke-width="0" fill="#ccb192" opacity="NaN" d="m457.49048,285.24306c0,0 -0.69035,-44.9912 -0.72055,-45.49812c0.0302,0.50691 33.85733,-5.82988 33.82712,-6.33679c0.0302,0.50691 -1.3505,41.69604 -1.3505,41.69604c0,0 -31.75608,10.13887 -31.75608,10.13887l0.00001,0z" id="svg_24"/>
   <path stroke="#000" stroke-width="0" fill="#000000" opacity="NaN" d="m456.60705,279.08851c0,0 -0.58052,-39.64924 -0.60591,-40.09596c0.02539,0.44673 28.47102,-5.13767 28.44563,-5.5844c0.02539,0.44673 -1.13566,36.74532 -1.13566,36.74532c0,0 -26.70406,8.93503 -26.70406,8.93503z" id="svg_29"/>
   <path stroke="#000" stroke-width="0" fill="#000000" opacity="NaN" d="m364.40053,303.02285c0,0 -0.62759,-42.61699 -0.65504,-43.09716c0.02745,0.48017 30.77944,-5.52223 30.75198,-6.0024c0.02745,0.48017 -1.22773,39.49572 -1.22773,39.49572c0,0 -28.8692,9.60383 -28.8692,9.60383l0,0.00001l-0.00001,-0.00001z" id="svg_30"/>
   <path stroke="#000" stroke-width="0" fill="#ccb192" opacity="NaN" d="m139.19261,382.3336c1.38476,0.65322 0,-124.76473 0,-124.76473c0,0 122.55136,5.22575 122.52106,4.70319c0.03029,0.52254 -2.04685,126.59372 -2.04685,126.59372c0,0 -121.85898,-7.18541 -120.47422,-6.53218l0.00001,0z" id="svg_32"/>
   <path stroke="#000" stroke-width="0" fill="#a08a72" opacity="NaN" d="m152.53412,382.3195c2.75463,-2.61163 0,-108.12963 1.55524,-123.37272c8.29464,-0.46191 101.48015,3.12632 107.67489,4.4766c2.61831,-2.73602 -4.88333,125.1136 -4.88333,125.1136c0,0 -107.10144,-3.60584 -104.3468,-6.21746l0,-0.00001z" id="svg_5"/>
   <path stroke="#000" stroke-width="0" fill="#000000" opacity="NaN" d="m155.93386,382.44127c2.66933,-2.56048 0,-106.01181 1.50708,-120.95635c8.03778,-0.45286 98.33758,3.06509 104.34048,4.38891c2.53723,-2.68243 -4.73211,122.66312 -4.73211,122.66312c0,0 -103.78479,-3.53521 -101.11546,-6.09569l0.00001,0.00001z" id="svg_11"/>
   <g stroke="null" id="svg_27">
    <path stroke="#000" stroke-width="0" fill="#ccb192" opacity="NaN" d="m504.47563,156.9234c0,0 -0.69035,-44.9912 -0.72055,-45.49811c0.03019,0.50691 33.85732,-5.82988 33.82712,-6.33679c0.03019,0.50691 -1.3505,41.69604 -1.3505,41.69604c0,0 -31.75608,10.13886 -31.75608,10.13886l0.00001,0z" id="svg_25"/>
    <path stroke="#000" stroke-width="0" fill="#000000" opacity="NaN" d="m502.83184,152.63894c0,0 1.15039,-35.73806 1.14638,-36.14136c0.00401,0.40329 25.8513,-3.67836 25.84729,-4.08164c0.00401,0.40329 -2.57305,33.06477 -2.57305,33.06477c0,0 -24.42062,7.15824 -24.42062,7.15824z" id="svg_31"/>
   </g>
   <ellipse stroke="#000" stroke-width="0" fill="#ccb192" cx="200.89665" cy="80.28902" id="svg_33" rx="16.14474" ry="14.36061"/>
   <ellipse stroke="#000" stroke-width="0" fill="#000000" cx="203.50877" cy="80.44348" id="svg_34" rx="12.68515" ry="11.62525"/>
  </g>
 </g>

</svg>