<svg width="500" height="500" xmlns="http://www.w3.org/2000/svg">
 <g id="Layer_1">
  <title>Layer 1</title>
  <g transform="rotate(1 247.997 243.648)" id="svg_1" stroke="null">
   <path stroke-width="8" fill="#f9c9a9" id="svg_10" d="m371.90224,46.63136c0,0 0,0 1.92339,0.57867c0,0 3.99713,3.75822 7.41011,7.71576c6.03332,6.99607 9.8785,10.79762 12.89682,14.85288c2.38615,3.20596 4.72651,7.12685 7.19741,11.76658c2.81723,5.29009 7.76179,11.7557 10.76057,18.32496c2.12048,4.64516 1.88192,6.22913 3.35047,10.6092c1.76495,5.26416 6.1661,12.75481 6.63007,22.56864c0.32804,6.93942 1.24115,10.50522 3.13771,14.65994c1.34113,2.93788 -0.84842,2.5188 -0.35458,6.75132c0.67875,5.81708 2.04346,11.6584 2.99588,17.36049c0.75291,4.50786 1.26784,7.55264 3.27956,11.95943c0.94831,2.0774 4.30921,7.82673 7.12644,13.11678c2.47095,4.63974 3.7036,9.25348 5.20305,12.53812c2.12048,4.64516 3.4923,7.90869 5.20304,12.53815c1.71064,4.62944 3.35047,10.6092 5.13213,13.88838c1.78156,3.27918 3.4923,7.90869 5.20295,12.53809c1.71074,4.62947 3.42139,9.25894 5.13213,13.88838c1.71074,4.6295 2.85177,9.10757 3.20864,13.30972c0.60656,7.14222 4.16637,13.43126 4.91938,17.93915c0.95243,5.70209 0.53223,8.22313 1.28514,12.73102c1.19046,7.1276 0.32278,12.31498 1.00157,18.13208c0.82315,7.05424 -1.50949,10.55976 -0.851,16.20313c0.67875,5.81708 2.04346,11.6584 2.99588,17.36046c0.75296,4.50791 1.42707,10.03054 1.28524,12.73105c-0.21275,4.05081 -0.49642,9.45184 -0.851,16.20313c-0.35458,6.75132 -0.70916,13.50258 -1.06375,20.25386c-0.4255,8.10159 0.55597,16.68809 -1.27651,24.30471c-1.25915,5.23401 -5.33701,9.1253 -6.47955,11.76652c-1.02189,2.36237 -0.25246,5.97567 -4.41422,9.64474c-2.85501,2.51694 -4.13055,4.24367 -4.13055,4.24367c-3.98872,1.54315 -6.84387,1.63529 -7.97749,3.08633c-0.80162,1.02598 -2.31526,1.3255 -3.98872,1.54315c-3.74197,0.48664 -2.05835,3.90518 -4.20147,5.59397c-2.39607,1.88805 -3.98872,1.54315 -3.98872,1.54315c-1.99441,0.77153 -3.25802,1.8674 -4.05963,2.89338c-1.13362,1.45104 -4.64818,2.05822 -7.97749,3.08633c-5.36823,1.65773 -7.97744,3.08631 -8.11927,5.78683c0,0 -0.2467,1.05657 -3.98872,1.54315c-1.67355,0.21762 -4.32468,1.02035 -7.90652,1.73608c-2.2654,0.45265 -1.99441,0.7716 -3.91781,0.19293c0,0 -1.92349,-0.5787 -7.69382,-2.31474c-3.84689,-1.15736 -7.32023,-2.86929 -11.46974,-4.82238c-1.85575,-0.87343 -4.12309,-1.56233 -7.62286,-3.66501c-2.4747,-1.4868 -3.77602,-2.5076 -7.62291,-3.66497c-3.84689,-1.15736 -10.98066,-5.24568 -17.09824,-9.25893c-5.36543,-3.51983 -8.91544,-7.36754 -15.03296,-11.38077c-5.36548,-3.51984 -8.13766,-5.90492 -11.25705,-8.87313c-5.02985,-4.78613 -6.3933,-9.22539 -9.12085,-12.34525c-4.398,-5.03055 -7.71352,-9.01615 -10.97332,-14.27418c-2.02163,-3.26086 -1.81104,-7.57936 -3.27961,-11.95944c-1.76495,-5.26416 -5.36149,-7.85269 -7.12644,-13.11682c-0.48947,-1.45998 0.28362,-5.40105 -1.35616,-11.38076c-1.63982,-5.97976 -1.21428,-14.08129 -0.93061,-19.48233c0.21275,-4.05081 0.49642,-9.45184 0.851,-16.20313c0.4255,-8.10159 4.69793,-15.04575 5.05253,-21.79708c0.21275,-4.05081 -0.18888,-8.32186 0.56733,-10.80206c1.19564,-3.92166 3.04362,-7.38473 4.55605,-12.34526c1.19564,-3.92163 3.28945,-7.07335 4.48513,-10.99496c1.13431,-3.72043 -0.74692,-8.50566 0.78008,-14.85288c1.25915,-5.23401 4.41427,-9.64469 4.76885,-16.39602c0.28367,-5.40104 -1.19272,-11.47836 0.851,-16.20309c1.14249,-2.64124 4.34331,-8.29448 4.62697,-13.69551c0.21275,-4.05077 0.35458,-6.75132 0.49642,-9.45184c0.07091,-1.35025 0.21275,-4.05081 0.4255,-8.10159c0.21275,-4.05077 2.41987,-8.87316 2.63261,-12.9239c0.21275,-4.05081 2.34895,-7.5229 2.5617,-11.57368c0.28367,-5.40104 1.58621,-11.74066 2.84536,-16.9747c1.22157,-5.07775 0.4255,-8.10159 0.56733,-10.80206c0.21275,-4.05077 1.36601,-7.65203 2.5617,-11.57364c1.13431,-3.72043 0.4255,-8.10159 0.56733,-10.80206c0.14184,-2.70055 -0.19155,-5.55805 0.49642,-9.45184c1.39495,-7.89499 4.62702,-13.6955 5.05253,-21.79708c0.28367,-5.40104 -0.42514,-9.78223 0.70916,-13.50261c1.19564,-3.92166 1.47393,-9.19109 2.77445,-15.62445c1.32626,-6.56075 2.5617,-11.57368 2.70353,-14.2742c0.14183,-2.70052 0.28367,-5.40104 0.35458,-6.75129c0.07091,-1.35025 0.21275,-4.05077 0.35458,-6.75132c0.14183,-2.70052 0.21275,-4.05077 0.28367,-5.40104l0.14183,-2.70052l0,0l0.07091,-1.35025" stroke="null"/>
   <path stroke-width="0" fill="#482816" id="svg_2" d="m388.19341,25.96086c0.42706,0.85789 -2.07539,2.80547 -4.09989,5.89497c-5.27921,8.05652 -17.85942,20.18294 -33.48224,36.36689c-13.79248,14.28791 -23.03213,25.14645 -30.32194,33.29482c-6.25094,6.98714 -11.12765,14.05004 -22.20757,26.04344c-13.26102,14.35423 -28.84042,31.32648 -37.5821,42.26192c-7.1667,8.96526 -12.69179,15.93107 -17.25362,21.86424c-5.37615,6.9923 -15.88701,19.89924 -24.5138,30.83133c-8.62682,10.93214 -13.669,18.7621 -16.82657,22.72211c-4.02516,5.04803 -8.62682,10.93214 -12.72671,16.82712c-6.83308,9.825 -13.66623,19.65001 -18.19317,24.6871c-4.52692,5.03713 -5.65611,8.53128 -9.13928,14.61286c-6.08315,10.62105 -16.67574,21.76859 -23.65971,32.54715c-5.05837,7.80673 -9.35421,13.74001 -10.93302,15.72c-4.02517,5.048 -6.24294,9.7105 -10.50596,16.57789c-6.02883,9.71197 -11.44551,19.40081 -14.17876,23.3308c-2.73321,3.93 -4.71555,6.78018 -8.19974,11.79c-3.48423,5.0098 -3.39575,9.8961 -9.1393,14.61291c-1.59297,1.30822 -0.89295,1.96027 -2.73321,3.93c-4.11501,4.40436 -8.18899,8.0983 -12.21419,13.14636c-1.57878,1.97999 -3.16029,3.07207 -3.58735,2.2142c-0.42707,-0.85792 -3.07486,-1.46655 -5.72265,-2.07525c-2.64782,-0.60869 -7.94342,-1.82599 -11.44537,-4.15047c-3.50191,-2.32443 -8.79753,-3.54177 -11.44531,-4.15044c-2.64781,-0.60869 -3.07486,-1.46655 -5.29562,-1.21731c0,0 -2.22077,0.24919 -3.07487,-1.46655c-0.85413,-1.71579 -2.13528,-4.28941 -2.56236,-5.14733c-0.42708,-0.85792 -1.28118,-2.57366 -1.70824,-3.43153c-1.28118,-2.57367 -1.70823,-3.43154 -2.56236,-5.14733c-0.42708,-0.85793 -0.85413,-1.7158 -1.28118,-2.57367c0,0 0.93494,-1.27264 6.32061,-6.14424c7.61651,-6.88948 16.82854,-14.01461 19.816,-16.71689c4.22488,-3.82162 2.70646,-5.36348 3.67282,-6.75287c1.93272,-2.77894 6.41089,-7.01195 11.78712,-14.00426c3.04121,-3.95543 3.33477,-6.73836 5.03944,-8.71789c2.69539,-3.12994 5.89357,-7.00208 10.42049,-12.0392c4.52693,-5.03713 5.89357,-7.00208 9.05388,-10.07421c3.16028,-3.0721 4.52692,-5.03713 9.05386,-10.07423c0,0 5.01932,-4.75145 6.32061,-6.14424c2.90972,-3.11436 2.05708,-3.90092 5.46648,-7.85997c2.69539,-3.12994 5.35426,-4.75475 6.3206,-6.14424c0.96638,-1.38944 1.40447,-2.76508 4.09988,-5.895c3.40942,-3.95907 5.73709,-8.71541 9.56641,-13.75504c2.37481,-3.12541 7.27448,-6.38915 7.68723,-8.10918c0.29189,-1.21626 3.33315,-3.44196 6.32058,-6.14423c2.11249,-1.91084 -0.12495,-2.07344 4.09991,-5.89499c2.98747,-2.70226 8.25111,-7.24327 12.64122,-12.28841c6.08796,-6.99636 7.56019,-8.72309 9.05389,-10.07422c2.11242,-1.9108 2.73322,-3.93 5.89354,-7.00209c3.16028,-3.0721 5.89354,-7.00207 7.26021,-8.96711c1.36662,-1.96501 2.82227,-3.05757 4.52692,-5.03713c2.69535,-3.12991 2.9061,-4.29981 5.89355,-7.00206c2.11241,-1.9108 2.73321,-3.93 2.73321,-3.93c3.16028,-3.0721 4.82694,-4.7931 6.32066,-6.14427c4.22489,-3.8216 5.46648,-7.85996 5.46648,-7.85996c3.16028,-3.07211 4.10256,-5.00713 7.26016,-8.96708c4.02522,-5.04804 7.72516,-8.90934 10.42053,-12.03927c1.70467,-1.97953 2.73322,-3.93 5.89355,-7.00207c3.16028,-3.0721 5.21743,-6.97306 8.62683,-10.93212c2.69534,-3.12991 3.19817,-3.87221 5.89353,-7.00209c1.70467,-1.97952 2.77112,-4.73008 5.46648,-7.85996c3.4094,-3.95906 6.30549,-7.63486 10.42054,-12.03924c1.84028,-1.96971 3.5606,-3.64765 4.52693,-5.03713c0.96636,-1.38947 2.48413,-3.04304 5.89353,-7.00209c2.69538,-3.12997 6.35854,-6.94433 9.05389,-10.07422c1.70467,-1.97953 1.76692,-2.54055 2.73322,-3.93c1.93271,-2.77896 7.30545,-5.57291 9.908,-8.35848c2.90977,-3.11438 1.33984,-3.39846 2.30616,-4.78787c0.96635,-1.38942 3.16028,-3.0721 3.16028,-3.0721c3.16028,-3.07211 4.52693,-5.03713 5.89355,-7.00207c0,0 -0.42707,-0.8579 1.36662,-1.96501c1.79368,-1.10712 3.98766,-2.78975 4.95399,-4.17923c0.96635,-1.38942 0.19377,-2.87709 2.30622,-4.78788c2.98747,-2.70226 3.22561,-3.64432 4.52693,-5.03713c2.90977,-3.11438 3.22561,-3.64431 4.52692,-5.03712c2.90972,-3.11436 3.67282,-6.75287 5.03941,-8.71786c4.09991,-5.89499 3.10678,-5.93895 5.03949,-8.71791c0.96635,-1.38942 3.58735,-2.21421 3.16027,-3.07213c-0.42707,-0.8579 2.19398,-1.68265 3.16028,-3.0721c0.96635,-1.38942 1.89343,-3.06783 2.30617,-4.78785c0.29189,-1.21626 1.36662,-1.96501 1.36662,-1.96501c-0.42706,-0.8579 0.93956,-2.82291 0.93956,-2.82291c3.16033,-3.07213 2.73326,-3.93004 2.73326,-3.93004c0,0 -0.12708,-0.61388 1.36662,-1.96501c2.11242,-1.91079 3.16028,-3.0721 4.95399,-4.17923c0,0 0,0 1.79368,-1.10711c1.79369,-1.10712 1.79369,-1.10712 3.58735,-2.21421c1.79368,-1.10711 1.36662,-1.96501 3.16028,-3.0721c1.79368,-1.10712 1.79368,-1.10712 3.58734,-2.21421c1.79374,-1.10714 2.2208,-0.24924 2.2208,-0.24924c0,0 2.4857,-1.87805 4.01441,-1.35631c1.08098,0.36888 2.22075,-0.24922 2.22075,-0.24922c1.79369,-1.10712 1.56682,0.23977 2.64782,0.60869c1.52869,0.52171 3.78758,-0.00949 4.86851,0.35943c1.5287,0.52171 4.86851,0.35943 4.86851,0.35943c0.85413,1.7158 2.5415,2.78104 4.78312,4.89811c0.70885,0.66948 0.85413,1.7158 1.28117,2.57365c0,0 0.42706,0.85789 0.85413,1.71579c0,0 0.42706,0.85789 0.85413,1.71579c0.42706,0.8579 -0.93956,2.82291 -0.93956,2.82291c0.42707,0.8579 0.02679,1.43341 -0.93955,2.82291c-0.96635,1.38942 -1.36662,1.96501 -2.73322,3.93l0.42707,0.85789l-1.79369,1.10712l0.42707,0.85789" stroke="#000"/>
   <path id="svg_3" d="m343.99998,23.47739c-16.42578,34.65393 23,64.63343 31,26.93059c8,-37.70283 -84,45.2434 -71,29.08504" opacity="NaN" stroke-width="8" fill="#f9c9a9" stroke="null"/>
   <path id="svg_4" d="m292.99998,361.72564c0,0 7,45.2434 11,50.62952c4,5.38612 16,1.07722 15.00002,0.00002c0.99998,1.0772 21.99998,-157.27469 21.99998,-157.27469c0,0 -1,-79.71456 -1,-80.79178c0,-1.07722 7,-71.09677 7,-71.09677c0,0 -5,-32.31671 -6,-32.31671c-1,0 -16,112.03127 -16.99998,110.95406c0.99998,1.07721 -23.00002,124.95794 -24,123.88073c0.99998,1.0772 -8.00002,46.3206 -9,45.2434c0.99998,1.0772 1.99998,10.77222 1.99998,10.77222l0,0.00001l0,-0.00001z" opacity="NaN" stroke-width="8" fill="#c4a38d" stroke="null"/>
   <path id="svg_6" d="m17.99999,402.66015c0,0 15.10875,14.00391 14.10151,12.92671c1.00724,1.0772 21.15224,1.0772 22.15949,1.0772c1.00725,0 25.18125,-23.69892 26.18849,-24.77615c1.00725,-1.07722 48.34799,-98.02736 47.34075,-99.10457c1.00724,1.0772 50.36248,-58.17009 49.35524,-59.24731c1.00724,1.07721 72.52197,-94.7957 71.51474,-95.87292c1.00723,1.07721 47.34073,-50.62953 46.33349,-51.70674c6.04348,3.23166 -21.15226,28.00781 -24.174,42.01173c-10.07251,-4.30891 -135.97874,141.1163 -136.98598,140.03909c1.00724,1.0772 -29.21026,28.0078 -30.21749,26.93059c1.00724,1.0772 -41.29725,70.01952 -42.30449,68.94232c1.00724,1.0772 -37.26825,29.08502 -37.26825,30.16224c0,1.07722 -6.0435,8.61779 -6.0435,8.61779l0,0.00002z" opacity="NaN" stroke-width="8" fill="#7c5540" stroke="null"/>
  </g>
 </g>

</svg>