<svg width="635" height="467" xmlns="http://www.w3.org/2000/svg">
 <g id="Layer_1">
  <title>Layer 1</title>
  <rect fill="#000000" stroke="null" stroke-width="13" x="594.49997" y="528.99998" width="1" height="2" id="svg_36"/>
  <g stroke="null" id="svg_1">
   <path stroke="null" id="svg_29" d="m43.2519,440.35334c18.00497,11.07551 380.68239,10.14422 414.19847,7.50243c33.5161,-2.64179 105.01604,3.41841 129.16433,-3.61105c24.14828,-7.02946 -56.84013,-49.22477 -67.42416,-51.86656c-10.58404,-2.64179 -151.70442,1.3209 -194.04054,-1.3209c-42.33613,-2.64179 -156.99645,1.3209 -186.98451,0c-29.98809,-1.32089 -88.02892,0.79587 -84.32958,12.97145l-10.58403,36.32462l0.00002,0z" opacity="NaN" stroke-width="13" fill="#482816"/>
   <path stroke="null" id="svg_14" d="m75.54061,165.7527c47.55475,2.92469 244.85483,-112.17248 245.53579,-112.34215c0.68096,-0.16968 195.73536,131.56274 200.64876,132.58073c4.91338,1.01799 -142.87606,-44.73489 -215.09193,-26.74237c-72.21587,17.99253 -278.64735,3.57912 -231.09262,6.50379l0,-0.00001z" opacity="NaN" stroke-width="13" fill="#BBBBBB"/>
   <path stroke="null" id="svg_16" d="m47.14205,417.95761c35.51063,-2.15833 374.84716,8.10824 408.36325,5.46645c33.5161,-2.64179 113.76888,4.43639 137.91717,-2.59306c24.14829,-7.02946 -65.59296,-50.24274 -76.17699,-52.88455c-10.58404,-2.64179 -151.70442,1.3209 -194.04054,-1.32089c-42.33613,-2.64179 -156.99645,1.32089 -186.98451,0c-29.98809,-1.32089 -103.42096,-19.15886 -78.49434,15.00743l-10.58403,36.32461l0.00001,0z" opacity="NaN" stroke-width="13" fill="#FFAC8D"/>
   <path stroke="null" id="svg_13" d="m504.31547,187.66369c-107.02804,131.23625 -588.76181,204.51538 -386.27298,172.44133c202.48881,-32.07405 400.32678,8.89811 387.14772,6.42098c-13.17906,-2.47713 3.0643,-206.26381 -0.87474,-178.86231l0,0.00001l0,-0.00001z" opacity="NaN" stroke-width="13" fill="#BBBBBB"/>
   <path stroke="null" id="svg_23" d="m79.9913,375.90518c-22.97781,-2.82237 230.58096,-0.746 283.1016,1.37077c52.52064,2.11676 66.96382,-1.05838 102.41525,-2.11676c35.45142,-1.05838 13.32575,1.09878 39.58607,0.04039c14.44317,6.3503 39.34338,24.46401 49.40924,24.46401c10.06585,0 13.61553,10.46264 4.18173,13.5166c-9.4338,3.05396 -74.79483,0.08079 -75.45129,-0.27199c0.65648,0.35278 -187.10481,-1.76399 -187.10481,-1.76399c0,0 -136.55367,0 -137.21015,-0.35278c0.65648,0.35278 -88.87128,-1.84478 -82.72001,-4.23354l3.79235,-30.65273l0.00001,0.00001l0.00001,0z" opacity="NaN" stroke-width="13" fill="#845335"/>
   <path stroke="null" id="svg_2" d="m69.41229,375.84807c1.77571,0.68562 -3.45952,-207.45866 -5.22724,-207.66572c1.76771,0.20706 12.42794,-8.59146 13.49624,5.29524c1.06831,13.8867 7.55674,199.20904 7.60462,202.08045c0.04788,2.8714 -17.64934,-0.39561 -15.87363,0.29002l0,0.00001z" opacity="NaN" stroke-width="13" fill="#482816"/>
   <path stroke="null" id="svg_7" d="m48.4781,412.06287c1.76401,0.65847 0,-190.30063 -1.76398,-190.52012c1.76398,0.21948 21.16804,0.87797 21.16804,6.14581c0,5.26783 -3.528,181.7404 -3.528,184.37432c0,2.63391 -17.64005,-0.65849 -15.87605,0l0,0z" opacity="NaN" stroke-width="13" fill="#482816"/>
   <path stroke="null" id="svg_8" d="m506.86737,374.81746c1.76401,0.65847 0,-190.30063 -1.76398,-190.52012c1.76398,0.21948 21.16804,0.87797 21.16804,6.14581c0,5.26783 -3.528,181.7404 -3.528,184.37432c0,2.63391 -17.64005,-0.65849 -15.87605,0l0,0z" opacity="NaN" stroke-width="13" fill="#482816"/>
   <path stroke="null" id="svg_4" d="m518.45789,80.60536c0,0 98.72882,10.31088 90.97361,8.28888c-7.75521,-2.02201 -99.43861,34.19649 -94.74151,28.38386c4.6971,-5.81263 5.57197,-32.82416 3.76789,-36.67274l0.00001,0z" opacity="NaN" stroke-width="13" fill="#ffffff"/>
   <path stroke="null" fill="#482816" stroke-width="13" opacity="NaN" d="m46.41077,416.41424c0,0 0.97254,24.43171 0.97254,24.43171c0,0 24.31344,5.08994 24.31344,5.08994c0,0 4.86268,-20.35976 4.37643,-21.37772c0.48626,1.01797 -29.6624,-8.14392 -29.6624,-8.14392l0,-0.00001z" id="svg_30"/>
   <path stroke="null" fill="#482816" stroke-width="13" opacity="NaN" d="m600.75718,443.89991c0,0 -1.94508,-27.48567 -1.94508,-26.46768c0,1.01799 -4.86268,6.10793 -35.98389,7.12591c-31.12121,1.01799 26.25857,19.34181 6.32152,22.39575c-19.93705,3.05394 31.60744,-3.05399 31.60744,-3.05399l0,0.00001z" id="svg_31"/>
   <path stroke="null" id="svg_33" d="m520.576,371.68947c20.47219,-39.61735 62.61898,36.74774 53.66513,28.10227c-8.95384,-8.64547 -55.07594,-218.60359 -46.75957,-191.69475c8.31638,26.90884 0.82584,165.5443 -6.90556,163.5925l0,-0.00001l-0.00001,-0.00001z" opacity="NaN" stroke-width="13" fill="#aaa9a9"/>
   <path stroke="null" id="svg_19" d="m506.90405,190.01873c0.77924,0.3929 0,-113.54557 -0.77924,-113.67652c0.77924,0.13096 9.3509,0.52385 9.3509,3.66697c0,3.14313 -1.55848,108.43798 -1.55848,110.00954c0,1.57156 -7.79243,-0.3929 -7.01318,0l0,0l0,0.00001z" opacity="NaN" stroke-width="13" fill="#482816"/>
   <path stroke="null" id="svg_3" d="m322.24095,54.78533c13.38376,-11.22817 -335.84344,203.91523 -260.36675,163.41732c75.47669,-40.4979 496.5725,-11.02888 520.93561,11.39164c24.36312,22.42052 -273.95263,-163.58079 -260.56887,-174.80897l0,0.00001z" opacity="NaN" stroke-width="13" fill="#ffffff"/>
   <path stroke="null" id="svg_9" d="m587.58119,228.84962c-1.76401,-0.65847 0,190.30063 1.76398,190.52012c-1.76398,-0.21948 -21.16804,-0.87797 -21.16804,-6.14581c0,-5.26783 3.528,-181.7404 3.528,-184.37432c0,-2.63391 17.64005,0.65849 15.87605,0l0,0z" opacity="NaN" stroke-width="13" fill="#482816"/>
  </g>
 </g>

</svg>