<svg width="400" height="400" xmlns="http://www.w3.org/2000/svg">
 <g id="Layer_1">
  <title>Layer 1</title>
  <g stroke="null" stroke-width="2" id="svg_457">
   <g stroke="null" transform="matrix(0 0.998526 -1.00599 0 402.516 -191.775)" id="svg_357">
    <path stroke="#46673D" id="svg_325" d="m215.0673,204.92313c-20.57359,9.9243 -22.00246,-15.74446 -16.12486,-19.36948c5.87761,-3.62502 -5.34926,-35.25317 -2.23642,-48.48274c3.11284,-13.22957 6.61479,-18.28794 3.11284,-25.29183c-3.50194,-7.00389 -4.60624,-27.23735 -2.27161,-34.24124c2.33463,-7.00389 3.82803,-14.39689 1.4934,-20.23347c-2.33463,-5.83657 -3.89105,-8.97619 -3.08133,-15.81152c0.80972,-6.83533 3.08133,-7.58204 3.08133,-14.19682c0,-6.61479 -3.14093,-17.57485 -2.75183,-22.01935c0.38911,-4.44451 5.58373,-6.30997 16.06147,-2.61558c5.23888,1.8472 20.23259,-2.71073 36.87943,0.4253c16.64684,3.13603 31.7972,-1.78201 37.34935,-0.65503l-0.47556,-0.20172c18.91848,-1.67842 16.49496,2.26777 42.97065,0.35688c26.47568,-1.91089 38.89781,5.44293 49.95058,2.04776c11.05276,-3.39516 16.1797,-3.07668 15.08268,4.5959c-1.09703,7.67257 -3.29274,7.48069 -6.87157,7.94318c-3.57882,0.46249 -6.80265,-2.41157 -6.29596,-7.1604c0.50669,-4.74883 10.63026,-6.82858 10.59899,-1.64358c-0.03127,5.185 -5.79088,4.1914 -5.34559,1.91296" opacity="NaN" fill-opacity="0.1" fill="none"/>
    <path stroke="#46673D" id="svg_326" d="m197.26982,201.02081c0,0 2.76296,-0.52106 8.55102,1.53857c5.78806,2.05963 8.15016,-0.15221 8.96593,-7.35775c0.81577,-7.20555 -10.22364,-9.90416 -12.67094,-5.57401c-2.4473,4.33014 -0.31949,9.26517 3.19488,8.6262c3.51438,-0.63898 6.07029,-5.43131 0.95847,-5.11183" opacity="NaN" fill-opacity="0.1" fill="none"/>
    <path stroke="#46673D" transform="rotate(-82 206.144 8.86746)" id="svg_327" d="m211.13289,-0.43921c0,0 4.19277,2.48755 2.26493,11.79885c-1.92783,9.31129 -11.93966,8.47775 -14.41776,1.14437c-2.47809,-7.33339 3.23811,-10.90842 8.34993,-9.94995c5.11182,0.95846 4.15631,7.6459 2.55887,9.88233c-1.59745,2.23642 -6.33594,1.55404 -6.97491,-1.32136c-0.63898,-2.8754 4.57696,-6.40954 4.68769,-1.0272" opacity="NaN" fill-opacity="0.1" fill="none"/>
    <path stroke="#46673D" id="svg_328" d="m393.42707,13.10184c0,0 -1.77955,6.63225 -1.10648,14.15411c0.67306,7.52186 5.509,7.81678 5.01272,16.43663c-0.49628,8.61986 -6.25976,11.20114 -6.40246,21.52388c-0.1427,10.32273 8.64205,14.10428 3.67293,22.69321c-4.96912,8.58894 -4.95089,28.26961 -0.40669,33.84679c4.54419,5.57718 5.69847,24.90744 0.58348,30.66141c-5.11499,5.75397 -6.69103,19.59426 -1.15111,26.0213c5.53992,6.42703 4.92948,15.78814 1.12336,20.26732c-3.80612,4.47919 -17.08829,2.77947 -21.73792,0.11178c-4.64963,-2.66769 -16.49028,-2.93156 -19.70921,1.20978c-3.21893,4.14133 -19.73716,3.22974 -21.66154,-0.22126c-1.92437,-3.45101 -20.53763,-4.11239 -23.1319,-0.6722c-2.59427,3.44019 -18.03463,4.80064 -20.43222,0.50896c-2.39759,-4.29168 -21.98315,-6.48519 -24.09201,-3.17555c-2.10886,3.30964 -12.29056,5.15913 -17.28651,2.16765c-4.99595,-2.99148 -7.10878,-3.27932 -15.92117,-2.05159c-8.8124,1.22773 -6.50739,4.51233 -16.33752,8.57798" opacity="NaN" fill-opacity="0.1" fill="none"/>
    <path stroke="#46673D" id="svg_329" d="m393.27448,178.54462c-3.64589,3.74097 2.10088,11.55647 -2.55192,16.52994c-4.65279,4.97346 -11.43658,2.06598 -13.63574,-1.84241c-2.19915,-3.90839 0.63897,-8.80616 5.00637,-9.58466c4.36741,-0.7785 8.16719,-0.20772 8.05857,4.5101c-0.10861,4.71782 -9.23108,5.07456 -9.87006,2.19916c-0.63897,-2.8754 4.58146,-4.04791 5.22044,-2.45047" opacity="NaN" fill-opacity="0.1" fill="none"/>
    <path stroke="#46673D" id="svg_330" d="m390.75019,171.39522c0,0 3.84564,-7.6066 -2.5803,-6.17795c-6.42593,1.42866 -4.20613,-6.59408 -1.81092,-7.99129c2.39521,-1.3972 3.99202,-3.99201 3.19361,-6.18762c-0.7984,-2.19561 -4.59081,0.7984 -3.99201,3.19361" opacity="NaN" fill-opacity="0.1" fill="none"/>
    <path stroke="#46673D" transform="rotate(-94 344.142 7.24347)" id="svg_331" d="m347.23721,17.90463c0,0 -0.5988,-5.78842 -3.79241,-6.98602c-3.19362,-1.19761 -2.99402,-5.98803 -0.59881,-7.38523c2.39521,-1.39721 3.99202,-3.99202 3.19362,-6.18763c-0.79841,-2.19561 -4.59082,0.7984 -3.99202,3.19361" opacity="NaN" fill-opacity="0.1" fill="none"/>
    <path stroke="#46673D" transform="rotate(-180 202.93 135.875)" id="svg_332" d="m206.02482,146.53759c0,0 -0.5988,-5.78842 -3.79241,-6.98602c-3.19362,-1.19761 -2.99402,-5.98803 -0.59881,-7.38523c2.39521,-1.39721 3.99202,-3.99202 3.19362,-6.18763c-0.79841,-2.19561 -4.59082,0.7984 -3.99202,3.19361" opacity="NaN" fill-opacity="0.1" fill="none"/>
    <path stroke="#46673D" stroke-width="0" id="svg_333" d="m197.24595,102.32053c0,0 0.11069,-2.85333 0.77488,-3.66857c0.66418,-0.81523 2.1586,1.32476 3.65301,-1.32476c1.49442,-2.64952 1.66046,-4.38189 1.62818,-4.4148c0.03228,0.03291 -2.73515,1.15386 -2.73515,1.15386c0,0 -2.43534,1.22285 -2.54604,2.85333c-0.1107,1.63047 -0.77488,5.40094 -0.77488,5.40094z" opacity="NaN" fill="#46673D"/>
    <path stroke="#46673D" transform="rotate(-77 197.194 63.6204)" stroke-width="0" id="svg_334" d="m192.90519,67.28899c0,0 2.6292,-0.7823 3.29338,-1.59754c0.66418,-0.81523 2.1586,1.32476 3.65301,-1.32476c1.49442,-2.64951 1.66047,-4.38189 1.62818,-4.4148c0.03229,0.03291 -2.73515,1.15386 -2.73515,1.15386c0,0 -2.43534,1.22285 -2.54604,2.85333c-0.1107,1.63047 -1.01357,2.59953 -3.29338,3.32991z" opacity="NaN" fill="#46673D"/>
    <path stroke="#46673D" transform="rotate(160 200.077 134.793)" stroke-width="0" id="svg_335" d="m197.04714,139.49747c0,0 0.1107,-2.85333 0.77488,-3.66857c0.66418,-0.81523 2.1586,1.32476 3.65301,-1.32476c1.49442,-2.64951 1.66047,-4.38189 1.62818,-4.4148c0.03229,0.03291 -2.73515,1.15386 -2.73515,1.15386c0,0 -2.43534,1.22285 -2.54604,2.85333c-0.1107,1.63047 -0.77488,5.40094 -0.77488,5.40094z" opacity="NaN" fill="#46673D"/>
    <path stroke="#46673D" stroke-width="0" id="svg_336" d="m214.34336,192.18136c0,0 0.1107,-2.85333 0.77488,-3.66857c0.66418,-0.81523 2.1586,1.32476 3.65301,-1.32476c1.49442,-2.64951 1.66047,-4.38189 1.62818,-4.4148c0.03229,0.03291 -2.73515,1.15386 -2.73515,1.15386c0,0 -2.43534,1.22285 -2.54604,2.85333c-0.1107,1.63047 -0.77488,5.40094 -0.77488,5.40094z" opacity="NaN" fill="#46673D"/>
    <path stroke="#46673D" transform="rotate(-180 198.188 179.326)" stroke-width="0" id="svg_337" d="m196.05311,182.8374c0,0 0.07801,-2.12979 0.54607,-2.73831c0.46806,-0.6085 1.52121,0.98883 2.57435,-0.98883c1.05315,-1.97765 1.17016,-3.27074 1.14741,-3.29531c0.02275,0.02457 -1.92752,0.86127 -1.92752,0.86127c0,0 -1.71623,0.91277 -1.79424,2.12979c-0.07801,1.21702 -0.54607,4.03139 -0.54607,4.03139z" opacity="NaN" fill="#46673D"/>
    <path stroke="#46673D" transform="rotate(-180 222.84 5.76748)" stroke-width="0" id="svg_338" d="m218.55131,9.43611c0,0 2.6292,-0.7823 3.29338,-1.59754c0.66418,-0.81523 2.1586,1.32476 3.65301,-1.32476c1.49442,-2.64951 1.66047,-4.38189 1.62818,-4.4148c0.03229,0.03291 -2.73515,1.15386 -2.73515,1.15386c0,0 -2.43534,1.22285 -2.54604,2.85333c-0.1107,1.63047 -1.01356,2.59953 -3.29338,3.32991z" opacity="NaN" fill="#46673D"/>
    <path stroke="#46673D" transform="rotate(29 201.667 33.9985)" stroke-width="0" id="svg_339" d="m198.6376,38.70224c0,0 0.1107,-2.85333 0.77488,-3.66857c0.66418,-0.81523 2.1586,1.32476 3.65301,-1.32476c1.49442,-2.64951 1.66047,-4.38189 1.62818,-4.4148c0.03229,0.03291 -2.73515,1.15386 -2.73515,1.15386c0,0 -2.43534,1.22285 -2.54604,2.85333c-0.1107,1.63047 -0.77488,5.40094 -0.77488,5.40094z" opacity="NaN" fill="#46673D"/>
    <path stroke="#46673D" transform="rotate(172 387.847 175.449)" stroke-width="0" id="svg_340" d="m384.81735,180.15262c0,0 0.1107,-2.85333 0.77488,-3.66857c0.66418,-0.81523 2.1586,1.32476 3.65301,-1.32476c1.49442,-2.64951 1.66047,-4.38189 1.62818,-4.4148c0.03229,0.03291 -2.73515,1.15386 -2.73515,1.15386c0,0 -2.43534,1.22285 -2.54604,2.85333c-0.1107,1.63047 -0.77488,5.40094 -0.77488,5.40094z" opacity="NaN" fill="#46673D"/>
    <path stroke="#46673D" transform="rotate(8 393.156 149.346)" stroke-width="0" id="svg_341" d="m390.12659,154.05063c0,0 0.1107,-2.85333 0.77488,-3.66857c0.66418,-0.81523 2.1586,1.32476 3.65301,-1.32476c1.49442,-2.64951 1.66047,-4.38189 1.62818,-4.4148c0.03229,0.03291 -2.73515,1.15386 -2.73515,1.15386c0,0 -2.43534,1.22285 -2.54604,2.85333c-0.1107,1.63047 -0.77488,5.40094 -0.77488,5.40094z" opacity="NaN" fill="#46673D"/>
    <path stroke="#46673D" transform="rotate(-7 394.22 64.6744)" stroke-width="0" id="svg_342" d="m391.19064,69.37872c0,0 0.1107,-2.85333 0.77488,-3.66857c0.66418,-0.81523 2.1586,1.32476 3.65301,-1.32476c1.49442,-2.64951 1.66047,-4.38189 1.62818,-4.4148c0.03229,0.03291 -2.73515,1.15386 -2.73515,1.15386c0,0 -2.43534,1.22285 -2.54604,2.85333c-0.1107,1.63047 -0.77488,5.40094 -0.77488,5.40094z" opacity="NaN" fill="#46673D"/>
    <path stroke="#46673D" transform="rotate(-8 393.613 107.163)" stroke-width="0" id="svg_343" d="m390.58366,111.86734c0,0 0.1107,-2.85333 0.77488,-3.66857c0.66418,-0.81523 2.1586,1.32476 3.65301,-1.32476c1.49442,-2.64951 1.66047,-4.38189 1.62818,-4.4148c0.03229,0.03291 -2.73515,1.15386 -2.73515,1.15386c0,0 -2.43534,1.22285 -2.54604,2.85333c-0.1107,1.63047 -0.77488,5.40094 -0.77488,5.40094z" opacity="NaN" fill="#46673D"/>
    <path stroke="#46673D" transform="rotate(136 374.038 11.1085)" stroke-width="0" id="svg_344" d="m371.00855,15.81271c0,0 0.1107,-2.85333 0.77488,-3.66857c0.66418,-0.81523 2.1586,1.32476 3.65301,-1.32476c1.49442,-2.64951 1.66047,-4.38189 1.62818,-4.4148c0.03229,0.03291 -2.73515,1.15386 -2.73515,1.15386c0,0 -2.43534,1.22285 -2.54604,2.85333c-0.1107,1.63047 -0.77488,5.40094 -0.77488,5.40094z" opacity="NaN" fill="#46673D"/>
    <path stroke="#46673D" transform="rotate(-101 344.464 5.67148)" stroke-width="0" id="svg_345" d="m343.51475,10.14633c0,0 -2.29738,-2.3939 -1.6332,-3.20914c0.66418,-0.81523 2.1586,1.32476 3.65301,-1.32476c1.49442,-2.64951 1.66047,-4.38189 1.62818,-4.4148c0.03229,0.03291 -2.73515,1.15386 -2.73515,1.15386c0,0 -2.43534,1.22285 -2.54604,2.85333c-0.1107,1.63047 0.76423,3.84509 1.6332,4.94151z" opacity="NaN" fill="#46673D"/>
    <path stroke="#46673D" transform="rotate(-180 389.576 117.125)" stroke-width="0" id="svg_346" d="m387.44067,120.63644c0,0 0.07801,-2.12979 0.54607,-2.73831c0.46806,-0.6085 1.52121,0.98884 2.57435,-0.98883c1.05315,-1.97765 1.17017,-3.27074 1.14741,-3.2953c0.02276,0.02456 -1.92751,0.86126 -1.92751,0.86126c0,0 -1.71624,0.91277 -1.79425,2.12979c-0.07801,1.21702 -0.54607,4.03139 -0.54607,4.03139z" opacity="NaN" fill="#46673D"/>
    <path stroke="#46673D" transform="rotate(-162 389.042 158.395)" stroke-width="0" id="svg_347" d="m386.90719,161.90724c0,0 0.07801,-2.12979 0.54607,-2.73831c0.46806,-0.6085 1.52121,0.98884 2.57435,-0.98883c1.05315,-1.97765 1.17017,-3.27074 1.14741,-3.2953c0.02276,0.02456 -1.92751,0.86126 -1.92751,0.86126c0,0 -1.71624,0.91277 -1.79425,2.12979c-0.07801,1.21702 -0.54607,4.03139 -0.54607,4.03139z" opacity="NaN" fill="#46673D"/>
    <path stroke="#46673D" transform="rotate(107 229.95 6.72547)" stroke-width="0" id="svg_348" d="m226.92042,11.42951c0,0 0.1107,-2.85333 0.77488,-3.66857c0.66418,-0.81523 2.1586,1.32476 3.65301,-1.32476c1.49442,-2.64951 1.66047,-4.38189 1.62818,-4.4148c0.03229,0.03291 -2.73515,1.15386 -2.73515,1.15386c0,0 -2.43534,1.22285 -2.54604,2.85333c-0.1107,1.63047 -0.77488,5.40094 -0.77488,5.40094z" opacity="NaN" fill="#46673D"/>
    <path stroke="#46673D" transform="rotate(100 211.768 20.0585)" stroke-width="0" id="svg_349" d="m208.73861,24.76284c0,0 0.1107,-2.85333 0.77488,-3.66857c0.66418,-0.81523 2.1586,1.32476 3.65301,-1.32476c1.49442,-2.64951 1.66047,-4.38189 1.62818,-4.4148c0.03229,0.03291 -2.73515,1.15386 -2.73515,1.15386c0,0 -2.43534,1.22285 -2.54604,2.85333c-0.1107,1.63047 -0.77488,5.40094 -0.77488,5.40094z" opacity="NaN" fill="#46673D"/>
    <path stroke="#46673D" transform="rotate(-72 196.101 31.9125)" stroke-width="0" id="svg_350" d="m193.65425,33.73636c-0.64328,0.39094 1.77836,-0.4377 1.8348,-0.6515c0.05643,-0.2138 1.18253,1.13428 2.13148,-0.45397c0.94897,-1.58825 1.05441,-2.62672 1.03391,-2.64645c0.0205,0.01973 -1.73684,0.69168 -1.73684,0.69168c0,0 -1.74161,0.98067 -1.61675,1.71043c0.12486,0.72976 -1.00333,0.95887 -1.6466,1.34981z" opacity="NaN" fill="#46673D"/>
    <path stroke="#46673D" transform="rotate(117 206.74 149.132)" stroke-width="0" id="svg_351" d="m203.71059,153.83568c0,0 0.1107,-2.85333 0.77488,-3.66857c0.66418,-0.81523 2.1586,1.32476 3.65301,-1.32476c1.49442,-2.64951 1.66047,-4.38189 1.62818,-4.4148c0.03229,0.03291 -2.73515,1.15386 -2.73515,1.15386c0,0 -2.43534,1.22285 -2.54604,2.85333c-0.1107,1.63047 -0.77488,5.40094 -0.77488,5.40094z" opacity="NaN" fill="#46673D"/>
    <path stroke="#46673D" id="svg_352" d="m394.15889,199.18365c0,0 -9.09088,-1.88087 -12.22567,-0.62695c-3.13479,1.25391 -7.21002,3.76174 -16.61439,4.07522c-9.40436,0.31348 -12.53915,-3.44827 -20.06265,-3.76174c-7.52349,-0.31348 -9.09089,0.31347 -19.43569,1.88087c-10.34481,1.56739 -14.10655,-1.5674 -20.68961,-1.88087c-6.58306,-0.31348 -15.04699,-0.31348 -17.24134,0.94043c-2.19435,1.25392 -13.87662,3.76767 -20.45968,0.3194c-6.58306,-3.44827 -12.13621,-4.38871 -15.98447,-4.32291c-3.84825,0.06579 -6.59489,3.12295 -10.82242,4.31403c-4.22752,1.19108 -3.96208,0.87465 -11.8826,-0.46578c-7.92052,-1.34042 -18.2025,6.66069 -22.27476,5.32618c-4.07227,-1.3345 -9.87607,-5.95314 -7.36528,-9.01029c2.51079,-3.05716 4.70219,-0.61217 9.01326,-1.00327c4.31108,-0.39111 5.32618,-10.52078 4.07227,-13.34209c-1.25392,-2.82132 -2.66605,-4.07227 -6.74128,-3.13183c-4.07522,0.94043 -5.64262,6.26957 -1.25391,7.21001c4.3887,0.94044 1.87199,-17.36336 -0.94932,-17.99032" opacity="NaN" fill="none"/>
    <path stroke="#46673D" id="svg_353" d="m203.25023,178.80752" opacity="NaN" fill-opacity="0.1" fill="none"/>
    <path stroke="#46673D" id="svg_354" d="m209.79117,178.75653c-21.85633,-7.24621 -12.41645,-26.26644 -11.08491,-32.55081c1.33155,-6.28438 -2.19731,-12.15397 -2.51079,-18.43539c-0.31348,-6.28141 0,-8.54452 2.11969,-12.46448c2.11968,-3.91997 3.60648,-4.06635 3.293,-9.70897c-0.31347,-5.64262 -1.57035,-9.48496 -1.57035,-11.05235c0,-1.5674 0.4717,-6.90246 -0.78222,-10.03725c-1.25391,-3.13479 -5.0275,-7.04292 -2.43908,-11.04643c2.58842,-4.00352 6.27254,-8.08762 5.01862,-13.41676c-1.25391,-5.32914 -3.91404,-2.86639 -3.91404,-2.86639" opacity="NaN" fill-opacity="0.1" fill="none"/>
    <path stroke="#46673D" id="svg_355" d="m195.8744,51.23887c1.11469,1.48252 -1.65095,3.77359 0.47169,4.95283c2.12265,1.17925 4.24529,-2.83019 4.24529,-5.18868c0,-2.35849 -1.65095,-3.30188 -2.35849,-5.89622c-0.70755,-2.59434 4.00943,-12.73585 3.30188,-16.50944c-0.70754,-3.77358 -3.06603,-2.83019 -3.77358,-4.95283c-0.70755,-2.12264 4.24528,-2.35849 4.95283,-4.48113c0.70755,-2.12264 -4.48113,-3.06604 -1.65094,-4.95283c2.83018,-1.88679 10.6132,1.88679 13.67924,0.9434c3.06604,-0.9434 -4.24528,-8.96227 -0.9434,-8.25472c3.30189,0.70755 5.66038,0.23585 9.90566,0.70755c4.24529,0.4717 10.14151,1.41509 12.26415,-0.9434c2.12265,-2.35849 0.9434,-4.48113 5.89623,-5.42453c4.95283,-0.94339 10.14151,4.48114 15.09434,6.36793c4.95283,1.88679 8.72642,-5.66038 19.10377,-6.13208c10.37736,-0.4717 15.56604,8.49057 20.99057,7.07547c5.42453,-1.41509 12.26415,-7.54717 14.38679,-6.36792c2.12264,1.17924 5.9026,9.13756 15.5756,0.49082" opacity="NaN" fill="none"/>
    <path stroke="#46673D" id="svg_356" d="m395.33111,55.33641c-5.31294,-4.75796 3.40069,-18.87111 0.69799,-24.20321c-2.70271,-5.3321 4.18154,-20.28302 2.09077,-25.95614c-2.09077,-5.67313 -6.14483,-4.04449 -7.55992,-3.33695c-1.4151,0.70755 -0.69799,7.25395 -0.05737,10.90005c0.64062,3.6461 -11.57892,4.24529 -12.58605,-1.49477c-1.00714,-5.74006 4.4142,-5.56157 -0.31553,-7.71927c-4.72973,-2.1577 -11.49924,2.37761 -13.7908,3.11384c-2.29156,0.73623 -8.37264,-0.52269 -10.01083,-0.99439c-1.6382,-0.4717 -5.41178,2.33618 -7.33045,-1.64776c-1.91866,-3.98393 -8.48738,-3.80864 -12.5,-2.59434c-4.01262,1.21431 -2.827,0.50039 -5.42452,4.00944c-2.59753,3.50905 -8.79654,7.62047 -13.9151,3.53773c-5.11856,-4.08274 -9.73993,-3.67797 -12.36614,-6.68026c-2.62621,-3.0023 -10.51122,-0.15936 -13.57725,1.49158c-3.06604,1.65095 -4.24529,3.77359 -4.00944,5.66038c0.23585,1.88679 0.9434,4.24528 5.89623,5.18868c4.95283,0.9434 6.13207,-1.17924 6.13207,-3.53774c0,-2.35849 -5.18868,-6.60377 -6.36792,-2.83018c-1.17925,3.77358 3.06604,8.72641 3.53774,10.14151" opacity="NaN" fill-opacity="0.1" fill="none"/>
   </g>
   <g stroke="null" id="svg_390">
    <path stroke="#46673D" id="svg_358" d="m19.77257,204.61345c-20.69676,9.90968 -22.13417,-15.72126 -16.22139,-19.34093c5.9128,-3.61968 -5.38128,-35.20122 -2.24981,-48.41129c3.13148,-13.21007 6.65439,-18.26099 3.13148,-25.25456c-3.5229,-6.99357 -4.63382,-27.1972 -2.28521,-34.19077c2.34861,-6.99358 3.85095,-14.37568 1.50234,-20.20366c-2.34861,-5.82797 -3.91435,-8.96296 -3.09977,-15.78822c0.81456,-6.82525 3.09977,-7.57087 3.09977,-14.1759c0,-6.60504 -3.15974,-17.54895 -2.7683,-21.98689c0.39143,-4.43796 5.61715,-6.30068 16.15762,-2.61173c5.27024,1.84448 20.35371,-2.70673 37.10021,0.42467c16.74649,3.1314 31.98755,-1.77938 37.57294,-0.65406l-0.47841,-0.20142c19.03174,-1.67596 16.59371,2.26442 43.22789,0.35635c26.63419,-1.90807 39.13068,5.43491 50.24961,2.04474c11.11893,-3.39016 16.27656,-3.07214 15.17297,4.58913c-1.1036,7.66126 -3.31245,7.46966 -6.91271,7.93147c-3.60025,0.46181 -6.84337,-2.40802 -6.33365,-7.14984c0.50972,-4.74184 10.6939,-6.81852 10.66244,-1.64116c-0.03145,5.17736 -5.82555,4.18522 -5.3776,1.91014" opacity="NaN" fill-opacity="0.1" fill="none"/>
    <path stroke="#46673D" id="svg_359" d="m1.86855,200.71688c0,0 2.7795,-0.52029 8.6022,1.5363c5.82271,2.0566 8.19895,-0.15199 9.01961,-7.3469c0.82065,-7.19493 -10.28485,-9.88957 -12.7468,-5.5658c-2.46195,4.32376 -0.32141,9.25151 3.21401,8.61349c3.53542,-0.63804 6.10663,-5.42331 0.96421,-5.1043" opacity="NaN" fill-opacity="0.1" fill="none"/>
    <path stroke="#46673D" id="svg_360" d="m2.22298,2.62022c0,0 3.06511,-3.80016 12.07108,-0.59992c9.00597,3.20022 6.77388,12.98417 -0.87856,14.41543c-7.65245,1.43125 -10.41357,-4.71779 -8.74306,-9.63921c1.67051,-4.92141 8.19873,-3.04726 10.203,-1.15691c2.00425,1.89036 0.66106,6.48099 -2.29286,6.71322c-2.95393,0.23224 -5.74436,-5.41645 -0.36699,-4.77797" opacity="NaN" fill-opacity="0.1" fill="none"/>
    <path stroke="#46673D" id="svg_361" d="m199.2001,13.07487c0,0 -1.7902,6.62247 -1.11311,14.13325c0.67709,7.51078 5.54199,7.80526 5.04273,16.41241c-0.49924,8.60715 -6.29723,11.18463 -6.44079,21.49216c-0.14356,10.30751 8.69378,14.08349 3.69492,22.65977c-4.99887,8.57628 -4.98053,28.22794 -0.40913,33.79691c4.57139,5.56896 5.73258,24.87073 0.58698,30.61622c-5.14561,5.74549 -6.73109,19.56538 -1.158,25.98295c5.57309,6.41756 4.95899,15.76487 1.13009,20.23745c-3.8289,4.47259 -17.19059,2.77538 -21.86806,0.11162c-4.67746,-2.66376 -16.589,-2.92724 -19.8272,1.208c-3.2382,4.13523 -19.85531,3.22497 -21.79122,-0.22093c-1.93589,-3.44593 -20.66058,-4.10634 -23.27037,-0.67121c-2.60981,3.43512 -18.14259,4.79357 -20.55454,0.50821c-2.41194,-4.28535 -22.11475,-6.47563 -24.23624,-3.17087c-2.12148,3.30476 -12.36413,5.15152 -17.39,2.16446c-5.02586,-2.98707 -7.15133,-3.27449 -16.01647,-2.04856c-8.86516,1.22592 -6.54635,4.50567 -16.43533,8.56533" opacity="NaN" fill-opacity="0.1" fill="none"/>
    <path stroke="#46673D" id="svg_362" d="m199.04659,178.27383c-3.66772,3.73546 2.11346,11.53943 -2.56719,16.50557c-4.68064,4.96613 -11.50505,2.06294 -13.71737,-1.83969c-2.21232,-3.90263 0.64279,-8.79319 5.03634,-9.57054c4.39355,-0.77735 8.21608,-0.20741 8.10681,4.50345c-0.10926,4.71087 -9.28634,5.06709 -9.92914,2.19593c-0.6428,-2.87117 4.60888,-4.04195 5.25169,-2.44686" opacity="NaN" fill-opacity="0.1" fill="none"/>
    <path stroke="#46673D" id="svg_363" d="m196.50719,171.13496c0,0 3.86866,-7.59539 -2.59575,-6.16885c-6.4644,1.42656 -4.23131,-6.58436 -1.82176,-7.97951c2.40955,-1.39514 4.01592,-3.98613 3.21273,-6.1785c-0.80318,-2.19238 -4.61829,0.79722 -4.01591,3.1889" opacity="NaN" fill-opacity="0.1" fill="none"/>
    <path stroke="#46673D" id="svg_364" d="m160.10216,3.39905c0,0 -5.76687,0.99965 -6.7446,4.2642c-0.97774,3.26457 -5.79909,3.39942 -7.36932,1.11088c-1.57023,-2.28854 -4.28628,-3.69837 -6.43362,-2.75016c-2.14734,0.94822 1.12338,4.51728 3.48504,3.75398" opacity="NaN" fill-opacity="0.1" fill="none"/>
    <path stroke="#46673D" id="svg_365" d="m4.44857,125.02073c0,0 0.60238,5.77989 3.81511,6.97573c3.21274,1.19584 3.01194,5.9792 0.60239,7.37434c-2.40955,1.39515 -4.01591,3.98614 -3.21274,6.17851c0.80319,2.19238 4.61831,-0.79722 4.01592,-3.1889" opacity="NaN" fill-opacity="0.1" fill="none"/>
    <path stroke="#46673D" stroke-width="0" id="svg_366" d="m1.84453,102.16207c0,0 0.11136,-2.84912 0.77952,-3.66316c0.66815,-0.81403 2.17152,1.32281 3.67488,-1.32281c1.50337,-2.64561 1.6704,-4.37543 1.63792,-4.40829c0.03247,0.03285 -2.75153,1.15216 -2.75153,1.15216c0,0 -2.44992,1.22105 -2.56128,2.84912c-0.11137,1.62806 -0.77952,5.39298 -0.77952,5.39298z" opacity="NaN" fill="#46673D"/>
    <path stroke="#46673D" stroke-width="0" id="svg_367" d="m4.41779,68.516c0,0 -0.17183,-2.73376 -0.82062,-3.56308c-0.64879,-0.82932 1.78701,-1.80261 -0.47187,-3.8517c-2.25887,-2.04911 -3.91938,-2.59979 -3.95895,-2.57577c0.03956,-0.02402 0.51206,2.92031 0.51206,2.92031c0,0 0.64754,2.6441 2.22068,3.11804c1.57314,0.47394 2.3187,1.57004 2.5187,3.9522z" opacity="NaN" fill="#46673D"/>
    <path stroke="#46673D" stroke-width="0" id="svg_368" d="m5.93795,129.13824c0,0 0.8771,2.71511 0.52973,3.70688c-0.34737,0.99177 -2.49636,-0.50583 -2.99744,2.4906c-0.5011,2.99642 -0.06201,4.67863 -0.02016,4.69849c-0.04185,-0.01986 2.18858,-2.01677 2.18858,-2.01677c0,0 1.88142,-1.97912 1.42508,-3.54682c-0.45635,-1.56768 -1.12578,-5.33237 -1.12578,-5.33237z" opacity="NaN" fill="#46673D"/>
    <path stroke="#46673D" stroke-width="0" id="svg_369" d="m19.0443,191.89046c0,0 0.11137,-2.84912 0.77952,-3.66316c0.66815,-0.81403 2.17151,1.32281 3.67487,-1.32281c1.50337,-2.6456 1.67042,-4.37543 1.63793,-4.4083c0.03248,0.03286 -2.75153,1.15217 -2.75153,1.15217c0,0 -2.44992,1.22105 -2.56128,2.84912c-0.11137,1.62806 -0.77952,5.39298 -0.77952,5.39298z" opacity="NaN" fill="#46673D"/>
    <path stroke="#46673D" stroke-width="0" id="svg_370" d="m4.94036,175.54635c0,0 -0.07847,2.12664 -0.54934,2.73427c-0.47086,0.60761 -1.53032,-0.98737 -2.58976,0.98737c-1.05946,1.97473 -1.17717,3.26592 -1.15429,3.29046c-0.02288,-0.02454 1.93906,-0.86001 1.93906,-0.86001c0,0 1.72651,-0.91142 1.80498,-2.12665c0.07847,-1.21523 0.54934,-4.02544 0.54934,-4.02544z" opacity="NaN" fill="#46673D"/>
    <path stroke="#46673D" stroke-width="0" id="svg_371" d="m31.90676,2.08822c0,0 -2.64495,0.78115 -3.3131,1.59519c-0.66816,0.81403 -2.17152,-1.32281 -3.67488,1.3228c-1.50337,2.64561 -1.67042,4.37543 -1.63793,4.4083c-0.03248,-0.03286 2.75153,-1.15216 2.75153,-1.15216c0,0 2.44992,-1.22105 2.56129,-2.84913c0.11136,-1.62806 1.01963,-2.59569 3.3131,-3.325z" opacity="NaN" fill="#46673D"/>
    <path stroke="#46673D" stroke-width="0" id="svg_372" d="m1.33243,36.58192c0,0 1.489,-2.43831 2.47099,-2.82876c0.98198,-0.39044 1.25315,2.20192 3.86022,0.61145c2.60708,-1.59045 3.59808,-3.02301 3.58572,-3.06738c0.01236,0.04437 -2.96929,-0.31637 -2.96929,-0.31637c0,0 -2.73915,-0.11098 -3.63175,1.25938c-0.89259,1.37035 -3.31588,4.34169 -3.31588,4.34169z" opacity="NaN" fill="#46673D"/>
    <path stroke="#46673D" stroke-width="0" id="svg_373" d="m195.94642,170.11128c0,0 0.28921,2.83678 -0.25831,3.73519c-0.54752,0.89841 -2.33586,-1.00996 -3.45364,1.81759c-1.11779,2.82754 -1.04066,4.5636 -1.00389,4.59165c-0.03677,-0.02805 2.5632,-1.52105 2.5632,-1.52105c0,0 2.25486,-1.54759 2.13687,-3.17521c-0.118,-1.62761 0.01577,-5.44818 0.01577,-5.44818z" opacity="NaN" fill="#46673D"/>
    <path stroke="#46673D" stroke-width="0" id="svg_374" d="m195.25087,153.34921c0,0 0.50976,-2.80601 1.28556,-3.51983c0.77579,-0.71381 1.96491,1.6099 3.82459,-0.80228c1.85968,-2.41218 2.26765,-4.1021 2.24008,-4.13913c0.02756,0.03703 -2.88629,0.76085 -2.88629,0.76085c0,0 -2.59728,0.87073 -2.93585,2.46758c-0.33855,1.59684 -1.5281,5.23281 -1.5281,5.23281z" opacity="NaN" fill="#46673D"/>
    <path stroke="#46673D" stroke-width="0" id="svg_375" d="m197.54971,69.60246c0,0 -0.23929,-2.84136 0.32394,-3.73016c0.56323,-0.88878 2.31775,1.05027 3.48507,-1.75748c1.16733,-2.80774 1.12075,-4.54488 1.08447,-4.57356c0.03628,0.02868 -2.58956,1.47641 -2.58956,1.47641c0,0 -2.28173,1.5083 -2.19237,3.13771c0.08935,1.62941 -0.11156,5.44708 -0.11156,5.44708z" opacity="NaN" fill="#46673D"/>
    <path stroke="#46673D" stroke-width="0" id="svg_376" d="m197.02792,112.0701c0,0 -0.2892,-2.83678 0.25832,-3.7352c0.54751,-0.8984 2.33586,1.00996 3.45364,-1.81759c1.11778,-2.82754 1.04066,-4.5636 1.00389,-4.59165c0.03677,0.02805 -2.5632,1.52105 -2.5632,1.52105c0,0 -2.25487,1.5476 -2.13688,3.17521c0.11801,1.62761 -0.01577,5.44819 -0.01577,5.44819z" opacity="NaN" fill="#46673D"/>
    <path stroke="#46673D" stroke-width="0" id="svg_377" d="m178.6001,5.60441c0,0 1.91385,2.12628 2.00292,3.17255c0.08906,1.04626 -2.48783,0.54573 -1.71773,3.4854c0.77009,2.93967 1.86055,4.29918 1.90691,4.30043c-0.04636,-0.00124 1.17294,-2.72599 1.17294,-2.72599c0,0 0.90778,-2.56759 -0.15152,-3.8155c-1.05929,-1.24793 -3.21353,-4.41687 -3.21353,-4.41687z" opacity="NaN" fill="#46673D"/>
    <path stroke="#46673D" stroke-width="0" id="svg_378" d="m154.5447,5.73395c0,0 -1.923,2.70795 -2.85554,2.21227c-0.93253,-0.4957 0.89386,-2.36823 -2.0094,-3.32821c-2.90326,-0.95999 -4.64587,-0.79268 -4.67217,-0.75477c0.02631,-0.03792 1.66446,2.4611 1.66446,2.4611c0,0 1.67504,2.15409 3.30639,1.95194c1.63135,-0.20215 3.65035,-1.48168 4.56627,-2.54233z" opacity="NaN" fill="#46673D"/>
    <path stroke="#46673D" stroke-width="0" id="svg_379" d="m197.47427,113.43898c0,0 -0.07848,2.12665 -0.54934,2.73427c-0.47086,0.60761 -1.53033,-0.98738 -2.58977,0.98737c-1.05945,1.97474 -1.17718,3.26592 -1.15428,3.29045c-0.0229,-0.02453 1.93905,-0.85999 1.93905,-0.85999c0,0 1.72651,-0.91143 1.80499,-2.12665c0.07847,-1.21523 0.54934,-4.02545 0.54934,-4.02545z" opacity="NaN" fill="#46673D"/>
    <path stroke="#46673D" stroke-width="0" id="svg_380" d="m197.9232,155.47774c0,0 -0.73672,1.9985 -1.3737,2.43196c-0.63699,0.43345 -1.14802,-1.40845 -2.77041,0.1447c-1.62239,1.55312 -2.13632,2.745 -2.12218,2.77535c-0.01414,-0.03035 2.11188,-0.22314 2.11188,-0.22314c0,0 1.92576,-0.33725 2.37872,-1.46893c0.45297,-1.13167 1.77569,-3.65993 1.77569,-3.65993z" opacity="NaN" fill="#46673D"/>
    <path stroke="#46673D" stroke-width="0" id="svg_381" d="m31.11023,2.44144c0,0 2.71243,0.93871 3.30137,1.81094c0.58892,0.87223 -1.90935,1.67449 0.20002,3.875c2.10936,2.20051 3.72713,2.86483 3.76828,2.8436c-0.04116,0.02122 -0.30558,-2.94864 -0.30558,-2.94864c0,0 -0.46013,-2.6825 -1.99614,-3.2642c-1.536,-0.58171 -4.96796,-2.31669 -4.96796,-2.31669z" opacity="NaN" fill="#46673D"/>
    <path stroke="#46673D" stroke-width="0" id="svg_382" d="m12.32283,16.22653c0,0 2.80746,0.60361 3.49911,1.39809c0.69162,0.79448 -1.68953,1.89297 0.6743,3.82191c2.36382,1.92895 4.05109,2.39262 4.08934,2.36658c-0.03824,0.02604 -0.66534,-2.88971 -0.66534,-2.88971c0,0 -0.78605,-2.60684 -2.38204,-2.9984c-1.59597,-0.39157 -5.21537,-1.69847 -5.21537,-1.69847z" opacity="NaN" fill="#46673D"/>
    <path stroke="#46673D" stroke-width="0" id="svg_383" d="m1.67761,34.74398c0.17406,0.73152 0.13406,-1.82389 -0.05294,-1.94345c-0.18701,-0.11956 1.45283,-0.77301 0.22827,-2.16426c-1.22456,-1.39127 -2.18534,-1.81183 -2.21058,-1.79845c0.02525,-0.01338 0.12183,1.86282 0.12183,1.86282c0,0 0.39684,1.95653 1.13386,2.06313c0.73701,0.10661 0.60549,1.2487 0.77955,1.98021z" opacity="NaN" fill="#46673D"/>
    <path stroke="#46673D" stroke-width="0" id="svg_384" d="m8.56279,144.0756c0,0 2.50699,1.39196 2.9344,2.35244c0.42738,0.96048 -2.17329,1.31995 -0.48093,3.8506c1.69235,2.53066 3.16932,3.46372 3.21356,3.44991c-0.04424,0.01381 0.21491,-2.95651 0.21491,-2.95651c0,0 0.01615,-2.72105 -1.39475,-3.55867c-1.4109,-0.83762 -4.48719,-3.13777 -4.48719,-3.13777z" opacity="NaN" fill="#46673D"/>
    <path stroke="#46673D" id="svg_385" d="m199.9363,198.88243c0,0 -9.1453,-1.87809 -12.29887,-0.62602c-3.15355,1.25206 -7.25318,3.75619 -16.71385,4.06921c-9.46065,0.31303 -12.61422,-3.44319 -20.18275,-3.75619c-7.56853,-0.31302 -9.14531,0.31301 -19.55205,1.8781c-10.40674,1.56508 -14.191,-1.5651 -20.81346,-1.8781c-6.62247,-0.31302 -15.13707,-0.31302 -17.34456,0.93905c-2.20748,1.25207 -13.95969,3.76211 -20.58216,0.31893c-6.62246,-3.44319 -12.20886,-4.38224 -16.08016,-4.31654c-3.87129,0.06569 -6.63437,3.11835 -10.88721,4.30767c-4.25283,1.18932 -3.9858,0.87336 -11.95374,-0.4651c-7.96794,-1.33844 -18.31146,6.65087 -22.4081,5.31833c-4.09665,-1.33253 -9.9352,-5.94437 -7.40937,-8.99701c2.52582,-3.05265 4.73034,-0.61127 9.06722,-1.00179c4.33689,-0.39054 5.35807,-10.50527 4.09665,-13.32243c-1.26142,-2.81716 -2.68201,-4.06627 -6.78163,-3.12721c-4.09961,0.93905 -5.6764,6.26032 -1.26142,7.19938c4.41497,0.93906 1.8832,-17.33777 -0.955,-17.9638" opacity="NaN" fill="none"/>
    <path stroke="#46673D" id="svg_386" d="m7.88476,178.53633" opacity="NaN" fill-opacity="0.1" fill="none"/>
    <path stroke="#46673D" id="svg_387" d="m14.46486,178.48542c-21.98717,-7.23553 -12.49078,-26.22773 -11.15127,-32.50284c1.33952,-6.27512 -2.21046,-12.13605 -2.52581,-18.40822c-0.31536,-6.27215 0,-8.53192 2.13237,-12.44611c2.13237,-3.9142 3.62807,-4.06035 3.31271,-9.69467c-0.31534,-5.6343 -1.57975,-9.47098 -1.57975,-11.03605c0,-1.5651 0.47453,-6.89229 -0.7869,-10.02246c-1.26141,-3.13017 -5.05759,-7.03254 -2.45368,-11.03015c2.60391,-3.99762 6.31009,-8.0757 5.04866,-13.39699c-1.26142,-5.32129 -3.93748,-2.86217 -3.93748,-2.86217" opacity="NaN" fill-opacity="0.1" fill="none"/>
    <path stroke="#46673D" id="svg_388" d="m0.46477,51.15569c1.12136,1.48034 -1.66083,3.76804 0.47451,4.94554c2.13536,1.17751 4.27071,-2.82602 4.27071,-5.18103c0,-2.35502 -1.66083,-3.29702 -2.37262,-5.88753c-0.71178,-2.59052 4.03343,-12.71708 3.32165,-16.48511c-0.71177,-3.76802 -3.08439,-2.82602 -3.79617,-4.94554c-0.71178,-2.11951 4.27069,-2.35501 4.98248,-4.47452c0.71178,-2.11952 -4.50796,-3.06152 -1.66082,-4.94554c2.84712,-1.884 10.67674,1.88401 13.76113,0.94202c3.0844,-0.94202 -4.27069,-8.94907 -0.94904,-8.24255c3.32165,0.7065 5.69427,0.23549 9.96496,0.7065c4.2707,0.47101 10.20222,1.413 12.33756,-0.94201c2.13537,-2.35502 0.94905,-4.47453 5.93154,-5.41653c4.98247,-0.94201 10.20222,4.47453 15.1847,6.35854c4.98247,1.88401 8.77865,-5.65204 19.21813,-6.12304c10.43948,-0.47101 15.65922,8.47805 21.11623,7.06503c5.457,-1.413 12.33757,-7.53604 14.47292,-6.35853c2.13535,1.1775 5.93793,9.1241 15.66884,0.4901" opacity="NaN" fill="none"/>
    <path stroke="#46673D" id="svg_389" d="m201.11553,55.2472c-5.34474,-4.75094 3.42105,-18.84329 0.70217,-24.16753c-2.71889,-5.32425 4.20658,-20.25313 2.10329,-25.91789c-2.10329,-5.66477 -6.18161,-4.03854 -7.60518,-3.33203c-1.42357,0.7065 -0.70217,7.24326 -0.05772,10.88398c0.64446,3.64072 -11.64824,4.23903 -12.6614,-1.49257c-1.01317,-5.7316 4.44063,-5.55337 -0.31742,-7.70789c-4.75805,-2.15452 -11.56808,2.3741 -13.87336,3.10925c-2.30528,0.73514 -8.42276,-0.52192 -10.07076,-0.99293c-1.648,-0.471 -5.44417,2.33274 -7.37433,-1.64533c-1.93014,-3.97806 -8.53819,-3.80303 -12.57482,-2.59053c-4.03664,1.21253 -2.84392,0.49966 -5.45699,4.00354c-2.61308,3.50387 -8.84921,7.60924 -13.99841,3.53251c-5.1492,-4.07673 -9.79824,-3.67255 -12.44017,-6.67041c-2.64194,-2.99788 -10.57415,-0.15912 -13.65854,1.48938c-3.08439,1.64852 -4.2707,3.76803 -4.03344,5.65204c0.23726,1.884 0.94905,4.23902 5.93153,5.18103c4.98248,0.94201 6.16879,-1.1775 6.16879,-3.53253c0,-2.35501 -5.21974,-6.59404 -6.40605,-2.82601c-1.1863,3.76803 3.0844,8.71355 3.55892,10.12657" opacity="NaN" fill-opacity="0.1" fill="none"/>
   </g>
   <g stroke="null" transform="matrix(-1.00599 0 0 -0.998526 208.316 593.415)" id="svg_423">
    <path stroke="#46673D" id="svg_391" d="m23.38648,398.73213c-20.57359,9.9243 -22.00246,-15.74446 -16.12486,-19.36948c5.87761,-3.62502 -5.34926,-35.25317 -2.23642,-48.48274c3.11284,-13.22957 6.61479,-18.28794 3.11284,-25.29183c-3.50194,-7.00389 -4.60624,-27.23735 -2.27161,-34.24124c2.33463,-7.00389 3.82803,-14.39689 1.4934,-20.23347c-2.33463,-5.83657 -3.89105,-8.97619 -3.08133,-15.81152c0.80972,-6.83533 3.08133,-7.58204 3.08133,-14.19682c0,-6.61479 -3.14093,-17.57485 -2.75183,-22.01935c0.38911,-4.44451 5.58373,-6.30997 16.06147,-2.61558c5.23888,1.8472 20.23259,-2.71073 36.87943,0.4253c16.64684,3.13603 31.7972,-1.78201 37.34935,-0.65503l-0.47556,-0.20172c18.91848,-1.67842 16.49496,2.26777 42.97065,0.35688c26.47568,-1.91089 38.89781,5.44293 49.95058,2.04776c11.05276,-3.39516 16.1797,-3.07668 15.08268,4.5959c-1.09703,7.67257 -3.29274,7.48069 -6.87157,7.94318c-3.57882,0.46249 -6.80265,-2.41157 -6.29596,-7.1604c0.50669,-4.74883 10.63026,-6.82858 10.59899,-1.64358c-0.03127,5.185 -5.79088,4.1914 -5.34559,1.91296" opacity="NaN" fill-opacity="0.1" fill="none"/>
    <path stroke="#46673D" id="svg_392" d="m5.589,394.82981c0,0 2.76296,-0.52106 8.55102,1.53857c5.78806,2.05963 8.15016,-0.15221 8.96593,-7.35775c0.81577,-7.20555 -10.22364,-9.90416 -12.67094,-5.57401c-2.4473,4.33014 -0.31949,9.26517 3.19488,8.6262c3.51438,-0.63898 6.07029,-5.43131 0.95847,-5.11183" opacity="NaN" fill-opacity="0.1" fill="none"/>
    <path stroke="#46673D" transform="rotate(-82 14.4635 202.676)" id="svg_393" d="m19.45207,193.36979c0,0 4.19277,2.48755 2.26493,11.79885c-1.92783,9.31129 -11.93966,8.47775 -14.41776,1.14437c-2.47809,-7.33339 3.23811,-10.90842 8.34993,-9.94995c5.11182,0.95846 4.15631,7.6459 2.55887,9.88233c-1.59745,2.23642 -6.33594,1.55404 -6.97491,-1.32136c-0.63898,-2.8754 4.57696,-6.40954 4.68769,-1.0272" opacity="NaN" fill-opacity="0.1" fill="none"/>
    <path stroke="#46673D" id="svg_394" d="m201.74625,206.91084c0,0 -1.77955,6.63225 -1.10648,14.15411c0.67306,7.52186 5.509,7.81678 5.01272,16.43663c-0.49628,8.61986 -6.25976,11.20114 -6.40246,21.52388c-0.1427,10.32273 8.64205,14.10428 3.67293,22.69321c-4.96912,8.58894 -4.95089,28.26961 -0.40669,33.84679c4.54419,5.57718 5.69847,24.90744 0.58348,30.66141c-5.11499,5.75397 -6.69103,19.59426 -1.15111,26.0213c5.53992,6.42703 4.92948,15.78814 1.12336,20.26732c-3.80612,4.47919 -17.08829,2.77947 -21.73792,0.11178c-4.64963,-2.66769 -16.49028,-2.93156 -19.70921,1.20978c-3.21893,4.14133 -19.73716,3.22974 -21.66154,-0.22126c-1.92437,-3.45101 -20.53763,-4.11239 -23.1319,-0.6722c-2.59427,3.44019 -18.03463,4.80064 -20.43222,0.50896c-2.39759,-4.29168 -21.98315,-6.48519 -24.09201,-3.17555c-2.10886,3.30964 -12.29056,5.15913 -17.28651,2.16765c-4.99595,-2.99148 -7.10878,-3.27932 -15.92117,-2.05159c-8.8124,1.22773 -6.50739,4.51233 -16.33752,8.57798" opacity="NaN" fill-opacity="0.1" fill="none"/>
    <path stroke="#46673D" id="svg_395" d="m201.59366,372.35362c-3.64589,3.74097 2.10088,11.55647 -2.55192,16.52994c-4.65279,4.97346 -11.43658,2.06598 -13.63574,-1.84241c-2.19915,-3.90839 0.63897,-8.80616 5.00637,-9.58466c4.36741,-0.7785 8.16719,-0.20772 8.05857,4.5101c-0.10861,4.71782 -9.23108,5.07456 -9.87006,2.19916c-0.63897,-2.8754 4.58146,-4.04791 5.22044,-2.45047" opacity="NaN" fill-opacity="0.1" fill="none"/>
    <path stroke="#46673D" id="svg_396" d="m199.06937,365.20422c0,0 3.84564,-7.6066 -2.5803,-6.17795c-6.42593,1.42866 -4.20613,-6.59408 -1.81092,-7.99129c2.39521,-1.3972 3.99202,-3.99201 3.19361,-6.18762c-0.7984,-2.19561 -4.59081,0.7984 -3.99201,3.19361" opacity="NaN" fill-opacity="0.1" fill="none"/>
    <path stroke="#46673D" transform="rotate(-94 152.461 201.052)" id="svg_397" d="m155.55639,211.71363c0,0 -0.5988,-5.78842 -3.79241,-6.98602c-3.19362,-1.19761 -2.99402,-5.98803 -0.59881,-7.38523c2.39521,-1.39721 3.99202,-3.99202 3.19362,-6.18763c-0.79841,-2.19561 -4.59082,0.7984 -3.99202,3.19361" opacity="NaN" fill-opacity="0.1" fill="none"/>
    <path stroke="#46673D" transform="rotate(-180 11.2484 329.685)" id="svg_398" d="m14.344,340.34659c0,0 -0.5988,-5.78842 -3.79241,-6.98602c-3.19362,-1.19761 -2.99402,-5.98803 -0.59881,-7.38523c2.39521,-1.39721 3.99202,-3.99202 3.19362,-6.18763c-0.79841,-2.19561 -4.59082,0.7984 -3.99202,3.19361" opacity="NaN" fill-opacity="0.1" fill="none"/>
    <path stroke="#46673D" stroke-width="0" id="svg_399" d="m5.56513,296.12953c0,0 0.11069,-2.85333 0.77488,-3.66857c0.66418,-0.81523 2.1586,1.32476 3.65301,-1.32476c1.49442,-2.64952 1.66046,-4.38189 1.62818,-4.4148c0.03228,0.03291 -2.73515,1.15386 -2.73515,1.15386c0,0 -2.43534,1.22285 -2.54604,2.85333c-0.1107,1.63047 -0.77488,5.40094 -0.77488,5.40094z" opacity="NaN" fill="#46673D"/>
    <path stroke="#46673D" transform="rotate(-77 5.51347 257.429)" stroke-width="0" id="svg_400" d="m1.22437,261.09799c0,0 2.6292,-0.7823 3.29338,-1.59754c0.66418,-0.81523 2.1586,1.32476 3.65301,-1.32476c1.49442,-2.64951 1.66047,-4.38189 1.62818,-4.4148c0.03229,0.03291 -2.73515,1.15386 -2.73515,1.15386c0,0 -2.43534,1.22285 -2.54604,2.85333c-0.1107,1.63047 -1.01357,2.59953 -3.29338,3.32991z" opacity="NaN" fill="#46673D"/>
    <path stroke="#46673D" transform="rotate(160 8.39644 328.603)" stroke-width="0" id="svg_401" d="m5.36632,333.30647c0,0 0.1107,-2.85333 0.77488,-3.66857c0.66418,-0.81523 2.1586,1.32476 3.65301,-1.32476c1.49442,-2.64951 1.66047,-4.38189 1.62818,-4.4148c0.03229,0.03291 -2.73515,1.15386 -2.73515,1.15386c0,0 -2.43534,1.22285 -2.54604,2.85333c-0.1107,1.63047 -0.77488,5.40094 -0.77488,5.40094z" opacity="NaN" fill="#46673D"/>
    <path stroke="#46673D" stroke-width="0" id="svg_402" d="m22.66254,385.99036c0,0 0.1107,-2.85333 0.77488,-3.66857c0.66418,-0.81523 2.1586,1.32476 3.65301,-1.32476c1.49442,-2.64951 1.66047,-4.38189 1.62818,-4.4148c0.03229,0.03291 -2.73515,1.15386 -2.73515,1.15386c0,0 -2.43534,1.22285 -2.54604,2.85333c-0.1107,1.63047 -0.77488,5.40094 -0.77488,5.40094z" opacity="NaN" fill="#46673D"/>
    <path stroke="#46673D" transform="rotate(-180 6.50746 373.135)" stroke-width="0" id="svg_403" d="m4.37229,376.6464c0,0 0.07801,-2.12979 0.54607,-2.73831c0.46806,-0.6085 1.52121,0.98883 2.57435,-0.98883c1.05315,-1.97765 1.17016,-3.27074 1.14741,-3.29531c0.02275,0.02457 -1.92752,0.86127 -1.92752,0.86127c0,0 -1.71623,0.91277 -1.79424,2.12979c-0.07801,1.21702 -0.54607,4.03139 -0.54607,4.03139z" opacity="NaN" fill="#46673D"/>
    <path stroke="#46673D" transform="rotate(-180 31.1594 199.576)" stroke-width="0" id="svg_404" d="m26.87049,203.24511c0,0 2.6292,-0.7823 3.29338,-1.59754c0.66418,-0.81523 2.1586,1.32476 3.65301,-1.32476c1.49442,-2.64951 1.66047,-4.38189 1.62818,-4.4148c0.03229,0.03291 -2.73515,1.15386 -2.73515,1.15386c0,0 -2.43534,1.22285 -2.54604,2.85333c-0.1107,1.63047 -1.01356,2.59953 -3.29338,3.32991z" opacity="NaN" fill="#46673D"/>
    <path stroke="#46673D" transform="rotate(29 9.98645 227.807)" stroke-width="0" id="svg_405" d="m6.95678,232.51124c0,0 0.1107,-2.85333 0.77488,-3.66857c0.66418,-0.81523 2.1586,1.32476 3.65301,-1.32476c1.49442,-2.64951 1.66047,-4.38189 1.62818,-4.4148c0.03229,0.03291 -2.73515,1.15386 -2.73515,1.15386c0,0 -2.43534,1.22285 -2.54604,2.85333c-0.1107,1.63047 -0.77488,5.40094 -0.77488,5.40094z" opacity="NaN" fill="#46673D"/>
    <path stroke="#46673D" transform="rotate(172 196.166 369.258)" stroke-width="0" id="svg_406" d="m193.13653,373.96162c0,0 0.1107,-2.85333 0.77488,-3.66857c0.66418,-0.81523 2.1586,1.32476 3.65301,-1.32476c1.49442,-2.64951 1.66047,-4.38189 1.62818,-4.4148c0.03229,0.03291 -2.73515,1.15386 -2.73515,1.15386c0,0 -2.43534,1.22285 -2.54604,2.85333c-0.1107,1.63047 -0.77488,5.40094 -0.77488,5.40094z" opacity="NaN" fill="#46673D"/>
    <path stroke="#46673D" transform="rotate(8 201.475 343.156)" stroke-width="0" id="svg_407" d="m198.44577,347.85963c0,0 0.1107,-2.85333 0.77488,-3.66857c0.66418,-0.81523 2.1586,1.32476 3.65301,-1.32476c1.49442,-2.64951 1.66047,-4.38189 1.62818,-4.4148c0.03229,0.03291 -2.73515,1.15386 -2.73515,1.15386c0,0 -2.43534,1.22285 -2.54604,2.85333c-0.1107,1.63047 -0.77488,5.40094 -0.77488,5.40094z" opacity="NaN" fill="#46673D"/>
    <path stroke="#46673D" transform="rotate(-7 202.539 258.484)" stroke-width="0" id="svg_408" d="m199.50982,263.18772c0,0 0.1107,-2.85333 0.77488,-3.66857c0.66418,-0.81523 2.1586,1.32476 3.65301,-1.32476c1.49442,-2.64951 1.66047,-4.38189 1.62818,-4.4148c0.03229,0.03291 -2.73515,1.15386 -2.73515,1.15386c0,0 -2.43534,1.22285 -2.54604,2.85333c-0.1107,1.63047 -0.77488,5.40094 -0.77488,5.40094z" opacity="NaN" fill="#46673D"/>
    <path stroke="#46673D" transform="rotate(-8 201.932 300.972)" stroke-width="0" id="svg_409" d="m198.90284,305.67634c0,0 0.1107,-2.85333 0.77488,-3.66857c0.66418,-0.81523 2.1586,1.32476 3.65301,-1.32476c1.49442,-2.64951 1.66047,-4.38189 1.62818,-4.4148c0.03229,0.03291 -2.73515,1.15386 -2.73515,1.15386c0,0 -2.43534,1.22285 -2.54604,2.85333c-0.1107,1.63047 -0.77488,5.40094 -0.77488,5.40094z" opacity="NaN" fill="#46673D"/>
    <path stroke="#46673D" transform="rotate(136 182.357 204.918)" stroke-width="0" id="svg_410" d="m179.32773,209.62171c0,0 0.1107,-2.85333 0.77488,-3.66857c0.66418,-0.81523 2.1586,1.32476 3.65301,-1.32476c1.49442,-2.64951 1.66047,-4.38189 1.62818,-4.4148c0.03229,0.03291 -2.73515,1.15386 -2.73515,1.15386c0,0 -2.43534,1.22285 -2.54604,2.85333c-0.1107,1.63047 -0.77488,5.40094 -0.77488,5.40094z" opacity="NaN" fill="#46673D"/>
    <path stroke="#46673D" transform="rotate(-101 152.783 199.481)" stroke-width="0" id="svg_411" d="m151.83393,203.95533c0,0 -2.29738,-2.3939 -1.6332,-3.20914c0.66418,-0.81523 2.1586,1.32476 3.65301,-1.32476c1.49442,-2.64951 1.66047,-4.38189 1.62818,-4.4148c0.03229,0.03291 -2.73515,1.15386 -2.73515,1.15386c0,0 -2.43534,1.22285 -2.54604,2.85333c-0.1107,1.63047 0.76423,3.84509 1.6332,4.94151z" opacity="NaN" fill="#46673D"/>
    <path stroke="#46673D" transform="rotate(-180 197.895 310.934)" stroke-width="0" id="svg_412" d="m195.75985,314.44544c0,0 0.07801,-2.12979 0.54607,-2.73831c0.46806,-0.6085 1.52121,0.98884 2.57435,-0.98883c1.05315,-1.97765 1.17017,-3.27074 1.14741,-3.2953c0.02276,0.02456 -1.92751,0.86126 -1.92751,0.86126c0,0 -1.71624,0.91277 -1.79425,2.12979c-0.07801,1.21702 -0.54607,4.03139 -0.54607,4.03139z" opacity="NaN" fill="#46673D"/>
    <path stroke="#46673D" transform="rotate(-162 197.361 352.205)" stroke-width="0" id="svg_413" d="m195.22637,355.71624c0,0 0.07801,-2.12979 0.54607,-2.73831c0.46806,-0.6085 1.52121,0.98884 2.57435,-0.98883c1.05315,-1.97765 1.17017,-3.27074 1.14741,-3.2953c0.02276,0.02456 -1.92751,0.86126 -1.92751,0.86126c0,0 -1.71624,0.91277 -1.79425,2.12979c-0.07801,1.21702 -0.54607,4.03139 -0.54607,4.03139z" opacity="NaN" fill="#46673D"/>
    <path stroke="#46673D" transform="rotate(107 38.2695 200.534)" stroke-width="0" id="svg_414" d="m35.2396,205.23851c0,0 0.1107,-2.85333 0.77488,-3.66857c0.66418,-0.81523 2.1586,1.32476 3.65301,-1.32476c1.49442,-2.64951 1.66047,-4.38189 1.62818,-4.4148c0.03229,0.03291 -2.73515,1.15386 -2.73515,1.15386c0,0 -2.43534,1.22285 -2.54604,2.85333c-0.1107,1.63047 -0.77488,5.40094 -0.77488,5.40094z" opacity="NaN" fill="#46673D"/>
    <path stroke="#46673D" transform="rotate(100 20.0875 213.868)" stroke-width="0" id="svg_415" d="m17.05779,218.57184c0,0 0.1107,-2.85333 0.77488,-3.66857c0.66418,-0.81523 2.1586,1.32476 3.65301,-1.32476c1.49442,-2.64951 1.66047,-4.38189 1.62818,-4.4148c0.03229,0.03291 -2.73515,1.15386 -2.73515,1.15386c0,0 -2.43534,1.22285 -2.54604,2.85333c-0.1107,1.63047 -0.77488,5.40094 -0.77488,5.40094z" opacity="NaN" fill="#46673D"/>
    <path stroke="#46673D" transform="rotate(-72 4.42046 225.721)" stroke-width="0" id="svg_416" d="m1.97343,227.54536c-0.64328,0.39094 1.77836,-0.4377 1.8348,-0.6515c0.05643,-0.2138 1.18253,1.13428 2.13148,-0.45397c0.94897,-1.58825 1.05441,-2.62672 1.03391,-2.64645c0.0205,0.01973 -1.73684,0.69168 -1.73684,0.69168c0,0 -1.74161,0.98067 -1.61675,1.71043c0.12486,0.72976 -1.00333,0.95887 -1.6466,1.34981z" opacity="NaN" fill="#46673D"/>
    <path stroke="#46673D" transform="rotate(117 15.0594 342.941)" stroke-width="0" id="svg_417" d="m12.02977,347.64468c0,0 0.1107,-2.85333 0.77488,-3.66857c0.66418,-0.81523 2.1586,1.32476 3.65301,-1.32476c1.49442,-2.64951 1.66047,-4.38189 1.62818,-4.4148c0.03229,0.03291 -2.73515,1.15386 -2.73515,1.15386c0,0 -2.43534,1.22285 -2.54604,2.85333c-0.1107,1.63047 -0.77488,5.40094 -0.77488,5.40094z" opacity="NaN" fill="#46673D"/>
    <path stroke="#46673D" id="svg_418" d="m202.47807,392.99265c0,0 -9.09088,-1.88087 -12.22567,-0.62695c-3.13479,1.25391 -7.21002,3.76174 -16.61439,4.07522c-9.40436,0.31348 -12.53915,-3.44827 -20.06265,-3.76174c-7.52349,-0.31348 -9.09089,0.31347 -19.43569,1.88087c-10.34481,1.56739 -14.10655,-1.5674 -20.68961,-1.88087c-6.58306,-0.31348 -15.04699,-0.31348 -17.24134,0.94043c-2.19435,1.25392 -13.87662,3.76767 -20.45968,0.3194c-6.58306,-3.44827 -12.13621,-4.38871 -15.98447,-4.32291c-3.84825,0.06579 -6.59489,3.12295 -10.82242,4.31403c-4.22752,1.19108 -3.96208,0.87465 -11.8826,-0.46578c-7.92052,-1.34042 -18.2025,6.66069 -22.27476,5.32618c-4.07227,-1.3345 -9.87607,-5.95314 -7.36528,-9.01029c2.51079,-3.05716 4.70219,-0.61217 9.01326,-1.00327c4.31108,-0.39111 5.32618,-10.52078 4.07227,-13.34209c-1.25392,-2.82132 -2.66605,-4.07227 -6.74128,-3.13183c-4.07522,0.94043 -5.64262,6.26957 -1.25391,7.21001c4.3887,0.94044 1.87199,-17.36336 -0.94932,-17.99032" opacity="NaN" fill="none"/>
    <path stroke="#46673D" id="svg_419" d="m11.56941,372.61652" opacity="NaN" fill-opacity="0.1" fill="none"/>
    <path stroke="#46673D" id="svg_420" d="m18.11035,372.56553c-21.85633,-7.24621 -12.41645,-26.26644 -11.08491,-32.55081c1.33155,-6.28438 -2.19731,-12.15397 -2.51079,-18.43539c-0.31348,-6.28141 0,-8.54452 2.11969,-12.46448c2.11968,-3.91997 3.60648,-4.06635 3.293,-9.70897c-0.31347,-5.64262 -1.57035,-9.48496 -1.57035,-11.05235c0,-1.5674 0.4717,-6.90246 -0.78222,-10.03725c-1.25391,-3.13479 -5.0275,-7.04292 -2.43908,-11.04643c2.58842,-4.00352 6.27254,-8.08762 5.01862,-13.41676c-1.25391,-5.32914 -3.91404,-2.86639 -3.91404,-2.86639" opacity="NaN" fill-opacity="0.1" fill="none"/>
    <path stroke="#46673D" id="svg_421" d="m4.19358,245.04787c1.11469,1.48252 -1.65095,3.77359 0.47169,4.95283c2.12265,1.17925 4.24529,-2.83019 4.24529,-5.18868c0,-2.35849 -1.65095,-3.30188 -2.35849,-5.89622c-0.70755,-2.59434 4.00943,-12.73585 3.30188,-16.50944c-0.70754,-3.77358 -3.06603,-2.83019 -3.77358,-4.95283c-0.70755,-2.12264 4.24528,-2.35849 4.95283,-4.48113c0.70755,-2.12264 -4.48113,-3.06604 -1.65094,-4.95283c2.83018,-1.88679 10.6132,1.88679 13.67924,0.9434c3.06604,-0.9434 -4.24528,-8.96227 -0.9434,-8.25472c3.30189,0.70755 5.66038,0.23585 9.90566,0.70755c4.24529,0.4717 10.14151,1.41509 12.26415,-0.9434c2.12265,-2.35849 0.9434,-4.48113 5.89623,-5.42453c4.95283,-0.94339 10.14151,4.48114 15.09434,6.36793c4.95283,1.88679 8.72642,-5.66038 19.10377,-6.13208c10.37736,-0.4717 15.56604,8.49057 20.99057,7.07547c5.42453,-1.41509 12.26415,-7.54717 14.38679,-6.36792c2.12264,1.17924 5.9026,9.13756 15.5756,0.49082" opacity="NaN" fill="none"/>
    <path stroke="#46673D" id="svg_422" d="m203.65029,249.14541c-5.31294,-4.75796 3.40069,-18.87111 0.69799,-24.20321c-2.70271,-5.3321 4.18154,-20.28302 2.09077,-25.95614c-2.09077,-5.67313 -6.14483,-4.04449 -7.55992,-3.33695c-1.4151,0.70755 -0.69799,7.25395 -0.05737,10.90005c0.64062,3.6461 -11.57892,4.24529 -12.58605,-1.49477c-1.00714,-5.74006 4.4142,-5.56157 -0.31553,-7.71927c-4.72973,-2.1577 -11.49924,2.37761 -13.7908,3.11384c-2.29156,0.73623 -8.37264,-0.52269 -10.01083,-0.99439c-1.6382,-0.4717 -5.41178,2.33618 -7.33045,-1.64776c-1.91866,-3.98393 -8.48738,-3.80864 -12.5,-2.59434c-4.01262,1.21431 -2.827,0.50039 -5.42452,4.00944c-2.59753,3.50905 -8.79654,7.62047 -13.9151,3.53773c-5.11856,-4.08274 -9.73993,-3.67797 -12.36614,-6.68026c-2.62621,-3.0023 -10.51122,-0.15936 -13.57725,1.49158c-3.06604,1.65095 -4.24529,3.77359 -4.00944,5.66038c0.23585,1.88679 0.9434,4.24528 5.89623,5.18868c4.95283,0.9434 6.13207,-1.17924 6.13207,-3.53774c0,-2.35849 -5.18868,-6.60377 -6.36792,-2.83018c-1.17925,3.77358 3.06604,8.72641 3.53774,10.14151" opacity="NaN" fill-opacity="0.1" fill="none"/>
   </g>
   <g stroke="null" transform="matrix(-1.00599 0 0 -0.998526 598.664 595.807)" id="svg_456">
    <path stroke="#46673D" id="svg_424" d="m217.39845,399.92973c-20.57359,9.9243 -22.00246,-15.74446 -16.12486,-19.36948c5.87761,-3.62502 -5.34926,-35.25317 -2.23642,-48.48274c3.11284,-13.22957 6.61479,-18.28794 3.11284,-25.29183c-3.50194,-7.00389 -4.60624,-27.23735 -2.27161,-34.24124c2.33463,-7.00389 3.82803,-14.39689 1.4934,-20.23347c-2.33463,-5.83657 -3.89105,-8.97619 -3.08133,-15.81152c0.80972,-6.83533 3.08133,-7.58204 3.08133,-14.19682c0,-6.61479 -3.14093,-17.57485 -2.75183,-22.01935c0.38911,-4.44451 5.58373,-6.30997 16.06147,-2.61558c5.23888,1.8472 20.23259,-2.71073 36.87943,0.4253c16.64684,3.13603 31.7972,-1.78201 37.34935,-0.65503l-0.47556,-0.20172c18.91848,-1.67842 16.49496,2.26777 42.97065,0.35688c26.47568,-1.91089 38.89781,5.44293 49.95058,2.04776c11.05276,-3.39516 16.1797,-3.07668 15.08268,4.5959c-1.09703,7.67257 -3.29274,7.48069 -6.87157,7.94318c-3.57882,0.46249 -6.80265,-2.41157 -6.29596,-7.1604c0.50669,-4.74883 10.63026,-6.82858 10.59899,-1.64358c-0.03127,5.185 -5.79088,4.1914 -5.34559,1.91296" opacity="NaN" fill-opacity="0.1" fill="none"/>
    <path stroke="#46673D" id="svg_425" d="m199.60097,396.02741c0,0 2.76296,-0.52106 8.55102,1.53857c5.78806,2.05963 8.15016,-0.15221 8.96593,-7.35775c0.81577,-7.20555 -10.22364,-9.90416 -12.67094,-5.57401c-2.4473,4.33014 -0.31949,9.26517 3.19488,8.6262c3.51438,-0.63898 6.07029,-5.43131 0.95847,-5.11183" opacity="NaN" fill-opacity="0.1" fill="none"/>
    <path stroke="#46673D" transform="rotate(-82 208.475 203.874)" id="svg_426" d="m213.46404,194.56739c0,0 4.19277,2.48755 2.26493,11.79885c-1.92783,9.31129 -11.93966,8.47775 -14.41776,1.14437c-2.47809,-7.33339 3.23811,-10.90842 8.34993,-9.94995c5.11182,0.95846 4.15631,7.6459 2.55887,9.88233c-1.59745,2.23642 -6.33594,1.55404 -6.97491,-1.32136c-0.63898,-2.8754 4.57696,-6.40954 4.68769,-1.0272" opacity="NaN" fill-opacity="0.1" fill="none"/>
    <path stroke="#46673D" id="svg_427" d="m395.75822,208.10844c0,0 -1.77955,6.63225 -1.10648,14.15411c0.67306,7.52186 5.509,7.81678 5.01272,16.43663c-0.49628,8.61986 -6.25976,11.20114 -6.40246,21.52388c-0.1427,10.32273 8.64205,14.10428 3.67293,22.69321c-4.96912,8.58894 -4.95089,28.26961 -0.40669,33.84679c4.54419,5.57718 5.69847,24.90744 0.58348,30.66141c-5.11499,5.75397 -6.69103,19.59426 -1.15111,26.0213c5.53992,6.42703 4.92948,15.78814 1.12336,20.26732c-3.80612,4.47919 -17.08829,2.77947 -21.73792,0.11178c-4.64963,-2.66769 -16.49028,-2.93156 -19.70921,1.20978c-3.21893,4.14133 -19.73716,3.22974 -21.66154,-0.22126c-1.92437,-3.45101 -20.53763,-4.11239 -23.1319,-0.6722c-2.59427,3.44019 -18.03463,4.80064 -20.43222,0.50896c-2.39759,-4.29168 -21.98315,-6.48519 -24.09201,-3.17555c-2.10886,3.30964 -12.29056,5.15913 -17.28651,2.16765c-4.99595,-2.99148 -7.10878,-3.27932 -15.92117,-2.05159c-8.8124,1.22773 -6.50739,4.51233 -16.33752,8.57798" opacity="NaN" fill-opacity="0.1" fill="none"/>
    <path stroke="#46673D" id="svg_428" d="m395.60563,373.55122c-3.64589,3.74097 2.10088,11.55647 -2.55192,16.52994c-4.65279,4.97346 -11.43658,2.06598 -13.63574,-1.84241c-2.19915,-3.90839 0.63897,-8.80616 5.00637,-9.58466c4.36741,-0.7785 8.16719,-0.20772 8.05857,4.5101c-0.10861,4.71782 -9.23108,5.07456 -9.87006,2.19916c-0.63897,-2.8754 4.58146,-4.04791 5.22044,-2.45047" opacity="NaN" fill-opacity="0.1" fill="none"/>
    <path stroke="#46673D" id="svg_429" d="m393.08134,366.40182c0,0 3.84564,-7.6066 -2.5803,-6.17795c-6.42593,1.42866 -4.20613,-6.59408 -1.81092,-7.99129c2.39521,-1.3972 3.99202,-3.99201 3.19361,-6.18762c-0.7984,-2.19561 -4.59081,0.7984 -3.99201,3.19361" opacity="NaN" fill-opacity="0.1" fill="none"/>
    <path stroke="#46673D" transform="rotate(-94 346.473 202.25)" id="svg_430" d="m349.56836,212.91123c0,0 -0.5988,-5.78842 -3.79241,-6.98602c-3.19362,-1.19761 -2.99402,-5.98803 -0.59881,-7.38523c2.39521,-1.39721 3.99202,-3.99202 3.19362,-6.18763c-0.79841,-2.19561 -4.59082,0.7984 -3.99202,3.19361" opacity="NaN" fill-opacity="0.1" fill="none"/>
    <path stroke="#46673D" transform="rotate(-180 205.261 330.882)" id="svg_431" d="m208.35597,341.54419c0,0 -0.5988,-5.78842 -3.79241,-6.98602c-3.19362,-1.19761 -2.99402,-5.98803 -0.59881,-7.38523c2.39521,-1.39721 3.99202,-3.99202 3.19362,-6.18763c-0.79841,-2.19561 -4.59082,0.7984 -3.99202,3.19361" opacity="NaN" fill-opacity="0.1" fill="none"/>
    <path stroke="#46673D" stroke-width="0" id="svg_432" d="m199.5771,297.32713c0,0 0.11069,-2.85333 0.77488,-3.66857c0.66418,-0.81523 2.1586,1.32476 3.65301,-1.32476c1.49442,-2.64952 1.66046,-4.38189 1.62818,-4.4148c0.03228,0.03291 -2.73515,1.15386 -2.73515,1.15386c0,0 -2.43534,1.22285 -2.54604,2.85333c-0.1107,1.63047 -0.77488,5.40094 -0.77488,5.40094z" opacity="NaN" fill="#46673D"/>
    <path stroke="#46673D" transform="rotate(-77 199.525 258.627)" stroke-width="0" id="svg_433" d="m195.23634,262.29559c0,0 2.6292,-0.7823 3.29338,-1.59754c0.66418,-0.81523 2.1586,1.32476 3.65301,-1.32476c1.49442,-2.64951 1.66047,-4.38189 1.62818,-4.4148c0.03229,0.03291 -2.73515,1.15386 -2.73515,1.15386c0,0 -2.43534,1.22285 -2.54604,2.85333c-0.1107,1.63047 -1.01357,2.59953 -3.29338,3.32991z" opacity="NaN" fill="#46673D"/>
    <path stroke="#46673D" transform="rotate(160 202.408 329.8)" stroke-width="0" id="svg_434" d="m199.37829,334.50407c0,0 0.1107,-2.85333 0.77488,-3.66857c0.66418,-0.81523 2.1586,1.32476 3.65301,-1.32476c1.49442,-2.64951 1.66047,-4.38189 1.62818,-4.4148c0.03229,0.03291 -2.73515,1.15386 -2.73515,1.15386c0,0 -2.43534,1.22285 -2.54604,2.85333c-0.1107,1.63047 -0.77488,5.40094 -0.77488,5.40094z" opacity="NaN" fill="#46673D"/>
    <path stroke="#46673D" stroke-width="0" id="svg_435" d="m216.67451,387.18796c0,0 0.1107,-2.85333 0.77488,-3.66857c0.66418,-0.81523 2.1586,1.32476 3.65301,-1.32476c1.49442,-2.64951 1.66047,-4.38189 1.62818,-4.4148c0.03229,0.03291 -2.73515,1.15386 -2.73515,1.15386c0,0 -2.43534,1.22285 -2.54604,2.85333c-0.1107,1.63047 -0.77488,5.40094 -0.77488,5.40094z" opacity="NaN" fill="#46673D"/>
    <path stroke="#46673D" transform="rotate(-180 200.519 374.332)" stroke-width="0" id="svg_436" d="m198.38426,377.844c0,0 0.07801,-2.12979 0.54607,-2.73831c0.46806,-0.6085 1.52121,0.98883 2.57435,-0.98883c1.05315,-1.97765 1.17016,-3.27074 1.14741,-3.29531c0.02275,0.02457 -1.92752,0.86127 -1.92752,0.86127c0,0 -1.71623,0.91277 -1.79424,2.12979c-0.07801,1.21702 -0.54607,4.03139 -0.54607,4.03139z" opacity="NaN" fill="#46673D"/>
    <path stroke="#46673D" transform="rotate(-180 225.171 200.774)" stroke-width="0" id="svg_437" d="m220.88246,204.44271c0,0 2.6292,-0.7823 3.29338,-1.59754c0.66418,-0.81523 2.1586,1.32476 3.65301,-1.32476c1.49442,-2.64951 1.66047,-4.38189 1.62818,-4.4148c0.03229,0.03291 -2.73515,1.15386 -2.73515,1.15386c0,0 -2.43534,1.22285 -2.54604,2.85333c-0.1107,1.63047 -1.01356,2.59953 -3.29338,3.32991z" opacity="NaN" fill="#46673D"/>
    <path stroke="#46673D" transform="rotate(29 203.998 229.005)" stroke-width="0" id="svg_438" d="m200.96875,233.70884c0,0 0.1107,-2.85333 0.77488,-3.66857c0.66418,-0.81523 2.1586,1.32476 3.65301,-1.32476c1.49442,-2.64951 1.66047,-4.38189 1.62818,-4.4148c0.03229,0.03291 -2.73515,1.15386 -2.73515,1.15386c0,0 -2.43534,1.22285 -2.54604,2.85333c-0.1107,1.63047 -0.77488,5.40094 -0.77488,5.40094z" opacity="NaN" fill="#46673D"/>
    <path stroke="#46673D" transform="rotate(172 390.178 370.455)" stroke-width="0" id="svg_439" d="m387.1485,375.15922c0,0 0.1107,-2.85333 0.77488,-3.66857c0.66418,-0.81523 2.1586,1.32476 3.65301,-1.32476c1.49442,-2.64951 1.66047,-4.38189 1.62818,-4.4148c0.03229,0.03291 -2.73515,1.15386 -2.73515,1.15386c0,0 -2.43534,1.22285 -2.54604,2.85333c-0.1107,1.63047 -0.77488,5.40094 -0.77488,5.40094z" opacity="NaN" fill="#46673D"/>
    <path stroke="#46673D" transform="rotate(8 395.487 344.353)" stroke-width="0" id="svg_440" d="m392.45774,349.05723c0,0 0.1107,-2.85333 0.77488,-3.66857c0.66418,-0.81523 2.1586,1.32476 3.65301,-1.32476c1.49442,-2.64951 1.66047,-4.38189 1.62818,-4.4148c0.03229,0.03291 -2.73515,1.15386 -2.73515,1.15386c0,0 -2.43534,1.22285 -2.54604,2.85333c-0.1107,1.63047 -0.77488,5.40094 -0.77488,5.40094z" opacity="NaN" fill="#46673D"/>
    <path stroke="#46673D" transform="rotate(-7 396.551 259.681)" stroke-width="0" id="svg_441" d="m393.52179,264.38532c0,0 0.1107,-2.85333 0.77488,-3.66857c0.66418,-0.81523 2.1586,1.32476 3.65301,-1.32476c1.49442,-2.64951 1.66047,-4.38189 1.62818,-4.4148c0.03229,0.03291 -2.73515,1.15386 -2.73515,1.15386c0,0 -2.43534,1.22285 -2.54604,2.85333c-0.1107,1.63047 -0.77488,5.40094 -0.77488,5.40094z" opacity="NaN" fill="#46673D"/>
    <path stroke="#46673D" transform="rotate(-8 395.944 302.17)" stroke-width="0" id="svg_442" d="m392.91481,306.87394c0,0 0.1107,-2.85333 0.77488,-3.66857c0.66418,-0.81523 2.1586,1.32476 3.65301,-1.32476c1.49442,-2.64951 1.66047,-4.38189 1.62818,-4.4148c0.03229,0.03291 -2.73515,1.15386 -2.73515,1.15386c0,0 -2.43534,1.22285 -2.54604,2.85333c-0.1107,1.63047 -0.77488,5.40094 -0.77488,5.40094z" opacity="NaN" fill="#46673D"/>
    <path stroke="#46673D" transform="rotate(136 376.369 206.115)" stroke-width="0" id="svg_443" d="m373.3397,210.81931c0,0 0.1107,-2.85333 0.77488,-3.66857c0.66418,-0.81523 2.1586,1.32476 3.65301,-1.32476c1.49442,-2.64951 1.66047,-4.38189 1.62818,-4.4148c0.03229,0.03291 -2.73515,1.15386 -2.73515,1.15386c0,0 -2.43534,1.22285 -2.54604,2.85333c-0.1107,1.63047 -0.77488,5.40094 -0.77488,5.40094z" opacity="NaN" fill="#46673D"/>
    <path stroke="#46673D" transform="rotate(-101 346.795 200.678)" stroke-width="0" id="svg_444" d="m345.8459,205.15293c0,0 -2.29738,-2.3939 -1.6332,-3.20914c0.66418,-0.81523 2.1586,1.32476 3.65301,-1.32476c1.49442,-2.64951 1.66047,-4.38189 1.62818,-4.4148c0.03229,0.03291 -2.73515,1.15386 -2.73515,1.15386c0,0 -2.43534,1.22285 -2.54604,2.85333c-0.1107,1.63047 0.76423,3.84509 1.6332,4.94151z" opacity="NaN" fill="#46673D"/>
    <path stroke="#46673D" transform="rotate(-180 391.907 312.132)" stroke-width="0" id="svg_445" d="m389.77182,315.64304c0,0 0.07801,-2.12979 0.54607,-2.73831c0.46806,-0.6085 1.52121,0.98884 2.57435,-0.98883c1.05315,-1.97765 1.17017,-3.27074 1.14741,-3.2953c0.02276,0.02456 -1.92751,0.86126 -1.92751,0.86126c0,0 -1.71624,0.91277 -1.79425,2.12979c-0.07801,1.21702 -0.54607,4.03139 -0.54607,4.03139z" opacity="NaN" fill="#46673D"/>
    <path stroke="#46673D" transform="rotate(-162 391.373 353.402)" stroke-width="0" id="svg_446" d="m389.23834,356.91384c0,0 0.07801,-2.12979 0.54607,-2.73831c0.46806,-0.6085 1.52121,0.98884 2.57435,-0.98883c1.05315,-1.97765 1.17017,-3.27074 1.14741,-3.2953c0.02276,0.02456 -1.92751,0.86126 -1.92751,0.86126c0,0 -1.71624,0.91277 -1.79425,2.12979c-0.07801,1.21702 -0.54607,4.03139 -0.54607,4.03139z" opacity="NaN" fill="#46673D"/>
    <path stroke="#46673D" transform="rotate(107 232.281 201.732)" stroke-width="0" id="svg_447" d="m229.25157,206.43611c0,0 0.1107,-2.85333 0.77488,-3.66857c0.66418,-0.81523 2.1586,1.32476 3.65301,-1.32476c1.49442,-2.64951 1.66047,-4.38189 1.62818,-4.4148c0.03229,0.03291 -2.73515,1.15386 -2.73515,1.15386c0,0 -2.43534,1.22285 -2.54604,2.85333c-0.1107,1.63047 -0.77488,5.40094 -0.77488,5.40094z" opacity="NaN" fill="#46673D"/>
    <path stroke="#46673D" transform="rotate(100 214.099 215.065)" stroke-width="0" id="svg_448" d="m211.06976,219.76944c0,0 0.1107,-2.85333 0.77488,-3.66857c0.66418,-0.81523 2.1586,1.32476 3.65301,-1.32476c1.49442,-2.64951 1.66047,-4.38189 1.62818,-4.4148c0.03229,0.03291 -2.73515,1.15386 -2.73515,1.15386c0,0 -2.43534,1.22285 -2.54604,2.85333c-0.1107,1.63047 -0.77488,5.40094 -0.77488,5.40094z" opacity="NaN" fill="#46673D"/>
    <path stroke="#46673D" transform="rotate(-72 198.432 226.919)" stroke-width="0" id="svg_449" d="m195.9854,228.74296c-0.64328,0.39094 1.77836,-0.4377 1.8348,-0.6515c0.05643,-0.2138 1.18253,1.13428 2.13148,-0.45397c0.94897,-1.58825 1.05441,-2.62672 1.03391,-2.64645c0.0205,0.01973 -1.73684,0.69168 -1.73684,0.69168c0,0 -1.74161,0.98067 -1.61675,1.71043c0.12486,0.72976 -1.00333,0.95887 -1.6466,1.34981z" opacity="NaN" fill="#46673D"/>
    <path stroke="#46673D" transform="rotate(117 209.071 344.138)" stroke-width="0" id="svg_450" d="m206.04174,348.84228c0,0 0.1107,-2.85333 0.77488,-3.66857c0.66418,-0.81523 2.1586,1.32476 3.65301,-1.32476c1.49442,-2.64951 1.66047,-4.38189 1.62818,-4.4148c0.03229,0.03291 -2.73515,1.15386 -2.73515,1.15386c0,0 -2.43534,1.22285 -2.54604,2.85333c-0.1107,1.63047 -0.77488,5.40094 -0.77488,5.40094z" opacity="NaN" fill="#46673D"/>
    <path stroke="#46673D" id="svg_451" d="m396.49004,394.19025c0,0 -9.09088,-1.88087 -12.22567,-0.62695c-3.13479,1.25391 -7.21002,3.76174 -16.61439,4.07522c-9.40436,0.31348 -12.53915,-3.44827 -20.06265,-3.76174c-7.52349,-0.31348 -9.09089,0.31347 -19.43569,1.88087c-10.34481,1.56739 -14.10655,-1.5674 -20.68961,-1.88087c-6.58306,-0.31348 -15.04699,-0.31348 -17.24134,0.94043c-2.19435,1.25392 -13.87662,3.76767 -20.45968,0.3194c-6.58306,-3.44827 -12.13621,-4.38871 -15.98447,-4.32291c-3.84825,0.06579 -6.59489,3.12295 -10.82242,4.31403c-4.22752,1.19108 -3.96208,0.87465 -11.8826,-0.46578c-7.92052,-1.34042 -18.2025,6.66069 -22.27476,5.32618c-4.07227,-1.3345 -9.87607,-5.95314 -7.36528,-9.01029c2.51079,-3.05716 4.70219,-0.61217 9.01326,-1.00327c4.31108,-0.39111 5.32618,-10.52078 4.07227,-13.34209c-1.25392,-2.82132 -2.66605,-4.07227 -6.74128,-3.13183c-4.07522,0.94043 -5.64262,6.26957 -1.25391,7.21001c4.3887,0.94044 1.87199,-17.36336 -0.94932,-17.99032" opacity="NaN" fill="none"/>
    <path stroke="#46673D" id="svg_452" d="m205.58138,373.81412" opacity="NaN" fill-opacity="0.1" fill="none"/>
    <path stroke="#46673D" id="svg_453" d="m212.12232,373.76313c-21.85633,-7.24621 -12.41645,-26.26644 -11.08491,-32.55081c1.33155,-6.28438 -2.19731,-12.15397 -2.51079,-18.43539c-0.31348,-6.28141 0,-8.54452 2.11969,-12.46448c2.11968,-3.91997 3.60648,-4.06635 3.293,-9.70897c-0.31347,-5.64262 -1.57035,-9.48496 -1.57035,-11.05235c0,-1.5674 0.4717,-6.90246 -0.78222,-10.03725c-1.25391,-3.13479 -5.0275,-7.04292 -2.43908,-11.04643c2.58842,-4.00352 6.27254,-8.08762 5.01862,-13.41676c-1.25391,-5.32914 -3.91404,-2.86639 -3.91404,-2.86639" opacity="NaN" fill-opacity="0.1" fill="none"/>
    <path stroke="#46673D" id="svg_454" d="m198.20555,246.24547c1.11469,1.48252 -1.65095,3.77359 0.47169,4.95283c2.12265,1.17925 4.24529,-2.83019 4.24529,-5.18868c0,-2.35849 -1.65095,-3.30188 -2.35849,-5.89622c-0.70755,-2.59434 4.00943,-12.73585 3.30188,-16.50944c-0.70754,-3.77358 -3.06603,-2.83019 -3.77358,-4.95283c-0.70755,-2.12264 4.24528,-2.35849 4.95283,-4.48113c0.70755,-2.12264 -4.48113,-3.06604 -1.65094,-4.95283c2.83018,-1.88679 10.6132,1.88679 13.67924,0.9434c3.06604,-0.9434 -4.24528,-8.96227 -0.9434,-8.25472c3.30189,0.70755 5.66038,0.23585 9.90566,0.70755c4.24529,0.4717 10.14151,1.41509 12.26415,-0.9434c2.12265,-2.35849 0.9434,-4.48113 5.89623,-5.42453c4.95283,-0.94339 10.14151,4.48114 15.09434,6.36793c4.95283,1.88679 8.72642,-5.66038 19.10377,-6.13208c10.37736,-0.4717 15.56604,8.49057 20.99057,7.07547c5.42453,-1.41509 12.26415,-7.54717 14.38679,-6.36792c2.12264,1.17924 5.9026,9.13756 15.5756,0.49082" opacity="NaN" fill="none"/>
    <path stroke="#46673D" id="svg_455" d="m397.66226,250.34301c-5.31294,-4.75796 3.40069,-18.87111 0.69799,-24.20321c-2.70271,-5.3321 4.18154,-20.28302 2.09077,-25.95614c-2.09077,-5.67313 -6.14483,-4.04449 -7.55992,-3.33695c-1.4151,0.70755 -0.69799,7.25395 -0.05737,10.90005c0.64062,3.6461 -11.57892,4.24529 -12.58605,-1.49477c-1.00714,-5.74006 4.4142,-5.56157 -0.31553,-7.71927c-4.72973,-2.1577 -11.49924,2.37761 -13.7908,3.11384c-2.29156,0.73623 -8.37264,-0.52269 -10.01083,-0.99439c-1.6382,-0.4717 -5.41178,2.33618 -7.33045,-1.64776c-1.91866,-3.98393 -8.48738,-3.80864 -12.5,-2.59434c-4.01262,1.21431 -2.827,0.50039 -5.42452,4.00944c-2.59753,3.50905 -8.79654,7.62047 -13.9151,3.53773c-5.11856,-4.08274 -9.73993,-3.67797 -12.36614,-6.68026c-2.62621,-3.0023 -10.51122,-0.15936 -13.57725,1.49158c-3.06604,1.65095 -4.24529,3.77359 -4.00944,5.66038c0.23585,1.88679 0.9434,4.24528 5.89623,5.18868c4.95283,0.9434 6.13207,-1.17924 6.13207,-3.53774c0,-2.35849 -5.18868,-6.60377 -6.36792,-2.83018c-1.17925,3.77358 3.06604,8.72641 3.53774,10.14151" opacity="NaN" fill-opacity="0.1" fill="none"/>
   </g>
  </g>
 </g>

</svg>