<svg width="200" height="200" xmlns="http://www.w3.org/2000/svg">
 <g id="Layer_1">
  <title>Layer 1</title>
  <g id="svg_12">
   <path d="m26.4652,159.43223c0.27472,0 0.55357,0.06714 1.0989,0c1.12424,-0.1384 1.98582,-0.23405 2.74725,-0.54945c0.71789,-0.29736 1.61361,-0.90894 2.1978,-1.09891c1.58918,-0.51678 2.7579,-0.41742 3.57143,-0.54944c0.85754,-0.13916 1.91399,-0.61102 3.57143,-0.82419c3.00965,-0.38707 6.86813,-0.82417 9.61539,-0.82417c1.0989,0 2.17646,-0.07512 3.02198,-0.27472c1.89064,-0.44632 4.12088,-0.82417 6.04396,-0.82417c0.54945,0 1.0722,-0.0616 1.64835,-0.27473c1.06236,-0.39299 3.27683,-0.88785 4.94506,-1.37363c1.08755,-0.3167 1.66305,-0.42322 2.1978,-0.54945c0.59787,-0.14113 1.61217,-0.62872 2.74725,-1.09889c0.80263,-0.33246 1.37717,-0.50545 1.64835,-0.54945c0.85754,-0.13916 1.66063,-0.4839 3.2967,-0.82417c1.10899,-0.23065 1.66306,-0.42322 2.19781,-0.54945c0.59786,-0.14113 1.39517,-0.49171 2.1978,-0.82417c0.56754,-0.23508 1.0989,-0.27472 1.0989,-0.27472c0.54945,-0.27473 1.0989,-0.54947 2.1978,-0.82419c1.09891,-0.27473 1.37363,-0.54944 1.64835,-0.54944c0.27473,0 1.34026,-0.41029 2.1978,-0.54945c0.54236,-0.08801 1.37639,0.0779 2.47253,0c1.93771,-0.13771 4.38419,-0.6866 6.86813,-0.82417c0.54861,-0.03038 0.82418,0 1.0989,0c0.27473,0 0.82418,0 1.64835,0c0.54945,0 0.82418,0 1.0989,0c0,0 0.54945,0 1.64835,0c0.54945,0 1.05048,0.13359 1.64835,0.27472c0.53475,0.12624 1.62302,0.13632 2.74725,0.27472c0.818,0.10069 0.90463,0.08047 1.0989,0.27473c0.19426,0.19426 1.1283,0.29698 2.1978,0.54945c1.19574,0.28227 2.21594,0.79056 2.74725,1.09889c0.85673,0.49718 2.74725,0.82417 4.94505,1.37363c2.19781,0.54945 3.80997,0.90346 4.94506,1.37363c1.60525,0.66492 3.97218,0.73186 6.04395,1.64835c1.81172,0.80145 2.1978,1.09891 2.74725,1.64836c0.54945,0.54945 1.94281,0.73935 3.29671,1.09889c1.67931,0.44597 2.15733,0.59702 2.47252,0.82419c0.99669,0.71838 3.29671,0.82417 5.76924,1.37363c2.47252,0.54944 3.57143,0.54945 4.12086,0.82417c0.54945,0.27473 2.19975,0.2578 4.67033,0.54945c2.19963,0.25967 4.08752,0.95973 4.94505,1.09889c1.3559,0.22003 3.57983,0.48219 6.04396,0.82417c1.65521,0.22972 1.93488,0.46985 2.1978,0.54945c0.94803,0.28705 1.93001,0.51685 3.29671,0.82417c1.10512,0.2485 1.47928,0.33292 1.64835,0.54945c0.6971,0.89282 2.72661,0.62769 4.67033,1.09891c1.36139,0.33005 1.40051,1.05067 1.92308,1.37363c0.23369,0.14442 0.62991,0.35518 0.82417,0.54944c0.19426,0.19426 0,0.54945 0,0.54945c0,0.54945 0.08046,0.90465 0.27472,1.09891c0.19426,0.19426 -0.30162,0.77594 -0.82417,1.09889c-0.23369,0.14442 -0.54945,0 -1.92308,0c-1.64835,0 -3.84615,0.27473 -5.49451,0.27473c-0.54944,0 -1.09889,0 -1.64835,0c-0.54945,0 -1.64835,0 -3.29671,0c-1.09889,0 -2.1978,0 -3.29669,0c-1.64836,0 -3.85147,-0.10403 -6.59341,-0.27473c-2.21062,-0.13762 -3.84615,-0.54944 -5.49451,-0.54944c-1.92308,0 -4.40091,0.17072 -7.14285,0c-2.21062,-0.13763 -4.12088,-0.27473 -5.49451,-0.27473c-1.92308,0 -4.67033,0 -7.96703,0c-3.02198,0 -4.94974,-0.16142 -6.31868,-0.27472c-1.6654,-0.13783 -3.57143,-0.54945 -6.31868,-0.54945c-2.19781,0 -4.10625,-0.13701 -6.04396,-0.27472c-1.6442,-0.11685 -3.57143,0 -6.04395,0c-2.47253,0 -4.68062,-0.16783 -6.04395,0c-1.12423,0.1384 -2.47624,0.15523 -4.39561,0.27472c-2.21062,0.13762 -4.09554,0.41106 -5.21978,0.54945c-1.09067,0.13428 -1.92308,0 -3.2967,0c-1.64835,0 -3.55439,0.13689 -5.21978,0.27472c-0.82137,0.06798 -1.89774,0.13634 -3.02198,0.27473c-1.636,0.2014 -3.84615,0 -5.49451,0c-1.64835,0 -3.2967,0 -4.94505,0c-2.47253,0 -4.95255,0.18127 -7.14286,0c-1.6654,-0.13783 -3.02198,-0.27473 -4.94506,-0.27473c-1.37363,0 -3.30007,0.12154 -5.49451,0c-2.48394,-0.13757 -4.87832,-0.54585 -6.5934,-0.82417c-2.16942,-0.35205 -3.82082,-0.13632 -4.94506,-0.27472c-0.54533,-0.06714 -1.37363,0 -2.1978,0c-1.0989,0 -2.1978,0 -3.2967,0c-0.82417,0 -2.21554,0.22003 -3.57143,0c-0.85754,-0.13916 -1.37363,-0.27473 -1.64835,-0.27473c-0.54945,0 -1.0989,0 -1.37363,0c-0.27472,0 -0.35519,0.19426 -0.54945,0c-0.19426,-0.19426 0,-0.54945 0,-0.82417c0,-0.27472 0,-0.82417 0,-1.09891c0,-0.27472 0,-0.27472 0,-0.82417c0,-0.27472 0.27472,-0.54945 0.27472,-0.54945c0.27472,-0.27472 0.06446,-0.59126 0.27472,-1.09889c0.29736,-0.7179 0.54945,-1.09891 0.54945,-1.09891c0.54945,-0.27472 0.90464,-0.35518 1.0989,-0.54944c0.19427,-0.19426 0,-0.27473 0.27472,-0.27473c0.27472,0 0.54945,0 0.82418,0c0.27472,0 0.54945,0 0.54945,0l0.54945,0l0,0" id="svg_4" stroke="#000000" fill="#000000"/>
   <path d="m93.22344,150.09157c0,-0.27472 0,-0.54944 0,-0.54944c0,-0.27473 -0.13359,-0.50104 -0.27473,-1.09891c-0.50495,-2.13901 0.03414,-5.77164 -0.27472,-9.89011c-0.2474,-3.29887 -0.27473,-6.04396 -0.27473,-7.96703c0,-1.64835 0.41192,-3.83588 0.54945,-6.59341c0.1779,-3.567 0.1371,-7.40476 0.27473,-9.61539c0.13657,-2.19355 -0.05325,-4.12924 0.27473,-6.04395c0.47301,-2.76144 0.82417,-5.49451 1.0989,-8.51649c0.27473,-3.02198 0.53253,-5.22172 0.82418,-7.69231c0.25967,-2.19963 0.56182,-4.39439 0.82417,-7.14286c0.28834,-3.02071 0.57659,-5.21655 0.82417,-7.41758c0.30862,-2.74365 0.41272,-4.94884 0.54945,-7.41758c0.13757,-2.48394 0.27473,-4.3956 0.27473,-6.31868c0,-1.37363 0.13689,-3.00493 0.27472,-4.67033c0.15862,-1.91652 0,-4.12088 0,-5.76923c0,-1.64835 -0.13876,-3.02759 -0.27472,-4.67033c-0.13783,-1.66539 -0.09345,-3.02946 -0.27473,-5.21978c-0.13783,-1.66539 -0.27473,-3.02198 -0.27473,-4.3956c0,-1.0989 0,-2.1978 0,-3.57143c0,-1.37363 0,-2.74725 0,-3.84616c0,-0.82417 0,-1.37363 0,-1.92308c0,-0.54945 0,-1.0989 0,-1.64835c0,-0.54945 -0.08447,-0.87528 0.27473,-1.37363c0.22717,-0.31518 0.29564,-0.71905 0.54945,-0.82417c0.35895,-0.14868 0.509,-0.597 0.82418,-0.82418c0.49834,-0.35919 0.54945,-0.27472 0.82417,-0.27472c0,0 0.16959,0.02091 0.27473,0.27472c0.29736,0.71789 0.54945,0.82418 1.0989,1.37363c0.27473,0.27473 0.48634,0.5568 0.54945,0.82418c0.14114,0.59787 0.54945,1.0989 0.82417,1.92308c0.27473,0.82417 0.43118,1.13544 0.82417,2.1978c0.21313,0.57615 0.54945,1.37363 0.54945,2.1978c0,1.0989 0.24213,1.93 0.54945,3.2967c0.2485,1.10513 0.1427,2.20845 0.27472,3.02198c0.13916,0.85754 0.27473,1.92308 0.27473,3.02198c0,1.37363 0,2.1978 0,3.02198c0,0.82418 0,1.92308 0,3.02198c0,1.37363 0,2.74725 -0.27473,3.84615c-0.27472,1.0989 -0.41141,2.72687 -0.54945,4.12088c-0.16242,1.64033 -0.13877,3.57704 -0.27473,5.21978c-0.13783,1.66539 -0.68578,3.27137 -0.82417,4.3956c-0.16783,1.36333 -0.27473,2.74725 -0.27473,4.3956c0,1.0989 0.10828,2.20315 0,3.29671c-0.13804,1.394 -0.41142,2.72686 -0.54945,4.12087c-0.13535,1.36694 -0.13669,2.45215 -0.27473,3.84615c-0.10828,1.09356 0.16783,2.2081 0,3.57143c-0.1384,1.12423 -0.27472,2.74725 -0.27472,4.12088c0,1.37363 -0.13359,2.14938 -0.27473,2.74725c-0.18936,0.80213 -0.27473,1.37363 -0.27473,2.47253c0,0.54945 -0.13557,1.61498 -0.27473,2.47253c-0.17603,1.08471 -0.13689,2.45548 -0.27472,4.12088c-0.13596,1.64273 -0.41162,3.27966 -0.54945,4.94505c-0.13596,1.64274 -0.41142,2.72687 -0.54945,4.12088c-0.10828,1.09355 0,2.47253 -0.27472,3.2967c-0.27473,0.82417 -0.14271,1.93372 -0.27473,2.74725c-0.13916,0.85754 -0.41142,2.17741 -0.54945,3.57143c-0.16242,1.64034 0.03259,3.57835 -0.27473,4.94506c-0.2485,1.10513 -0.27472,1.92307 -0.27472,2.1978c0,0.54945 0,1.0989 0,1.92307c0,1.09891 0,1.92308 0,2.74725c0,0.82418 0,1.92308 0,3.02198c0,1.37363 -0.27473,2.74725 -0.27473,3.84616c0,1.09889 0,1.64835 0,2.1978c0,0 0,0.54944 0,1.09889c0,0.27473 0,0.82417 0,1.37363c0,0.82417 0,1.37363 0,1.92308c0,0.82417 0,1.64835 0,2.74725c0,1.09891 0,1.92308 0,2.47252c0,0.54945 0,1.09891 0.27473,1.37363l0,0.27473" id="svg_7" stroke="#000000" fill="#000000"/>
   <path d="m39.37729,27.01465c0.27472,0 0.27472,0 1.92308,0c2.1978,0 4.3956,-0.27472 6.31868,-0.27472c2.74725,0 6.31868,0 10.71429,0c4.67033,0 7.69231,0 9.61538,0c1.37363,0 3.57143,0 6.86813,0c4.12088,0 7.42236,-0.15364 9.89011,0c2.21062,0.13763 4.3956,0.27472 8.51648,0.27472c4.67033,0 7.99896,-0.39606 10.43956,0c0.85754,0.13916 2.19781,0.54945 4.12088,0.54945c3.57143,0 7.14286,0 9.61539,0c1.0989,0 1.64835,0 3.02197,0c2.74725,0 6.04396,0 8.79121,0c2.19781,0 3.02199,0 3.84616,0c1.37363,0 3.02197,0 4.67033,0c0.82417,0 1.37363,0 1.92307,0c1.37363,0 2.74725,0 4.94505,0c1.09891,0 1.92308,0 2.47253,0c1.37363,0 3.00493,-0.13689 4.67033,-0.27472c1.09515,-0.09064 1.92308,0 2.74725,0c1.92307,0 4.3956,0 6.04395,0c1.09891,0 1.64836,0 2.19781,0c1.37363,0 3.57143,0 5.49449,0c1.09891,0 1.37363,0 1.64836,0c0,0 0.83481,-0.13202 1.64835,0c0.85754,0.13916 1.09891,0.27472 1.37363,0.27472c0.54945,0 1.37363,0 2.1978,0c0.54945,0 0.54945,0.27472 0.82419,0.27472c0.27472,0 0.54944,0.27472 1.09889,0.27472c0.54945,0 0.54945,0 0.82417,0c0.27473,0 0.27473,0.27472 0.27473,0.27472c0,0.27473 0,0.27473 0,0.27473c-0.27473,0 -1.05067,0.30162 -1.37363,0.82417c-0.14442,0.2337 -0.27473,0.27472 -0.54945,0.27472c-0.27472,0 -0.51608,0.13556 -1.37363,0.27472c-0.54236,0.08801 -0.82417,0 -1.09891,0c0,0 -0.24135,0.13556 -1.09889,0.27472c-1.3559,0.22003 -2.74725,0.27473 -3.29671,0.27473c-0.54945,0 -1.09891,0 -1.64835,0c-0.82419,0 -2.47253,0 -3.84616,0c-1.09889,0 -2.47252,0 -3.57143,0c-1.09891,0 -2.47253,0 -3.84616,0c-1.37363,0 -2.48671,0.17603 -3.57143,0c-0.85754,-0.13916 -1.92307,-0.27473 -3.02197,-0.27473c-1.09891,0 -2.1978,0 -3.84616,0c-1.37363,0 -2.47252,-0.27472 -3.29669,-0.27472c-0.27473,0 -0.82417,0 -2.1978,0c-1.37363,0 -2.47253,0 -3.02199,0c-0.54945,0 -1.09889,0 -2.74725,0c-2.47252,0 -4.6916,0.26404 -6.31868,0c-0.85754,-0.13916 -1.37363,-0.27472 -2.47253,-0.27472c-1.64835,0 -3.30905,0.2014 -4.94505,0c-1.12423,-0.1384 -1.64835,-0.27472 -2.1978,-0.27472c-0.54945,0 -2.2081,0.16783 -3.57143,0c-1.12423,-0.1384 -1.92307,-0.27472 -2.74725,-0.27472c-1.37362,0 -3.02197,0 -4.67033,0c-1.0989,0 -1.92307,0 -2.47253,0c-0.82417,0 -1.92308,0 -3.29671,0c-1.37362,0 -1.92307,0 -3.02197,0c-0.82418,0 -2.19781,0 -3.84615,0c-1.0989,0 -1.64835,0 -2.74725,0c-1.37363,0 -3.00494,0.13689 -4.67033,0.27472c-1.09515,0.09064 -1.65452,-0.1007 -2.47253,0c-1.12423,0.1384 -2.1978,0.27472 -3.84615,0.27472c-1.37363,0 -2.1978,0 -3.2967,0c-0.82418,0 -2.47253,0 -4.39561,0c-2.1978,0 -3.2967,0 -4.39561,0c-1.0989,0 -1.92307,0 -3.2967,0c-2.1978,0 -3.57143,0 -4.3956,0c-0.54945,0 -1.37363,0 -2.47253,0c-1.64835,0 -3.02198,0 -4.12088,0c-0.82418,0 -1.64835,0 -2.74725,0c-1.64835,0 -3.86744,0.26404 -5.49451,0c-0.85754,-0.13916 -1.0989,-0.27472 -1.64835,-0.27472c-0.54945,0 -1.92308,0 -3.2967,0c-0.54945,0 -1.0989,0 -1.64835,0c-0.54945,0 -1.94791,0.30804 -3.84615,0c-0.85754,-0.13916 -1.0989,-0.27472 -1.64835,-0.27472c-0.54945,0 -0.54945,0 -0.54945,-0.27472c0,-0.27472 -0.27473,-0.27472 -0.27473,-0.27472c0,-0.27473 0,-0.54945 0,-0.54945c0.27473,-0.27472 0.27473,-0.54945 0.54945,-0.54945c0,0 0.19051,-0.12605 0.54945,-0.27472c0.25381,-0.10513 0.27473,-0.27473 0.27473,-0.27473c0.27472,0 0.54945,0 0.54945,0c0.27473,0 0.54945,0 0.54945,0c0.27473,0 0.54945,-0.27472 1.0989,-0.27472c0.54945,0 0.54945,0 0.82417,0c0.27473,0 0.27473,0 0.54945,0l0.27473,0l0,0" id="svg_8" stroke="#000000" fill="#000000"/>
   <path d="m169.8718,29.7619c-0.27473,0 -0.33919,0.04182 -0.54945,0.54945c-0.29736,0.71789 -0.26059,0.63151 -0.54945,1.0989c-0.32297,0.52256 -0.79057,0.56758 -1.09891,1.0989c-0.49718,0.85672 -1.15117,1.6158 -1.64835,2.47253c-0.30833,0.53132 -0.23405,1.16164 -0.54945,1.92308c-0.29736,0.71789 -1.25381,1.47465 -2.1978,2.47253c-0.68071,0.71958 -0.99377,1.66926 -1.09891,1.92307c-0.29735,0.71789 -0.79056,1.11704 -1.09889,1.64835c-0.49718,0.85673 -0.82417,1.64835 -1.09891,1.92308c-0.54944,0.54944 -0.82417,0.82418 -1.09889,1.37363c-0.27473,0.54945 -0.80154,0.93046 -1.09891,1.64835c-0.21027,0.50763 -0.54945,0.82418 -0.54945,0.82418c0,0.27473 -0.06445,0.31655 -0.27472,0.82418c-0.29736,0.71789 -0.73972,1.15 -1.09891,1.64835c-0.22717,0.31518 -0.27472,0.54945 -0.54944,1.0989c-0.27473,0.54945 -0.465,1.15 -0.82419,1.64835c-0.45435,0.63036 -0.48631,0.83153 -0.54944,1.0989c-0.14114,0.59788 -0.54945,1.0989 -0.82419,1.64835c-0.27472,0.54945 -0.52681,0.38101 -0.82417,1.0989c-0.21027,0.50763 -0.19026,0.87527 -0.54945,1.37363c-0.45435,0.63036 -0.96707,1.46255 -1.37361,1.92308c-0.65555,0.74259 -0.74565,1.43178 -1.37363,2.1978c-0.49263,0.60092 -0.94795,0.94794 -1.64836,1.64835c-0.70042,0.70042 -1.1557,1.59689 -1.64835,2.1978c-0.62799,0.76602 -1.09891,1.37363 -1.64836,1.92308c-0.82417,0.82417 -1.42589,1.34108 -1.92307,2.1978c-0.30833,0.53132 -0.82419,0.82418 -1.37363,1.37363c-0.54945,0.54945 -1.02171,1.45885 -1.92308,2.1978c-0.76602,0.62799 -1.46873,1.01798 -1.92308,1.64835c-0.35919,0.49834 -1.02036,1.43178 -1.64835,2.1978c-0.49265,0.60092 -1.15001,1.01443 -1.64836,1.37363c-0.63036,0.45435 -1.02036,0.88233 -1.64835,1.64835c-0.49265,0.60091 -0.90933,1.19162 -1.64835,1.64835c-0.661,0.40852 -1.01443,1.42473 -1.37363,1.92307c-0.45435,0.63037 -0.93924,0.66453 -1.37363,1.0989c-0.43439,0.43438 -0.66454,0.66452 -1.09891,1.0989c-0.43437,0.43438 -0.54945,0.82418 -0.82417,1.09891c-0.27472,0.27472 -0.62991,0.35519 -0.82417,0.54945c-0.19426,0.19426 -0.32583,0.46499 -0.82418,0.82418c-0.31519,0.22717 -0.57634,1.05067 -1.0989,1.37363c-0.2337,0.14443 -0.74326,0.64455 -1.37363,1.0989c-0.49835,0.35918 -0.93925,0.66452 -1.37363,1.0989c-0.43438,0.43437 -0.54945,0.54945 -0.54945,0.82417c0,0.27473 -0.27473,0.27473 -0.27473,0.27473c-0.27473,0 -0.54945,0.27473 -0.54945,0.54945c0,0.27472 -0.54945,0.54945 -0.54945,0.54945c-0.54945,0.54945 -0.46523,0.95023 -0.82418,1.0989c-0.25381,0.10513 -0.32228,-0.04046 -0.54945,0.27473c-0.35919,0.49835 -0.46499,0.87527 -0.82418,1.37363c-0.45434,0.63037 -0.19426,0.35519 0,0.54945c0.19426,0.19426 0.10629,0.80154 0.82418,1.0989c0.50762,0.21027 0.8652,0.40501 1.0989,0.54945c0.52256,0.32296 0.40501,0.59048 0.54945,0.82418c0.32296,0.52256 0.87528,0.46498 1.37363,0.82417c0.63037,0.45435 1.0989,0.82418 1.64835,1.37363c0.54945,0.54945 1.64835,0.82417 2.74725,1.37363c1.64835,0.82417 2.66634,1.46873 3.29671,1.92308c0.49835,0.35918 1.61215,0.90346 2.74725,1.37363c0.80263,0.33246 1.60788,0.597 1.92307,0.82417c0.49835,0.35919 1.11378,0.11887 1.92308,0.27473c1.45274,0.27977 2.47253,0.54945 3.29671,0.82417c0.82417,0.27473 2.47627,0.12419 5.49451,0.27473c2.75752,0.13754 5.21977,0.54945 6.31868,0.54945c0.82417,0 1.37363,0 2.74725,0c1.92308,0 3.57143,0 4.67033,0c0.27472,0 0.80962,-0.06673 1.92307,-0.27472c2.17726,-0.4067 4.37857,-0.96107 6.04396,-1.09891c0.54758,-0.04532 0.81409,-0.04407 1.92308,-0.27472c1.63608,-0.34028 3.61552,-0.44548 5.21977,-0.82418c0.59787,-0.14114 0.82419,-0.27472 0.82419,-0.27472c0.54944,-0.27473 1.59993,-0.68304 2.1978,-0.82418c0.53474,-0.12624 0.84775,-0.1155 1.37363,-0.27473c0.94803,-0.28704 1.81621,-0.52969 2.47252,-1.0989c0.46408,-0.40249 0.54945,-0.54945 0.54945,-0.54945c0.54945,-0.27473 1.64835,-0.82418 2.74725,-1.37363c0.54945,-0.27473 0.90465,-0.62992 1.09891,-0.82418c0.19426,-0.19426 0.87172,-0.23426 1.09889,-0.54945c0.35918,-0.49835 0.54945,-0.54946 0.82417,-0.82418c0.27473,-0.27473 0.30162,-1.05067 0.82417,-1.37363c0.2337,-0.14444 0.35519,-0.35519 0.54945,-0.54945c0.19426,-0.19426 -0.38852,-0.71038 0,-1.0989c0.19426,-0.19427 0.1696,-0.02091 0.27473,-0.27473c0.14868,-0.35895 0.27472,-0.54945 0.27472,-0.82418c0,-0.54945 0.37985,-0.57036 0.27472,-0.82417c-0.14868,-0.35895 -0.27472,-0.27473 -0.27472,-0.27473c-0.27472,-0.54945 -0.54945,-0.82417 -0.54945,-1.0989c0,-0.27473 -0.40077,-0.46522 -0.54945,-0.82417c-0.10513,-0.25381 -0.40831,-0.50104 -0.54944,-1.0989c-0.12624,-0.53475 -0.40077,-1.01469 -0.54945,-1.37363c-0.21027,-0.50763 -0.25209,-0.93046 -0.54945,-1.64835c-0.42053,-1.01525 0,-2.1978 -0.27472,-3.84615c-0.27473,-1.64835 -0.68578,-2.72192 -0.82417,-3.84615c-0.06714,-0.54533 0,-1.0989 0,-1.92308c0,-0.54945 -0.40833,-1.32521 -0.54945,-1.92307c-0.12624,-0.53475 -0.27473,-1.0989 -0.27473,-1.37363c0,-0.54945 -0.27472,-1.37363 -0.54944,-2.47253c-0.27473,-1.0989 -0.50749,-1.93443 -0.82419,-3.02198c-0.24289,-0.83411 -0.50748,-1.38498 -0.82417,-2.47253c-0.24289,-0.83411 -0.95973,-1.61499 -1.09889,-2.47253c-0.08801,-0.54236 -0.06447,-1.41545 -0.27473,-1.92308c-0.29736,-0.7179 -0.5891,-1.08081 -0.82417,-1.64835c-0.33246,-0.80263 -0.27472,-1.0989 -0.54945,-1.64835c-0.27472,-0.54945 -0.27472,-1.0989 -0.54945,-1.64835c-0.27472,-0.54945 -0.68303,-1.05048 -0.82417,-1.64835c-0.12624,-0.53476 -0.40831,-1.05048 -0.54945,-1.64835c-0.18936,-0.80213 -0.29695,-1.67775 -0.54944,-2.74725c-0.14114,-0.59787 -0.31062,-1.13426 -0.54945,-1.92308c-0.28705,-0.94804 -0.54945,-1.37363 -0.82417,-2.47253c-0.27473,-1.0989 -0.27473,-1.64835 -0.54945,-2.47253c-0.27472,-0.82418 -0.20758,-1.37774 -0.27472,-1.92308c-0.1384,-1.12424 -0.68304,-1.59993 -0.82419,-2.1978c-0.18936,-0.80213 -0.27472,-1.37363 -0.27472,-1.92308c0,-0.82418 -0.54945,-1.64835 -0.54945,-2.1978c0,-0.54945 -0.40831,-1.05048 -0.54945,-1.64835c-0.12624,-0.53475 -0.13359,-0.77576 -0.27472,-1.37363c-0.12624,-0.53475 -0.27472,-1.0989 -0.27472,-1.37363c0,-0.27472 -0.27473,-0.82417 -0.27473,-0.82417c-0.27472,0 -0.27472,-0.54945 -0.27472,-0.82418c0,-0.27472 0,-0.54945 0,-0.82417c0,0 -0.27473,-0.54945 -0.27473,-0.54945c-0.27472,-0.54945 -0.27472,-1.0989 -0.27472,-1.0989c-0.27472,0 -0.27472,0 -0.27472,0.27472c0,0.27472 0,0.27472 0,0.54945c0,0.27472 0,0.82418 0,1.0989c0,0.27472 0,0.54945 0,1.0989c0,0.54945 0,1.0989 0,1.37362c0,0.27473 0,0.54945 0,0.54945c0,0.27472 0.27472,0.54945 0.27472,1.0989c0,0.54945 0,1.0989 0,1.0989c0.27472,0.54945 0.35519,0.90463 0.54945,1.0989c0.58278,0.58278 0,1.0989 0,1.64835c0,0.54945 0.14848,0.56415 0.27472,1.0989c0.14114,0.59787 0.27473,0.54945 0.27473,1.0989c0,0.54945 0.27472,0.54945 0.27472,0.82418c0,0.27472 0.27472,0.54945 0.27472,0.82417c0,0.54945 0,1.0989 0,1.64835c0,0.54945 0.27473,0.54945 0.27473,0.82418c0,0.27472 0.27472,0.82417 0.27472,1.37363c0,0.54945 0.27473,1.0989 0.27473,1.64835c0,0.54945 -0.04068,0.88691 0.27472,1.64835c0.29736,0.7179 0.63481,1.39568 0.82417,2.1978c0.14114,0.59787 0.26607,1.21211 0.82417,2.1978c0.19142,0.33809 0.40077,1.01468 0.54945,1.37363c0.21027,0.50763 0.42322,0.83887 0.54945,1.37363c0.14113,0.59787 0.40831,1.05048 0.54945,1.64835c0.18936,0.80213 0.40831,1.32521 0.54944,1.92308c0.06313,0.26738 -0.12624,0.28942 0,0.82418c0.14114,0.59787 0.06447,1.14072 0.27473,1.64835c0.14868,0.35894 0.21159,0.83153 0.27472,1.0989c0.14114,0.59787 0.40833,1.05048 0.54945,1.64835c0.18935,0.80213 -0.18935,1.39567 0,2.1978c0.14113,0.59787 0.41029,1.34026 0.54945,2.1978c0.08801,0.54236 0.13556,1.34026 0.27472,2.19781c0.08801,0.54235 0.27473,1.0989 0.27473,1.64835c0,0.54945 0.13556,1.61499 0.27472,2.47253c0.13202,0.81354 0.27472,1.37363 0.27472,1.92308c0,0.54945 0.13359,0.77575 0.27473,1.37363c0.18936,0.80212 0.27472,1.37363 0.27472,1.92307c0,0.54945 0,1.37363 0,1.92308c0,0.54945 0.40833,1.32521 0.54945,1.92307c0.12624,0.53475 -0.06313,0.83153 0,1.09891c0.14113,0.59786 0.40831,1.05048 0.54945,1.64835c0.12624,0.53475 -0.12624,1.1136 0,1.64835c0.14113,0.59787 0.54945,0.54945 0.54945,1.0989c0,0.54945 0.16959,1.11981 0.27472,1.37363c0.14868,0.35895 0.27472,0.82418 0.27472,1.37363c0,0 0,0.54945 0,0.82418c0,0.27472 0.08047,0.08045 0.27473,0.27472c0.19426,0.19426 0,0.54945 0,0.54945c0,0.27473 0,0.54945 0,0.54945c0,0.27473 0,0.54945 -0.27473,0.54945c0,0 -0.50102,0.40832 -1.09889,0.54945c-0.26738,0.06312 -0.54945,0 -0.54945,0c-0.27472,0 -1.09891,0 -1.64835,0c-0.54945,0 -0.82419,0 -1.09891,0c-0.54945,0 -0.82417,0 -1.64835,0c-0.54945,0 -1.09891,0 -1.64836,0c-0.54944,0 -1.09889,0 -2.47252,0.27472c-1.37363,0.27473 -2.50194,0.29698 -3.57143,0.54945c-0.59787,0.14114 -1.10954,0.14271 -1.92308,0.27473c-0.85754,0.13916 -1.01469,0.40077 -1.37363,0.54945c-0.50763,0.21027 -0.82417,0 -1.09891,0c-0.27472,0 -0.54945,0 -0.54945,0c-0.54944,0.27473 -1.34024,0.41029 -2.1978,0.54945c-0.81354,0.13202 -1.09889,0 -1.64835,0c-0.27472,0 -1.09891,0 -1.92308,0c-0.82417,0 -1.92308,0 -2.47252,0c-0.54945,0 -1.6521,-0.09064 -2.74725,0c-1.66541,0.13783 -3.02199,0.27473 -3.84616,0.27473c-0.27472,0 -0.54945,0 -1.09889,0c-1.09891,0 -2.47253,0 -3.29671,0c-0.54945,0 -0.82417,0 -1.37363,0c-0.82417,0 -1.92308,0 -3.57143,0c-0.82417,0 -1.64836,0 -2.1978,0c-0.54945,0 -1.659,0.13202 -2.47253,0c-0.85754,-0.13916 -1.37363,-0.27473 -2.1978,-0.27473c-0.54945,0 -1.6566,-0.14046 -2.74725,-0.27473c-1.12424,-0.1384 -1.73352,-0.0927 -2.47253,-0.54945c-0.33049,-0.20425 -0.82417,-0.27473 -1.37362,-0.27473c-0.82418,0 -0.73996,-0.12605 -1.0989,-0.27473c-0.25381,-0.10513 -0.54945,-0.27473 -0.82418,-0.27473c-0.27473,0 -0.35519,-0.08047 -0.54945,-0.27473c-0.19426,-0.19426 -0.27473,-0.27472 -0.27473,-0.27472c-0.27473,0 -0.27473,-0.27473 -0.27473,-0.54945c0,0 0,-0.27473 0,-0.54945c0,0 0,-0.27472 0,-0.54945c0,0 0,-0.27473 0,-0.54945c0,0 -0.38852,-0.71038 0,-1.0989c0.19426,-0.19426 0.16959,-0.02091 0.27473,-0.27473c0.14868,-0.35894 0.597,-0.50899 0.82417,-0.82417c0.35919,-0.49835 0.54945,-0.82417 0.82418,-1.0989c0.27472,-0.27473 0.71904,-0.84509 0.82417,-1.0989c0.29736,-0.7179 0.73996,-0.95023 1.09891,-1.0989c0.25381,-0.10513 0.77592,-0.30162 1.09889,-0.82418c0.14444,-0.2337 0.46523,-0.67549 0.82417,-0.82417c0.25381,-0.10514 0.57635,-0.77594 1.09891,-1.0989c0.23369,-0.14443 0.60056,-0.465 1.09889,-0.82418c0.31519,-0.22717 0.82419,-0.82417 1.09891,-1.0989c0.27472,-0.27473 0.27472,-0.27473 0.82417,-0.82417c0.54945,-0.54945 0.82417,-0.54945 1.37363,-1.0989c0.27473,-0.27473 0.82417,-0.54946 1.37363,-1.09891c0.27473,-0.27473 0.82417,-0.54945 1.09891,-1.0989c0.27472,-0.54945 0.82417,-0.82417 1.37363,-1.37363c0.54945,-0.54945 1.13992,-1.22919 1.37363,-1.37363c0.52255,-0.32296 0.35519,-0.90464 0.54945,-1.0989c0.38852,-0.38851 0.54944,-0.54944 0.82417,-0.82417c0.27472,-0.27473 0.16959,-0.29564 0.27472,-0.54945c0.14868,-0.35895 0.35519,-0.62991 0.54945,-0.82417c0.19426,-0.19426 0.27472,-0.54945 0.54945,-0.82418c0.27472,-0.27472 0.4232,-1.1136 0.54944,-1.64835c0.14114,-0.59788 0.54945,-0.82418 0.54945,-0.82418c0.27473,-0.54945 0.54945,-0.54945 0.54945,-0.82417c0,-0.27473 0,-0.82418 0.27472,-0.82418c0.27473,0 0.27473,-0.27472 0.27473,-0.54945c0,0 -0.19426,-0.08046 0,-0.27472c0.19426,-0.19426 0.27472,-0.27473 0.54945,-0.27473c0,0 -0.19426,-0.35519 0,-0.54945c0.19426,-0.19426 0.54944,-0.54945 0.54944,-0.54945c0,0 0.54945,-0.27473 0.54945,-0.54945c0,0 0.23427,-0.32228 0.54945,-0.54945c0.49835,-0.35919 0.16093,-0.71038 0.54945,-1.0989c0.38852,-0.38852 0.81003,-0.63151 1.09889,-1.0989c0.32297,-0.52256 0.95023,-0.46523 1.09891,-0.82418c0.10513,-0.25381 0.40501,-0.59048 0.54945,-0.82418c0.32297,-0.52256 0.54945,-0.54945 1.09889,-1.0989c0.54945,-0.54945 0.66454,-0.93925 1.09891,-1.37363c0.43437,-0.43438 0.60056,-0.73972 1.09889,-1.0989c0.63037,-0.45435 1.01443,-1.15001 1.37363,-1.64835c0.22717,-0.31519 0.40077,-0.19051 0.54945,-0.54945c0.10513,-0.25381 0.1696,-0.29564 0.27473,-0.54945c0.14868,-0.35894 0.40076,-0.46523 0.54944,-0.82418c0.21027,-0.50763 0.27473,-0.82418 0.54945,-1.0989c0,0 0.12605,-0.1905 0.27473,-0.54945c0.10513,-0.25381 0.27472,-0.54946 0.54944,-1.0989c0.27473,-0.54945 -0.11378,-0.71038 0.27473,-1.0989c0.19426,-0.19426 0.33919,-0.59127 0.54945,-1.0989c0.29735,-0.71789 0.67549,-0.73995 0.82417,-1.0989c0.21027,-0.50763 0.27472,-0.54945 0.27472,-1.0989c0,0 0.33919,-0.59127 0.54945,-1.0989c0.14868,-0.35894 0.44432,-0.84509 0.54945,-1.0989c0.14868,-0.35894 0.33919,-0.866 0.54945,-1.37363c0.29735,-0.71788 0.46498,-0.87527 0.82417,-1.37362c0.22717,-0.31518 0.13029,-0.59048 0.27472,-0.82418c0.32297,-0.52256 0.54945,-0.82418 0.54945,-0.82418c0.27472,-0.54945 0.54945,-0.82418 0.82417,-1.37363c0.27472,-0.54945 0.82417,-1.37363 0.82417,-1.64835c0,-0.27473 0.40077,-0.46523 0.54945,-0.82418c0.10513,-0.25381 0.16093,-0.98511 0.54945,-1.37363c0.19426,-0.19426 0.465,-0.32582 0.82417,-0.82417c0.22717,-0.31518 0.27472,-0.54945 0.82417,-1.0989c0,0 0.32228,-0.23427 0.54945,-0.54945c0.35918,-0.49835 0.54945,-1.0989 1.09891,-1.64835c0,0 0,-0.27472 0.27472,-0.54945c0,0 0.43565,-0.16093 0.82417,-0.54945c0.38852,-0.38852 0,-0.54945 0,-0.54945c0.27473,0 0.54945,-0.27472 0.54945,-0.54945l0,0" id="svg_9" stroke="#000000" fill="#000000"/>
   <path d="m44.87179,29.7619c-0.27472,0 -0.41029,-0.03337 -0.54945,0.82417c-0.13202,0.81353 -0.42501,1.67922 -0.82418,3.02198c-0.42156,1.41811 -0.91689,2.83242 -1.37363,3.57143c-0.20425,0.33049 -0.60769,0.88592 -1.0989,2.1978c-0.77667,2.07427 -1.92308,3.02198 -2.47253,3.57143c-0.54945,0.54945 -0.69571,1.15355 -1.0989,1.92308c-0.63751,1.21673 -2.06557,2.89594 -3.02198,4.12088c-0.98583,1.26263 -1.37363,2.1978 -1.64835,2.74725c-0.27472,0.54945 -0.65525,1.75056 -1.37363,2.74725c-0.90869,1.26073 -1.72763,2.43634 -2.1978,3.57143c-0.33246,0.80262 -1.04229,1.9471 -1.64835,3.2967c-0.50331,1.12078 -0.99194,1.96684 -1.37363,2.74725c-0.43519,0.88981 -1.15222,1.89246 -1.92308,3.2967c-0.88683,1.61551 -1.91553,2.92514 -2.1978,4.12088c-0.25248,1.0695 -0.69818,1.56667 -1.0989,2.47253c-0.45825,1.03589 -0.9596,2.53681 -1.64835,3.84615c-0.46114,0.87665 -0.60627,1.32216 -1.0989,1.92308c-0.62799,0.76602 -0.93652,1.86163 -1.64835,3.2967c-0.65741,1.32536 -1.36131,2.07395 -1.64835,3.02198c-0.07961,0.26294 -0.27472,0.82417 -0.54945,1.37363c-0.54945,1.0989 -1.75176,1.67041 -2.1978,2.74725c-0.21026,0.50762 -0.02091,0.44431 -0.27472,0.54945c-0.35895,0.14868 -0.50122,0.30162 -0.82418,0.82418c-0.28886,0.46738 -0.27473,0.82417 -0.27473,0.82417c0,0.27473 -0.27472,0.27473 -0.27472,0.54945c0,0 0,0.27472 0,0.54945c0,0.27473 -0.21026,0.866 0,1.37363c0.14868,0.35895 0.27472,1.0989 0.27472,1.37363c0,0.27473 -0.10513,0.57037 0,0.82418c0.14868,0.35894 0.27473,0.27472 0.27473,0.54945c0,0 0.02091,0.16959 0.27473,0.27473c0.71789,0.29736 0.67974,1.13993 0.82418,1.37363c0.32296,0.52256 0.54945,0.27473 0.82418,0.54945c0.27473,0.27473 0.1905,0.6755 0.54945,0.82418c0.25381,0.10513 0.54945,0.27473 0.82418,0.54945c0.54945,0.54945 1.19401,1.01799 1.64835,1.64835c0.35919,0.49835 0.93925,0.66453 1.37363,1.0989c0.43438,0.43438 1.06635,0.87645 1.92308,1.37363c0.53132,0.30833 0.93046,1.07627 1.64835,1.37363c0.50763,0.21027 1.15,0.19026 1.64835,0.54945c0.63037,0.45434 1.06272,0.62873 2.1978,1.0989c0.80263,0.33246 1.52449,0.81186 2.47253,1.0989c0.78881,0.23883 1.38498,0.23276 2.47253,0.54945c1.66822,0.48579 3.85308,0.79157 5.21978,1.0989c1.10513,0.2485 1.65236,0.46823 2.47253,0.54945c1.39401,0.13804 3.27966,0.41162 4.94506,0.54945c1.64273,0.13596 2.74725,0 3.84615,0c1.37363,0 3.18492,-0.68009 5.49451,-1.0989c1.6219,-0.29411 2.45443,-0.31437 3.02198,-0.54945c0.80263,-0.33246 2.16162,-0.90346 3.2967,-1.37363c0.80263,-0.33246 1.53456,-0.43565 1.92308,-0.82417c0.19426,-0.19426 1.16319,-0.41015 2.47253,-1.0989c0.87665,-0.46114 1.88262,-0.87173 2.1978,-1.0989c0.49835,-0.35918 0.94727,-0.11616 1.64835,-0.54945c0.52256,-0.32296 0.65574,-0.80154 1.37363,-1.0989c0.50763,-0.21027 1.70651,-0.47091 2.47253,-1.0989c0.60091,-0.49264 1.17937,-0.90464 1.37363,-1.0989c0.19426,-0.19426 0.87527,-0.19026 1.37363,-0.54945c0.31518,-0.22717 0.62991,-0.35519 0.82417,-0.54945c0.19426,-0.19426 0.27473,-0.54945 0.27473,-0.54945c0.27473,-0.27473 0.27473,-0.54945 0.54945,-1.0989c0.27473,-0.54945 0.41029,-1.34026 0.54945,-2.19781c0.04401,-0.27117 0.27473,-0.54945 0.27473,-0.82417c0,-0.27473 0,-0.82417 0,-1.0989c0,-0.27473 0,-0.54945 0,-0.82418c0,-0.54945 -0.08047,-1.45409 -0.27473,-1.64835c-0.19426,-0.19426 -0.16959,-0.02091 -0.27473,-0.27473c-0.14868,-0.35895 -0.51583,-0.84231 -0.82417,-1.37363c-0.49718,-0.85672 -1.01443,-1.69946 -1.37363,-2.1978c-0.45435,-0.63037 -0.76644,-0.84573 -1.0989,-1.64835c-0.47017,-1.13509 -1.22209,-2.14441 -1.64835,-3.29671c-0.393,-1.06236 -0.54945,-1.92307 -0.82417,-2.74725c-0.27473,-0.82418 -0.36594,-1.71136 -0.82418,-2.74725c-0.40073,-0.90586 -0.54945,-1.64835 -0.82417,-2.47253c-0.27472,-0.82417 -0.50573,-1.42077 -0.82418,-2.47253c-0.28704,-0.94803 -0.86382,-1.63026 -1.0989,-2.1978c-0.33246,-0.80263 -0.81186,-0.97504 -1.0989,-1.92308c-0.23883,-0.78881 -0.37408,-2.00698 -1.0989,-3.2967c-0.67297,-1.19748 -1.31589,-1.94463 -1.64835,-2.74725c-0.23508,-0.56754 -0.54945,-1.37363 -1.0989,-2.1978c-0.54945,-0.82418 -1.0989,-1.92308 -1.64835,-2.74725c-0.54945,-0.82418 -1.19401,-1.84216 -1.64835,-2.47253c-0.71838,-0.9967 -0.94016,-2.25021 -1.37363,-3.2967c-0.61303,-1.47997 -1.33273,-2.60585 -1.92308,-3.84615c-0.48681,-1.02278 -0.67264,-2.41914 -1.0989,-3.57143c-0.39299,-1.06236 -0.58909,-1.90498 -0.82418,-2.47253c-0.33246,-0.80263 -0.31437,-1.35553 -0.54945,-1.92308c-0.33246,-0.80263 -0.63482,-1.6704 -0.82418,-2.47253c-0.14114,-0.59787 -0.48633,-0.83152 -0.54945,-1.0989c-0.14114,-0.59787 -0.49172,-1.39517 -0.82418,-2.1978c-0.47017,-1.13509 -0.82417,-1.37363 -0.82417,-1.64835c0,0 -0.25209,-0.38101 -0.54945,-1.0989c-0.21027,-0.50763 -0.27472,-0.82417 -0.54945,-1.0989c0,0 0,-0.27472 0,-0.54945c0,0 -0.16959,-0.02091 -0.27472,-0.27472c-0.14868,-0.35895 -0.27473,-0.27472 -0.54945,-0.54945c-0.27473,-0.27473 -0.27473,-0.27472 -0.54945,-0.27472c0,0 0,0.27472 0,0.82417c0,1.37363 0.27473,2.47253 0.27473,2.74725c0,0.27472 -0.10513,0.57036 0,0.82417c0.29736,0.71789 0.81186,1.24977 1.0989,2.1978c0.15922,0.52588 0.54945,1.37363 0.82418,2.1978c0.27473,0.82417 0.94736,1.86968 1.37363,3.02198c0.39299,1.06236 0.77594,1.40052 1.0989,1.92308c0.14443,0.23369 0,0.54945 0.27473,1.0989c0.27472,0.54945 0.49172,1.39518 0.82418,2.1978c0.23508,0.56754 0.61992,1.04313 0.82417,1.37363c0.45673,0.73901 0.36593,1.43664 0.82418,2.47253c0.40072,0.90586 0.87173,1.60789 1.0989,1.92308c0.35919,0.49835 0.27473,0.82418 0.54945,1.37363c0.27472,0.54945 0.54945,1.37363 0.82417,1.92308c0.27473,0.54945 0.54945,0.82418 0.82418,1.64835c0.27473,0.82417 0.54945,1.37362 0.82418,2.1978c0.27472,0.82418 0.27472,1.37363 0.54945,1.92308c0.27473,0.54945 0.68578,1.07357 0.82418,2.1978c0.06713,0.54533 0.27472,1.0989 0.27472,1.0989c0.27473,0.54945 0.3452,1.04313 0.54945,1.37363c0.45673,0.73901 0.53714,1.52449 0.82418,2.47253c0.15922,0.52588 0.41029,0.79081 0.54945,1.64835c0.08801,0.54235 0.58128,1.36369 0.82418,2.1978c0.3167,1.08755 0.68502,1.88972 0.82418,2.74725c0.04401,0.27118 0.40831,0.50103 0.54945,1.0989c0.12624,0.53475 0.27472,1.37363 0.54945,2.19781c0.27472,0.82417 0.54945,1.0989 0.54945,1.64835c0,0.54945 0.31062,1.13427 0.54945,1.92308c0.28704,0.94804 0.77594,1.40052 1.0989,1.92307c0.28887,0.46739 0.07047,1.04314 0.27472,1.37363c0.45674,0.73901 0.27473,1.37363 0.54945,1.92308c0.27472,0.54945 0.27472,1.0989 0.54945,1.64835c0.27472,0.54945 0.27472,0.54945 0.27472,1.0989c0,0.27473 0.40831,1.05048 0.54945,1.64835c0.12624,0.53475 0.27473,0.82417 0.27473,1.37362c0,0.27473 0.27473,0.82418 0.27473,1.37363c0,0.27473 -0.27473,0.27473 -0.54945,0.27473c-0.27472,0 -0.73995,0.12605 -1.0989,0.27473c-0.50763,0.21027 -1.10954,0.14271 -1.92308,0.27473c-0.85754,0.13916 -1.87466,0.68304 -2.47253,0.82417c-0.26738,0.06312 -0.79748,0.06159 -1.37363,0.27473c-1.06236,0.393 -2.50907,0.7059 -3.57143,1.0989c-0.57615,0.21313 -0.83887,0.14849 -1.37363,0.27473c-0.59787,0.14114 -1.85635,0.82058 -3.57143,1.0989c-0.81353,0.13202 -1.37363,0 -1.92308,0c-0.82418,0 -1.84396,0.26968 -3.2967,0.54945c-1.07907,0.20781 -1.92308,0 -2.1978,0c-0.27472,0 -0.82417,0 -1.0989,0c-0.82418,0 -1.64835,0 -2.1978,0c-0.82417,0 -1.32521,-0.13359 -1.92308,-0.27473c-0.53475,-0.12624 -1.0989,0 -1.64835,0c-0.54945,0 -1.37363,-0.27473 -1.92308,-0.27473c-0.54945,0 -0.82418,0 -1.37363,-0.27473c-0.54945,-0.27473 -1.34026,-0.41029 -2.1978,-0.54945c-0.54235,-0.08801 -0.59127,-0.06446 -1.0989,-0.27473c-0.71789,-0.29736 -1.3483,-0.68578 -2.47253,-0.82417c-1.09067,-0.13426 -1.69018,-0.06446 -2.1978,-0.27473c-0.35895,-0.14868 -1.06554,-0.41029 -1.92308,-0.54945c-1.08471,-0.17603 -1.64835,0 -1.92308,0c-0.27473,0 -0.81795,-0.02622 -1.92308,-0.27473c-1.3667,-0.30732 -2.76817,-0.16959 -3.02198,-0.27472c-0.35895,-0.14868 -0.54945,-0.27473 -0.82418,-0.54945c0,0 -0.35519,0.19426 -0.54945,0c-0.19426,-0.19426 -0.40502,-0.59048 -0.54945,-0.82417c-0.32296,-0.52256 -0.54945,-0.27473 -0.82418,-0.27473c-0.27472,0 -0.27472,-0.27473 -0.27472,-0.54945c0,0 0.19426,-0.35519 0,-0.54945c-0.19426,-0.19426 -0.54945,-0.54945 -0.54945,-0.82418c0,-0.27472 0.19426,-0.35519 0,-0.54945c-0.19426,-0.19426 -0.35519,-0.08047 -0.54945,-0.27473c-0.19426,-0.19426 0,-0.54945 0,-0.54945c0,-0.54945 0,-1.37363 0.27472,-2.1978c0.27472,-0.82417 0.68304,-1.3252 0.82418,-1.92307c0.18936,-0.80213 0.36744,-1.45879 0.82418,-2.19781c0.20426,-0.3305 0.36983,-0.74326 0.82418,-1.37363c0.35919,-0.49834 0.66371,-1.03326 1.0989,-1.92307c0.38169,-0.78043 1.07627,-1.20518 1.37363,-1.92308c0.10513,-0.25381 0.31575,-0.40501 0.54945,-0.54945c0.52256,-0.32296 0.46499,-0.87528 0.82417,-1.37363c0.45435,-0.63037 0.82418,-1.37363 0.82418,-1.37363c0.27472,0 0.16959,-0.29564 0.27472,-0.54945c0.29736,-0.71789 0.77594,-1.12579 1.0989,-1.64835c0.28886,-0.46738 0.04103,-0.95447 0.27473,-1.0989c0.52256,-0.32296 0.75695,-1.95934 1.37363,-3.02198c0.49718,-0.85672 0.76644,-1.6699 1.0989,-2.47253c0.23508,-0.56754 0.54945,-1.0989 0.54945,-1.37363c0,-0.27473 0.04755,-0.50899 0.27473,-0.82418c0.35919,-0.49835 0.27472,-1.0989 0.54945,-1.64835c0.27472,-0.54945 0.68304,-1.05048 0.82417,-1.64835c0.06312,-0.26737 0,-0.54945 0,-0.54945c0.27473,-0.54945 0.54945,-1.0989 0.54945,-1.0989c0.27472,-0.54945 0.54945,-0.82418 0.54945,-1.0989c0,-0.54945 0.35519,-0.62991 0.54945,-0.82417c0.19426,-0.19426 0.22649,-0.30162 0.54945,-0.82418c0.28886,-0.46739 0.04103,-0.95447 0.27472,-1.0989c0.52256,-0.32296 0.64217,-0.90934 1.0989,-1.64835c0.20426,-0.33049 0.6755,-0.46523 0.82417,-0.82418c0.10513,-0.25381 0.11507,-0.66452 0.54945,-1.0989c0.43438,-0.43438 0.44432,-0.57036 0.54945,-0.82418c0.29736,-0.71789 0.73971,-0.87527 1.0989,-1.37363c0.22717,-0.31518 0.58909,-0.80608 0.82418,-1.37362c0.33246,-0.80263 0.91928,-1.56744 1.37362,-2.1978c0.35919,-0.49835 0.35519,-0.62992 0.54945,-0.82418c0.19426,-0.19426 0.19026,-0.87528 0.54945,-1.37363c0.45435,-0.63037 0.54945,-0.82418 0.82417,-1.0989c0.27473,-0.27473 0.52682,-0.38101 0.82418,-1.0989c0.21027,-0.50763 0.54945,-1.0989 0.82418,-1.64835c0.27472,-0.54945 0.46498,-1.15 0.82418,-1.64835c0.45434,-0.63037 0.47091,-0.88233 1.0989,-1.64835c0.24632,-0.30046 0.54945,-0.54945 0.54945,-0.82417c0,-0.27472 0.19026,-0.60055 0.54945,-1.0989c0.45434,-0.63037 0.48633,-1.10625 0.54945,-1.37363c0.14114,-0.59787 0.54945,-1.0989 0.82418,-1.64835c0.27473,-0.54945 0.16959,-0.84509 0.27473,-1.0989c0.14868,-0.35894 0.33918,-0.59128 0.54945,-1.0989c0.14868,-0.35894 0.27472,-0.54945 0.27472,-0.54945l0.27473,-0.27472l0,-0.27472l0,0" id="svg_11" stroke="#000000" fill="#000000"/>
  </g>
 </g>

</svg>