<svg width="800" height="800" xmlns="http://www.w3.org/2000/svg" stroke="null">
 <g id="Layer_1" stroke="null">
  <title stroke="null">Layer 1</title>
  <path fill="#845335" stroke-width="0" opacity="undefined" d="m404.848,755.48866c-126.79586,0 -223.52653,-16.92818 -229.50051,-49c-5.97398,-32.07182 102.70465,-49 229.50051,-49c126.79586,0 229.50051,21.92818 229.50051,49c0,27.07182 -102.70465,49 -229.50051,49z" id="svg_3" stroke="#000000"/>
  <path fill="#381e10" stroke="#000000" stroke-width="0" opacity="NaN" d="m140.3485,495.48865c10,81 6,43 20,119c14,76 15,75 16,76c1,1 9,14 34,25c25,11 51,15 87,20c36,5 61,3 91,3c30,0 53,-4 104,-6c51,-2 112,-16 126,-22c14,-6 24,-42 32,-78c8,-36 16,-83 21,-182.99999c5,-100 5,-93 -2,-157c-7,-64 -1.99996,-132.99997 -17.99998,-185.99998c-16.00002,-53.00001 -251.99998,-77.99998 -381.99999,-51c-130.00001,26.99998 -115.00001,51.99998 -116,51c0.99998,0.99998 -21.00002,204.99998 -21.00002,258.99998c0,54 -2,49 8,130l-0.00001,-0.00001z" id="svg_6"/>
  <ellipse fill="#845335" stroke-width="0" cx="401.84849" cy="104.48866" id="svg_1" rx="230.49999" ry="49" stroke="#000000"/>
  <ellipse fill="#000000" stroke-width="0" cx="402.84849" cy="105.98866" id="svg_14" rx="247.49999" ry="60.49999" fill-opacity="0.19" stroke="#000000"/>
  <path fill="#000000" stroke="#000000" stroke-width="0" fill-opacity="0.19" opacity="NaN" d="m172.3485,128.48866c0,0 -7,118 -7.99998,117.00002c0.99998,0.99998 -4.00002,124.99998 -4.00002,124.99998c0,0 3,133 4,133c1,0 24,123 24,123c0,0 12,84 12,84c0,0 -23,-15 -23,-16c0,-1 -29,-130 -30,-130c-1,0 -15,-153 -15.99998,-153.99997c0.99998,0.99998 3.99998,-128.00002 3,-129c0.99998,0.99998 14.99998,-123.00002 14.99998,-123.00002c0,0 4,-52 3.00002,-52.99998c0.99998,0.99998 -1.00002,10.99998 19.99998,22.99998l0,-0.00001z" id="svg_16"/>
  <path fill="#000000" stroke="#000000" stroke-width="0" fill-opacity="0.19" opacity="NaN" d="m664.43739,163.41743c-5.19048,27.07936 -1.44444,79.90476 -2.44442,78.90478c0.99998,0.99998 -13.52383,107.53966 -12.73018,138.49204c0,34.92063 -6.52381,93.31745 2.4127,132.99999c8.93651,39.68254 4.53225,83.83095 9.29415,123.51349c1.5873,34.12698 9.33897,45.25117 7.2381,45.85811c-2.10088,0.60694 -21.78622,17.8665 -26.54812,24.00936c-4.7619,6.14286 -13.12698,-110.15873 -17.30159,-137.93651c-4.1746,-27.77778 -7.47615,-89.12694 -6.47617,-131.77775c0.99998,-42.65081 13.11113,-187.14284 8.55556,-159.15873c-4.55558,27.98411 20.55554,-123.00002 20.55554,-123.00002c0,0 24.22226,-50.82536 27.60319,-45.85712c3.38093,4.96823 -4.96827,26.873 -10.15875,53.95236l-0.00001,0z" id="svg_26" transform="rotate(180 646.54 408.276)"/>
  <path fill="#000000" stroke="#000000" stroke-width="0" fill-opacity="0.19" opacity="NaN" d="m204.13267,140.70874c0,0 -3.35898,113.20512 -3.35898,113.20512c0,0 2,123.99999 2,123.99999c0,0 -2.00003,75.99976 -1.00003,120.99999c4.00002,38.0002 15.00003,112 15.00003,112c0,0 10,93 10,93c0,0 0,18 0,18c0,0 38,8 38,8c0,0 -12,-128 -13,-128c-1,0 -11.00003,-76.99981 -11.00003,-111.99999c-6.00003,-25.00013 0.00003,-122 -0.99995,-122.99998c0.99998,0.99998 1.99998,-110.00001 1,-111c0.99998,0.99999 -0.00002,-72.00001 -1,-73c0.99998,0.99999 1.92305,-24.56411 1.92305,-32.56411c-14.4359,-1 -23.4359,-2.64102 -37.56409,-9.64102z" id="svg_23"/>
  <path fill="#000000" stroke="#000000" stroke-width="0" fill-opacity="0.19" opacity="NaN" d="m286.02204,161.29033c-3.14556,2.82656 -3.93701,108.58085 -3.93701,108.58085c0,0 2,123.99999 2,123.99999c0,0 -2.00003,75.99976 -1.00003,120.99999c4.00002,38.0002 15.00003,112 15.00003,112c0,0 10,93 10,93c0,0 0,18 0,18c0,0 11.20272,-1.80388 35.38563,1.46408c-5.88233,-33.98679 -9.38563,-121.46408 -10.38563,-121.46408c-1,0 -11.00003,-76.99981 -11.00003,-111.99999c-6.00003,-25.00013 0.00003,-122 -0.99995,-122.99998c0.99998,0.99998 1.99998,-110.00001 1,-111c0.99998,0.99999 -0.00002,-72.00001 -1,-73c0.99998,0.99999 1.92305,-26.87624 1.92305,-34.87624c-14.4359,-1 -33.8405,-5.53119 -36.98606,-2.70462z" id="svg_34"/>
  <path fill="#000000" stroke="#000000" stroke-width="0" fill-opacity="0.19" opacity="NaN" d="m579.89731,152.60505c0,0 -17.64469,103.1309 -17.64469,103.1309c0,0 0.49624,97.6842 0.49624,123.99999c-2.25564,27.06767 -5.00755,99.30803 -4.00755,144.30826c4.00002,38.0002 3.72183,60.1203 8.98499,88.69173c0.75188,19.54887 4.8937,36.89518 6.12069,55.30003c0.6135,5.52146 14.40563,55.69997 14.40563,55.69997c0,0 18.78678,-7.51122 40.08179,-9.78789c-3.68097,-20.24534 -14.08179,-110.21211 -15.08179,-110.21211c-1,0 -11.00003,-76.99981 -11.00003,-111.99999c0.13492,-32.36207 0.00003,-122 -0.99995,-122.99998c0.99998,0.99998 1.99998,-110.00001 1,-111c0.99998,0.99999 7.51878,-56.21054 7.27068,-73c0.99998,-11.03008 2.9517,-33.92339 2.9517,-41.92339c-14.4359,1.45398 -18.44951,5.13607 -32.5777,9.79248l-0.00001,0z" id="svg_25" transform="rotate(-180 593.432 433.274)"/>
  <path fill="#000000" stroke="#000000" stroke-width="0" fill-opacity="0.19" opacity="NaN" d="m493.99341,167.30032c0,0 -3.35898,97.86774 -3.35898,97.86774c0,0 2,123.99999 2,123.99999c0,0 -2.00003,75.99976 -1.00003,120.99999c4.00002,38.0002 15.00003,112 15.00003,112c0,0 2.63806,38.39894 3.86505,56.80379c0.6135,5.52146 3.82282,36.85521 5.55692,50.14998c16.18493,-1.15607 39.24828,-1.55704 38.57803,-2.67765c-0.67025,-1.12061 -12,-113.27612 -13,-113.27612c-1,0 -11.00003,-76.99981 -11.00003,-111.99999c0.13492,-32.36207 0.00003,-122 -0.99995,-122.99998c0.99998,0.99998 1.99998,-110.00001 1,-111c0.99998,0.99999 -0.00002,-72.00001 -1,-73c0.99998,0.99999 0.69606,-26.40459 0.69606,-34.40459c-14.4359,1.45398 -22.20891,2.88043 -36.3371,7.53684z" id="svg_37" transform="rotate(-180 522.642 444.443)"/>
  <path fill="#000000" stroke="#000000" stroke-width="0" fill-opacity="0.19" opacity="NaN" d="m360.82049,167.27278c2.61437,17.64699 1.21616,107.90082 1.21616,107.90082c0,0 2,123.99999 2,123.99999c0,0 3.19485,75.99976 4.19485,120.99999c4.01695,64.11003 0.65486,120.4967 3.26923,134.22214c3.92156,33.3332 3.46408,48.55573 2.81049,83.84971c2.61437,-3.92156 8.4967,1.0066 12.41825,0.35301c9.15029,-1.30718 10.60838,2.10074 28.90896,0.13996c-0.65359,-18.95417 -1.60178,-115.56482 -2.60178,-115.56482c-1,0 -8.40259,-76.99981 -8.40259,-111.99999c0.5359,-36.76478 -2.59741,-122 -3.59739,-122.99998c0.99998,0.99998 1.99998,-110.00001 1,-111c0.99998,0.99999 -0.00002,-72.00001 -1,-73c0.99998,0.99999 1.92305,-29.64172 1.92305,-37.64172c-24.89337,2.26796 -14.03477,0.0873 -42.13923,0.74089z" id="svg_35"/>
  <path fill="#000000" stroke="#000000" stroke-width="0" fill-opacity="0.19" opacity="NaN" d="m432.93583,164.08336c2.61437,17.64699 1.21616,107.90082 1.21616,107.90082c0,0 2,123.99999 2,123.99999c0,0 3.19485,75.99976 4.19485,120.99999c4.01695,64.11003 0.65486,120.4967 3.26923,134.22214c3.92156,33.3332 3.46408,48.55573 2.81049,83.84971c2.61437,-3.92156 8.4967,-1.85053 12.41825,-2.50412c9.15029,-1.30718 11.08457,-0.2802 29.38515,-2.24098c-0.65359,-18.95417 -2.07797,-110.32675 -3.07797,-110.32675c-1,0 -8.40259,-76.99981 -8.40259,-111.99999c0.5359,-36.76478 -2.59741,-122 -3.59739,-122.99998c0.99998,0.99998 1.99998,-110.00001 1,-111c0.99998,0.99999 -0.00002,-72.00001 -1,-73c0.99998,0.99999 1.92305,-29.64172 1.92305,-37.64172c-24.89337,2.26796 -14.03477,0.0873 -42.13923,0.74089z" id="svg_39" transform="rotate(180 460.583 449.199)"/>
  <g id="svg_13" stroke="null">
   <path fill="#845335" stroke-width="0" opacity="NaN" d="m132.96824,242.48865l-10.61842,19.00003c-3.97914,26.99997 -4.97392,28.99997 7.04446,45.99997c12.01839,17 89.36811,53.00006 291.30829,50.00003c201.94017,-3.00003 230.78878,-31.00003 236.75745,-38.00003c5.96867,-7 32.82772,-27 19.89559,-54c-12.93213,-27 -1.98956,-19 -9.94777,-20.99997c-7.9582,-1.99997 -13.92694,7.99997 -43.77029,15c-29.84335,7.00003 -40.78597,5.99997 -209.89845,10.99997l-37.8016,1.00003c-203.92977,-9.00003 -189.25118,-24.00003 -242.96926,-29.00003z" id="svg_40" stroke="#000000"/>
   <path fill="#593723" stroke-width="0" opacity="NaN" d="m133.99003,290.48866l-14.70558,-7.91826c-3.97914,15.74769 11.37472,34.91418 23.3931,44.82941c12.01839,9.91522 77.10663,31.9122 279.04681,30.16243c201.94017,-1.74976 224.65804,-21.08071 230.62671,-25.16345c5.96867,-4.08274 38.95846,-33.74771 26.02633,-49.49542c-12.93213,-15.7477 -1.98956,9.91828 -9.94777,8.7518c-7.9582,-1.16647 -13.92694,4.66597 -43.77029,8.74873c-29.84335,4.08276 -40.78597,3.49947 -209.89845,6.41572l-37.8016,0.58326c-203.92977,-5.24925 -189.25118,-13.99798 -242.96926,-16.91422z" id="svg_41" stroke="#000000"/>
  </g>
  <g id="svg_10">
   <path fill="#845335" stroke-width="0" opacity="NaN" d="m142.66275,515.48865l-10.39198,19.00003c-3.89428,26.99997 -4.86785,28.99997 6.89424,45.99997c11.76209,17 87.46231,53.00006 285.09607,50.00003c197.63375,-3.00003 225.86715,-31.00003 231.70854,-38.00003c5.84139,-7 32.12766,-27 19.47131,-54c-12.65635,-27 -1.94713,-19 -9.73563,-20.99997c-7.78849,-1.99997 -13.62994,7.99997 -42.83688,15c-29.20693,7.00003 -39.9162,5.99997 -205.42231,10.99997l-36.99548,1.00003c-199.58092,-9.00003 -185.21535,-24.00003 -237.78788,-29.00003z" id="svg_43" stroke="#000000"/>
   <path fill="#593723" stroke-width="0" opacity="NaN" d="m143.66275,563.48866l-14.39198,-7.91826c-3.89428,15.74769 11.13215,34.91418 22.89424,44.82941c11.76209,9.91522 75.46231,31.9122 273.09607,30.16243c197.63375,-1.74976 219.86715,-21.08071 225.70854,-25.16345c5.84139,-4.08274 38.12766,-33.74771 25.47131,-49.49542c-12.65635,-15.7477 -1.94713,9.91828 -9.73563,8.7518c-7.78849,-1.16647 -13.62994,4.66597 -42.83688,8.74873c-29.20693,4.08276 -39.9162,3.49947 -205.42231,6.41572l-36.99548,0.58326c-199.58092,-5.24925 -185.21535,-13.99798 -237.78788,-16.91422z" id="svg_44" stroke="#000000"/>
  </g>
 </g>

</svg>