<svg width="800" height="800" xmlns="http://www.w3.org/2000/svg">
 <g id="Layer_1">
  <title>Layer 1</title>
  <g id="svg_21">
   <path stroke="#000000" id="svg_2" d="m171.99998,704.93981c52.5942,46.3846 413.99999,64.09042 427.99999,-19.08511c14,-83.17553 69,-465.51594 22,-562.58509c-47,-97.06915 -432.99999,-72.49468 -470.99999,-18.43085c-38,54.06383 -31.5942,553.71645 21,600.10105z" opacity="NaN" stroke-width="20" fill="#ffffff"/>
   <path stroke="#000000" id="svg_3" d="m148.05349,112.99998c0,0 -33.84964,58 168.22245,67c202.07209,9 307.724,-21 307.724,-56" opacity="NaN" stroke-width="20" fill="#ffffff"/>
   <path id="svg_7" d="m188.99998,162.99998c-2,7 -6,51 -6.99998,50.00002c0.99998,0.99998 1.99998,45.99998 1.99998,46.99998c0,1 3,36 -1,45c-4,9 -2,35 1,48c3,13 7,45 7,51c0,6 0,22 0,45c0,23 3,34 4,51c1,17 4,34 6,44c2,10 2,14 2,18c0,4 -1,26 0,46c1,20 2,22 3,33c1,11 1,7 3,21c2,14 3,10 4,23c1,13 -1,30 -1,31" opacity="NaN" stroke-width="20" stroke="#000000" fill="#ffffff"/>
   <path d="m254.99998,177.99998c0,0 0.4588,0.69344 1,2c0.38268,0.92387 0,3 0,6c0,4 0,9 0,14c0,4 0,6 0,8c0,0 0,3 0,4c0,3 1.14806,4.22836 0,7c-0.5412,1.30656 -0.5405,3.0535 -1,5c-0.51375,2.17625 -2,4 -2,6c0,2 -1.48625,2.82375 -2,5c-0.22975,0.97325 -0.4588,2.69344 -1,4c-0.38269,0.92387 -1,2 -1,3c0,2 0,4 0,6c0,3 0,6 0,9.99998c0,4 0,7 0,10c0,2 0,4 0,7c0,4 0,7 0,11c0,3 -0.32036,6.02582 0,8c0.50655,3.12143 1,6 1,10c0,4 -1.14806,8.22836 0,11c0.5412,1.30655 1,4 1,6c0,4 0.5405,7.0535 1,9c0.51375,2.17624 1,5 1,6c0,2 0,3 0,4c0,2 0,4 0,5c0,2 1,3 1,5c0,1 0,4 0,5c0,2 0,4 0,5c0,3 0,6 0,10c0,4 0,6 0,8c0,3 -0.4595,4.0535 0,6c0.51375,2.17624 1,3 1,6c0,2 0,5 0,8c0,4 1,8 1,11c0,3 0,5 0,8c0,3 0.99998,7 0.99998,9c0,3 0,6 0,9c0,2 0,5 0,9c0,4 0,7 0,9c0,3 0.49622,6.90778 1,11c0.48874,3.97003 0,6 0,8c0,1 0,3 0,6c0,1 0,3 0,5c0,2 0,4 0,7c0,2 0,5 0,8c0,3 0,6 0,8c0,3 1,4 1,5c0,1 0,3.00003 0,7.00003c0,2 0,4 0,6c0,2 0.49347,3.87854 1,7c0.64072,3.94836 0,8 0,11c0,3 -0.76538,4.15222 0,6c0.5412,1.30658 0.78986,5.07843 2,8c0.85571,2.06586 1,4 1,6c0,2 0.08099,4.10699 1,8c0.51373,2.17627 1,5 1,6c0,2 0.9176,3.3869 2,6c1.53073,3.6955 1,7 1,10c0,2 -0.16019,4.01294 0,5c0.50653,3.12146 1,5 2,9c1,4 2,6 2,9c0,2 0.49347,4.87854 1,8c0.48053,2.96118 0.77023,4.02667 1,4.99994c0.51373,2.17627 0.67963,6.02582 1,8c0.50653,3.12146 1,6 1,7c0,1 0,3 0,7c0,2 0,4 0,6c0,2 0.68927,3.08026 0,6c-0.51373,2.17627 -1,6 -1,7c0,1 -0.5405,2.05353 -1,4c-0.51373,2.17627 -1,4 -1,7c0,1 0,2 -1,4c-1,2 -0.78986,6.07843 -2,9c-0.85571,2.06586 -1,3 -1,4c0,2 -1.49347,3.87854 -2,7c-0.16019,0.98706 0,2 0,3c0,1 -0.48627,2.82373 -1,5c-0.4595,1.94647 -1,3 -1,4c0,0 0,2 0,4c0,2 0,3 0,4c0,0 1,0 1,1l0,1l0,2l1,0" id="svg_9" stroke-width="20" stroke="#000000" fill="#ffffff"/>
   <path d="m335.99997,181.99998c0,0 0,0 0,3c0,3 0,9 0,15c0,4 0,8 0,10c0,2 0,4 0,6c0,4 0,7 0,10c0,2 0,4 0,6c0,1 0,3 0,6c0,2 -0.4588,3.69344 -1,5c-0.38269,0.92387 0,3 0,3c0,1 0,2 0,4c0,2 0,6 0,8.99998c0,4 0,8 0,13c0,3 0,7 0,10c0,2 0.31073,5.08026 1,8c0.51373,2.17624 1,5 1,8c0,3 1,6 1,9c0,3 0,7 0,10c0,3 0,7 0,10c0,2 0,4 0,6c0,3 0,6 0,10c0,3 -1,7 -1,9c0,4 -1.49622,7.90778 -2,12c-0.48874,3.97003 0,7 0,10c0,2 0,5 0,8c0,4 0,7 0,10c0,2 -1,6 -1,10c0,3 0,6 0,8c0,4 0,6 0,10c0,2 0,6 0,8c0,1 0,4 0,6c0,3 0,6 0,8c0,3 0,6 0,10c0,4 0,7 0,10c0,3 -0.91901,6.10699 0,10c0.51373,2.17624 1,4 1,6c0,2 0,4 0,7c0,4 0,7 0,10c0,2 -0.48627,3.82376 -1,6c-0.4595,1.9465 -0.48627,4.82376 -1,7c-1.14877,4.8663 0,10.00003 0,14.00003c0,4 0,6 0,8c0,3 0,6 0,10c0,5 -1,10 -1,13c0,3 0,5 0,7c0,2 1,5 1,8c0,4 0.67963,7.02582 1,9c0.50653,3.12146 0.67963,5.02582 1,7c0.50653,3.12146 1.35928,6.05164 2,10c0.50653,3.12146 2,6 2,8c0,2 1.49347,3.87854 2,7c0.48056,2.96124 0.77023,6.02673 1,7c0.51373,2.17627 1,4 1,4c0,1 -0.4595,2.05353 0,4c0.51373,2.17621 1.48627,4.82367 2,6.99994c0.68927,2.91974 0,7 0,9c0,2 0,3 0,4c0,2 0.22977,5.02673 0,6c-0.51373,2.17627 -1.48627,3.82373 -2,6c-0.4595,1.94647 0,5 0,7c0,1 0,3 0,4c0,1 -0.48627,2.82373 -1,5c-0.4595,1.94647 -1,4 -1,5c0,2 0.4595,5.05353 0,7c-0.51373,2.17627 -1,5 -1,8c0,1 -0.48627,2.82373 -1,5c-0.22977,0.97327 0,4 0,6c0,2 0,5 0,7c0,2 1.48627,5.82373 2,8c0.4595,1.94647 0,4 0,6c0,0 0,1 0,2c0,2 1,4 1,6c0,0 0,1 0,2l0,1l0,1l1,0" id="svg_10" stroke-width="20" stroke="#000000" fill="#ffffff"/>
   <path d="m416.99997,189.99998c0,2 0,4 0,10c0,8 0,14 0,20c0,2 0,5 0,8c0,2 0,5 0,9c0,3 0,6 0,9c0,2 0,5 0,9c0,3.99998 0,6.99998 0,9.99998c0,2 -0.48627,4.82376 -1,7c-0.91901,3.89301 -0.49622,7.90778 -1,12c-0.48874,3.97003 0.48874,8.02997 0,12c-0.50378,4.09222 -1.49756,8.92578 -2,14c-0.59122,5.97079 0,12 0,17c0,5 -1.49622,7.90778 -2,12c-0.36655,2.97751 0,7 0,10c0,3 -1,6 -1,9c0,3 0,6 0,10c0,5 0.49268,10.02432 0,15c-0.50244,5.07422 -1,9 -1,13c0,3 0,6 0,10c0,4 0,8 0,10c0,3 0,6 0,8c0,4 0,8 0,13c0,4 0,7 0,9c0,2 0,5 0,7c0,3 0,7 0,11c0,2 0,6 0,9c0,4 0,8 0,13c0,5 0,8 0,10c0,2 0,4 0,7c0,3 0,5 0,8c0,3.00003 0,6.00003 0,9.00003c0,2 0,6 0,9c0,3 -0.68927,6.08026 0,9c0.51373,2.17627 1,4 1,7c0,3 1,5 1,9c0,2 -0.48056,5.03876 0,8c0.50653,3.12146 1,6 1,9c0,2 0,5 0,6c0,3 1,5 1,8c0,3 0,5 0,9c0,4 0,8 0,14c0,4 0,7 0,10c0,3 0,6 0,8.99994c0,3 0,6 0,9c0,4 0,6 0,10c0,2 0,4 0,8c0,2 0,6 0,10c0,4 -0.49347,5.87854 -1,9c-0.32037,1.97418 -0.49347,4.87854 -1,8c-0.8009,4.93542 -1.49347,8.87854 -2,12c-0.32037,1.97418 0,4 0,5c0,1 0.32037,2.02582 0,4c-0.50653,3.12146 -1,5 -1,6c0,3 0,6 0,8c0,4 0,6 0,9c0,3 0,5 0,8c0,3 0,6 0,8c0,1 0,2 0,3c0,1 0,2 0,3l0,1l-1,0" id="svg_11" stroke-width="20" stroke="#000000" fill="#ffffff"/>
   <path d="m480.99997,179.99998c0,0 0.21771,3.96135 1,9c1.38925,8.94818 1.49957,20.96881 2,33c0.33246,7.99309 1,14 1,18c0,4 -0.18323,8.96683 -1,14c-1.29144,7.95815 -0.50513,15.02043 -1,20.99998c-0.50171,6.06204 -1.02908,12.06766 -2,19c-1.00977,7.20975 -2,14 -2,20c0,6 -1,10 -1,14c0,5 -1,11 -1,18c0,6 0,12 0,16c0,4 0,6 0,10c0,3 0,7 0,10c0,2 0,6 0,10c0,5 0,11 0,17c0,6 0,11 0,15c0,4 0,8 0,12c0,2 1,4 1,7c0,2 -0.91901,5.10699 0,9c0.51373,2.17624 1,6 1,10c0,5 0,9 0,14c0,4 0,9 0,14c0,4 0,8 0,11c0,3 0,5 0,9c0,4.00003 0,8.00003 0,12.00003c0,4 -0.63345,8.02246 -1,11c-0.50378,4.09222 -1,7 -1,11c0,4 0,9 0,14c0,4 0,8 0,12c0,4 0.61093,8.03748 0,13c-0.50378,4.09222 -1,8 -1,13c0,4 0.48874,8.02997 0,12c-0.50378,4.09222 -1,8 -1,12c0,5 0,7.99994 0,10.99994c0,3 0,6 0,9c0,3 0,7 0,11c0,5 -0.49622,9.90778 -1,14c-0.48874,3.97003 0,8 0,11c0,2 0,6 0,8c0,2 0,4 0,7c0,3 0,7 0,11c0,3 0,5 0,6c0,3 0,4 0,6c0,2 0,4 0,6c0,2 -0.48627,3.82373 -1,6c-0.4595,1.94647 0,3 0,4c0,0 0,1 0,3c0,1 0,1 0,2c0,1 0,1 0,2l0,1" id="svg_12" stroke-width="20" stroke="#000000" fill="#ffffff"/>
   <path d="m542,176.99998c0,0 0.29559,1.0146 0,4c-0.50244,5.0742 -1,11 -1,16c0,3 -0.30322,5.76935 -1,7c-2.03143,3.58792 -1.99243,9.81557 -3,18c-0.73309,5.95505 0,12 0,15c0,3 -0.49622,6.90779 -1,11c-0.73309,5.95505 -1,10.99998 -1,15.99998c0,5 0,9 0,13c0,3 0,5 0,9c0,3 0,7 0,10c0,4 0,9 0,14c0,5 0.49622,9.90778 1,14c0.36658,2.97751 0,6 0,10c0,3 1,6 1,11c0,5 0,9 0,15c0,5 0.49622,8.90778 1,13c0.48871,3.97003 0.49756,7.92578 1,13c0.39417,3.98053 0,10 0,15c0,4 1,8 1,11c0,4 0,7 0,10c0,4 0,8 0,12c0,3 0,7 0,11c0,5 0,9 0,13c0,3 0,6 0,10c0,4 -0.49756,8.92578 -1,14c-0.59125,5.97079 0,10 0,14c0,4 -1.49622,7.90778 -2,12c-0.48871,3.97003 0,8.00003 0,11.00003c0,2 0.16016,5.01294 0,6c-0.50653,3.12146 -0.75562,6.01501 -1,8c-0.50378,4.09222 -1.09546,7.97736 -2,12c-1.11865,4.97479 -1,10 -1,14c0,3 0,7 0,9c0,4 0,8 0,12c0,3 0,7 0,11c0,5 0,11 0,15c0,3 0,4 0,7c0,1 0,5 0,8c0,3 0,6.99994 0,8.99994c0,3 0,6 0,8c0,4 0,6 0,9c0,3 0,6 0,10c0,4 1,8 1,11c0,3 0,6 0,8c0,4 0.48627,5.82373 1,8c0.45953,1.94647 0,4 0,7c0,1 0,3 0,5c0,0 0,2 0,3c0,1 0,4 0,5c0,2 0,3 0,4c0,1 0,2 0,4c0,0 0,1 0,2c0,2 0,3 0,4c0,1 0,2 0,2l0,2l0,0l-1,0" id="svg_13" stroke-width="20" stroke="#000000" fill="#ffffff"/>
   <path d="m592,156.99998c0,1 0,3 0,9c0,8 -1,16 -1,22c0,2 0,4 0,9c0,6 0,11 0,16c0,3 0,5 0,9c0,3 0,7 0,12c0,6 -1.49622,11.90779 -2,16c-0.48871,3.97003 0,7.99998 0,11.99998c0,5 0,11 0,18c0,6 0,10 0,12c0,2 0,4 0,8c0,4 0,10 0,14c0,4 0,5 0,7c0,3 0,6 0,10c0,4 1,8 1,12c0,4 0.49622,8.90778 1,13c0.36658,2.97751 0,6 0,7c0,3 1.49622,6.90778 2,11c0.48871,3.97003 0,8 0,11c0,3 0,6 0,9c0,4 0,7 0,10c0,3 0,6 0,8c0,2 0,4 0,8c0,3 0,7 0,10c0,4 0,7 0,10c0,4 -0.49622,7.90778 -1,12c-0.48871,3.97003 0,7 0,9c0,2 -1,5 -1,8c0,3 0,7 0,10c0,4 0,7 0,11c0,2 -0.54047,6.0535 -1,8c-0.51373,2.17624 -0.51947,4.03873 -1,7c-0.50653,3.12143 -2,5 -2,9.00003c0,4 -1.49347,6.87854 -2,10c-0.32037,1.97418 0.68927,4.08026 0,7c-0.51373,2.17627 -2,5 -2,8c0,2 0.64075,5.05164 0,9c-0.50653,3.12146 -2,6 -2,8c0,3 0.15277,6.04132 -1,10c-0.88416,3.03619 -1,7 -1,11c0,2 -1,5 -1,7c0,3 0,7 0,10c0,4 -1,7 -1,10c0,2 0,5 0,8c0,2 0,6 0,8c0,2 0,5 0,5.99994c0,4 0,6 0,8c0,3 0,4 0,6c0,2 0,5 0,8c0,2 0,4 0,6c0,2 0,3 0,6c0,2 0,4 0,4c0,2 0,4 0,8c0,2 0,4 0,6c0,2 -1,4 -1,6c0,2 0,2 0,4c0,0 0.76538,2.15222 0,4c-0.5412,1.30658 -1,3 -1,4c0,1 0,3 0,4c0,2 0,2 0,3c0,2 0,3 0,4c0,1 -1,1 -2,1l0,0" id="svg_14" stroke-width="20" stroke="#000000" fill="#ffffff"/>
  </g>
  <g id="svg_20">
   <path id="svg_22" d="m116.99998,313.99998c17,34 529.99999,60 535.99999,11c6,-49 8.00005,-183.99996 -10.99998,-121.99998c-19.00002,61.99998 -475.00001,37.99998 -502.00001,3.99998c-27,-34 -39.99999,73 -23,107z" stroke-width="16" stroke="#000000" fill="#845335"/>
   <path transform="rotate(-1 379.865 577.515)" stroke="#000000" id="svg_23" d="m137.57015,632.42451c16.44152,34 479.59353,59.42407 485.39642,10.42407c5.80289,-49 21.53806,-229.76607 5.44621,-126.71998c-16.09185,103.04609 -459.39537,37.99998 -485.50837,3.99998c-26.113,-34 -21.77576,78.29593 -5.33426,112.29593z" stroke-width="16" fill="#845335"/>
   <ellipse stroke="#000000" ry="40.5" rx="199.99999" id="svg_24" cy="106.49998" cx="378.99998" stroke-width="16" fill="#845335"/>
  </g>
 </g>
</svg>