<svg width="300" height="500" xmlns="http://www.w3.org/2000/svg">
 <g id="Layer_1">
  <title>Layer 1</title>
  <g id="svg_1">
   <path fill="#619E73" stroke-width="6" opacity="NaN" d="m123.98092,359.04308c1.46085,0 38.01031,8.16275 74.71412,-12.67524c36.70381,-20.83799 19.89001,43.85445 46.53631,42.17903c26.6463,-1.67542 40.11682,-24.76027 27.02571,-7.08089c-13.09111,17.67938 -31.0284,49.76866 -58.0541,50.94881c-27.0257,1.18015 -28.13598,-59.20989 -47.85744,-40.32747c-19.72146,18.88242 -43.09501,-7.08087 -41.63417,-22.42286c1.46084,-15.34199 -2.19128,-10.62138 -0.73043,-10.62138z" id="svg_8" stroke="#000" transform="rotate(14 200.473 387.33)"/>
   <path fill="#619E73" stroke-width="6" opacity="NaN" d="m31.7771,278.31556c6.49344,-5.87705 8.90525,-6.77248 42.81107,-20.2414c33.90582,-13.46893 18.37376,28.34593 42.98877,27.263c24.615,-1.08293 25.42663,56.3038 15.30405,34.77185c-10.12258,-21.53195 -19.00161,-7.18001 -43.96709,-6.4172c-24.96548,0.76281 -25.99113,-38.27114 -44.20919,-26.06623c-18.21806,12.20492 -39.48976,75.92515 -34.08091,45.6172c5.40885,-30.30795 14.65986,-49.05017 21.1533,-54.92722z" id="svg_45" stroke="#000" transform="rotate(-15 74.3727 298.366)"/>
   <path fill="#619E73" stroke-width="6" opacity="NaN" d="m150.42964,135.66746c3.86109,-21.50094 -33.73238,6.6402 -49.62026,-16.40939c-15.88788,-23.04959 -63.73702,-68.70762 -60.97222,-72.17104c2.7648,-3.46343 100.1448,13.158 108.01777,43.80409c7.873,30.64609 29.59332,14.30476 47.56451,17.38336c17.97121,3.0786 -7.6654,34.63403 -7.6654,38.8671c0,4.23308 -41.1855,10.02682 -37.32441,-11.47412l0.00001,0z" id="svg_157" stroke="#000" transform="rotate(30 120.766 98.9064)"/>
   <path fill="#619E73" stroke-width="6" opacity="NaN" d="m275.73735,234.24201c7.06559,0.76818 -19.09556,-16.11237 -13.32908,-42.01129c5.76648,-25.89892 -64.55655,-85.83469 -66.82362,-82.30005c-2.26707,3.53464 26.295,67.31793 18.91763,73.61131c-7.37738,6.29338 8.63572,31.49547 31.4026,45.32275c22.76689,13.82728 22.76689,4.60909 29.83247,5.37728z" id="svg_7" filter="url(#svg_7_blur)" stroke="#000" transform="rotate(68 236.207 173.163)"/>
   <path fill="#619E73" stroke-width="6" opacity="NaN" d="m24.28217,432.68262c19.31022,-14.12034 41.13964,20.27798 66.23217,5.01503c25.09252,-15.26295 39.39761,-33.05467 42.57782,-65.19543c3.18021,-32.14076 21.26739,-62.06884 6.75838,-35.10523c-14.50901,26.9636 -27.80709,32.98256 -34.67468,36.45383c-6.86759,3.47127 -5.30435,4.96691 -28.48827,13.42984c-23.18391,8.46293 -41.83515,33.981 -46.32288,37.04357c-4.48773,3.06257 -25.39276,22.47873 -6.08255,8.35839l0.00001,0z" id="svg_9" stroke="#000" transform="rotate(178 80.8219 384.307)"/>
   <path fill="#619E73" stroke-width="6" opacity="NaN" d="m168.26638,58.23498c1.17648,0 30.6112,5.41777 60.17022,-8.41281c29.55903,-13.83057 16.01821,29.10706 37.47752,27.99505c21.45932,-1.11201 32.30765,-16.43388 21.76487,-4.69972c-10.54278,11.73415 -24.98839,33.03243 -46.75325,33.81572c-21.76487,0.78329 -22.65902,-39.29877 -38.54148,-26.76613c-15.88246,12.53264 -34.70611,-4.69971 -33.52965,-14.88249c1.17648,-10.18278 -1.76472,-7.04962 -0.58824,-7.04962l0.00001,0z" id="svg_175" stroke="#000" transform="rotate(-69 229.869 77.0096)"/>
   <path fill="#619E73" stroke-width="6" opacity="NaN" d="m192.23954,258.95192c6.37334,-2.58663 -6.39737,2.02262 30.82478,-15.7552c37.22216,-17.77784 31.43837,17.12813 58.46098,15.69874c27.0226,-1.42938 27.91361,74.31622 16.80094,45.89588c-11.11267,-28.42033 -20.86016,-9.47699 -48.26752,-8.47014c-27.40737,1.00683 -17.58681,-21.1738 -40.11625,-14.16757c-22.52944,7.00623 -31.94465,4.85467 -49.72965,11.25214c-17.785,6.39747 25.65337,-31.86721 32.02672,-34.45384l0,-0.00001z" id="svg_195" stroke="#000" transform="rotate(138 230.493 274.658)"/>
   <path fill="#619E73" stroke-width="6" opacity="NaN" d="m56.1399,187.695c7.30862,-6.31383 10.0232,-7.27581 48.18549,-21.74575c38.16229,-14.46994 20.68036,30.45263 48.38549,29.2892c27.70511,-1.16342 28.61864,60.48832 17.22529,37.35611c-11.39335,-23.13221 -21.38704,-7.71363 -49.48664,-6.89413c-28.0996,0.81949 -29.254,-41.11547 -49.75912,-28.00348c-20.50511,13.112 -44.44723,81.56795 -38.35936,49.00749c6.08787,-32.56045 16.50023,-52.6956 23.80884,-59.00944l0.00001,0z" id="svg_172" stroke="#000" transform="rotate(31 104.083 209.236)"/>
   <path fill="#619E73" stroke-width="4" opacity="NaN" d="m93.12196,436.46011c13.77708,-40.16143 30.13736,-107.09716 55.96938,-144.58117c25.83202,-37.48401 49.94191,-50.87115 61.13578,-111.55954c11.19388,-60.68839 19.113,-67.91944 12.54689,-67.94235c-6.56611,-0.0229 2.95232,-46.29462 -1.35301,-34.69243c-4.30534,11.60219 -6.88854,43.73134 -20.66562,98.1724c-13.77708,54.44106 -28.41522,68.72068 -49.08084,95.49497c-20.66562,26.77429 -37.88696,66.93572 -43.05337,83.0003c-5.1664,16.06457 -30.99842,82.10782 -33.58163,91.03259c-2.5832,8.92476 4.30534,31.23667 18.08241,-8.92476l0.00001,-0.00001z" id="svg_3" stroke="#000" transform="rotate(-11 149.831 267.735)"/>
   <g id="svg_161">
    <ellipse fill="#CE7975" stroke-width="6" cx="145.84781" cy="401.15939" id="svg_11" rx="10.5" ry="14" stroke="#000" transform="rotate(68 145.848 401.159)"/>
    <ellipse fill="#FFA9A2" stroke-width="6" cx="151.64491" cy="376.71012" id="svg_12" rx="10.5" ry="14" stroke="#000" transform="rotate(68 151.645 376.71)"/>
    <ellipse fill="#FFA9A2" stroke-width="6" cx="112.64491" cy="400.71012" id="svg_13" rx="10.5" ry="14" stroke="#000" transform="rotate(129 112.645 400.71)"/>
    <ellipse fill="#CE7975" stroke-width="6" cx="116.64491" cy="377.71012" id="svg_14" rx="10.5" ry="14" stroke="#000" transform="rotate(-14 116.645 377.71)"/>
    <ellipse fill="#CE7975" stroke-width="6" cx="134.00508" cy="388.87001" id="svg_38" rx="10.5" ry="14" stroke="#000" transform="rotate(88 134.005 388.87)"/>
    <ellipse fill="#CE7975" stroke-width="6" cx="141.87154" cy="367.25708" id="svg_39" rx="10.5" ry="14" stroke="#000" transform="rotate(88 141.872 367.257)"/>
    <ellipse fill="#A0D58A" stroke-width="6" cx="97.01499" cy="376.47087" id="svg_40" rx="10.5" ry="14" stroke="#000" opacity="NaN" transform="rotate(149 97.015 376.471)"/>
    <ellipse fill="#CE7975" stroke-width="6" cx="119.64028" cy="356.22601" id="svg_41" rx="10.5" ry="14" stroke="#000" transform="rotate(-76 119.64 356.226)"/>
   </g>
   <g id="svg_173">
    <g id="svg_181" transform="rotate(60 198.379 94.7006)">
     <path fill="#ffffff" stroke-width="5" opacity="NaN" d="m194.52224,83.20808c9.00598,-11.31626 9.61265,-21.06289 9.17194,-20.06444c-0.44071,0.99846 -4.17204,0.91141 -15.44331,13.93053c-11.27127,13.01912 -9.15065,23.32281 -8.66103,23.5835c0.48961,0.2607 5.92643,-6.13333 14.9324,-17.44959z" id="svg_176" stroke="#000" transform="rotate(126 191.453 81.8694)"/>
     <path fill="#ffffff" stroke-width="5" opacity="NaN" d="m182.19471,85.10865c12.58223,4.68713 22.25663,2.67891 21.20402,2.56457c-1.0526,-0.11434 -1.57379,-3.29158 -16.19737,-9.45348c-14.62358,-6.16189 -20.16283,-1.27706 -24.57833,-1.22234c-4.4155,0.05471 6.98944,3.42412 19.57168,8.11125z" id="svg_177" stroke="#000" transform="rotate(39 182.565 81.6534)"/>
     <path fill="#ffffff" stroke-width="5" opacity="NaN" d="m197.63002,80.58369c-4.09513,13.3633 -0.90332,22.706 -0.87456,21.6342c0.02876,-1.07181 3.56866,-2.12088 9.13522,-17.77091c5.56655,-15.65003 -0.40308,-24.68961 -0.96379,-24.78619c-0.5607,-0.09658 -3.20174,7.5596 -7.29687,20.9229z" id="svg_178" stroke="#000"/>
     <path fill="#ffffff" stroke-width="5" opacity="NaN" d="m214.95286,96.67146c12.58224,4.68713 22.25663,2.67891 21.20403,2.56457c-1.05261,-0.11434 -1.57379,-3.29158 -16.19737,-9.45348c-14.62359,-6.16189 -20.16284,-1.27706 -24.57834,-1.22234c-4.4155,0.05471 6.98945,3.42412 19.57168,8.11125z" id="svg_179" stroke="#000" transform="rotate(-49 215.323 93.2164)"/>
     <path fill="#ffffff" stroke-width="5" opacity="NaN" d="m213.53331,112.31283c3.57829,11.67166 11.32028,17.19075 10.77391,16.38534c-0.54637,-0.80542 1.95818,-3.12546 -1.56542,-17.1305c-3.52361,-14.00506 -11.27783,-14.86562 -14.04494,-17.9152c-2.76711,-3.04959 1.25817,6.98871 4.83645,18.66036z" id="svg_180" stroke="#000" transform="rotate(-43 216.22 110.937)"/>
    </g>
    <g id="svg_187" transform="rotate(-90 169.393 85.2806)">
     <path fill="#ffffff" stroke-width="5" opacity="NaN" d="m165.53672,73.78779c9.00598,-11.31626 9.61265,-21.06289 9.17194,-20.06444c-0.44071,0.99846 -4.17204,0.91141 -15.44331,13.93053c-11.27127,13.01912 -9.15065,23.32281 -8.66103,23.5835c0.48961,0.2607 5.92643,-6.13333 14.9324,-17.44959z" id="svg_182" stroke="#000" transform="rotate(126 162.468 72.4494)"/>
     <path fill="#ffffff" stroke-width="5" opacity="NaN" d="m153.20919,75.68836c12.58223,4.68713 22.25663,2.67891 21.20402,2.56457c-1.0526,-0.11434 -1.57379,-3.29158 -16.19737,-9.45348c-14.62358,-6.16189 -20.16283,-1.27706 -24.57833,-1.22234c-4.4155,0.05471 6.98944,3.42412 19.57168,8.11125z" id="svg_183" stroke="#000" transform="rotate(39 153.58 72.2334)"/>
     <path fill="#ffffff" stroke-width="5" opacity="NaN" d="m168.6445,71.1634c-4.09513,13.3633 -0.90332,22.706 -0.87456,21.6342c0.02876,-1.07181 3.56866,-2.12088 9.13522,-17.77091c5.56655,-15.65003 -0.40308,-24.68961 -0.96379,-24.78619c-0.5607,-0.09658 -3.20174,7.5596 -7.29687,20.9229z" id="svg_184" stroke="#000"/>
     <path fill="#ffffff" stroke-width="5" opacity="NaN" d="m185.96734,87.25117c12.58224,4.68713 22.25663,2.67891 21.20403,2.56457c-1.05261,-0.11434 -1.57379,-3.29158 -16.19737,-9.45348c-14.62359,-6.16189 -20.16284,-1.27706 -24.57834,-1.22234c-4.4155,0.05471 6.98945,3.42412 19.57168,8.11125z" id="svg_185" stroke="#000" transform="rotate(-49 186.338 83.7964)"/>
     <path fill="#ffffff" stroke-width="5" opacity="NaN" d="m184.54779,102.89254c3.57829,11.67166 11.32028,17.19075 10.77391,16.38534c-0.54637,-0.80542 1.95818,-3.12546 -1.56542,-17.1305c-3.52361,-14.00506 -11.27783,-14.86562 -14.04494,-17.9152c-2.76711,-3.04959 1.25817,6.98871 4.83645,18.66036z" id="svg_186" stroke="#000" transform="rotate(-43 187.235 101.517)"/>
    </g>
    <g id="svg_193" stroke="null">
     <path fill="#ffffff" stroke-width="5" opacity="NaN" d="m174.23238,110.01968c9.00598,-11.31626 9.61265,-21.06289 9.17194,-20.06444c-0.44071,0.99846 -4.17204,0.91141 -15.44331,13.93053c-11.27127,13.01912 -9.15065,23.32281 -8.66103,23.5835c0.48961,0.2607 5.92643,-6.13333 14.9324,-17.44959z" id="svg_188" stroke="#000"/>
     <path fill="#ffffff" stroke-width="5" opacity="NaN" d="m161.18021,90.90576c12.58223,4.68713 22.25663,2.67891 21.20402,2.56457c-1.0526,-0.11434 -1.57379,-3.29158 -16.19737,-9.45348c-14.62358,-6.16189 -20.16283,-1.27706 -24.57833,-1.22234c-4.4155,0.05471 6.98944,3.42412 19.57168,8.11125z" id="svg_189" stroke="#000"/>
     <path fill="#ffffff" stroke-width="5" opacity="NaN" d="m183.13726,73.33732c-4.09513,13.3633 -0.90332,22.706 -0.87456,21.6342c0.02876,-1.07181 3.56866,-2.12088 9.13522,-17.77091c5.56655,-15.65003 -0.40308,-24.68961 -0.96379,-24.78619c-0.5607,-0.09658 -3.20174,7.5596 -7.29687,20.9229z" id="svg_190" stroke="#000"/>
     <path fill="#ffffff" stroke-width="5" opacity="NaN" d="m201.48826,100.59818c12.58224,4.68713 22.25663,2.67891 21.20403,2.56457c-1.05261,-0.11434 -1.57379,-3.29158 -16.19737,-9.45348c-14.62359,-6.16189 -20.16284,-1.27706 -24.57834,-1.22234c-4.4155,0.05471 6.98945,3.42412 19.57168,8.11125z" id="svg_191" stroke="#000"/>
     <path fill="#ffffff" stroke-width="5" opacity="NaN" d="m186.30059,113.341c3.57829,11.67166 11.32028,17.19075 10.77391,16.38534c-0.54637,-0.80542 1.95818,-3.12546 -1.56542,-17.1305c-3.52361,-14.00506 -11.27783,-14.86562 -14.04494,-17.9152c-2.76711,-3.04959 1.25817,6.98871 4.83645,18.66036z" id="svg_192" stroke="#000"/>
    </g>
   </g>
   <g id="svg_174">
    <g id="svg_255" transform="rotate(-114 154.176 205.571)">
     <path fill="#ffffff" stroke-width="5" opacity="NaN" d="m150.31934,194.07765c9.00598,-11.31626 9.61265,-21.06289 9.17194,-20.06444c-0.44071,0.99846 -4.17204,0.91141 -15.44331,13.93053c-11.27127,13.01912 -9.15065,23.32281 -8.66103,23.5835c0.48961,0.2607 5.92643,-6.13333 14.9324,-17.44959z" id="svg_250" stroke="#000" transform="rotate(126 147.252 192.739)"/>
     <path fill="#ffffff" stroke-width="5" opacity="NaN" d="m137.99181,195.97822c12.58223,4.68713 22.25663,2.67891 21.20402,2.56457c-1.0526,-0.11434 -1.57379,-3.29158 -16.19737,-9.45348c-14.62358,-6.16189 -20.16283,-1.27706 -24.57833,-1.22234c-4.4155,0.05471 6.98944,3.42412 19.57168,8.11125z" id="svg_251" stroke="#000" transform="rotate(39 138.363 192.523)"/>
     <path fill="#ffffff" stroke-width="5" opacity="NaN" d="m153.42712,191.45326c-4.09513,13.3633 -0.90332,22.706 -0.87456,21.6342c0.02876,-1.07181 3.56866,-2.12088 9.13522,-17.77091c5.56655,-15.65003 -0.40308,-24.68961 -0.96379,-24.78619c-0.5607,-0.09658 -3.20174,7.5596 -7.29687,20.9229z" id="svg_252" stroke="#000"/>
     <path fill="#ffffff" stroke-width="5" opacity="NaN" d="m170.74996,207.54103c12.58224,4.68713 22.25663,2.67891 21.20403,2.56457c-1.05261,-0.11434 -1.57379,-3.29158 -16.19737,-9.45348c-14.62359,-6.16189 -20.16284,-1.27706 -24.57834,-1.22234c-4.4155,0.05471 6.98945,3.42412 19.57168,8.11125z" id="svg_253" stroke="#000" transform="rotate(-49 171.121 204.086)"/>
     <path fill="#ffffff" stroke-width="5" opacity="NaN" d="m169.3304,223.1824c3.57829,11.67166 11.32028,17.19075 10.77391,16.38534c-0.54637,-0.80542 1.95818,-3.12546 -1.56542,-17.1305c-3.52361,-14.00506 -11.27783,-14.86562 -14.04494,-17.9152c-2.76711,-3.04959 1.25817,6.98871 4.83645,18.66036z" id="svg_254" stroke="#000" transform="rotate(-43 172.019 221.807)"/>
    </g>
    <g id="svg_261" transform="rotate(56 188.959 208.469)">
     <path fill="#ffffff" stroke-width="5" opacity="NaN" d="m185.10194,196.9762c9.00598,-11.31626 9.61265,-21.06289 9.17194,-20.06444c-0.44071,0.99846 -4.17204,0.91141 -15.44331,13.93053c-11.27127,13.01912 -9.15065,23.32281 -8.66103,23.5835c0.48961,0.2607 5.92643,-6.13333 14.9324,-17.44959z" id="svg_256" stroke="#000" transform="rotate(126 182.034 195.638)"/>
     <path fill="#ffffff" stroke-width="5" opacity="NaN" d="m172.77441,198.87677c12.58223,4.68713 22.25663,2.67891 21.20402,2.56457c-1.0526,-0.11434 -1.57379,-3.29158 -16.19737,-9.45348c-14.62358,-6.16189 -20.16283,-1.27706 -24.57833,-1.22234c-4.4155,0.05471 6.98944,3.42412 19.57168,8.11125z" id="svg_257" stroke="#000" transform="rotate(39 173.146 195.422)"/>
     <path fill="#ffffff" stroke-width="5" opacity="NaN" d="m188.20972,194.35181c-4.09513,13.3633 -0.90332,22.706 -0.87456,21.6342c0.02876,-1.07181 3.56866,-2.12088 9.13522,-17.77091c5.56655,-15.65003 -0.40308,-24.68961 -0.96379,-24.78619c-0.5607,-0.09658 -3.20174,7.5596 -7.29687,20.9229z" id="svg_258" stroke="#000"/>
     <path fill="#ffffff" stroke-width="5" opacity="NaN" d="m205.53256,210.43958c12.58224,4.68713 22.25663,2.67891 21.20403,2.56457c-1.05261,-0.11434 -1.57379,-3.29158 -16.19737,-9.45348c-14.62359,-6.16189 -20.16284,-1.27706 -24.57834,-1.22234c-4.4155,0.05471 6.98945,3.42412 19.57168,8.11125z" id="svg_259" stroke="#000" transform="rotate(-49 205.904 206.985)"/>
     <path fill="#ffffff" stroke-width="5" opacity="NaN" d="m204.11301,226.08095c3.57829,11.67166 11.32028,17.19075 10.77391,16.38534c-0.54637,-0.80542 1.95818,-3.12546 -1.56542,-17.1305c-3.52361,-14.00506 -11.27783,-14.86562 -14.04494,-17.9152c-2.76711,-3.04959 1.25817,6.98871 4.83645,18.66036z" id="svg_260" stroke="#000" transform="rotate(-43 206.801 224.706)"/>
    </g>
    <g id="svg_267" stroke="null" transform="rotate(123 181.705 175.891)">
     <path fill="#ffffff" stroke-width="5" opacity="NaN" d="m173.97913,194.70099c9.31079,-11.25605 9.93799,-20.95083 9.48236,-19.95769c-0.45562,0.99315 -4.31324,0.90656 -15.96599,13.85642c-11.65275,12.94985 -9.46035,23.19872 -8.95416,23.45803c0.50618,0.25931 6.12701,-6.1007 15.43779,-17.35676z" id="svg_262" stroke="#000"/>
     <path fill="#ffffff" stroke-width="5" opacity="NaN" d="m160.48521,175.68876c13.00807,4.66219 23.00991,2.66466 21.92167,2.55093c-1.08823,-0.11373 -1.62706,-3.27407 -16.74557,-9.40319c-15.11852,-6.12911 -20.84525,-1.27026 -25.41019,-1.21584c-4.56494,0.05442 7.226,3.40591 20.23409,8.0681z" id="svg_263" stroke="#000"/>
     <path fill="#ffffff" stroke-width="5" opacity="NaN" d="m183.1854,158.21379c-4.23373,13.2922 -0.9339,22.5852 -0.90416,21.5191c0.02973,-1.06611 3.68944,-2.1096 9.4444,-17.67637c5.75495,-15.56676 -0.41672,-24.55825 -0.99641,-24.65432c-0.57968,-0.09606 -3.3101,7.51938 -7.54383,20.81159z" id="svg_264" stroke="#000"/>
     <path fill="#ffffff" stroke-width="5" opacity="NaN" d="m202.15749,185.32962c13.00809,4.66219 23.00991,2.66465 21.92168,2.55092c-1.08823,-0.11373 -1.62705,-3.27407 -16.74557,-9.40318c-15.11853,-6.12911 -20.84525,-1.27027 -25.4102,-1.21584c-4.56494,0.05442 7.22601,3.4059 20.23409,8.0681z" id="svg_265" stroke="#000"/>
     <path fill="#ffffff" stroke-width="5" opacity="NaN" d="m186.45579,198.00464c3.6994,11.60957 11.70342,17.09929 11.13855,16.29817c-0.56486,-0.80114 2.02446,-3.10883 -1.6184,-17.03936c-3.64286,-13.93055 -11.65953,-14.78654 -14.52029,-17.81989c-2.86076,-3.03337 1.30075,6.95153 5.00014,18.56108z" id="svg_266" stroke="#000"/>
    </g>
    <g id="svg_273" stroke="null" transform="rotate(168 177.357 204.876)">
     <path fill="#ffffff" stroke-width="5" opacity="NaN" d="m169.6313,223.68649c9.31079,-11.25605 9.93799,-20.95083 9.48236,-19.95769c-0.45562,0.99315 -4.31324,0.90656 -15.96599,13.85642c-11.65275,12.94985 -9.46035,23.19873 -8.95416,23.45803c0.50618,0.25931 6.12701,-6.1007 15.43779,-17.35676z" id="svg_268" stroke="#000"/>
     <path fill="#ffffff" stroke-width="5" opacity="NaN" d="m156.13738,204.67426c13.00807,4.6622 23.00991,2.66466 21.92167,2.55093c-1.08823,-0.11373 -1.62706,-3.27407 -16.74557,-9.40319c-15.11852,-6.1291 -20.84525,-1.27026 -25.41019,-1.21583c-4.56494,0.05442 7.226,3.4059 20.23409,8.06809z" id="svg_269" stroke="#000"/>
     <path fill="#ffffff" stroke-width="5" opacity="NaN" d="m178.83757,187.19929c-4.23373,13.29221 -0.9339,22.5852 -0.90416,21.5191c0.02973,-1.0661 3.68944,-2.10959 9.4444,-17.67636c5.75495,-15.56677 -0.41672,-24.55826 -0.99641,-24.65433c-0.57968,-0.09606 -3.3101,7.51939 -7.54383,20.81159z" id="svg_270" stroke="#000"/>
     <path fill="#ffffff" stroke-width="5" opacity="NaN" d="m197.80966,214.31512c13.00809,4.66219 23.00991,2.66466 21.92168,2.55092c-1.08823,-0.11373 -1.62705,-3.27406 -16.74557,-9.40318c-15.11853,-6.12911 -20.84525,-1.27027 -25.4102,-1.21584c-4.56494,0.05442 7.22601,3.4059 20.23409,8.0681z" id="svg_271" stroke="#000"/>
     <path fill="#ffffff" stroke-width="5" opacity="NaN" d="m182.10796,226.99014c3.6994,11.60957 11.70342,17.0993 11.13855,16.29817c-0.56486,-0.80113 2.02446,-3.10883 -1.6184,-17.03936c-3.64286,-13.93055 -11.65953,-14.78653 -14.52029,-17.81989c-2.86076,-3.03336 1.30075,6.95153 5.00014,18.56108z" id="svg_272" stroke="#000"/>
    </g>
   </g>
   <g id="svg_162">
    <ellipse fill="#A0D58A" stroke-width="6" cx="146.61381" cy="328.94246" id="svg_275" rx="10.5" ry="14" stroke="#000" opacity="NaN" transform="rotate(88 146.613 328.943)"/>
    <ellipse fill="#CE7975" stroke-width="6" cx="154.48028" cy="307.32953" id="svg_276" rx="10.5" ry="14" stroke="#000" transform="rotate(88 154.48 307.33)"/>
    <ellipse fill="#CE7975" stroke-width="6" cx="109.62372" cy="316.54332" id="svg_277" rx="10.5" ry="14" stroke="#000" transform="rotate(149 109.623 316.544)"/>
    <ellipse fill="#CE7975" stroke-width="6" cx="121.24902" cy="296.29846" id="svg_278" rx="10.5" ry="14" stroke="#000" transform="rotate(6 121.248 296.299)"/>
    <ellipse fill="#CE7975" stroke-width="6" cx="166.61378" cy="321.94247" id="svg_279" rx="10.5" ry="14" stroke="#000" transform="rotate(88 166.613 321.943)"/>
    <ellipse fill="#CE7975" stroke-width="6" cx="174.48024" cy="300.32954" id="svg_280" rx="10.5" ry="14" stroke="#000" transform="rotate(88 174.48 300.33)"/>
    <ellipse fill="#CE7975" stroke-width="6" cx="129.62369" cy="309.54333" id="svg_281" rx="10.5" ry="14" stroke="#000" transform="rotate(149 129.623 309.544)"/>
    <ellipse fill="#A0D58A" stroke-width="6" cx="141.24898" cy="289.29847" id="svg_282" rx="10.5" ry="14" stroke="#000" opacity="NaN" transform="rotate(6 141.248 289.299)"/>
    <ellipse fill="#CE7975" stroke-width="6" cx="152.61378" cy="302.94247" id="svg_283" rx="10.5" ry="14" stroke="#000" transform="rotate(88 152.613 302.943)"/>
    <ellipse fill="#CE7975" stroke-width="6" cx="160.48024" cy="281.32951" id="svg_284" rx="10.5" ry="14" stroke="#000" transform="rotate(88 160.48 281.33)"/>
    <ellipse fill="#FFA9A2" stroke-width="6" cx="115.62369" cy="290.54333" id="svg_285" rx="10.5" ry="14" stroke="#000" transform="rotate(149 115.623 290.544)"/>
    <ellipse fill="#CE7975" stroke-width="6" cx="127.24898" cy="270.29847" id="svg_286" rx="10.5" ry="14" stroke="#000" transform="rotate(6 127.248 270.299)"/>
    <ellipse fill="#A0D58A" stroke-width="6" cx="145.88918" cy="328.94246" id="svg_287" rx="10.5" ry="14" stroke="#000" opacity="NaN" transform="rotate(88 145.889 328.943)"/>
    <ellipse fill="#CE7975" stroke-width="6" cx="153.75564" cy="307.32953" id="svg_288" rx="10.5" ry="14" stroke="#000" transform="rotate(88 153.756 307.33)"/>
    <ellipse fill="#CE7975" stroke-width="6" cx="108.89909" cy="316.54332" id="svg_289" rx="10.5" ry="14" stroke="#000" transform="rotate(149 108.899 316.544)"/>
    <ellipse fill="#CE7975" stroke-width="6" cx="120.52438" cy="296.29846" id="svg_290" rx="10.5" ry="14" stroke="#000" transform="rotate(6 120.524 296.299)"/>
    <ellipse fill="#CE7975" stroke-width="6" cx="165.88914" cy="321.94247" id="svg_291" rx="10.5" ry="14" stroke="#000" transform="rotate(88 165.889 321.943)"/>
    <ellipse fill="#CE7975" stroke-width="6" cx="173.7556" cy="300.32954" id="svg_292" rx="10.5" ry="14" stroke="#000" transform="rotate(88 173.756 300.33)"/>
    <ellipse fill="#CE7975" stroke-width="6" cx="128.89905" cy="309.54333" id="svg_293" rx="10.5" ry="14" stroke="#000" transform="rotate(149 128.899 309.544)"/>
    <ellipse fill="#A0D58A" stroke-width="6" cx="140.52435" cy="289.29847" id="svg_294" rx="10.5" ry="14" stroke="#000" opacity="NaN" transform="rotate(6 140.524 289.299)"/>
    <ellipse fill="#CE7975" stroke-width="6" cx="151.88914" cy="302.94247" id="svg_295" rx="10.5" ry="14" stroke="#000" transform="rotate(88 151.889 302.943)"/>
    <ellipse fill="#CE7975" stroke-width="6" cx="159.7556" cy="281.32951" id="svg_296" rx="10.5" ry="14" stroke="#000" transform="rotate(88 159.756 281.33)"/>
    <ellipse fill="#FFA9A2" stroke-width="6" cx="114.89905" cy="290.54333" id="svg_297" rx="10.5" ry="14" stroke="#000" transform="rotate(149 114.899 290.544)"/>
    <ellipse fill="#CE7975" stroke-width="6" cx="126.52434" cy="270.29847" id="svg_298" rx="10.5" ry="14" stroke="#000" transform="rotate(6 126.524 270.299)"/>
   </g>
  </g>
 </g>
 <defs>
  <filter id="svg_7_blur">
   <feGaussianBlur in="SourceGraphic" stdDeviation="0"/>
  </filter>
 </defs>
</svg>