<svg width="300" height="500" xmlns="http://www.w3.org/2000/svg">
 <g id="Layer_1">
  <title>Layer 1</title>
  <path id="svg_10" d="m262.49974,508.55224" opacity="NaN" stroke-width="8" stroke="#000" fill="#8CD79F"/>
  <g transform="rotate(6 134.74 240.152)" stroke="null" id="svg_266">
   <path stroke="#000" id="svg_13" d="m-4.12323,245.95768" opacity="NaN" stroke-width="9" fill="#8CD79F"/>
   <path stroke="#000" id="svg_12" d="m125.41997,438.87834" opacity="NaN" stroke-width="7" fill="#8CD79F"/>
   <path stroke="#000" stroke-width="8" id="svg_1" d="m151.17487,431.25065c1.26305,-6.2008 97.76874,-133.68628 80.46199,-203.66872c-17.30675,-69.98245 22.83227,-108.35919 5.72145,-159.70163c-17.11082,-51.34243 -16.6275,-83.58483 -56.76552,-33.07848c-40.13802,50.50635 -48.68794,91.54795 -81.14823,132.36391c-32.4603,40.81596 -34.78546,132.50558 -30.99333,150.29199c3.79213,17.7864 -22.34995,63.98718 -7.47681,88.97841c14.87314,24.99123 2.82348,58.01202 35.86956,48.85687c33.04608,-9.15515 53.06785,-17.84153 54.3309,-24.04233l-0.00002,0l0.00001,-0.00001z" opacity="NaN" fill="#FFFA8D"/>
   <g stroke="null" transform="matrix(-0.948188 0 0 -0.962882 199.152 480.624)" id="svg_67">
    <path stroke="#000" id="svg_53" d="m75.03504,267.41677c3.5114,0 20.36616,2.01453 24.57985,6.79902c4.21369,4.78449 -7.02282,4.78449 -8.07624,10.32443c-1.05342,5.53994 -26.33555,-3.77723 -26.68669,-6.79901c-0.35115,-3.02179 6.67167,-10.32444 10.18308,-10.32444z" opacity="NaN" stroke-width="5" fill="none"/>
    <path stroke="#000" id="svg_54" d="m76.29159,264.55634c0,0.37662 6.73095,2.25972 19.6751,4.14281c12.94414,1.88309 15.0152,-12.42842 11.39084,-13.18166c-3.62436,-0.75324 -20.71063,-7.15576 -22.26393,-4.89604c-1.55329,2.25971 -16.05074,6.77914 -11.90861,10.1687c4.14213,3.38957 3.1066,3.38957 3.1066,3.76619z" opacity="NaN" stroke-width="5" fill="none"/>
    <path stroke="#000" id="svg_55" d="m97.03504,232.41677c3.5114,0 20.36616,2.01453 24.57985,6.79902c4.21369,4.78449 -7.02282,4.78449 -8.07624,10.32443c-1.05342,5.53994 -26.33555,-3.77723 -26.68669,-6.79901c-0.35115,-3.02179 6.67167,-10.32444 10.18308,-10.32444z" opacity="NaN" stroke-width="5" fill="none"/>
    <path transform="rotate(-180 112.696 224.505)" stroke="#000" id="svg_56" d="m98.29159,229.55634c0,0.37662 6.73095,2.25972 19.6751,4.14281c12.94414,1.88309 15.0152,-12.42842 11.39084,-13.18166c-3.62436,-0.75324 -20.71063,-7.15576 -22.26393,-4.89604c-1.55329,2.25971 -16.05074,6.77914 -11.90861,10.1687c4.14213,3.38957 3.1066,3.38957 3.1066,3.76619z" opacity="NaN" stroke-width="5" fill="none"/>
    <g stroke="null" id="svg_61">
     <path stroke="#000" id="svg_57" d="m100.03504,280.41677c3.5114,0 20.36616,2.01453 24.57985,6.79902c4.21369,4.78449 -7.02282,4.78449 -8.07624,10.32443c-1.05342,5.53994 -26.33555,-3.77723 -26.68669,-6.79901c-0.35115,-3.02179 6.67167,-10.32444 10.18308,-10.32444z" opacity="NaN" stroke-width="5" fill="none"/>
     <path stroke="#000" id="svg_58" d="m101.29159,277.55634c0,0.37662 6.73095,2.25972 19.6751,4.14281c12.94414,1.88309 15.0152,-12.42842 11.39084,-13.18166c-3.62436,-0.75324 -20.71063,-7.15576 -22.26393,-4.89604c-1.55329,2.25971 -16.05074,6.77914 -11.90861,10.1687c4.14213,3.38957 3.1066,3.38957 3.1066,3.76619z" opacity="NaN" stroke-width="5" fill="none"/>
     <path stroke="#000" id="svg_59" d="m122.03504,245.41677c3.5114,0 20.36616,2.01453 24.57985,6.79902c4.21369,4.78449 -7.02282,4.78449 -8.07624,10.32443c-1.05342,5.53994 -26.33555,-3.77723 -26.68669,-6.79901c-0.35115,-3.02179 6.67167,-10.32444 10.18308,-10.32444z" opacity="NaN" stroke-width="5" fill="none"/>
     <path transform="rotate(5 137.696 237.505)" stroke="#000" id="svg_60" d="m123.29159,242.55634c0,0.37662 6.73095,2.25972 19.6751,4.14281c12.94414,1.88309 15.0152,-12.42842 11.39084,-13.18166c-3.62436,-0.75324 -20.71063,-7.15576 -22.26393,-4.89604c-1.55329,2.25971 -16.05074,6.77914 -11.90861,10.1687c4.14213,3.38957 3.1066,3.38957 3.1066,3.76619z" opacity="NaN" stroke-width="5" fill="none"/>
    </g>
    <g transform="rotate(-180 67.2674 249.925)" stroke="null" id="svg_66">
     <path stroke="#000" id="svg_62" d="m44.03504,267.41677c3.5114,0 20.36616,2.01453 24.57985,6.79902c4.21369,4.78449 -7.02282,4.78449 -8.07624,10.32443c-1.05342,5.53994 -26.33555,-3.77723 -26.68669,-6.79901c-0.35115,-3.02179 6.67167,-10.32444 10.18308,-10.32444z" opacity="NaN" stroke-width="5" fill="none"/>
     <path stroke="#000" id="svg_63" d="m45.29159,264.55634c0,0.37662 6.73095,2.25972 19.6751,4.14281c12.94414,1.88309 15.0152,-12.42842 11.39084,-13.18166c-3.62436,-0.75324 -20.71063,-7.15576 -22.26393,-4.89604c-1.55329,2.25971 -16.05074,6.77914 -11.90861,10.1687c4.14213,3.38957 3.1066,3.38957 3.1066,3.76619z" opacity="NaN" stroke-width="5" fill="none"/>
     <path stroke="#000" id="svg_64" d="m66.03504,232.41677c3.5114,0 20.36616,2.01453 24.57985,6.79902c4.21369,4.78449 -7.02282,4.78449 -8.07624,10.32443c-1.05342,5.53994 -26.33555,-3.77723 -26.68669,-6.79901c-0.35115,-3.02179 6.67167,-10.32444 10.18308,-10.32444z" opacity="NaN" stroke-width="5" fill="none"/>
     <path transform="rotate(5 81.6964 224.506)" stroke="#000" id="svg_65" d="m67.29159,229.55634c0,0.37662 6.73095,2.25972 19.6751,4.14281c12.94414,1.88309 15.0152,-12.42842 11.39084,-13.18166c-3.62436,-0.75324 -20.71063,-7.15576 -22.26393,-4.89604c-1.55329,2.25971 -16.05074,6.77914 -11.90861,10.1687c4.14213,3.38957 3.1066,3.38957 3.1066,3.76619z" opacity="NaN" stroke-width="5" fill="none"/>
    </g>
   </g>
   <g stroke="null" transform="matrix(-0.948188 0 0 -0.962882 328.105 563.432)" id="svg_112">
    <path stroke="#000" id="svg_98" d="m143.03504,310.41677c3.5114,0 20.36616,2.01453 24.57985,6.79902c4.21369,4.78449 -7.02282,4.78449 -8.07624,10.32443c-1.05342,5.53994 -26.33555,-3.77723 -26.68669,-6.79901c-0.35115,-3.02179 6.67167,-10.32444 10.18308,-10.32444z" opacity="NaN" stroke-width="5" fill="none"/>
    <path stroke="#000" id="svg_99" d="m144.29159,307.55634c0,0.37662 6.73095,2.25972 19.6751,4.14281c12.94414,1.88309 15.0152,-12.42842 11.39084,-13.18166c-3.62436,-0.75324 -20.71063,-7.15576 -22.26393,-4.89604c-1.55329,2.25971 -16.05074,6.77914 -11.90861,10.1687c4.14213,3.38957 3.1066,3.38957 3.1066,3.76619z" opacity="NaN" stroke-width="5" fill="none"/>
    <path stroke="#000" id="svg_100" d="m165.03504,275.41677c3.5114,0 20.36616,2.01453 24.57985,6.79902c4.21369,4.78449 -7.02282,4.78449 -8.07624,10.32443c-1.05342,5.53994 -26.33555,-3.77723 -26.68669,-6.79901c-0.35115,-3.02179 6.67167,-10.32444 10.18308,-10.32444z" opacity="NaN" stroke-width="5" fill="none"/>
    <path transform="rotate(-180 180.696 267.506)" stroke="#000" id="svg_101" d="m166.29159,272.55634c0,0.37662 6.73095,2.25972 19.6751,4.14281c12.94414,1.88309 15.0152,-12.42842 11.39084,-13.18166c-3.62436,-0.75324 -20.71063,-7.15576 -22.26393,-4.89604c-1.55329,2.25971 -16.05074,6.77914 -11.90861,10.1687c4.14213,3.38957 3.1066,3.38957 3.1066,3.76619z" opacity="NaN" stroke-width="5" fill="none"/>
    <g stroke="null" id="svg_106">
     <path stroke="#000" id="svg_102" d="m168.03504,323.41677c3.5114,0 20.36616,2.01453 24.57985,6.79902c4.21369,4.78449 -7.02282,4.78449 -8.07624,10.32443c-1.05342,5.53994 -26.33555,-3.77723 -26.68669,-6.79901c-0.35115,-3.02179 6.67167,-10.32444 10.18308,-10.32444z" opacity="NaN" stroke-width="5" fill="none"/>
     <path stroke="#000" id="svg_103" d="m169.29159,320.55634c0,0.37662 6.73095,2.25972 19.6751,4.14281c12.94414,1.88309 15.0152,-12.42842 11.39084,-13.18166c-3.62436,-0.75324 -20.71063,-7.15576 -22.26393,-4.89604c-1.55329,2.25971 -16.05074,6.77914 -11.90861,10.1687c4.14213,3.38957 3.1066,3.38957 3.1066,3.76619z" opacity="NaN" stroke-width="5" fill="none"/>
     <path stroke="#000" id="svg_104" d="m190.03504,288.41677c3.5114,0 20.36616,2.01453 24.57985,6.79902c4.21369,4.78449 -7.02282,4.78449 -8.07624,10.32443c-1.05342,5.53994 -26.33555,-3.77723 -26.68669,-6.79901c-0.35115,-3.02179 6.67167,-10.32444 10.18308,-10.32444z" opacity="NaN" stroke-width="5" fill="none"/>
     <path transform="rotate(5 205.696 280.506)" stroke="#000" id="svg_105" d="m191.29159,285.55634c0,0.37662 6.73095,2.25972 19.6751,4.14281c12.94414,1.88309 15.0152,-12.42842 11.39084,-13.18166c-3.62436,-0.75324 -20.71063,-7.15576 -22.26393,-4.89604c-1.55329,2.25971 -16.05074,6.77914 -11.90861,10.1687c4.14213,3.38957 3.1066,3.38957 3.1066,3.76619z" opacity="NaN" stroke-width="5" fill="none"/>
    </g>
    <g transform="rotate(-180 135.267 292.925)" stroke="null" id="svg_111">
     <path stroke="#000" id="svg_107" d="m112.03504,310.41677c3.5114,0 20.36616,2.01453 24.57985,6.79902c4.21369,4.78449 -7.02282,4.78449 -8.07624,10.32443c-1.05342,5.53994 -26.33555,-3.77723 -26.68669,-6.79901c-0.35115,-3.02179 6.67167,-10.32444 10.18308,-10.32444z" opacity="NaN" stroke-width="5" fill="none"/>
     <path stroke="#000" id="svg_108" d="m113.29159,307.55634c0,0.37662 6.73095,2.25972 19.6751,4.14281c12.94414,1.88309 15.0152,-12.42842 11.39084,-13.18166c-3.62436,-0.75324 -20.71063,-7.15576 -22.26393,-4.89604c-1.55329,2.25971 -16.05074,6.77914 -11.90861,10.1687c4.14213,3.38957 3.1066,3.38957 3.1066,3.76619z" opacity="NaN" stroke-width="5" fill="none"/>
     <path stroke="#000" id="svg_109" d="m134.03504,275.41677c3.5114,0 20.36616,2.01453 24.57985,6.79902c4.21369,4.78449 -7.02282,4.78449 -8.07624,10.32443c-1.05342,5.53994 -26.33555,-3.77723 -26.68669,-6.79901c-0.35115,-3.02179 6.67167,-10.32444 10.18308,-10.32444z" opacity="NaN" stroke-width="5" fill="none"/>
     <path transform="rotate(5 149.696 267.506)" stroke="#000" id="svg_110" d="m135.29159,272.55634c0,0.37662 6.73095,2.25972 19.6751,4.14281c12.94414,1.88309 15.0152,-12.42842 11.39084,-13.18166c-3.62436,-0.75324 -20.71063,-7.15576 -22.26393,-4.89604c-1.55329,2.25971 -16.05074,6.77914 -11.90861,10.1687c4.14213,3.38957 3.1066,3.38957 3.1066,3.76619z" opacity="NaN" stroke-width="5" fill="none"/>
    </g>
   </g>
   <g stroke="null" transform="matrix(-0.948188 0 0 -0.962882 244.665 694.384)" id="svg_127">
    <path stroke="#000" id="svg_113" d="m99.03504,378.41677c3.5114,0 20.36616,2.01453 24.57985,6.79902c4.21369,4.78449 -7.02282,4.78449 -8.07624,10.32443c-1.05342,5.53994 -26.33555,-3.77723 -26.68669,-6.79901c-0.35115,-3.02179 6.67167,-10.32444 10.18308,-10.32444z" opacity="NaN" stroke-width="5" fill="none"/>
    <path stroke="#000" id="svg_114" d="m100.29159,375.55634c0,0.37662 6.73095,2.25972 19.6751,4.14281c12.94414,1.88309 15.0152,-12.42842 11.39084,-13.18166c-3.62436,-0.75324 -20.71063,-7.15576 -22.26393,-4.89604c-1.55329,2.25971 -16.05074,6.77914 -11.90861,10.1687c4.14213,3.38957 3.1066,3.38957 3.1066,3.76619z" opacity="NaN" stroke-width="5" fill="none"/>
    <path stroke="#000" id="svg_115" d="m121.03504,343.41677c3.5114,0 20.36616,2.01453 24.57985,6.79902c4.21369,4.78449 -7.02282,4.78449 -8.07624,10.32443c-1.05342,5.53994 -26.33555,-3.77723 -26.68669,-6.79901c-0.35115,-3.02179 6.67167,-10.32444 10.18308,-10.32444z" opacity="NaN" stroke-width="5" fill="none"/>
    <path transform="rotate(-180 136.696 335.506)" stroke="#000" id="svg_116" d="m122.29159,340.55634c0,0.37662 6.73095,2.25972 19.6751,4.14281c12.94414,1.88309 15.0152,-12.42842 11.39084,-13.18166c-3.62436,-0.75324 -20.71063,-7.15576 -22.26393,-4.89604c-1.55329,2.25971 -16.05074,6.77914 -11.90861,10.1687c4.14213,3.38957 3.1066,3.38957 3.1066,3.76619z" opacity="NaN" stroke-width="5" fill="none"/>
    <g stroke="null" id="svg_121">
     <path stroke="#000" id="svg_117" d="m124.03504,391.41677c3.5114,0 20.36616,2.01453 24.57985,6.79902c4.21369,4.78449 -7.02282,4.78449 -8.07624,10.32443c-1.05342,5.53994 -26.33555,-3.77723 -26.68669,-6.79901c-0.35115,-3.02179 6.67167,-10.32444 10.18308,-10.32444z" opacity="NaN" stroke-width="5" fill="none"/>
     <path stroke="#000" id="svg_118" d="m125.29159,388.55634c0,0.37662 6.73095,2.25972 19.6751,4.14281c12.94414,1.88309 15.0152,-12.42842 11.39084,-13.18166c-3.62436,-0.75324 -20.71063,-7.15576 -22.26393,-4.89604c-1.55329,2.25971 -16.05074,6.77914 -11.90861,10.1687c4.14213,3.38957 3.1066,3.38957 3.1066,3.76619z" opacity="NaN" stroke-width="5" fill="none"/>
     <path stroke="#000" id="svg_119" d="m146.03504,356.41677c3.5114,0 20.36616,2.01453 24.57985,6.79902c4.21369,4.78449 -7.02282,4.78449 -8.07624,10.32443c-1.05342,5.53994 -26.33555,-3.77723 -26.68669,-6.79901c-0.35115,-3.02179 6.67167,-10.32444 10.18308,-10.32444z" opacity="NaN" stroke-width="5" fill="none"/>
     <path transform="rotate(5 161.696 348.506)" stroke="#000" id="svg_120" d="m147.29159,353.55634c0,0.37662 6.73095,2.25972 19.6751,4.14281c12.94414,1.88309 15.0152,-12.42842 11.39084,-13.18166c-3.62436,-0.75324 -20.71063,-7.15576 -22.26393,-4.89604c-1.55329,2.25971 -16.05074,6.77914 -11.90861,10.1687c4.14213,3.38957 3.1066,3.38957 3.1066,3.76619z" opacity="NaN" stroke-width="5" fill="none"/>
    </g>
    <g transform="rotate(-180 91.2674 360.925)" stroke="null" id="svg_126">
     <path stroke="#000" id="svg_122" d="m68.03504,378.41677c3.5114,0 20.36616,2.01453 24.57985,6.79902c4.21369,4.78449 -7.02282,4.78449 -8.07624,10.32443c-1.05342,5.53994 -26.33555,-3.77723 -26.68669,-6.79901c-0.35115,-3.02179 6.67167,-10.32444 10.18308,-10.32444z" opacity="NaN" stroke-width="5" fill="none"/>
     <path stroke="#000" id="svg_123" d="m69.29159,375.55634c0,0.37662 6.73095,2.25972 19.6751,4.14281c12.94414,1.88309 15.0152,-12.42842 11.39084,-13.18166c-3.62436,-0.75324 -20.71063,-7.15576 -22.26393,-4.89604c-1.55329,2.25971 -16.05074,6.77914 -11.90861,10.1687c4.14213,3.38957 3.1066,3.38957 3.1066,3.76619z" opacity="NaN" stroke-width="5" fill="none"/>
     <path stroke="#000" id="svg_124" d="m90.03504,343.41677c3.5114,0 20.36616,2.01453 24.57985,6.79902c4.21369,4.78449 -7.02282,4.78449 -8.07624,10.32443c-1.05342,5.53994 -26.33555,-3.77723 -26.68669,-6.79901c-0.35115,-3.02179 6.67167,-10.32444 10.18308,-10.32444z" opacity="NaN" stroke-width="5" fill="none"/>
     <path transform="rotate(5 105.696 335.506)" stroke="#000" id="svg_125" d="m91.29159,340.55634c0,0.37662 6.73095,2.25972 19.6751,4.14281c12.94414,1.88309 15.0152,-12.42842 11.39084,-13.18166c-3.62436,-0.75324 -20.71063,-7.15576 -22.26393,-4.89604c-1.55329,2.25971 -16.05074,6.77914 -11.90861,10.1687c4.14213,3.38957 3.1066,3.38957 3.1066,3.76619z" opacity="NaN" stroke-width="5" fill="none"/>
    </g>
   </g>
   <g stroke="null" transform="matrix(-0.948188 0 0 -0.962882 166.913 825.336)" id="svg_142">
    <path stroke="#000" id="svg_128" d="m58.03504,446.41677c3.5114,0 20.36616,2.01453 24.57985,6.79902c4.21369,4.78449 -7.02282,4.78449 -8.07624,10.32443c-1.05342,5.53994 -26.33555,-3.77723 -26.68669,-6.79901c-0.35115,-3.02179 6.67167,-10.32444 10.18308,-10.32444z" opacity="NaN" stroke-width="5" fill="none"/>
    <path stroke="#000" id="svg_129" d="m59.29159,443.55634c0,0.37662 6.73095,2.25972 19.6751,4.14281c12.94414,1.88309 15.0152,-12.42842 11.39084,-13.18166c-3.62436,-0.75324 -20.71063,-7.15576 -22.26393,-4.89604c-1.55329,2.25971 -16.05074,6.77914 -11.90861,10.1687c4.14213,3.38957 3.1066,3.38957 3.1066,3.76619z" opacity="NaN" stroke-width="5" fill="none"/>
    <path stroke="#000" id="svg_130" d="m80.03504,411.41677c3.5114,0 20.36616,2.01453 24.57985,6.79902c4.21369,4.78449 -7.02282,4.78449 -8.07624,10.32443c-1.05342,5.53994 -26.33555,-3.77723 -26.68669,-6.79901c-0.35115,-3.02179 6.67167,-10.32444 10.18308,-10.32444z" opacity="NaN" stroke-width="5" fill="none"/>
    <path transform="rotate(-180 95.6964 403.506)" stroke="#000" id="svg_131" d="m81.29159,408.55634c0,0.37662 6.73095,2.25972 19.6751,4.14281c12.94414,1.88309 15.0152,-12.42842 11.39084,-13.18166c-3.62436,-0.75324 -20.71063,-7.15576 -22.26393,-4.89604c-1.55329,2.25971 -16.05074,6.77914 -11.90861,10.1687c4.14213,3.38957 3.1066,3.38957 3.1066,3.76619z" opacity="NaN" stroke-width="5" fill="none"/>
    <g stroke="null" id="svg_136">
     <path stroke="#000" id="svg_132" d="m83.03504,459.41677c3.5114,0 20.36616,2.01453 24.57985,6.79902c4.21369,4.78449 -7.02282,4.78449 -8.07624,10.32443c-1.05342,5.53994 -26.33555,-3.77723 -26.68669,-6.79901c-0.35115,-3.02179 6.67167,-10.32444 10.18308,-10.32444z" opacity="NaN" stroke-width="5" fill="none"/>
     <path stroke="#000" id="svg_133" d="m84.29159,456.55634c0,0.37662 6.73095,2.25972 19.6751,4.14281c12.94414,1.88309 15.0152,-12.42842 11.39084,-13.18166c-3.62436,-0.75324 -20.71063,-7.15576 -22.26393,-4.89604c-1.55329,2.25971 -16.05074,6.77914 -11.90861,10.1687c4.14213,3.38957 3.1066,3.38957 3.1066,3.76619z" opacity="NaN" stroke-width="5" fill="none"/>
     <path stroke="#000" id="svg_134" d="m105.03504,424.41677c3.5114,0 20.36616,2.01453 24.57985,6.79902c4.21369,4.78449 -7.02282,4.78449 -8.07624,10.32443c-1.05342,5.53994 -26.33555,-3.77723 -26.68669,-6.79901c-0.35115,-3.02179 6.67167,-10.32444 10.18308,-10.32444z" opacity="NaN" stroke-width="5" fill="none"/>
     <path transform="rotate(5 120.696 416.506)" stroke="#000" id="svg_135" d="m106.29159,421.55634c0,0.37662 6.73095,2.25972 19.6751,4.14281c12.94414,1.88309 15.0152,-12.42842 11.39084,-13.18166c-3.62436,-0.75324 -20.71063,-7.15576 -22.26393,-4.89604c-1.55329,2.25971 -16.05074,6.77914 -11.90861,10.1687c4.14213,3.38957 3.1066,3.38957 3.1066,3.76619z" opacity="NaN" stroke-width="5" fill="none"/>
    </g>
    <g transform="rotate(-180 50.2674 428.925)" stroke="null" id="svg_141">
     <path stroke="#000" id="svg_137" d="m27.03504,446.41677c3.5114,0 20.36616,2.01453 24.57985,6.79902c4.21369,4.78449 -7.02282,4.78449 -8.07624,10.32443c-1.05342,5.53994 -26.33555,-3.77723 -26.68669,-6.79901c-0.35115,-3.02179 6.67167,-10.32444 10.18308,-10.32444z" opacity="NaN" stroke-width="5" fill="none"/>
     <path stroke="#000" id="svg_138" d="m28.29159,443.55634c0,0.37662 6.73095,2.25972 19.6751,4.14281c12.94414,1.88309 15.0152,-12.42842 11.39084,-13.18166c-3.62436,-0.75324 -20.71063,-7.15576 -22.26393,-4.89604c-1.55329,2.25971 -16.05074,6.77914 -11.90861,10.1687c4.14213,3.38957 3.1066,3.38957 3.1066,3.76619z" opacity="NaN" stroke-width="5" fill="none"/>
     <path stroke="#000" id="svg_139" d="m49.03504,411.41677c3.5114,0 20.36616,2.01453 24.57985,6.79902c4.21369,4.78449 -7.02282,4.78449 -8.07624,10.32443c-1.05342,5.53994 -26.33555,-3.77723 -26.68669,-6.79901c-0.35115,-3.02179 6.67167,-10.32444 10.18308,-10.32444z" opacity="NaN" stroke-width="5" fill="none"/>
     <path transform="rotate(5 64.6964 403.506)" stroke="#000" id="svg_140" d="m50.29159,408.55634c0,0.37662 6.73095,2.25972 19.6751,4.14281c12.94414,1.88309 15.0152,-12.42842 11.39084,-13.18166c-3.62436,-0.75324 -20.71063,-7.15576 -22.26393,-4.89604c-1.55329,2.25971 -16.05074,6.77914 -11.90861,10.1687c4.14213,3.38957 3.1066,3.38957 3.1066,3.76619z" opacity="NaN" stroke-width="5" fill="none"/>
    </g>
   </g>
   <g stroke="null" transform="matrix(-0.948188 0 0 -0.962882 364.136 411.297)" id="svg_52">
    <path stroke="#000" id="svg_175" d="m162.03504,231.41677c3.5114,0 20.36616,2.01453 24.57985,6.79902c4.21369,4.78449 -7.02282,4.78449 -8.07624,10.32443c-1.05342,5.53994 -26.33555,-3.77723 -26.68669,-6.79901c-0.35115,-3.02179 6.67167,-10.32444 10.18308,-10.32444z" opacity="NaN" stroke-width="5" fill="none"/>
    <path stroke="#000" id="svg_176" d="m163.29159,228.55634c0,0.37662 6.73095,2.25972 19.6751,4.14281c12.94414,1.88309 15.0152,-12.42842 11.39084,-13.18166c-3.62436,-0.75324 -20.71063,-7.15576 -22.26393,-4.89604c-1.55329,2.25971 -16.05074,6.77914 -11.90861,10.1687c4.14213,3.38957 3.1066,3.38957 3.1066,3.76619z" opacity="NaN" stroke-width="5" fill="none"/>
    <path stroke="#000" id="svg_177" d="m184.03504,196.41677c3.5114,0 20.36616,2.01453 24.57985,6.79902c4.21369,4.78449 -7.02282,4.78449 -8.07624,10.32443c-1.05342,5.53994 -26.33555,-3.77723 -26.68669,-6.79901c-0.35115,-3.02179 6.67167,-10.32444 10.18308,-10.32444z" opacity="NaN" stroke-width="5" fill="none"/>
    <path transform="rotate(-180 199.696 188.506)" stroke="#000" id="svg_178" d="m185.29159,193.55634c0,0.37662 6.73095,2.25972 19.6751,4.14281c12.94414,1.88309 15.0152,-12.42842 11.39084,-13.18166c-3.62436,-0.75324 -20.71063,-7.15576 -22.26393,-4.89604c-1.55329,2.25971 -16.05074,6.77914 -11.90861,10.1687c4.14213,3.38957 3.1066,3.38957 3.1066,3.76619z" opacity="NaN" stroke-width="5" fill="none"/>
    <g stroke="null" id="svg_183">
     <path stroke="#000" id="svg_179" d="m187.03504,244.41677c3.5114,0 20.36616,2.01453 24.57985,6.79902c4.21369,4.78449 -7.02282,4.78449 -8.07624,10.32443c-1.05342,5.53994 -26.33555,-3.77723 -26.68669,-6.79901c-0.35115,-3.02179 6.67167,-10.32444 10.18308,-10.32444z" opacity="NaN" stroke-width="5" fill="none"/>
     <path stroke="#000" id="svg_180" d="m188.29159,241.55634c0,0.37662 6.73095,2.25972 19.6751,4.14281c12.94414,1.88309 15.0152,-12.42842 11.39084,-13.18166c-3.62436,-0.75324 -20.71063,-7.15576 -22.26393,-4.89604c-1.55329,2.25971 -16.05074,6.77914 -11.90861,10.1687c4.14213,3.38957 3.1066,3.38957 3.1066,3.76619z" opacity="NaN" stroke-width="5" fill="none"/>
     <path stroke="#000" id="svg_181" d="m209.03504,209.41677c3.5114,0 20.36616,2.01453 24.57985,6.79902c4.21369,4.78449 -7.02282,4.78449 -8.07624,10.32443c-1.05342,5.53994 -26.33555,-3.77723 -26.68669,-6.79901c-0.35115,-3.02179 6.67167,-10.32444 10.18308,-10.32444z" opacity="NaN" stroke-width="5" fill="none"/>
     <path transform="rotate(5 224.696 201.506)" stroke="#000" id="svg_182" d="m210.29159,206.55634c0,0.37662 6.73095,2.25972 19.6751,4.14281c12.94414,1.88309 15.0152,-12.42842 11.39084,-13.18166c-3.62436,-0.75324 -20.71063,-7.15576 -22.26393,-4.89604c-1.55329,2.25971 -16.05074,6.77914 -11.90861,10.1687c4.14213,3.38957 3.1066,3.38957 3.1066,3.76619z" opacity="NaN" stroke-width="5" fill="none"/>
    </g>
    <g transform="rotate(-180 154.267 213.925)" stroke="null" id="svg_188">
     <path stroke="#000" id="svg_184" d="m131.03504,231.41677c3.5114,0 20.36616,2.01453 24.57985,6.79902c4.21369,4.78449 -7.02282,4.78449 -8.07624,10.32443c-1.05342,5.53994 -26.33555,-3.77723 -26.68669,-6.79901c-0.35115,-3.02179 6.67167,-10.32444 10.18308,-10.32444z" opacity="NaN" stroke-width="5" fill="none"/>
     <path stroke="#000" id="svg_185" d="m132.29159,228.55634c0,0.37662 6.73095,2.25972 19.6751,4.14281c12.94414,1.88309 15.0152,-12.42842 11.39084,-13.18166c-3.62436,-0.75324 -20.71063,-7.15576 -22.26393,-4.89604c-1.55329,2.25971 -16.05074,6.77914 -11.90861,10.1687c4.14213,3.38957 3.1066,3.38957 3.1066,3.76619z" opacity="NaN" stroke-width="5" fill="none"/>
     <path stroke="#000" id="svg_186" d="m153.03504,196.41677c3.5114,0 20.36616,2.01453 24.57985,6.79902c4.21369,4.78449 -7.02282,4.78449 -8.07624,10.32443c-1.05342,5.53994 -26.33555,-3.77723 -26.68669,-6.79901c-0.35115,-3.02179 6.67167,-10.32444 10.18308,-10.32444z" opacity="NaN" stroke-width="5" fill="none"/>
     <path transform="rotate(5 168.696 188.506)" stroke="#000" id="svg_187" d="m154.29159,193.55634c0,0.37662 6.73095,2.25972 19.6751,4.14281c12.94414,1.88309 15.0152,-12.42842 11.39084,-13.18166c-3.62436,-0.75324 -20.71063,-7.15576 -22.26393,-4.89604c-1.55329,2.25971 -16.05074,6.77914 -11.90861,10.1687c4.14213,3.38957 3.1066,3.38957 3.1066,3.76619z" opacity="NaN" stroke-width="5" fill="none"/>
    </g>
   </g>
   <g stroke="null" transform="matrix(-0.948188 0 0 -0.962882 275.007 349.672)" id="svg_204">
    <path stroke="#000" id="svg_190" d="m115.03504,199.41677c3.5114,0 20.36616,2.01453 24.57985,6.79902c4.21369,4.78449 -7.02282,4.78449 -8.07624,10.32443c-1.05342,5.53994 -26.33555,-3.77723 -26.68669,-6.79901c-0.35115,-3.02179 6.67167,-10.32444 10.18308,-10.32444z" opacity="NaN" stroke-width="5" fill="none"/>
    <path stroke="#000" id="svg_191" d="m116.29159,196.55634c0,0.37662 6.73095,2.25972 19.6751,4.14281c12.94414,1.88309 15.0152,-12.42842 11.39084,-13.18166c-3.62436,-0.75324 -20.71063,-7.15576 -22.26393,-4.89604c-1.55329,2.25971 -16.05074,6.77914 -11.90861,10.1687c4.14213,3.38957 3.1066,3.38957 3.1066,3.76619z" opacity="NaN" stroke-width="5" fill="none"/>
    <path stroke="#000" id="svg_192" d="m137.03504,164.41677c3.5114,0 20.36616,2.01453 24.57985,6.79902c4.21369,4.78449 -7.02282,4.78449 -8.07624,10.32443c-1.05342,5.53994 -26.33555,-3.77723 -26.68669,-6.79901c-0.35115,-3.02179 6.67167,-10.32444 10.18308,-10.32444z" opacity="NaN" stroke-width="5" fill="none"/>
    <path transform="rotate(-180 152.696 156.506)" stroke="#000" id="svg_193" d="m138.29159,161.55634c0,0.37662 6.73095,2.25972 19.6751,4.14281c12.94414,1.88309 15.0152,-12.42842 11.39084,-13.18166c-3.62436,-0.75324 -20.71063,-7.15576 -22.26393,-4.89604c-1.55329,2.25971 -16.05074,6.77914 -11.90861,10.1687c4.14213,3.38957 3.1066,3.38957 3.1066,3.76619z" opacity="NaN" stroke-width="5" fill="none"/>
    <g stroke="null" id="svg_198">
     <path stroke="#000" id="svg_194" d="m140.03504,212.41677c3.5114,0 20.36616,2.01453 24.57985,6.79902c4.21369,4.78449 -7.02282,4.78449 -8.07624,10.32443c-1.05342,5.53994 -26.33555,-3.77723 -26.68669,-6.79901c-0.35115,-3.02179 6.67167,-10.32444 10.18308,-10.32444z" opacity="NaN" stroke-width="5" fill="none"/>
     <path stroke="#000" id="svg_195" d="m141.29159,209.55634c0,0.37662 6.73095,2.25972 19.6751,4.14281c12.94414,1.88309 15.0152,-12.42842 11.39084,-13.18166c-3.62436,-0.75324 -20.71063,-7.15576 -22.26393,-4.89604c-1.55329,2.25971 -16.05074,6.77914 -11.90861,10.1687c4.14213,3.38957 3.1066,3.38957 3.1066,3.76619z" opacity="NaN" stroke-width="5" fill="none"/>
     <path stroke="#000" id="svg_196" d="m162.03504,177.41677c3.5114,0 20.36616,2.01453 24.57985,6.79902c4.21369,4.78449 -7.02282,4.78449 -8.07624,10.32443c-1.05342,5.53994 -26.33555,-3.77723 -26.68669,-6.79901c-0.35115,-3.02179 6.67167,-10.32444 10.18308,-10.32444z" opacity="NaN" stroke-width="5" fill="none"/>
     <path transform="rotate(5 177.696 169.506)" stroke="#000" id="svg_197" d="m163.29159,174.55634c0,0.37662 6.73095,2.25972 19.6751,4.14281c12.94414,1.88309 15.0152,-12.42842 11.39084,-13.18166c-3.62436,-0.75324 -20.71063,-7.15576 -22.26393,-4.89604c-1.55329,2.25971 -16.05074,6.77914 -11.90861,10.1687c4.14213,3.38957 3.1066,3.38957 3.1066,3.76619z" opacity="NaN" stroke-width="5" fill="none"/>
    </g>
    <g transform="rotate(-180 107.267 181.925)" stroke="null" id="svg_203">
     <path stroke="#000" id="svg_199" d="m84.03504,199.41677c3.5114,0 20.36616,2.01453 24.57985,6.79902c4.21369,4.78449 -7.02282,4.78449 -8.07624,10.32443c-1.05342,5.53994 -26.33555,-3.77723 -26.68669,-6.79901c-0.35115,-3.02179 6.67167,-10.32444 10.18308,-10.32444z" opacity="NaN" stroke-width="5" fill="none"/>
     <path stroke="#000" id="svg_200" d="m85.29159,196.55634c0,0.37662 6.73095,2.25972 19.6751,4.14281c12.94414,1.88309 15.0152,-12.42842 11.39084,-13.18166c-3.62436,-0.75324 -20.71063,-7.15576 -22.26393,-4.89604c-1.55329,2.25971 -16.05074,6.77914 -11.90861,10.1687c4.14213,3.38957 3.1066,3.38957 3.1066,3.76619z" opacity="NaN" stroke-width="5" fill="none"/>
     <path stroke="#000" id="svg_201" d="m106.03504,164.41677c3.5114,0 20.36616,2.01453 24.57985,6.79902c4.21369,4.78449 -7.02282,4.78449 -8.07624,10.32443c-1.05342,5.53994 -26.33555,-3.77723 -26.68669,-6.79901c-0.35115,-3.02179 6.67167,-10.32444 10.18308,-10.32444z" opacity="NaN" stroke-width="5" fill="none"/>
     <path transform="rotate(5 121.696 156.506)" stroke="#000" id="svg_202" d="m107.29159,161.55634c0,0.37662 6.73095,2.25972 19.6751,4.14281c12.94414,1.88309 15.0152,-12.42842 11.39084,-13.18166c-3.62436,-0.75324 -20.71063,-7.15576 -22.26393,-4.89604c-1.55329,2.25971 -16.05074,6.77914 -11.90861,10.1687c4.14213,3.38957 3.1066,3.38957 3.1066,3.76619z" opacity="NaN" stroke-width="5" fill="none"/>
    </g>
   </g>
   <path stroke="#000" id="svg_227" d="m163.18947,119.67127c17.0862,7.41214 23.14904,2.85082 19.84203,14.82428c-3.30701,11.97345 -3.30701,10.83312 -14.33036,7.41214c-11.02335,-3.42099 -19.29087,-10.83312 -15.43269,-12.54362c3.85817,-1.71049 -7.16518,-17.10493 9.92102,-9.6928z" opacity="NaN" stroke-width="5" fill="#FFFA8D"/>
   <path stroke="#000" id="svg_228" d="m201.52376,145.11016c-14.00929,-7.41214 -18.98033,-2.85082 -16.26885,-14.82427c2.71147,-11.97346 2.71147,-10.83313 11.74973,-7.41215c9.03825,3.42099 15.81694,10.83313 12.65355,12.54362c-3.16338,1.71049 5.87486,17.10494 -8.13442,9.6928z" opacity="NaN" stroke-width="5" fill="#FFFA8D"/>
   <path stroke="#000" id="svg_229" d="m216.69477,174.95908c-14.00929,-7.41214 -18.98033,-2.85082 -16.26886,-14.82427c2.71148,-11.97346 2.71148,-10.83313 11.74973,-7.41215c9.03825,3.42099 15.81694,10.83313 12.65355,12.54362c-3.16338,1.71049 5.87487,17.10494 -8.13442,9.6928z" opacity="NaN" stroke-width="5" fill="#FFFA8D"/>
   <path stroke="#000" id="svg_230" d="m145.58068,128.74076c-14.00929,-7.41214 -18.98033,-2.85082 -16.26886,-14.82427c2.71148,-11.97346 2.71148,-10.83313 11.74973,-7.41215c9.03825,3.42099 15.81694,10.83313 12.65355,12.54362c-3.16338,1.71049 5.87487,17.10494 -8.13442,9.6928z" opacity="NaN" stroke-width="5" fill="#FFFA8D"/>
   <path stroke="#000" id="svg_231" d="m148.93796,88.54549c13.31982,8.62384 18.66343,4.51985 14.93464,16.20776c-3.72879,11.68792 -3.63092,10.55192 -12.34117,6.34402c-8.71025,-4.20792 -14.82699,-12.19181 -11.52883,-13.61581c3.29815,-1.424 -4.38447,-17.55981 8.93536,-8.93597z" opacity="NaN" stroke-width="5" fill="#FFFA8D"/>
   <path stroke="#000" id="svg_232" d="m175.4872,79.87956c13.31982,8.62384 18.66343,4.51985 14.93464,16.20776c-3.72879,11.68792 -3.63092,10.55192 -12.34117,6.34402c-8.71025,-4.20792 -14.82699,-12.19181 -11.52883,-13.61581c3.29815,-1.424 -4.38447,-17.55981 8.93536,-8.93597z" opacity="NaN" stroke-width="5" fill="#FFFA8D"/>
   <path stroke="#000" id="svg_233" d="m202.47195,123.92681c-14.00929,-7.41214 -18.98033,-2.85082 -16.26886,-14.82427c2.71148,-11.97346 2.71148,-10.83313 11.74973,-7.41215c9.03825,3.42099 15.81694,10.83313 12.65355,12.54362c-3.16338,1.71049 5.87487,17.10494 -8.13442,9.6928z" opacity="NaN" stroke-width="5" fill="#FFFA8D"/>
   <path stroke="#000" id="svg_234" d="m198.97516,51.86052c-14.00929,-7.41214 -18.98033,-2.85082 -16.26886,-14.82427c2.71148,-11.97346 2.71148,-10.83313 11.74973,-7.41215c9.03825,3.42099 15.81694,10.83313 12.65355,12.54362c-3.16338,1.71049 5.87487,17.10494 -8.13442,9.6928z" opacity="NaN" stroke-width="5" fill="#FFFA8D"/>
   <path stroke="#000" id="svg_235" d="m217.79399,42.85705c11.52191,5.67316 15.93311,2.99872 13.10126,10.6403c-2.83185,7.64158 -2.78067,6.8983 -10.27525,4.12534c-7.49458,-2.77296 -12.89799,-8.01164 -10.14436,-8.93649c2.75361,-0.92485 -4.20355,-11.50231 7.31836,-5.82915z" opacity="NaN" stroke-width="5" fill="#FFFA8D"/>
   <path stroke="#000" id="svg_236" d="m219.89774,154.28459c-11.95801,-5.53123 -16.20119,-2.1274 -13.88673,-11.06246c2.31446,-8.93507 2.31446,-8.08411 10.0293,-5.53124c7.71485,2.55288 13.50099,8.08411 10.80079,9.36055c-2.70019,1.27644 5.01466,12.76438 -6.94336,7.23315z" opacity="NaN" stroke-width="5" fill="#FFFA8D"/>
   <path stroke="#000" id="svg_237" d="m206.62312,102.28945c-11.95801,-5.53123 -16.20119,-2.1274 -13.88673,-11.06246c2.31445,-8.93507 2.31445,-8.08411 10.02931,-5.53123c7.71485,2.55288 13.50098,8.0841 10.80078,9.36055c-2.70019,1.27643 5.01466,12.76437 -6.94335,7.23315z" opacity="NaN" stroke-width="5" fill="#FFFA8D"/>
   <path stroke="#000" id="svg_238" d="m162.05829,93.62353c-11.95801,-5.53123 -16.20119,-2.1274 -13.88673,-11.06246c2.31445,-8.93507 2.31445,-8.08411 10.02931,-5.53123c7.71485,2.55288 13.50098,8.0841 10.80078,9.36055c-2.70019,1.27643 5.01466,12.76437 -6.94335,7.23315z" opacity="NaN" stroke-width="5" fill="#FFFA8D"/>
   <path stroke="#000" id="svg_239" d="m188.60755,83.03184c-11.95801,-5.53123 -16.20119,-2.1274 -13.88673,-11.06246c2.31445,-8.93507 2.31445,-8.08411 10.02931,-5.53123c7.71485,2.55288 13.50098,8.0841 10.80078,9.36055c-2.70019,1.27643 5.01466,12.76437 -6.94335,7.23315z" opacity="NaN" stroke-width="5" fill="#FFFA8D"/>
   <path stroke="#000" id="svg_240" d="m183.86661,62.81132c-11.95801,-5.53123 -16.20119,-2.1274 -13.88673,-11.06246c2.31445,-8.93507 2.31445,-8.08411 10.02931,-5.53123c7.71485,2.55288 13.50098,8.0841 10.80078,9.36055c-2.70019,1.27643 5.01466,12.76437 -6.94335,7.23315z" opacity="NaN" stroke-width="5" fill="#FFFA8D"/>
   <path stroke="#000" id="svg_241" d="m232.22419,82.06895c-11.95801,-5.53123 -16.20119,-2.1274 -13.88673,-11.06246c2.31445,-8.93507 2.31445,-8.08411 10.02931,-5.53123c7.71485,2.55288 13.50098,8.0841 10.80078,9.36055c-2.70019,1.27643 5.01466,12.76437 -6.94335,7.23315z" opacity="NaN" stroke-width="5" fill="#FFFA8D"/>
   <path stroke="#000" id="svg_242" d="m227.48325,109.02964c-11.95801,-5.53123 -16.20119,-2.1274 -13.88673,-11.06246c2.31445,-8.93507 2.31445,-8.08411 10.02931,-5.53123c7.71485,2.55288 13.50098,8.0841 10.80078,9.36055c-2.70019,1.27643 5.01466,12.76437 -6.94335,7.23315z" opacity="NaN" stroke-width="5" fill="#FFFA8D"/>
   <path stroke="#000" id="svg_244" d="m211.95383,89.26263c-14.00929,-7.41214 -18.98033,-2.85082 -16.26886,-14.82427c2.71148,-11.97346 2.71148,-10.83313 11.74973,-7.41215c9.03825,3.42099 15.81694,10.83313 12.65355,12.54362c-3.16338,1.71049 5.87487,17.10494 -8.13442,9.6928z" opacity="NaN" stroke-width="5" fill="#FFFA8D"/>
   <path stroke="#000" id="svg_246" d="m207.19794,41.42349c2.71148,-11.97346 2.71148,-10.83313 11.74973,-7.41215c9.03825,3.42099 15.81694,10.83313 12.65355,12.54362l-24.40327,-5.13148z" opacity="NaN" stroke-width="5" fill="#FFFA8D"/>
   <path stroke="#000" id="svg_249" d="m211.94612,37.51162c-4.1282,11.54865 -3.99134,10.41682 -12.55167,5.90278c-8.56033,-4.51405 -14.39896,-12.70985 -11.05388,-14.0161l23.60555,8.11332z" opacity="NaN" stroke-width="5" fill="#FFFA8D"/>
   <path stroke="#000" id="svg_250" d="m209.66865,25.55035c7.76883,-9.41837 7.25903,-8.40233 13.78278,-1.18734c6.52374,7.21499 9.24991,16.94441 5.66661,17.01006l-19.44939,-15.82272z" opacity="NaN" stroke-width="5" fill="#FFFA8D"/>
   <path stroke="#000" id="svg_251" d="m177.15385,123.92637c-14.00929,-7.41214 -18.98033,-2.85082 -16.26886,-14.82427c2.71148,-11.97346 2.71148,-10.83313 11.74973,-7.41215c9.03825,3.42099 15.81694,10.83313 12.65355,12.54362c-3.16338,1.71049 5.87487,17.10494 -8.13442,9.6928z" opacity="NaN" stroke-width="5" fill="#FFFA8D"/>
   <path stroke="#000" id="svg_252" d="m223.81779,138.54605c-14.00929,-7.41214 -18.98033,-2.85082 -16.26886,-14.82427c2.71148,-11.97346 2.71148,-10.83313 11.74973,-7.41215c9.03825,3.42099 15.81694,10.83313 12.65355,12.54362c-3.16338,1.71049 5.87487,17.10494 -8.13442,9.6928z" opacity="NaN" stroke-width="5" fill="#FFFA8D"/>
   <path stroke="#000" id="svg_253" d="m234.24352,98.71956c-14.00929,-7.41214 -18.98033,-2.85082 -16.26886,-14.82427c2.71148,-11.97346 2.71148,-10.83313 11.74973,-7.41215c9.03825,3.42099 15.81694,10.83313 12.65355,12.54362c-3.16338,1.71049 5.87487,17.10494 -8.13442,9.6928z" opacity="NaN" stroke-width="5" fill="#FFFA8D"/>
   <path stroke="#000" id="svg_254" d="m233.64471,121.97536c-10.07858,-4.2651 -13.65486,-1.64043 -11.70416,-8.5302c1.95069,-6.88978 1.95069,-6.23361 8.453,-4.2651c6.5023,1.96851 11.37904,6.2336 9.10322,7.21786c-2.2758,0.98425 4.22651,9.84253 -5.85207,5.57744z" opacity="NaN" stroke-width="5" fill="#FFFA8D"/>
   <path stroke="#000" id="svg_255" d="m200.88001,66.01679c-10.07858,-4.26509 -13.65486,-1.64042 -11.70417,-8.53019c1.95069,-6.88978 1.95069,-6.23362 8.45301,-4.2651c6.5023,1.96851 11.37903,6.2336 9.10322,7.21786c-2.2758,0.98426 4.22651,9.84254 -5.85206,5.57743z" opacity="NaN" stroke-width="5" fill="#FFFA8D"/>
   <path stroke="#000" id="svg_256" d="m166.62604,79.62817c-10.07858,-4.26509 -13.65486,-1.64042 -11.70417,-8.53019c1.95069,-6.88978 1.95069,-6.23362 8.45301,-4.2651c6.5023,1.96851 11.37903,6.2336 9.10322,7.21786c-2.2758,0.98426 4.22651,9.84254 -5.85206,5.57743z" opacity="NaN" stroke-width="5" fill="#FFFA8D"/>
   <path stroke="#000" id="svg_258" d="m215.686,19.65c1.27494,12.21758 0.90935,11.13938 -8.73325,10.89294c-9.6426,-0.24645 -18.42831,-5.01363 -15.98565,-7.6768l24.7189,-3.21614z" opacity="NaN" stroke-width="5" fill="#FFFA8D"/>
   <path stroke="#000" id="svg_260" d="m213.95739,55.10178c11.52191,5.67316 15.93311,2.99872 13.10126,10.6403c-2.83186,7.64158 -2.78068,6.89829 -10.27526,4.12534c-7.49458,-2.77296 -12.89798,-8.01165 -10.14436,-8.93648c2.75361,-0.92485 -4.20355,-11.50231 7.31836,-5.82915z" opacity="NaN" stroke-width="5" fill="#FFFA8D"/>
   <path stroke="#000" stroke-width="8" id="svg_261" d="m152.21568,425.77427c1.32113,-6.16436 105.96387,-132.12357 86.20617,-202.04233c-19.75771,-69.91878 23.92216,-107.71394 4.57877,-159.05827c-19.3434,-51.34434 -19.15689,-83.46425 -62.7061,-33.58355c-43.54921,49.8807 -52.50229,90.67898 -87.72158,130.98907c-35.2193,40.3101 -36.79396,131.64091 -32.43859,149.40446c4.35535,17.76354 -23.86632,63.50847 -7.26233,88.57272c16.60399,25.06424 3.72102,57.8323 39.92195,49.07443c36.20092,-8.75788 58.10059,-17.19215 59.42172,-23.35651l-0.00002,0l0.00001,-0.00001z" opacity="NaN" fill="none"/>
   <path stroke="#000" id="svg_3" d="m69.20522,473.24102c0,0 80.56994,-42.37468 83.82579,-42.86767c3.25585,-0.493 89.87735,-83.61425 91.52439,-92.57241c1.64704,-8.95814 15.99296,-100.22767 16.26987,-112.32788c0.27691,-12.1002 16.36699,-137.57565 12.03859,-142.72607c-4.3284,-5.15043 -50.20164,77.49489 -68.22503,114.16581c-18.0234,36.67093 -58.13923,119.78426 -49.26442,125.80938c8.87481,6.02512 -25.48362,89.60647 -53.93174,103.96265c-28.44813,14.35619 -66.37219,13.81821 -36.97837,44.63041l4.74092,-0.96288l-0.00001,2.88865z" opacity="NaN" stroke-width="7" fill="#8CD79F"/>
   <path stroke="#000" stroke-width="7" id="svg_2" d="m70.88392,439.57589c40.2514,-66.50088 52.15861,-94.09358 55.46862,-122.6459c3.31001,-28.55232 11.33811,-121.52512 -1.78182,-182.31297c-13.11993,-60.78785 -22.60767,-77.78764 -23.60942,-77.05379c-1.00176,0.73385 -40.52197,63.87858 -47.19785,130.37666c-6.67588,66.49809 -32.2183,44.64912 -27.92321,66.90442c4.29509,22.25529 0.10234,141.449 12.62425,132.27583c12.5219,-9.17316 -7.83197,118.95664 32.41943,52.45575l0,0.00002l-0.00001,-0.00002z" opacity="NaN" fill="#8CD79F"/>
   <path stroke="#000" id="svg_224" d="m80.99508,413.36227c0,0 47.40939,-92.43663 36.03114,-118.43443c-11.37825,-25.9978 -84.38872,-106.87984 -83.44053,-111.69425c0.94819,-4.81441 -4.74094,37.55238 -7.5855,68.36458c-2.84456,30.81221 -5.68913,119.39731 5.68913,140.58071c11.37825,21.18339 7.5855,77.03053 20.86013,65.47595c13.27463,-11.55458 28.44564,-44.29255 28.44564,-44.29255z" opacity="NaN" stroke-width="7" fill="#8CD79F"/>
   <path stroke="#000" id="svg_265" d="m54.0227,446.34608c0.75855,0 63.71822,-94.74754 97.09443,-109.38334c33.37621,-14.6358 43.99592,-18.48733 71.30372,-30.0419c27.30781,-11.55458 61.44262,-68.23618 45.13377,-20.63775c-16.30886,47.59843 -20.10161,45.28752 -52.71927,103.06041c-32.61766,57.77289 -87.23328,97.82876 -125.16079,80.88205c-37.92751,-16.94672 -44.75447,13.09519 -43.23737,-5.39214c1.5171,-18.48733 6.82695,-18.48733 7.5855,-18.48733z" opacity="NaN" stroke-width="7" fill="#8CD79F"/>
  </g>
 </g>

</svg>