<svg width="500.00000000000006" height="500.00000000000006" xmlns="http://www.w3.org/2000/svg">
 <g id="Layer_1">
  <title>Layer 1</title>
  <g stroke="null" id="svg_14">
   <path stroke="#000" fill="#007f00" stroke-width="7" opacity="NaN" d="m193.98742,338.66367c-26.14635,10.11049 -45.26464,-5.87638 -67.89847,-5.39522c-9.81003,-1.24691 -20.58169,-17.43239 -30.39172,-18.67931c-19.80461,-18.28413 -18.3328,-25.59366 -29.08387,-37.62269c-10.75107,-12.02903 -11.42827,-43.16732 -10.86242,-54.7152c0.56584,-11.54787 11.14381,-37.41594 32.64596,-54.25659c21.50215,-16.84065 36.15239,-26.52731 70.61637,-30.42782c34.46398,-3.90051 50.47773,-20.28866 91.78448,-12.59008c41.30676,7.69858 72.71578,-2.0393 101.57392,12.39554c28.85815,14.43484 55.39724,10.18428 66.6524,33.08549c11.25516,22.90121 39.5566,37.80501 24.66845,65.74714c-14.88815,27.94213 -3.10454,45.2865 -22.80694,58.31263c-19.7024,13.02613 -20.14777,27.51219 -51.94649,28.1019c-31.79872,0.58971 -55.89829,24.36115 -78.53212,6.55818c-22.63384,-17.80298 -70.2732,-0.62447 -96.41955,9.48602z" id="svg_15"/>
   <path stroke="null" fill="#045b04" stroke-width="7" opacity="NaN" d="m210.1295,327.18116c-19.92968,5.32762 -34.50231,-3.0965 -51.75462,-2.84296c-7.47756,-0.65705 -15.6881,-9.18583 -23.16565,-9.84289c-15.09577,-9.63465 -13.97391,-13.48634 -22.16876,-19.82492c-8.19485,-6.33858 -8.71103,-22.74661 -8.27972,-28.83165c0.43131,-6.08504 27.72689,-4.77741 44.11659,-13.65143c16.3897,-8.87402 8.32396,-17.71295 34.59363,-19.76829c26.26968,-2.05533 28.85959,14.51791 60.34506,18.57461c31.48548,4.05669 42.92531,-20.68146 64.92202,-13.07515c21.99671,7.6063 40.30247,10.96847 48.88156,23.03604c8.57908,12.06757 54.19229,-2.48685 42.84401,12.237c-11.34828,14.72384 -2.36639,23.86328 -17.38426,30.72728c-15.01787,6.864 -15.35735,14.49728 -39.59546,14.80802c-24.23811,0.31074 -42.60766,12.83687 -59.85998,3.45577c-17.25231,-9.38111 -53.56474,-0.32906 -73.49441,4.99857z" id="svg_16"/>
   <path stroke="#000" fill="#491212" stroke-width="7" opacity="NaN" d="m324.21948,456.83585c0,0 -20.57438,-16.53766 -34.29066,-18.37518c-13.71626,-1.83752 -18.82074,-26.94783 -19.98292,-36.7455c-1.16219,-9.79766 -5.18272,-18.37842 -1.1622,-31.85408c4.02051,-13.47566 -2.00106,-44.1015 -0.28653,-50.22656c1.71453,-6.12505 11.92349,-31.85301 24.86072,-40.42539c12.93723,-8.57237 52.29325,-28.78777 54.00777,-26.95025c1.71453,1.83751 -16.28806,-3.67504 -16.28806,-3.67504c0,0 -38.297,17.327 -52.29322,23.78201c-13.9962,6.455 -26.57528,17.86839 -27.43254,17.86839c-0.85727,0 -11.74628,3.67773 -21.26481,0.61223c-9.51853,-3.0655 -23.17935,-22.7034 -32.14389,-27.99181c-8.96453,-5.28841 -33.83803,-25.90876 -34.64566,-20.51136c-0.80764,5.3974 6.75482,12.87806 14.16033,20.0992c7.40549,7.22113 15.2248,16.15305 24.05291,25.64297c8.8281,9.48993 6.97782,19.91144 6.12054,25.42399c-0.85727,5.51255 28.31855,30.93033 24.88948,35.83038c-3.42906,4.90004 -2.69953,30.93222 -6.98585,32.76974c-4.28634,1.83752 -0.75831,28.78831 -7.61644,32.46335c-6.85813,3.67504 1.71453,22.05021 -22.28893,31.23781c-24.00345,9.18759 -32.57611,12.25011 -33.43336,11.84179c0.85724,0.40833 13.00798,11.87379 46.60545,-5.80614c33.59747,-17.67993 70.33322,29.87712 57.95868,7.79043c-12.37454,-22.08668 38.59931,-5.251 37.74204,-5.251c-0.85727,0 19.71713,2.45002 19.71713,2.45002l0.00001,0z" id="svg_17"/>
  </g>
 </g>

</svg>