<svg width="300" height="500" xmlns="http://www.w3.org/2000/svg">
 <g id="Layer_1">
  <title>Layer 1</title>
  <path fill="#8CD79F" stroke="#000" stroke-width="8" opacity="NaN" d="m262.49974,508.55224" id="svg_10"/>
  <path transform="rotate(-33 -17.7233 255.72)" fill="#8CD79F" stroke-width="9" opacity="NaN" d="m-17.72329,255.72012" id="svg_13" stroke="#000"/>
  <path id="svg_5" d="m105.99999,429.99998c58,-61 24,-33 51,-57c27,-24 44,-75 40,-102c-4,-27 -10,-76 -16,-94c-6,-18 -74,-63 -86,-82c-12,-19 23,-59 29,-61c6,-2 -21,-20 -27,-5c-6,15 -27,50 -26,62c1,12 80,75 90,89c10,14 31,104 21,120c-10,16 -7,28 -19,43c-12,15 -77,93 -95,108c-18,15 -20,40 38,-21z" opacity="NaN" stroke-width="7" stroke="#000" fill="#8CD79F"/>
  <path transform="rotate(76 223.594 82.4973)" id="svg_16" d="m255.99999,102.99998c7,-7 -5,-42.99999 -22,-51.99999c-17,-9 -42,8 -38,15c4,7 -25,32.99999 13,44.99999c38,12 37,1 36.00001,0.00002c0.99999,0.99998 3.99999,-1.00002 10.99999,-8.00002z" opacity="NaN" stroke-width="7" stroke="#000" fill="#D3BEE7"/>
  <path transform="rotate(89 204.594 69.4972)" id="svg_17" d="m236.99999,89.99998c7,-7 -5,-42.99999 -22,-51.99999c-17,-9 -42,8 -38,15c4,7 -25,32.99999 13,44.99999c38,12 37,1 36.00001,0.00002c0.99999,0.99998 3.99999,-1.00002 10.99999,-8.00002z" opacity="NaN" stroke-width="7" stroke="#000" fill="#D3BEE7"/>
  <path transform="rotate(83 179.456 110.451)" id="svg_18" d="m212.99999,136.99998c0,0 -17,-14 -18,-25c-1,-11 4,-40 -3,-38c-7,2 -25,17 -20,23c5,6 -28,2 -26,7c2,5 34,31 40,28c6,-3 18,15 18,15c0,0 9,-10 9,-10z" opacity="NaN" stroke-width="7" stroke="#000" fill="#8CD79F"/>
  <path id="svg_26" opacity="NaN" stroke-width="7" stroke="#000" fill="#D3BEE7"/>
  <path id="svg_28" d="m124.99999,406.99998c0,0 28,-33 68,-34c40,-1 57,-1 78,1c21,2 -59,35 -80,36c-21,1 -66,-3 -66,-3z" opacity="NaN" stroke-width="7" stroke="#000" fill="#8CD79F"/>
  <path transform="rotate(-77 125.741 302.252)" id="svg_29" d="m50.99999,317.99998c0,0 28,-33 67.99999,-34c40,-1 57,-1 78,1c21,2 -59,35 -80,36c-20.99999,1 -65.99999,-3 -65.99999,-3z" opacity="NaN" stroke-width="7" stroke="#000" fill="#8CD79F"/>
  <g id="svg_36">
   <path transform="rotate(110 99.738 265.727)" id="svg_22" d="m129.99999,287.99998c5,-7 -5,-42.99999 -22,-51.99999c-17,-9 -42,8 -38,15c4,7 -13,40.99999 13,44.99999c26,4 37,1 36.00001,0.00002c0.99999,0.99998 5.99999,-1.00002 10.99999,-8.00002z" opacity="NaN" stroke-width="7" stroke="#000" fill="#D3BEE7"/>
   <path transform="rotate(180 78.9121 282.237)" id="svg_23" d="m109.34759,304.02149c4,-7 -5,-42.99999 -22,-51.99999c-17,-9 -42,8 -38,15c4,7 -13,40.99999 13,44.99999c26,4 27.00002,4.00004 36.00001,0.00002c8.99999,-4.00001 6.99999,-1.00002 10.99999,-8.00002z" opacity="NaN" stroke-width="7" stroke="#000" fill="#D3BEE7"/>
   <path stroke="#000" id="svg_24" d="m148.99999,353.94796c0,0 -19.2806,-16.87284 -20.41476,-30.13007c-1.13415,-13.25723 4.53662,-48.2081 -3.40246,-45.7977c-7.93907,2.41041 -28.35383,20.48845 -22.68306,27.71966c5.67077,7.23122 -31.75629,2.41041 -29.48798,8.43642c2.26831,6.02601 38.56121,37.36128 45.36612,33.74567c6.80492,-3.6156 20.41476,18.07804 20.41476,18.07804c0,0 10.20738,-12.05202 10.20738,-12.05202z" opacity="NaN" stroke-width="7" fill="#8CD79F"/>
  </g>
  <path transform="rotate(-118 59.4527 340.873)" id="svg_37" d="m-15.28791,355.81485c0,0 21.06992,-24.22652 67.99999,-34c46.93007,-9.77348 57,-1 78,1c21,2 -59,35 -80,36c-20.99999,1 -34.21388,13.90098 -65.99999,-3z" opacity="NaN" stroke-width="7" stroke="#000" fill="#8CD79F"/>
  <g id="svg_38">
   <path id="svg_11" d="m140.99999,169.99998c7,-7 -5,-43 -22,-52c-17,-9 -42,8 -38,15c4,7 -25,33 13,45c38,12 37,1 36.00001,0.00002c0.99999,0.99998 3.99999,-1.00002 10.99999,-8.00002z" opacity="NaN" stroke-width="7" stroke="#000" fill="#D3BEE7"/>
   <path transform="rotate(157 93.4233 173.145)" id="svg_15" d="m126.73073,193.64786c1.58962,-14.72837 -5,-42.99999 -22,-51.99999c-17,-9 -42,8 -38,15c4,7 -25,32.99999 13,44.99999c38,12 37,1 36.00001,0.00002c0.99999,0.99998 9.41037,6.72835 10.99999,-8.00002z" opacity="NaN" stroke-width="7" stroke="#000" fill="#D3BEE7"/>
   <path transform="rotate(-17.1276 136.994 204.662)" stroke="#000" id="svg_19" d="m172.82819,232.67326c0,0 -18.917,-15.85143 -20.02977,-28.30612c-1.11276,-12.45469 4.45106,-45.28979 -3.33829,-43.0253c-7.78935,2.26449 -27.81912,19.24816 -22.2553,26.04163c5.56382,6.79347 -31.15742,2.26449 -28.93189,7.92571c2.22553,5.66122 37.834,35.09959 44.51059,31.70286c6.67659,-3.39673 20.02977,16.98367 20.02977,16.98367c0,0 20.49741,14.60222 10.01488,-11.32245z" opacity="NaN" stroke-width="7" fill="#8CD79F"/>
  </g>
  <g transform="rotate(25 60.6674 51.5784)" stroke="null" id="svg_42">
   <path stroke="#000" id="svg_39" d="m71.4348,48.70688c3.56178,-3.49884 -2.54413,-21.49285 -11.19417,-25.99135c-8.65004,-4.4985 -21.37068,3.99867 -19.33538,7.49751c2.0353,3.49884 -12.72065,16.49451 6.61474,22.49252c19.33538,5.99801 18.82656,0.49983 18.31773,0.00001c0.50882,0.49982 2.0353,-0.49984 5.59708,-3.99868z" opacity="NaN" stroke-width="7" fill="#D3BEE7"/>
   <path stroke="#000" id="svg_40" d="m27.54987,47.35048c2.18367,7.08697 10.89089,18.80777 20.64262,19.62855c9.75173,0.82078 18.08131,-11.88342 14.8161,-14.32292c-3.26521,-2.43949 5.14855,-20.06579 -15.03553,-18.16556c-20.18408,1.90023 -17.52875,6.76602 -16.86157,7.03082c-0.66718,-0.26479 -5.74529,-1.25786 -3.56162,5.82911z" opacity="NaN" stroke-width="7" fill="#D3BEE7"/>
   <path stroke="#000" id="svg_41" d="m91.01866,74.13734c0,0 -11.57391,-4.78709 -13.98134,-10.57248c-2.40742,-5.78539 -4.62228,-22.28863 -8.0706,-20.06036c-3.44832,2.22828 -10.643,13.28922 -6.91954,15.71523c3.72347,2.42601 -14.81127,5.66809 -12.88075,8.04466c1.93052,2.37658 23.65682,11.19669 26.39438,8.59138c2.73756,-2.60531 12.28467,5.16413 12.28467,5.16413c0,0 12.1552,3.95775 3.17317,-6.88256z" opacity="NaN" stroke-width="7" fill="#8CD79F"/>
  </g>
  <g transform="rotate(-3 232.343 299.115)" id="svg_46">
   <path transform="rotate(81 260.738 299.727)" id="svg_12" d="m290.99999,321.99998c5,-7 -5,-42.99999 -22,-51.99999c-17,-9 -42,8 -38,15c4,7 -13,40.99999 13,44.99999c26,4 37,1 36.00001,0.00002c0.99999,0.99998 5.99999,-1.00002 10.99999,-8.00002z" opacity="NaN" stroke-width="7" stroke="#000" fill="#D3BEE7"/>
   <path transform="rotate(110 243.738 285.727)" id="svg_20" d="m273.99999,307.99998c5,-7 -5,-42.99999 -22,-51.99999c-17,-9 -42,8 -38,15c4,7 -13,40.99999 13,44.99999c26,4 37,1 36.00001,0.00002c0.99999,0.99998 5.99999,-1.00002 10.99999,-8.00002z" opacity="NaN" stroke-width="7" stroke="#000" fill="#D3BEE7"/>
   <path transform="rotate(93 207.247 316.351)" id="svg_21" d="m239.45012,341.09086c0,0 -17,-14 -18,-25c-1,-11 4,-40 -3,-38c-7,2 -25,17 -20,23c5,6 -28,2 -26,7c2,5 34,31 40,28c6,-3 18,15 18,15c0,0 18.42025,12.8967 9,-10z" opacity="NaN" stroke-width="7" stroke="#000" fill="#8CD79F"/>
  </g>
  <g transform="rotate(-28 211.252 167.965)" stroke="null" id="svg_50">
   <path stroke="#000" id="svg_47" d="m220.08413,188.09731c5.01072,2.33067 27.14257,-7.07382 31.19868,-18.1096c4.05612,-11.03578 -9.4223,-24.39666 -13.51635,-21.33685c-4.09405,3.05981 -27.68977,-3.89686 -27.61389,12.05508c0.07588,15.95194 3.12544,22.25572 3.66665,21.56192c-0.5412,0.6938 1.25419,3.49878 6.26491,5.82945z" opacity="NaN" stroke-width="7" fill="#D3BEE7"/>
   <path stroke="#000" id="svg_48" d="m199.89068,171.99444c3.1693,4.30101 27.42153,6.06917 36.71349,-1.75142c9.29196,-7.8206 4.45816,-25.59238 -0.71529,-24.76486c-5.17345,0.82752 -22.1896,-15.91143 -30.42663,-1.92528c-8.23703,13.98615 -8.85109,20.87656 -8.01661,20.51413c-0.83449,0.36243 -0.72427,3.62642 2.44503,7.92743z" opacity="NaN" stroke-width="7" fill="#D3BEE7"/>
   <path stroke="#000" id="svg_49" d="m179.31496,196.65649c0,0 9.68193,-9.85049 16.86809,-10.10696c7.18616,-0.25647 25.87128,3.69178 24.80943,-0.61073c-1.06185,-4.30251 -10.20135,-15.67895 -14.27286,-12.84149c-4.07151,2.83746 -0.34628,-17.01962 -3.66538,-15.96716c-3.3191,1.05247 -21.31442,19.60577 -19.56831,23.33444c1.74612,3.72867 -10.36619,10.42433 -10.36619,10.42433c0,0 -9.01297,10.74557 6.19522,5.76756z" opacity="NaN" stroke-width="7" fill="#8CD79F"/>
  </g>
 </g>

</svg>