<svg width="300" height="500" xmlns="http://www.w3.org/2000/svg">
 <g id="Layer_1">
  <title>Layer 1</title>
  <g stroke-width="0" id="svg_77">
   <g stroke="null" id="svg_31">
    <g stroke="null" id="svg_14">
     <path stroke="#000000" id="svg_11" d="m176.27738,294.08662c-20.83937,5.05073 -31.12077,-1.63941 -35.88082,4.34092c-4.76005,5.98033 -28.76789,-3.47057 -43.82545,11.86406c-15.05756,15.33464 -34.70816,0.36775 -49.69215,-0.92712c-14.98399,-1.29487 -27.70131,-12.74284 -27.70131,-12.74284c0,0 19.41193,-4.41206 34.05505,-15.22954c14.6431,-10.81748 10.70832,-3.14305 40.69013,-9.83088c29.98182,-6.68782 23.02143,-9.62441 31.29818,-8.03358c8.27676,1.59082 -3.49013,0.04313 31.20112,4.96728c34.69126,4.92416 60.73453,14.614 54.8025,17.30982c-5.93203,2.69582 -14.10789,3.23113 -34.94726,8.28186l0.00001,0.00002z" opacity="NaN" stroke-width="6" fill="#999999"/>
     <path stroke="#000000" id="svg_12" d="m76.04389,383.21039c0.33825,-2.56871 10.47946,-13.81998 10.54271,-40.90329c0.06325,-27.0833 -1.33915,-9.40963 -2.2555,-22.03013c-0.91635,-12.62052 42.6771,-19.85728 76.34643,-21.76899c33.66933,-1.91171 44.37859,-13.95504 44.37859,-13.95504c20.49468,-10.53003 17.18931,16.30815 11.84033,27.55974c-5.349,11.25158 -0.66681,-5.63745 0.2573,26.63892c0.92411,32.27637 -7.98792,22.2781 -22.75259,26.71573c-14.76468,4.43763 -35.72463,17.9038 -60.03876,26.33296c-24.31412,8.42916 -45.84152,26.98723 -59.16414,-2.16813c-13.32262,-29.15536 0.50739,-3.85307 0.84563,-6.42178l0,0.00001z" opacity="NaN" stroke-width="6" fill="#666666"/>
     <path stroke="#000000" id="svg_13" d="m80.55363,406.21354c-9.99427,2.72805 -67.70378,-11.06812 -64.48505,-25.03249c3.21873,-13.96437 -12.56889,-96.34945 4.72497,-82.53434c17.29386,13.8151 80.35444,8.76492 70.73546,13.51055c-9.61898,4.74565 -5.62118,18.36627 -7.75064,56.36797c-2.12946,38.0017 6.76953,34.96026 -3.22474,37.68831z" opacity="NaN" stroke-width="6" fill="#BBBBBB"/>
    </g>
    <g stroke="null" id="svg_6">
     <path stroke="#000000" id="svg_15" d="m124.66704,283.57903c0,-2.39746 3.53439,-33.56435 2.35626,-37.7599c-1.17813,-4.19555 -1.17813,-8.99045 -2.35626,-20.97773c-1.17813,-11.98727 22.97357,-8.39109 33.57675,-14.38472c10.60318,-5.99363 19.43916,-9.58981 19.43916,-9.58981c13.30277,-3.10636 8.83599,16.78217 7.06879,26.97136c-1.76719,10.18918 -5.89065,13.78536 -0.58906,25.77262c5.30159,11.98727 0,19.779 -6.47973,22.77581c-6.47972,2.99682 -4.12346,0 -30.04235,13.186c-25.9189,13.186 -24.1517,-2.39745 -22.97357,0c1.17812,2.39746 0,-3.59618 0,-5.99363l0.00001,0z" opacity="NaN" stroke-width="6" fill="#999999"/>
     <path stroke="#000000" id="svg_16" d="m66.03637,206.12611c2.31297,0.45746 31.53052,10.85939 35.86192,10.17493c4.33139,-0.68445 8.95734,0.23047 20.80589,1.03274c11.84856,0.80228 2.56335,30.55858 5.79252,45.06722c3.22917,14.50864 4.57091,26.33231 4.57091,26.33231c5.89066,12.58664 -18.31851,7.93531 -27.72311,3.76363c-9.40458,-4.17169 -0.68886,-0.46556 -24.7226,-5.66015c-24.03374,-5.1946 -19.08202,-3.77401 -20.41291,-12.51333c-1.33089,-8.73932 -2.25795,-25.87486 -5.48712,-40.3835c-3.22917,-14.50863 8.12873,-29.98502 5.53206,-28.95749c-2.59668,1.02755 3.46946,0.68619 5.78243,1.14364l0.00001,0z" opacity="NaN" stroke-width="6" fill="#BBBBBB"/>
     <path stroke="#000000" id="svg_17" d="m57.60827,203.88559c-0.58907,-4.79491 53.60499,-13.78536 53.01594,-14.38471c0.58906,0.59935 71.08748,5.81836 65.38629,10.78854c-5.89065,1.19872 -47.12526,23.97454 -49.48152,19.17963c-2.35627,-4.79491 -44.17993,-1.19873 -44.769,-7.19237c-0.58907,-5.99363 -23.56264,-3.59618 -24.1517,-8.39109l-0.00001,0z" opacity="NaN" stroke-width="6" fill="#BBBBBB"/>
    </g>
    <g stroke="null" transform="matrix(-0.30391 -1.03878 0.994046 -0.317587 -99.2762 579.737)" id="svg_26">
     <path transform="rotate(-131 160.59 323.468)" stroke="#000000" id="svg_23" d="m120.09803,365.36204c9.64359,-18.18103 20.78093,-21.60525 19.63017,-28.67326c-1.15076,-7.068 20.56818,-18.79095 19.41743,-38.98525c-1.15076,-20.1943 21.65055,-25.42216 32.00736,-35.5193c10.35681,-10.09714 26.33728,-12.41638 26.33728,-12.41638c0,0 -9.1864,16.75889 -10.91254,33.92405c-1.72613,17.16515 -4.5748,9.67314 -18.85121,35.48086c-14.2764,25.80771 -7.84304,22.5277 -14.17221,27.57626c-6.32916,5.04858 2.17283,-2.56008 -23.14381,19.65364c-25.31665,22.21373 -48.48627,35.27021 -46.61529,29.33503c1.87097,-5.93518 6.65924,-12.19462 16.30282,-30.37565z" opacity="NaN" stroke-width="6" fill="#999999"/>
     <path transform="rotate(-101 190.938 373.698)" stroke="#000000" id="svg_24" d="m169.77464,299.70703c2.25923,0.77066 10.56533,12.32397 35.02864,17.14115c24.46331,4.81717 8.74921,0.38825 20.32245,1.73981c11.57325,1.35155 10.11084,43.79056 5.65793,75.92226c-4.4529,32.13169 4.4647,44.36059 4.4647,44.36059c5.75379,21.20401 -17.89287,13.36818 -27.07894,6.34038c-9.18606,-7.02782 5.21691,0.36056 -24.12057,-4.4364c-29.33748,-4.79697 -18.66621,-11.45681 -19.96618,-26.17946c-1.29997,-14.72265 -9.62171,-36.8818 -12.77585,-61.3237c-3.15414,-24.44189 -15.97323,-48.03135 12.81975,-55.49125c28.79298,-7.45989 3.38884,1.15599 5.64807,1.92662z" opacity="NaN" stroke-width="6" fill="#666666"/>
     <path transform="rotate(177 101.602 371.602)" stroke="#000000" id="svg_25" d="m71.32909,395.98335c1.13763,-8.08642 -2.96415,-78.67608 8.43943,-71.37416c11.40358,7.30192 63.44776,11.61312 61.53218,31.77732c-1.91558,20.16419 -1.15826,73.86314 -3.55004,60.67889c-2.39179,-13.18424 -26.8973,-8.97813 -59.084,-20.52581c-32.1867,-11.54769 -8.4752,7.53017 -7.33756,-0.55625l-0.00001,0.00001z" opacity="NaN" stroke-width="6" fill="#BBBBBB"/>
    </g>
    <g stroke="null" id="svg_22">
     <path stroke="#000000" id="svg_27" d="m154.32619,421.53186c0,-2.39746 2.67662,-33.56435 1.78441,-37.75989c-0.8922,-4.19555 -0.8922,-8.99045 -1.78441,-20.97773c-0.8922,-11.98728 17.39801,-8.39109 25.42786,-14.38472c8.02984,-5.99364 14.72138,-9.58982 14.72138,-9.58982c10.07426,-3.10636 6.69155,16.78218 5.35324,26.97136c-1.33831,10.18917 -4.46103,13.78535 -0.4461,25.77262c4.01491,11.98728 0,19.779 -4.90714,22.77582c-4.90713,2.99681 -3.12272,0 -22.75123,13.186c-19.62852,13.186 -18.29022,-2.39745 -17.39801,0c0.8922,2.39746 0,-3.59619 0,-5.99364z" opacity="NaN" stroke-width="6" fill="#999999"/>
     <path stroke="#000000" id="svg_28" d="m109.92487,344.07894c1.75163,0.45746 23.87823,10.85939 27.15843,10.17493c3.28019,-0.68445 6.78344,0.23047 15.75642,1.03275c8.97298,0.80228 1.94123,30.55858 4.38671,45.06721c2.44547,14.50864 3.46157,26.33232 3.46157,26.33232c4.46103,12.58663 -13.87271,7.93531 -20.99485,3.76362c-7.12214,-4.17169 -0.52168,-0.46556 -18.72256,-5.66015c-18.20088,-5.1946 -14.45091,-3.77401 -15.45881,-12.51333c-1.00789,-8.73931 -1.70995,-25.87486 -4.15542,-40.3835c-2.44547,-14.50863 6.15593,-29.98503 4.18946,-28.95748c-1.96648,1.02754 2.62744,0.68619 4.37906,1.14363l-0.00001,0z" opacity="NaN" stroke-width="6" fill="#BBBBBB"/>
     <path stroke="#000000" id="svg_29" d="m103.54223,341.83842c-0.44611,-4.7949 40.59535,-13.78535 40.14925,-14.38471c0.4461,0.59936 53.83493,5.81835 49.51739,10.78854c-4.46102,1.19872 -35.68822,23.97454 -37.47263,19.17963c-1.78442,-4.7949 -33.4577,-1.19873 -33.90381,-7.19236c-0.4461,-5.99364 -17.84411,-3.59619 -18.29021,-8.39109l0.00001,-0.00001z" opacity="NaN" stroke-width="6" fill="#BBBBBB"/>
    </g>
   </g>
   <g stroke="null" id="svg_39">
    <path stroke="#000000" id="svg_57" d="m89.45154,304.57903c0,-2.39746 2.07032,-33.56435 1.38021,-37.7599c-0.6901,-4.19554 -0.6901,-8.99045 -1.38021,-20.97772c-0.6901,-11.98728 13.45703,-8.39109 19.66796,-14.38472c6.21094,-5.99364 11.38671,-9.58982 11.38671,-9.58982c7.79224,-3.10636 5.17578,16.78217 4.14062,26.97136c-1.03516,10.18918 -3.45052,13.78536 -0.34505,25.77262c3.10546,11.98728 0,19.77901 -3.79557,22.77582c-3.79557,2.99682 -2.41537,0 -17.59764,13.18599c-15.18229,13.186 -14.14713,-2.39744 -13.45703,0c0.69011,2.39746 0,-3.59618 0,-5.99363z" opacity="NaN" stroke-width="6" fill="#999999"/>
    <path stroke="#000000" id="svg_58" d="m55.10798,227.12611c1.35485,0.45746 18.46935,10.85939 21.00652,10.17493c2.53716,-0.68445 5.24686,0.23047 12.18728,1.03275c6.94042,0.80228 1.50151,30.55858 3.39304,45.06721c1.89152,14.50864 2.67745,26.33232 2.67745,26.33232c3.45053,12.58663 -10.73027,7.9353 -16.23911,3.76362c-5.50885,-4.17169 -0.40351,-0.46556 -14.48154,-5.66015c-14.07803,-5.1946 -11.17751,-3.77401 -11.95709,-12.51333c-0.77959,-8.73931 -1.32262,-25.87486 -3.21414,-40.3835c-1.89152,-14.50862 4.76149,-29.98502 3.24046,-28.95748c-1.52102,1.02754 2.03228,0.68619 3.38713,1.14363z" opacity="NaN" stroke-width="6" fill="#BBBBBB"/>
    <path stroke="#000000" id="svg_59" d="m50.17112,224.88559c-0.34505,-4.7949 31.39972,-13.78536 31.05468,-14.38471c0.34504,0.59935 41.64028,5.81836 38.30075,10.78854c-3.45052,1.19872 -27.60415,23.97454 -28.98435,19.17963c-1.38022,-4.79491 -25.8789,-1.19873 -26.22395,-7.19237c-0.34505,-5.99363 -13.80207,-3.59618 -14.14713,-8.39109z" opacity="NaN" stroke-width="6" fill="#BBBBBB"/>
   </g>
   <g stroke="null" id="svg_35">
    <path stroke="#000000" id="svg_65" d="m243.27738,243.08662c-20.83937,5.05073 -31.12077,-1.63941 -35.88082,4.34092c-4.76005,5.98033 -28.76789,-3.47057 -43.82545,11.86406c-15.05756,15.33465 -34.70816,0.36775 -49.69215,-0.92712c-14.98398,-1.29487 -27.7013,-12.74283 -27.7013,-12.74283c0,0 19.41193,-4.41206 34.05504,-15.22954c14.6431,-10.81749 10.70832,-3.14306 40.69014,-9.83088c29.98182,-6.68783 23.02143,-9.62442 31.29818,-8.03358c8.27676,1.59081 -3.49013,0.04313 31.20112,4.96728c34.69125,4.92416 60.73453,14.614 54.8025,17.30982c-5.93203,2.69583 -14.10789,3.23114 -34.94726,8.28187z" opacity="NaN" stroke-width="6" fill="#999999"/>
    <path stroke="#000000" id="svg_66" d="m143.04389,332.21039c0.33826,-2.56871 10.47946,-13.81998 10.54272,-40.90328c0.06325,-27.0833 -1.33916,-9.40963 -2.2555,-22.03013c-0.91635,-12.62052 42.6771,-19.85729 76.34642,-21.76899c33.66933,-1.91171 44.37859,-13.95504 44.37859,-13.95504c20.49469,-10.53003 17.18932,16.30815 11.84034,27.55974c-5.349,11.25158 -0.66681,-5.63745 0.2573,26.63892c0.92411,32.27637 -7.98792,22.27811 -22.7526,26.71573c-14.76467,4.43763 -35.72462,17.9038 -60.03876,26.33296c-24.31412,8.42916 -45.84152,26.98723 -59.16413,-2.16813c-13.32262,-29.15536 0.50739,-3.85307 0.84562,-6.42178z" opacity="NaN" stroke-width="6" fill="#666666"/>
    <path stroke="#000000" id="svg_67" d="m147.55363,355.21354c-9.99427,2.72805 -67.70378,-11.06813 -64.48505,-25.0325c3.21873,-13.96436 -12.56889,-96.34944 4.72497,-82.53434c17.29385,13.8151 80.35444,8.76492 70.73546,13.51056c-9.61898,4.74564 -5.62118,18.36626 -7.75064,56.36796c-2.12945,38.0017 6.76953,34.96026 -3.22474,37.68832z" opacity="NaN" stroke-width="6" fill="#BBBBBB"/>
   </g>
   <g stroke="null" transform="matrix(-0.30391 -1.03878 0.994046 -0.317587 -99.2762 579.737)" id="svg_43">
    <path transform="rotate(-131 296.829 347.013)" stroke="#000000" id="svg_69" d="m256.33719,388.90666c9.64359,-18.18103 20.78093,-21.60525 19.63017,-28.67326c-1.15076,-7.068 20.56818,-18.79095 19.41743,-38.98525c-1.15076,-20.1943 21.65055,-25.42216 32.00736,-35.5193c10.35681,-10.09714 26.33728,-12.41638 26.33728,-12.41638c0,0 -9.1864,16.75889 -10.91254,33.92405c-1.72613,17.16515 -4.5748,9.67314 -18.85121,35.48086c-14.2764,25.80771 -7.84304,22.5277 -14.17221,27.57626c-6.32916,5.04858 2.17283,-2.56008 -23.14381,19.65364c-25.31665,22.21373 -48.48627,35.27021 -46.61529,29.33503c1.87097,-5.93518 6.65924,-12.19462 16.30282,-30.37565z" opacity="NaN" stroke-width="6" fill="#999999"/>
    <path transform="rotate(-101 327.177 397.243)" stroke="#000000" id="svg_70" d="m306.0138,323.25165c2.25923,0.77066 10.56533,12.32397 35.02864,17.14115c24.46331,4.81717 8.74921,0.38825 20.32245,1.73981c11.57325,1.35155 10.11084,43.79056 5.65793,75.92226c-4.4529,32.13169 4.4647,44.36059 4.4647,44.36059c5.75379,21.20401 -17.89287,13.36818 -27.07894,6.34038c-9.18606,-7.02782 5.21691,0.36056 -24.12057,-4.4364c-29.33748,-4.79697 -18.66621,-11.45681 -19.96618,-26.17946c-1.29997,-14.72265 -9.62171,-36.8818 -12.77585,-61.3237c-3.15414,-24.44189 -15.97323,-48.03135 12.81975,-55.49125c28.79298,-7.45989 3.38884,1.15599 5.64807,1.92662z" opacity="NaN" stroke-width="6" fill="#666666"/>
    <path transform="rotate(-101 238.207 401.961)" stroke="#000000" id="svg_71" d="m183.08342,416.42266c-0.63072,-9.91737 22.43017,-61.99236 34.45879,-56.49975c12.02862,5.49261 89.37728,5.05518 73.71816,18.96001c-15.65911,13.90483 -22.671,74.34369 -25.19388,64.42631c-2.52289,-9.91737 -15.56557,-8.53461 -49.51645,-17.22094c-33.95088,-8.68634 -32.8359,0.25175 -33.46662,-9.66563z" opacity="NaN" stroke-width="6" fill="#BBBBBB"/>
   </g>
   <g stroke="null" id="svg_56">
    <path stroke="#000000" id="svg_73" d="m130.45154,231.57903c0,-2.39746 2.07032,-33.56435 1.38021,-37.7599c-0.6901,-4.19554 -0.6901,-8.99045 -1.38021,-20.97772c-0.6901,-11.98728 13.45703,-8.39109 19.66796,-14.38472c6.21094,-5.99364 11.38671,-9.58982 11.38671,-9.58982c7.79224,-3.10636 5.17578,16.78217 4.14062,26.97136c-1.03516,10.18918 -3.45052,13.78536 -0.34505,25.77262c3.10546,11.98728 0,19.77901 -3.79557,22.77582c-3.79557,2.99682 -2.41537,0 -17.59764,13.18599c-15.18229,13.186 -14.14713,-2.39744 -13.45703,0c0.69011,2.39746 0,-3.59618 0,-5.99363z" opacity="NaN" stroke-width="6" fill="#999999"/>
    <path stroke="#000000" id="svg_74" d="m96.10798,154.12611c1.35485,0.45746 18.46935,10.85939 21.00652,10.17493c2.53716,-0.68445 5.24686,0.23047 12.18728,1.03275c6.94042,0.80228 1.50151,30.55858 3.39304,45.06721c1.89152,14.50864 2.67745,26.33232 2.67745,26.33232c3.45053,12.58663 -10.73027,7.9353 -16.23911,3.76362c-5.50885,-4.17169 -0.40351,-0.46556 -14.48154,-5.66015c-14.07803,-5.1946 -11.17751,-3.77401 -11.95709,-12.51333c-0.77959,-8.73931 -1.32262,-25.87486 -3.21414,-40.3835c-1.89152,-14.50862 4.76149,-29.98502 3.24046,-28.95748c-1.52102,1.02754 2.03228,0.68619 3.38713,1.14363z" opacity="NaN" stroke-width="6" fill="#BBBBBB"/>
    <path stroke="#000000" id="svg_75" d="m91.17112,151.88559c-0.34505,-4.7949 31.39972,-13.78536 31.05468,-14.38471c0.34504,0.59935 41.64028,5.81836 38.30075,10.78854c-3.45052,1.19872 -27.60415,23.97454 -28.98435,19.17963c-1.38022,-4.79491 -25.8789,-1.19873 -26.22395,-7.19237c-0.34505,-5.99363 -13.80207,-3.59618 -14.14713,-8.39109z" opacity="NaN" stroke-width="6" fill="#BBBBBB"/>
   </g>
  </g>
 </g>

</svg>