<svg width="300" height="500" xmlns="http://www.w3.org/2000/svg">
 <g id="Layer_1">
  <title>Layer 1</title>
  <path id="svg_10" d="m262.49974,508.55224" opacity="NaN" stroke-width="8" stroke="#000" fill="#8CD79F"/>
  <path stroke="#000" id="svg_13" d="m-17.72329,255.72012" opacity="NaN" stroke-width="9" fill="#8CD79F" transform="rotate(-33 -17.7233 255.72)"/>
  <path fill="#D3BEE7" stroke="#000" stroke-width="7" opacity="NaN" id="svg_26"/>
  <g transform="rotate(9 129.12 250.104)" stroke="null" id="svg_1">
   <path stroke="#000" fill="#D1FFB4" stroke-width="7" opacity="NaN" d="m95.38023,252.12852c0,0 14.30546,-79.33238 -15.2027,-79.18318c-29.50817,0.14921 -51.95429,48.81314 -47.65157,52.30105c4.30272,3.48791 12.30903,-88.97388 49.7065,-88.968c37.39747,0.00588 36.67545,30.62166 35.59978,29.74969c1.07567,0.87197 -22.45202,86.10042 -22.45202,86.10042l0,0.00001z" id="svg_77"/>
   <path stroke="#000" fill="#D1FFB4" stroke-width="7" opacity="NaN" d="m116.69597,153.13956c0.20349,-0.95835 -17.19089,-109.12021 -49.58292,-93.02724c-32.39203,16.09297 7.5566,60.04543 9.61468,64.48993c2.05808,4.4445 -11.02412,-31.41463 -7.76826,-46.7482c3.25585,-15.33357 -9.88984,-49.16055 23.15028,-35.1188c33.04012,14.04175 40.54178,44.68569 36.47196,63.85266c-4.06982,19.16696 -12.08924,47.51 -11.88575,46.55166z" id="svg_79"/>
   <path stroke="#000" fill="#D1FFB4" stroke-width="7" opacity="NaN" d="m155.91779,184.35828c0,0 36.21326,-58.7855 77.32019,-68.58308c41.10694,-9.79758 50.89431,31.35226 43.06441,61.72477c-7.82989,30.37251 12.72358,-28.41299 -26.42589,-53.8867c-39.14947,-25.47371 -65.57535,77.4009 -65.57535,76.42114c0,-0.97976 -28.38336,-15.67613 -28.38336,-15.67613z" id="svg_82"/>
   <g stroke="null" transform="matrix(-0.925414 -0.318978 0.318645 -0.92638 141.985 655.781)" id="svg_87">
    <path stroke="#000" fill="#ffffff" stroke-width="7" opacity="NaN" d="m142.19908,468.53381c-3.24659,9.19422 -31.81656,-5.36329 -31.81656,-10.72659c0,-5.36329 5.19454,-49.03584 1.29864,-67.42427c-3.89591,-18.38844 35.71246,15.32369 29.8686,16.85606c-5.84385,1.53237 3.89591,52.10058 0.64932,61.2948z" id="svg_83"/>
    <path stroke="#000" fill="#ffffff" stroke-width="7" opacity="NaN" d="m108.06809,320.30801c2.69515,-9.43905 32.05612,2.73136 32.37318,8.08159c0.31706,5.35023 -2.28307,49.34396 2.69041,67.36693c4.97347,18.02297 -36.53136,-12.34682 -30.79232,-14.35648c5.73903,-2.00965 -6.96642,-51.65298 -4.27127,-61.09204z" id="svg_84"/>
    <path stroke="#000" fill="#ffffff" stroke-width="7" opacity="NaN" d="m140.13566,320.76063c-2.97268,9.32232 -31.95581,-4.04979 -32.11443,-9.40982c-0.15863,-5.36003 3.74108,-49.21988 -0.69632,-67.43668c-4.43739,-18.21681 36.14393,13.84369 30.34895,15.61578c-5.79497,1.77209 5.43448,51.9084 2.4618,61.23072z" id="svg_85"/>
    <path stroke="#000" fill="#ffffff" stroke-width="7" opacity="NaN" d="m108.46605,166.45753c3.24659,-9.19422 31.81656,5.3633 31.81656,10.72659c0,5.3633 -5.19454,49.03584 -1.29863,67.42428c3.8959,18.38844 -35.71247,-15.3237 -29.86861,-16.85607c5.84386,-1.53237 -3.89591,-52.10058 -0.64932,-61.2948z" id="svg_86"/>
   </g>
   <path stroke="#000" fill="#D1FFB4" stroke-width="7" opacity="NaN" d="m161.38472,311.13927c40.9879,-40.08877 38.97837,-17.13048 62.40512,-59.11252c23.42675,-41.98205 54.40861,-21.08659 8.93719,-32.17383c-45.47142,-11.08724 -41.71143,9.78247 -52.67686,33.19444c-10.96543,23.41196 -3.0327,29.82569 -7.09812,42.34239c-4.06542,12.5167 -52.55523,55.83828 -11.56733,15.74952l0,0.00001z" id="svg_104"/>
   <path stroke="#000" fill="#D1FFB4" stroke-width="7" opacity="NaN" d="m65.66899,340.51552c1.98861,-51.05313 6.42236,-55.37418 -18.47548,-83.99265c-24.89783,-28.61848 -23.78023,-24.68312 -22.94661,-24.23942c0.83362,0.44371 6.19275,46.72251 11.20182,53.39724c5.00907,6.67474 14.0681,26.86278 22.69197,36.79774c8.62387,9.93496 5.53966,69.09021 7.52829,18.03708z" id="svg_105"/>
   <path stroke="#000" fill="#D1FFB4" stroke-width="7" opacity="NaN" d="m140.258,81.49729c0,0 -4.80438,-62.28579 33.15512,-49.85907c37.95951,12.42672 35.27102,47.15384 26.5152,77.72787c-8.75583,30.57403 39.03168,-36.81731 7.19232,-56.20571c-31.83936,-19.38841 -43.77911,41.01394 -43.77911,40.26824c0,-0.7457 -23.08352,-11.93133 -23.08352,-11.93133l-0.00001,0z" id="svg_107"/>
   <g stroke="null" id="svg_102">
    <path stroke="#000" fill="#ffffff" stroke-width="7" opacity="NaN" d="m82.2429,463.16983c-5.66968,7.6845 -28.24463,-14.13909 -26.7099,-19.16422c1.53473,-5.02512 18.89378,-44.45601 20.50927,-62.801c1.61549,-18.345 29.04086,24.58746 23.13268,24.34921c-5.90817,-0.23824 -11.26238,49.9315 -16.93206,57.61601z" id="svg_108"/>
    <path stroke="#000" fill="#ffffff" stroke-width="7" opacity="NaN" d="m93.69142,314.51319c5.22361,-8.07186 29.22199,11.74173 27.98775,16.84544c-1.23424,5.10371 -16.2569,45.57871 -16.75923,63.88995c-0.50234,18.31124 -30.65917,-22.03286 -24.71253,-22.27184c5.94663,-0.23897 8.26039,-50.39169 13.484,-58.46355z" id="svg_109"/>
    <path stroke="#000" fill="#ffffff" stroke-width="7" opacity="NaN" d="m123.57622,324.12313c-5.44997,7.88299 -28.75083,-12.9483 -27.36549,-18.0158c1.38533,-5.06751 17.58605,-45.0448 18.6456,-63.38409c1.05956,-18.3393 29.86821,23.32437 23.93719,23.32473c-5.93101,0.00037 -9.76733,50.19217 -15.2173,58.07516z" id="svg_110"/>
    <path stroke="#000" fill="#ffffff" stroke-width="7" opacity="NaN" d="m138.089,169.49744c5.66968,-7.6845 28.24463,14.1391 26.7099,19.16422c-1.53473,5.02513 -18.89378,44.45601 -20.50927,62.80101c-1.61549,18.345 -29.04087,-24.58747 -23.13269,-24.34922c5.90818,0.23824 11.26238,-49.9315 16.93206,-57.61601z" id="svg_111"/>
    <path stroke="#000" fill="#ffffff" stroke-width="7" opacity="NaN" d="m168.60724,178.64724c-6.19136,7.26987 -27.19056,-16.07696 -25.3094,-20.98267c1.88117,-4.90572 21.94562,-43.02838 24.83552,-61.21588c2.88991,-18.1875 27.25678,26.55548 21.3796,25.90525c-5.87718,-0.65023 -14.71436,49.02343 -20.90572,56.29331z" id="svg_112"/>
   </g>
   <g stroke="null" id="svg_100">
    <g stroke="null" transform="matrix(0.977395 -0.0512766 0.0512231 0.978416 -9.37509 14.6561)" id="svg_118">
     <path transform="rotate(17 60.5716 408.055)" stroke="#000" fill="#ffffff" stroke-width="7" opacity="NaN" d="m76.49887,441.8113c-3.24659,9.19422 -37.91992,36.23898 -31.81656,-10.72659c6.10336,-46.96556 5.19454,-49.03583 1.29863,-67.42427c-3.8959,-18.38844 35.71247,15.3237 29.86861,16.85607c-5.84386,1.53237 3.8959,52.10057 0.64932,61.29479z" id="svg_114"/>
     <path transform="rotate(17 82.0603 335.528)" stroke="#000" fill="#ffffff" stroke-width="7" opacity="NaN" d="m64.51146,296.69919c2.69515,-9.43906 32.05612,2.73136 32.37317,8.08159c0.31706,5.35023 -2.28306,49.34396 2.69041,67.36693c4.97348,18.02297 -36.53135,-12.34682 -30.79232,-14.35648c5.73904,-2.00965 -6.96641,-51.65299 -4.27126,-61.09204z" id="svg_115"/>
     <path transform="rotate(17 103.137 260.427)" stroke="#000" fill="#ffffff" stroke-width="7" opacity="NaN" d="m119.45741,300.03256c-2.97268,9.32232 -31.95581,-4.04979 -32.11443,-9.40982c-0.15863,-5.36003 3.74108,-49.21988 -0.69631,-67.43668c-4.4374,-18.2168 36.14392,13.84369 30.34895,15.61578c-5.79498,1.77209 5.43447,51.90841 2.46179,61.23072z" id="svg_116"/>
     <path transform="rotate(17 125.091 189.367)" stroke="#000" fill="#ffffff" stroke-width="7" opacity="NaN" d="m109.52298,149.04305c3.24658,-9.19422 31.81656,5.3633 31.81656,10.72659c0,5.3633 -5.19454,49.03584 -1.29864,67.42428c3.89591,18.38844 -35.71246,-15.3237 -29.86861,-16.85607c5.84386,-1.53237 -3.8959,-52.10058 -0.64931,-61.2948z" id="svg_117"/>
    </g>
    <path stroke="#000" fill="#ffffff" stroke-width="7" opacity="NaN" d="m149.52645,158.39454c-4.83621,8.23567 -29.5663,-11.10619 -28.56469,-16.26438c1.00161,-5.15819 14.14821,-46.18948 13.83927,-64.60302c-0.30893,-18.41354 31.44919,21.41401 25.5485,21.79529c-5.90069,0.38128 -5.98686,50.83644 -10.82307,59.07211z" id="svg_119"/>
   </g>
   <path stroke="#000" fill="#D1FFB4" stroke-width="7" opacity="NaN" d="m227.19905,413.55604c1.06923,1.87969 -35.47158,-26.63432 -65.97086,-20.82699c-30.49928,5.80731 -57.74389,15.73726 -26.6338,6.20786c31.1101,-9.52941 34.93632,14.41864 41.70567,13.61764c6.76936,-0.801 11.79365,5.134 22.37315,3.13148c10.5795,-2.00253 27.4566,-4.00967 28.52583,-2.12998z" id="svg_122"/>
   <line stroke="#000" fill="none" stroke-width="7" x1="54.12918" y1="71.68608" x2="72.72517" y2="40.33382" id="svg_128"/>
  </g>
 </g>

</svg>