<svg width="300" height="500" xmlns="http://www.w3.org/2000/svg">
 <g id="Layer_1">
  <title>Layer 1</title>
  <g id="svg_3">
   <path transform="rotate(1 144.142 379.021)" fill="#619E73" stroke-width="7" opacity="NaN" d="m78.93787,416.59244c12.15519,-15.37337 4.61105,-26.46544 15.94284,-37.11285c11.33179,-10.6474 11.33179,-10.6474 18.68454,-9.3353c7.35275,1.3121 33.45906,-12.54628 31.57858,3.68604c-1.88047,16.23231 7.80452,15.03687 10.58851,26.25406c2.78399,11.2172 16.43243,25.34775 20.10882,26.0038c3.67638,0.65605 22.97736,4.10031 26.48907,5.70156c3.5117,1.60125 12.90961,-14.26416 7.13467,-19.19303c-5.77494,-4.92886 0.76999,-26.1763 -2.08298,-31.55832c-2.85298,-5.38202 -7.47516,-16.92725 -9.31334,-17.25528c-1.83819,-0.32803 -7.76224,-31.5972 -17.18684,-26.45696c-9.42462,5.14024 -17.84557,-22.67618 -25.56997,-5.53755c-7.7244,17.13864 -13.36137,0.53941 -26.92969,18.58436c-13.56833,18.04495 -61.59937,81.59284 -49.44417,66.21947l-0.00002,0l-0.00002,0z" id="svg_130" stroke="#000"/>
   <path transform="rotate(9 65.0488 295.613)" fill="#619E73" stroke-width="7" opacity="NaN" d="m80.91174,416.61123c0,0 2.25211,-34.68305 -4.27724,-40.72112c-6.52935,-6.03807 -23.59381,-16.87988 -24.5129,-17.04389c-0.91909,-0.16401 -21.78752,-4.41743 -24.01885,-19.87946c0.7544,1.10919 3.50056,-36.40945 2.32109,-40.51824c-1.17947,-4.1088 2.82627,-5.34314 -3.40043,-23.99677c-6.2267,-18.65363 -7.28377,-7.14728 -8.06489,-18.98165c-0.78112,-11.83437 4.44637,-25.52025 7.10796,-29.91819c2.66159,-4.39795 6.31127,-14.46706 5.20078,-24.41104c-1.11048,-9.94398 -2.48134,-23.83276 -5.82836,-26.3792c-3.34702,-2.54644 19.61478,28.83938 20.62956,33.89338c1.01479,5.054 12.98972,17.91133 15.44435,31.01892c2.45463,13.10759 1.23287,25.55913 1.0682,26.50432c-0.16468,0.9452 1.27516,8.99878 7.9692,14.09167c6.69403,5.09287 12.63366,9.07655 20.01312,21.11381c7.37946,12.03727 12.72936,13.96653 13.57945,19.96573c0.85011,5.9992 0.68543,6.94438 1.20618,14.83397c0.52075,7.88958 -0.89239,10.56115 -0.30265,12.61555c0.58973,2.0544 5.63697,16.59923 6.06202,19.59882c0.42505,2.9996 -0.30265,12.61555 -3.71866,15.90429c-3.416,3.28874 -2.04516,17.17751 -1.88047,16.23231c0.16468,-0.9452 -24.59746,16.0768 -24.59746,16.0768l0,-0.00001z" id="svg_131" stroke="#000"/>
   <path transform="rotate(9 146.94 257.291)" fill="#619E73" stroke-width="7" opacity="NaN" d="m107.57228,416.61177c0,0 26.05486,-53.81098 25.47927,-55.02872c0.57558,1.21773 40.53166,-102.54942 40.53166,-102.54942c0,0 17.47479,-28.38978 20.07534,-47.7872c2.60055,-19.39743 12.98192,-47.23248 9.06465,-64.85742c-3.91728,-17.62495 1.69241,-21.29722 -1.3719,-12.21822c-3.06431,9.079 -2.71472,-1.74134 -12.45041,-40.36844c-9.73567,-38.6271 8.14921,57.70253 6.34791,60.11638c-1.80131,2.41385 -9.14743,47.56399 -11.02329,56.04495c-1.87586,8.48095 -19.04422,35.96283 -19.42521,42.93785c-0.38099,6.97501 -17.39201,45.68321 -17.69844,46.5911c-0.30643,0.9079 -23.44608,57.7741 -23.75251,58.68201c-0.30643,0.9079 -16.77915,43.8674 -17.35474,42.64967c0.57558,1.21773 -15.13518,30.22722 -15.71076,29.00948c0.57558,1.21773 17.28841,-13.22202 17.28841,-13.22202l0,-0.00001l0.00002,0.00001z" id="svg_132" stroke="#000"/>
   <path transform="rotate(9 71.2559 274.201)" fill="#619E73" stroke-width="7" opacity="NaN" d="m122.68481,327.72966c4.31778,-110.75386 7.33441,-27.72918 -13.29884,-57.1284c-20.63325,-29.39923 -31.70921,-2.72191 -32.42722,-3.59322c0.71801,0.87131 -18.89707,-1.12841 -24.4533,4.33892c-5.55622,5.46734 -12.24558,2.58256 -16.47935,12.27109c-4.23377,9.68853 -25.96643,20.81748 -25.85423,34.90774c0.11221,14.09027 11.87247,-60.59601 13.38424,-60.50574c1.51176,0.09028 19.95862,-38.57358 23.85163,-40.82645c3.893,-2.25287 11.00024,-25.02495 24.86979,-13.42695c13.86955,11.59799 33.10738,5.29074 38.88941,11.43513c5.78203,6.14438 17.57324,13.47604 17.15675,22.56407c-0.4165,9.08803 0.9803,28.22568 0.90457,29.87805c-0.07572,1.65236 3.74017,17.62069 3.02215,16.74938c0.71801,0.8713 -17.77223,106.63664 -9.56558,43.33639l0,0.00001l-0.00002,0l0,-0.00001l0,-0.00001z" id="svg_133" stroke="#000"/>
   <g id="svg_1" transform="rotate(9 213.192 319.026) matrix(0.964418 0.172101 -0.170053 0.976031 60.8125 -25.4572)" stroke="null">
    <path fill="#619E73" stroke-width="7" opacity="NaN" d="m139.25944,361.06121c0,0 13.67068,-41.06587 12.81627,-41.92139c0.85441,0.85552 15.37951,-23.9551 23.06926,-25.66618c7.68976,-1.71108 13.67068,-15.3997 22.21485,-20.53294c8.54417,-5.13323 31.61345,-5.98877 34.1767,-5.98877c2.56325,0 27.34136,0 18.79718,15.3997c-8.54417,15.3997 -6.83534,19.6774 -11.96184,41.06587c-5.1265,21.38847 11.96184,40.21033 -1.70883,46.1991c-13.67068,5.98877 -5.1265,15.3997 -4.27209,15.3997c0.85442,0 35.88553,-5.98877 35.03112,-28.23279c-0.85442,-22.24401 20.50602,-70.15419 20.50602,-76.14297c0,-5.98877 -14.5251,-35.93264 -18.79718,-35.0771c-4.27209,0.85554 -30.75903,0.85554 -39.3032,5.98877c-8.54417,5.13323 -10.25301,29.08832 -17.08835,42.77695c-6.83534,13.68862 -22.21485,24.81063 -37.59437,32.51048c-15.37951,7.69985 -25.63252,2.56662 -25.63252,10.26647c0,7.69985 -10.25301,23.95509 -10.25301,23.95509l0.00001,-0.00001l-0.00002,0.00002z" id="svg_136" stroke="#000"/>
    <line fill="none" stroke-width="7" x1="198.21424" y1="272.08516" x2="232.39094" y2="249.84115" id="svg_140" stroke="#000"/>
    <path fill="none" stroke-width="7" id="svg_141" d="m215.30259,263.52977c0,0 -0.60417,-0.25058 0,-0.85554c0.60417,-0.60496 0.25025,-0.25058 0.85442,-0.85554c0.60417,-0.60496 1.10467,-1.10612 1.70883,-1.71108c0.60417,-0.60496 1.10467,-0.25058 1.70883,-0.85554c0.60417,-0.60496 1.70883,-0.85554 2.56325,-0.85554l0.85442,0l0,0l0,-0.85554" stroke="#000"/>
    <path fill="none" stroke-width="7" id="svg_142" d="m212.73934,263.52977c0,0 0.85442,0 1.70883,0c0,0 0.85442,0 1.70883,0c1.70883,0 1.70883,0 3.41765,-0.85554c0,0 0.85442,0 1.70883,0c0,0 0.85442,0 1.70883,0l0,0l0,-0.85554" stroke="#000"/>
   </g>
   <path transform="rotate(9 102.462 199.746)" id="svg_4" d="m174.36963,249.83406c0.17005,-0.97603 -6.58323,-19.28957 -7.37759,-20.43769c0.79436,1.14812 -36.47785,-7.51587 -36.70381,-0.51155c-0.22595,7.00432 -39.43171,-36.22153 -41.02044,-38.51779c-1.58873,-2.29626 -42.32261,-19.629 -50.26391,-14.00149c-7.9413,5.62751 -8.28141,7.57958 -8.45146,8.55561c-0.17005,0.97603 10.82985,-39.32887 23.9916,-34.9674c13.16175,4.36147 64.89788,-1.50186 67.16918,13.9991c2.2713,15.50097 31.88406,16.75986 41.13224,26.46122c9.24818,9.70136 13.44831,25.54653 10.15905,33.01057c-3.28926,7.46405 1.19508,27.38544 1.36513,26.40941l0.00001,0.00001z" opacity="NaN" stroke-width="7" fill="#619E73" stroke="#000"/>
   <path transform="rotate(9 236.428 246.933)" id="svg_5" d="m182.25102,261.72484c0.96442,0.1721 41.80773,-11.66057 45.94726,-24.00477c4.13953,-12.3442 29.49626,-20.90219 38.63028,-16.25309l28.36885,31.22823c5.4464,2.98467 -21.44551,-13.89073 -22.86183,-0.05419c-1.41632,13.83654 -20.87474,11.37055 -55.53555,16.25548c-34.6608,4.88492 -41.75183,5.63228 -39.48289,4.02442c2.26894,-1.60786 3.96947,-11.36817 4.93389,-11.19607l-0.00001,-0.00001z" opacity="NaN" stroke-width="7" fill="#619E73" stroke="#000"/>
   <path transform="rotate(9 181.452 102.34)" id="svg_7" d="m214.21723,125.32334c-1.24862,-4.24833 -11.58008,-53.3917 -37.90123,-45.00581c-26.32115,8.38589 -28.41533,43.23538 -27.45091,43.40748" opacity="NaN" stroke-width="7" fill="none" stroke="#000"/>
   <path transform="rotate(9 172.385 79.6291)" id="svg_8" d="m218.33624,102.61248c-1.24862,-4.24833 -11.58008,-53.3917 -37.90123,-45.00581c-26.32115,8.38589 -19.22776,24.74736 -54.00037,41.68886" opacity="NaN" stroke-width="7" fill="none" stroke="#000"/>
   <path transform="rotate(9 258.103 138.959)" id="svg_9" d="m222.14226,156.13508c0,0 -6.25019,-72.56812 47.19118,-53.9741c53.44137,18.59401 4.03714,68.14769 6.53439,76.64434" opacity="NaN" stroke-width="7" fill="none" stroke="#000"/>
   <g id="svg_15" transform="rotate(9 145.208 140.661) matrix(0.964418 0.172101 -0.170053 0.976031 25.6983 -15.1289)" stroke="null">
    <path transform="rotate(-59 147.478 133.611)" id="svg_11" d="m170.11122,111.11126c-0.68956,0 -21.37617,14.46429 -25.51349,18.48214c-4.13732,4.01786 -13.79107,3.21429 -11.03285,-7.23214c2.75821,-10.44643 -13.79108,9.64286 -8.27465,14.46428c5.51643,4.82143 18.61795,19.28572 22.75527,19.28572c4.13732,0 22.75527,-9.64286 22.75527,-11.25c0,-1.60714 -21.37616,4.01786 -21.37616,0c0,-4.01786 3.44777,-8.03572 13.10152,-16.875c9.65375,-8.83929 8.27464,-16.875 7.58509,-16.875z" opacity="NaN" stroke-width="6" fill="#ffffff" stroke="#000"/>
    <path transform="rotate(9 151.481 141.532)" id="svg_14" d="m159.80077,146.11126c0,0 -7,-16 -13,-17c-6,-1 -3,20 -2,24c1,4 15,-7 15,-7z" opacity="NaN" stroke-width="6" fill="#ffffff" stroke="#000"/>
   </g>
   <g id="svg_18" transform="rotate(9 125.068 87.5437) matrix(0.286318 0.947782 -0.936506 0.289766 152.766 -23.0331)" stroke="null">
    <path transform="rotate(-59 98.427 59.6674)" id="svg_16" d="m121.05935,37.16738c-0.68956,0 -21.37617,14.46429 -25.51349,18.48214c-4.13732,4.01786 -13.79107,3.21429 -11.03285,-7.23214c2.75821,-10.44643 -13.79108,9.64286 -8.27465,14.46428c5.51643,4.82143 18.61795,19.28572 22.75527,19.28572c4.13732,0 22.75527,-9.64286 22.75527,-11.25c0,-1.60714 -21.37616,4.01786 -21.37616,0c0,-4.01786 3.44777,-8.03572 13.10152,-16.875c9.65375,-8.83929 8.27464,-16.875 7.58509,-16.875z" opacity="NaN" stroke-width="6" fill="#ffffff" stroke="#000"/>
    <path transform="rotate(9 102.43 67.5884)" id="svg_17" d="m110.7489,72.16738c0,0 -7,-16 -13,-17c-6,-1 -3,20 -2,24c1,4 15,-7 15,-7z" opacity="NaN" stroke-width="6" fill="#ffffff" stroke="#000"/>
   </g>
   <g id="svg_21" transform="rotate(9 259.271 188.587) matrix(0.716212 0.67592 -0.667878 0.724836 179.471 -117.866)" stroke="null">
    <path transform="rotate(-59 270.477 170.567)" id="svg_19" d="m293.10869,148.06645c-0.68956,0 -21.37617,14.46429 -25.51349,18.48214c-4.13732,4.01786 -13.79107,3.21429 -11.03285,-7.23214c2.75821,-10.44643 -13.79108,9.64286 -8.27465,14.46428c5.51643,4.82143 18.61795,19.28572 22.75527,19.28572c4.13732,0 22.75527,-9.64286 22.75527,-11.25c0,-1.60714 -21.37616,4.01786 -21.37616,0c0,-4.01786 3.44777,-8.03572 13.10152,-16.875c9.65375,-8.83929 8.27464,-16.875 7.58509,-16.875z" opacity="NaN" stroke-width="6" fill="#ffffff" stroke="#000"/>
    <path transform="rotate(9 274.48 178.488)" id="svg_20" d="m282.79824,183.06645c0,0 -7,-16 -13,-17c-6,-1 -3,20 -2,24c1,4 15,-7 15,-7z" opacity="NaN" stroke-width="6" fill="#ffffff" stroke="#000"/>
   </g>
   <path transform="rotate(9 196.227 127.781)" id="svg_22" d="m213.5991,149.64923c0,0 -34.2089,-9.12372 -34.66552,-29.33274c-0.45661,-20.20902 1.24627,-12.8605 0.45191,-14.00862c0.79436,1.14812 27.40207,13.94729 29.38916,25.37203c1.98709,11.42474 4.82445,17.96933 4.82445,17.96933z" opacity="NaN" stroke-width="7" fill="#619E73" stroke="#000"/>
   <path transform="rotate(9 239.428 162.491)" id="svg_23" d="m218.42899,180.72311c0,0 7.8158,-34.91814 27.75628,-36.08525c19.94048,-1.16712 12.74325,0.81168 13.84929,-0.03182c-1.10605,0.8435 -12.81663,28.20188 -24.02922,30.61039c-11.21259,2.40851 -17.57635,5.50668 -17.57635,5.50668z" opacity="NaN" stroke-width="7" fill="#619E73" stroke="#000"/>
   <path transform="rotate(9 239.633 131.633)" id="svg_24" d="m222.4603,145.00956c0,0 6.0643,-25.94956 22.55703,-26.58288c16.49273,-0.63331 10.558,0.75692 11.46376,0.14097c-0.90577,0.61595 -10.28186,20.88099 -19.53542,22.54395c-9.25356,1.66296 -14.48536,3.89795 -14.48536,3.89795l-0.00001,0l0,0.00001z" opacity="NaN" stroke-width="7" fill="#619E73" stroke="#000"/>
   <path transform="rotate(9 272.195 122.021)" id="svg_25" d="m259.46204,104.19071c0,0 25.41356,7.03921 25.46337,23.74247c0.04981,16.70325 -1.11592,10.65221 -0.53929,11.58981c-0.57663,-0.93761 -20.26115,-11.12807 -21.58038,-20.54538c-1.31923,-9.41732 -3.34369,-14.7869 -3.34369,-14.7869l-0.00001,0z" opacity="NaN" stroke-width="7" fill="#619E73" stroke="#000"/>
   <path transform="rotate(9 220.282 86.5944)" id="svg_27" d="m216.76743,107.79731c0,0 -11.42344,-24.02894 1,-35.02531c12.42344,-10.99636 8.67578,-6.13614 8.99668,-7.19169c-0.3209,1.05555 4.99397,22.77608 -1.1633,29.96202c-6.15729,7.18594 -8.83338,12.25498 -8.83338,12.25498z" opacity="NaN" stroke-width="7" fill="#619E73" stroke="#000"/>
   <path transform="rotate(9 161.573 58.239)" id="svg_28" d="m182.91718,53.37302c0,0 -17.73487,19.72057 -32.46312,12.18236c-14.72825,-7.53821 -8.87164,-5.84226 -9.9589,-5.74796c1.08726,-0.0943 18.99558,-13.21816 27.88555,-10.13238c8.88998,3.08578 14.53647,3.69799 14.53647,3.69799l0,-0.00001z" opacity="NaN" stroke-width="7" fill="#619E73" stroke="#000"/>
  </g>
 </g>

</svg>