<svg width="200" height="200" xmlns="http://www.w3.org/2000/svg">
 <g id="Layer_1">
  <title>Layer 1</title>
  <path d="m26.49813,164.98127c0,-0.2809 0,-0.5618 0.5618,-1.1236c0.5618,-0.5618 1.08518,-1.16484 1.68539,-1.68539c1.06103,-0.92023 2.17037,-2.04877 3.37079,-3.08989c1.06103,-0.92023 1.73764,-1.31813 2.24719,-1.68539c0.32227,-0.23228 0.51248,-0.3084 0.8427,-0.8427c0.73839,-1.19473 1.96629,-2.52809 3.37079,-3.93259c1.1236,-1.1236 1.8588,-2.26857 1.96629,-2.52809c0.30404,-0.73402 0.94701,-1.05246 1.68539,-2.24719c0.66043,-1.0686 1.73884,-2.2139 2.24719,-3.08987c0.63053,-1.08652 1.64269,-1.98868 2.24719,-3.08989c0.78817,-1.43581 1.73884,-2.49481 2.24719,-3.37079c0.63053,-1.08652 2.23719,-3.10138 4.49438,-5.05618c1.95767,-1.6954 3.34764,-2.91766 3.65169,-3.65169c0.21499,-0.51903 0.24249,-1.16484 0.8427,-1.68539c1.06103,-0.92023 2.17846,-2.00337 2.80899,-3.08989c0.50835,-0.87598 1.44228,-2.12543 2.24719,-3.08987c0.89993,-1.07831 1.94884,-1.9796 2.80899,-3.08989c1.10152,-1.42188 1.74925,-2.46768 2.80899,-3.65169c1.19955,-1.34021 2.24719,-2.80899 3.08989,-3.93259c0.8427,-1.1236 1.5201,-2.36068 2.52809,-3.65169c0.97789,-1.25246 2.26927,-2.22981 3.37079,-3.65168c0.86015,-1.1103 1.89428,-2.57839 3.08988,-4.21349c1.06165,-1.45189 1.79356,-2.63259 2.52809,-3.65169c0.46455,-0.64453 1.18555,-1.3571 2.24719,-2.80899c1.19561,-1.63509 2.46335,-3.19971 3.08989,-4.21348c0.467,-0.75562 0.80669,-1.42964 1.4045,-2.24719c1.06165,-1.45189 2.18017,-2.84883 3.37078,-4.77528c1.06492,-1.72307 1.95231,-3.10119 3.08989,-4.49438c1.38757,-1.69936 2.72258,-3.20531 3.65169,-4.49438c0.73453,-1.0191 0.90079,-1.91367 1.4045,-2.52809c0.64211,-0.78324 1.44813,-2.21176 2.80898,-3.93258c0.8712,-1.10164 1.39566,-2.08205 1.96629,-3.08989c0.39145,-0.69138 1.4045,-1.1236 2.24719,-2.24719c0.8427,-1.1236 1.4045,-1.68539 1.96629,-2.24719c0.8427,-0.8427 1.32556,-1.49163 2.24719,-2.24718c0.78324,-0.6421 0.99949,-1.26946 1.96629,-1.96629c0.50955,-0.36726 1.75112,-1.26206 3.08988,-1.96629c1.79269,-0.94301 2.65463,-1.81194 3.37079,-2.52809c0.71616,-0.71616 1.4045,-1.1236 1.96629,-1.68539c0.5618,-0.56179 1.4045,-0.84269 2.24719,-1.40449c0.8427,-0.5618 1.99033,-1.07716 3.65168,-1.96629c1.99671,-1.06861 4.43365,-1.80339 5.33708,-2.52809c0.48994,-0.39302 0.41412,-0.60374 0.5618,-0.84269c0.33022,-0.5343 1.04086,-0.37814 1.68539,-0.8427c1.0191,-0.73452 1.31837,-0.97157 1.68539,-1.1236c0.25952,-0.10749 0.59915,-0.15997 1.68539,-0.5618c1.17819,-0.43584 1.70677,-1.0161 1.96629,-1.1236c0.36702,-0.15202 0.30228,-0.1734 0.5618,-0.2809c0.36702,-0.15202 0.5618,-0.2809 0.8427,-0.2809c0,0 0.56931,-0.21636 0.8427,-0.2809c0.61131,-0.14431 1.1311,-0.21637 1.40448,-0.2809c0.61131,-0.14431 1.16637,-0.3468 1.68539,-0.56179c0.36702,-0.15202 0.64407,-0.08227 0.8427,-0.2809c0.19862,-0.19863 0.2809,-0.2809 0.5618,-0.2809c0.2809,0 0.2809,0 0.5618,0c0.5618,0 1.86728,-0.27318 3.08989,-0.5618c1.09354,-0.25815 1.68539,0 2.24719,0c0.5618,0 0.8427,0 1.68539,0c0.2809,0 0.8427,0 1.1236,0c0.5618,0 1.07408,0.41749 1.68539,0.5618c0.27339,0.06454 0.5618,0.2809 1.1236,0.5618c0,0 0.34738,0.29671 0.8427,0.56179c0.89296,0.4779 1.10045,0.95137 1.4045,1.68539c0.215,0.51904 0.22186,0.86473 0.5618,1.68539c0.24037,0.5803 0.44087,1.72276 0.8427,2.80899c0.21793,0.5891 0.2809,0.8427 0.2809,1.4045c0,0.5618 0,1.4045 0,2.52809c0,1.68539 0,2.24719 0,3.08989c0,0.8427 -0.04053,1.38599 -0.2809,1.96629c-0.33994,0.82066 -0.0948,1.49158 -0.5618,2.24719c-0.20885,0.33792 -0.2809,0.8427 -0.5618,1.4045c-0.2809,0.5618 -0.64407,0.64407 -0.8427,0.8427c-0.39725,0.39725 -0.08391,0.82823 -0.5618,1.12359c-0.5343,0.33022 -0.47906,1.22084 -1.1236,1.68539c-0.50955,0.36726 -0.5618,0.5618 -0.5618,0.5618c0,0 -0.47543,0.33315 -0.8427,0.8427c-0.46455,0.64453 -0.75658,0.97157 -1.1236,1.1236c-0.25952,0.1075 0.01445,0.3648 -0.2809,0.8427c-0.33022,0.5343 -0.64407,0.36317 -0.8427,0.5618c-0.19862,0.19862 -0.2809,0 -0.2809,0.2809c0,0.2809 -0.36317,0.64407 -0.5618,0.8427c-0.39725,0.39725 -0.60374,0.41412 -0.8427,0.5618c-0.5343,0.33022 -0.2809,0.5618 -0.2809,0.8427c0,0.2809 0,0.2809 0,0.2809c0,0.2809 0,0.5618 0,0.8427c0,0.2809 -0.14767,0.32285 0,0.5618c0.33022,0.5343 0.61404,0.47543 1.1236,0.8427c0.32227,0.23228 0.60457,0.34681 1.1236,0.5618c0.36702,0.15202 0.36317,0.36317 0.5618,0.56179c0.19862,0.19862 1.1236,0 1.4045,0c0.2809,0 0.58318,0.10749 0.8427,0c0.367,-0.15202 1.05537,-0.83901 2.80899,-1.12359c1.10909,-0.17998 1.412,-0.21636 1.68539,-0.2809c0.61131,-0.14431 1.1236,-0.2809 1.96629,-0.5618c0.8427,-0.2809 0.86407,-0.1734 1.1236,-0.2809c0.36702,-0.15202 0.5618,-0.5618 0.8427,-0.8427c0.8427,-0.8427 1.76929,-1.07333 2.24718,-1.96629c0.39763,-0.74298 0.5618,-1.1236 0.5618,-1.1236c0.2809,-0.2809 0.43272,-0.57683 0.5618,-1.1236c0.28862,-1.22261 0.9086,-1.72816 1.1236,-2.24719c0.30405,-0.73402 0.98131,-1.08949 1.1236,-1.96629c0.045,-0.27728 -0.2534,-1.07427 0.2809,-1.40449c0.23895,-0.14767 0.32143,-0.5433 0.5618,-1.1236c0.33994,-0.82066 0.2809,-1.4045 0.5618,-1.96629c0.2809,-0.5618 0.21635,-0.85021 0.2809,-1.1236c0.1443,-0.61131 0.43272,-1.41953 0.5618,-1.96629c0.28862,-1.22261 0.81955,-1.79407 1.1236,-2.52809c0.215,-0.51903 -0.19362,-0.86524 0,-1.68539c0.1443,-0.61131 0.2809,-1.1236 0.2809,-1.4045c0,-0.5618 0.2809,-0.8427 0.2809,-1.1236c0,0 0,-0.5618 0,-1.1236c0,-0.56179 0.19862,-0.92496 0,-1.12359c-0.39725,-0.39725 -0.5618,-0.2809 -0.5618,-0.5618c0,-0.5618 -0.1366,-0.51229 -0.2809,-1.1236c-0.06454,-0.27338 -0.2809,-0.5618 -0.5618,-1.1236c-0.2809,-0.5618 -0.75633,-0.89495 -1.1236,-1.4045c-0.23227,-0.32227 -0.5618,-0.84269 -0.8427,-1.40449c-0.2809,-0.5618 -0.36432,-1.29602 -1.1236,-1.96629c-0.47089,-0.41568 -0.8427,-0.8427 -1.4045,-1.4045c-0.5618,-0.5618 -1.51797,-0.95831 -2.80898,-1.96629c-0.93935,-0.73342 -1.64403,-1.17222 -1.96629,-1.4045c-0.50955,-0.36726 -0.80133,-0.61042 -1.1236,-0.8427c-0.50955,-0.36726 -1.6929,-0.77816 -1.96629,-0.8427c-0.61131,-0.14431 -1.41611,-0.51889 -2.52809,-0.8427c-0.85286,-0.24835 -1.98833,-0.78366 -2.80899,-1.1236c-0.58029,-0.24037 -1.15366,-0.02275 -2.24719,-0.2809c-1.22261,-0.28862 -2.44719,-0.83753 -3.93259,-1.12359c-0.55167,-0.10624 -0.8427,0 -1.4045,0c-0.2809,0 -1.41023,-0.13901 -3.08989,0c-1.70282,0.14093 -3.11005,0.47507 -4.49437,0.84269c-1.71704,0.45599 -3.29985,1.62566 -5.61798,2.24719c-1.65034,0.44249 -2.29944,0.75633 -2.80899,1.1236c-0.32227,0.23228 -0.78508,0.90456 -1.68539,1.68539c-1.06103,0.92022 -2.16689,1.74485 -2.80899,2.52809c-0.25185,0.30721 -0.96924,0.96924 -1.68539,1.68539c-0.71616,0.71616 -1.39003,1.7693 -1.68539,2.24719c-0.33022,0.5343 -0.8427,0.56179 -1.1236,0.84269c-0.5618,0.5618 -0.90861,0.88546 -1.1236,1.4045c-0.30405,0.73402 -0.70791,0.65272 -1.1236,1.1236c-0.67027,0.75927 -1.4045,1.1236 -2.24719,1.96629c-0.2809,0.2809 -0.67946,0.39856 -1.1236,0.84269c-0.44415,0.44414 -1.1236,1.1236 -1.68539,1.68539c-0.5618,0.5618 -1.1236,1.1236 -1.68539,1.68539c-0.2809,0.2809 -0.76239,0.90216 -1.40449,1.68539c-0.5037,0.61442 -1.4045,1.12359 -1.96629,1.68539c-0.5618,0.5618 -0.67946,1.24126 -1.1236,1.68539c-0.44414,0.44414 -1.2281,0.95087 -2.24719,1.68539c-0.64453,0.46455 -0.8427,1.1236 -1.4045,1.68539c-0.2809,0.2809 -1.25014,0.96924 -1.96629,1.68539c-0.71616,0.71616 -1.38135,0.95137 -1.68539,1.68539c-0.1075,0.25951 -0.5618,0.5618 -1.1236,1.1236c-0.56179,0.5618 -1.12359,1.1236 -1.68539,1.68539c-0.5618,0.5618 -0.8427,0.8427 -1.4045,1.4045c-0.8427,0.8427 -1.4045,1.96629 -2.52809,3.08989c-0.8427,0.8427 -1.25014,1.53104 -1.96629,2.24719c-0.71616,0.71616 -1.23177,1.2281 -1.96629,2.24718c-0.69683,0.9668 -1.60509,1.74485 -2.24719,2.52809c-0.75555,0.92163 -1.43599,1.94334 -2.24718,3.08989c-0.58496,0.82678 -1.1551,1.66245 -1.96629,2.80899c-0.58496,0.82678 -1.30585,1.74039 -1.96629,2.80899c-0.73839,1.19473 -1.79795,2.72591 -2.80899,4.21348c-1.27302,1.87302 -2.80899,4.21349 -3.65168,5.89888c-0.8427,1.68539 -1.7169,2.78603 -2.52809,3.93258c-0.58496,0.82678 -1.07428,1.71289 -1.4045,2.24719c-0.73839,1.19473 -1.49479,1.63174 -1.96629,2.52809c-0.70423,1.33876 -1.33576,2.56517 -1.96629,3.65169c-0.50835,0.87598 -1.45167,1.94391 -1.96629,3.08988c-0.61968,1.37994 -0.89089,2.85719 -1.68539,3.65169c-0.39725,0.39725 -0.61989,0.50917 -1.1236,1.1236c-0.6421,0.78324 -1.04329,1.74486 -1.68539,2.52809c-0.5037,0.61443 -0.98881,1.49541 -1.40449,1.96629c-0.67027,0.75928 -1.49163,1.60646 -2.24719,2.52809c-0.6421,0.78323 -1.17222,1.36313 -1.4045,1.68539c-0.36726,0.50955 -0.76517,0.90526 -1.68539,1.96629c-0.52056,0.6002 -1.0161,1.14496 -1.1236,1.40448c-0.30404,0.73402 -1.26946,0.9995 -1.96629,1.96629c-0.73452,1.0191 -1.52068,1.58015 -2.52809,2.80899c-0.6421,0.78323 -1.68539,2.24719 -2.80899,3.65169c-1.1236,1.4045 -2.64105,3.24258 -3.93258,4.49438c-1.00852,0.97749 -1.96629,1.96629 -2.80899,2.80899c-1.4045,1.4045 -2.24719,2.52809 -3.08989,3.65169c-0.8427,1.1236 -2.00871,1.80748 -2.52809,2.52809c-0.16424,0.22787 -0.61042,0.52043 -0.8427,0.8427c-0.36726,0.50955 -1.18305,1.04327 -1.96629,1.68538c-0.61442,0.50371 -1.68539,1.1236 -2.24719,1.68539c-0.8427,0.8427 -1.68539,1.4045 -2.24719,1.96629c-0.5618,0.5618 -1.18546,1.06598 -1.96629,1.96629c-0.92023,1.06104 -1.8438,1.7887 -2.80899,2.80899c-0.69601,0.73575 -1.15264,1.65909 -1.40449,1.96629c-0.6421,0.78323 -0.90861,1.44727 -1.1236,1.96629c-0.15202,0.36702 -0.5618,0.2809 -0.5618,0.5618c0,0.5618 0,1.1236 0,2.52809c0,1.1236 0,1.96629 0,2.52809c0,0.5618 0,0.8427 0,0.8427c0.5618,0.2809 0.90511,0.4245 1.68539,0c1.57996,-0.85954 2.44779,-2.30666 3.08989,-3.08989c0.25185,-0.30721 0.32285,-0.41412 0.5618,-0.5618c0.5343,-0.33022 0.90216,-0.76239 1.68539,-1.4045c0.30721,-0.25185 0.2809,-0.5618 0.5618,-0.8427l0,-0.2809l0.2809,-0.2809l0,-0.2809" id="svg_1" stroke="#000000" fill="#000000"/>
 </g>
</svg>