<svg width="600" height="440.00000000000006" xmlns="http://www.w3.org/2000/svg">
 <g id="Layer_1">
  <title>Layer 1</title>
  <rect fill="#000000" stroke="null" stroke-width="13" x="558.43504" y="543.98699" width="1" height="2" id="svg_36"/>
  <path id="svg_9" d="m-66.50001,545.99998" opacity="NaN" stroke="#000" fill="#482816"/>
  <rect fill="#604131" stroke="#000" x="1139.31773" y="253.04906" width="2.54237" height="0" id="svg_4"/>
  <path id="svg_20" d="m776.80486,132.65711l209.87541,-45.09113l1.53218,146.86384l-212.20721,50.01309l0.7996,-151.78579l0.00001,-0.00001l0.00001,0z" opacity="NaN" fill="#4D2425" stroke-width="0" stroke="#000"/>
  <path fill="#c48157" stroke-width="0" fill-opacity="0.26" opacity="NaN" d="m975.03794,89.22632c0,0 -0.74133,148.2565 -0.74133,148.2565c0,0 11.86121,-10.64042 11.72723,-10.91825c0.13397,0.27783 -2.09,-140.88505 -2.22398,-141.16289c0.13398,0.27783 -8.76193,3.82464 -8.76193,3.82464l0.00001,0z" id="svg_26" stroke="#000"/>
  <path id="svg_62" d="m28.77569,163.77278l231.32597,-35.4065l131.76765,68.88718l-209.90893,42.96191l-153.18469,-76.44259z" opacity="NaN" fill="#ffffff" stroke-width="0" stroke="#000"/>
  <path id="svg_64" d="m359.01976,202.61833l212.79512,-46.55099l-1.38753,148.3237l-212.2072,50.01308l0.7996,-151.78578l0.00001,-0.00001z" opacity="NaN" fill="#4D2425" stroke-width="0" stroke="#000"/>
  <path id="svg_65" d="m182.87337,239.4669l209.87541,-46.70207l1.53218,152.11071l-212.2072,51.79986l0.7996,-157.20849l0.00001,-0.00001z" opacity="NaN" fill="#4D2425" stroke-width="0" stroke="#000"/>
  <g id="svg_66" stroke="null">
   <path id="svg_24" d="m842.62781,222.05112c0,0 -0.68792,-52.22968 -0.71801,-52.81816c0.0301,0.58847 33.73815,-6.76782 33.70806,-7.3563c0.0301,0.58847 -1.34575,48.40438 -1.34575,48.40438c0,0 -31.6443,11.77008 -31.6443,11.77008z" opacity="NaN" fill="#ccb192" stroke-width="0" stroke="#000"/>
   <path id="svg_29" d="m841.74748,214.90639c0,0 -0.57848,-46.02827 -0.60378,-46.54686c0.0253,0.51861 28.3708,-5.96425 28.3455,-6.48286c0.0253,0.51861 -1.13166,42.65716 -1.13166,42.65716c0,0 -26.61006,10.37256 -26.61006,10.37256z" opacity="NaN" fill="#000000" stroke-width="0" stroke="#000"/>
  </g>
  <g id="svg_67" stroke="null">
   <path id="svg_23" d="m918.2014,202.80132c0,0 -0.62644,-51.47997 -0.65385,-52.05999c0.02741,0.58003 30.72308,-6.67067 30.69568,-7.2507c0.02741,0.58003 -1.22548,47.70957 -1.22548,47.70957c0,0 -28.81635,11.60112 -28.81635,11.60112z" opacity="NaN" fill="#ccb192" stroke-width="0" stroke="#000"/>
   <path id="svg_30" d="m918.08131,195.55061c0,0 -0.51138,-45.18657 -0.53375,-45.69569c0.02237,0.50912 25.08015,-5.85519 25.05777,-6.36431c0.02237,0.50912 -1.0004,41.8771 -1.0004,41.8771c0,0 -23.52362,10.18289 -23.52362,10.18289l0,0.00001z" opacity="NaN" fill="#000000" stroke-width="0" stroke="#000"/>
  </g>
  <g id="svg_70" stroke="null">
   <path id="svg_68" d="m738.24896,297.70179c0,0 -1.70039,-102.13987 -1.77475,-103.2907c0.07439,1.15081 83.39295,-13.2351 83.31856,-14.3859c0.07439,1.15081 -3.32638,94.65914 -3.32638,94.65914c0,0 -78.21742,23.01746 -78.21742,23.01746l-0.00001,0z" opacity="NaN" fill="#ccb192" stroke-width="0" stroke="#000"/>
   <path id="svg_69" d="m736.07302,283.72963c0,0 -1.42988,-90.01245 -1.4924,-91.02661c0.06251,1.01418 70.12608,-11.66363 70.06354,-12.6778c0.06254,1.01418 -2.7972,83.41993 -2.7972,83.41993c0,0 -65.77395,20.28448 -65.77395,20.28448l0.00001,0z" opacity="NaN" fill="#000000" stroke-width="0" stroke="#000"/>
  </g>
  <g id="svg_76" stroke="null">
   <path id="svg_74" d="m513.67205,267.04083c0,0 -0.68792,-52.22968 -0.71801,-52.81816c0.0301,0.58847 33.73816,-6.76783 33.70806,-7.3563c0.0301,0.58847 -1.34575,48.40438 -1.34575,48.40438c0,0 -31.64431,11.77008 -31.64431,11.77008l0.00001,0z" opacity="NaN" fill="#ccb192" stroke-width="0" stroke="#000"/>
   <path id="svg_75" d="m512.79173,259.8961c0,0 -0.57849,-46.02827 -0.60379,-46.54687c0.0253,0.5186 28.3708,-5.96425 28.34551,-6.48285c0.02529,0.5186 -1.13167,42.65716 -1.13167,42.65716c0,0 -26.61006,10.37256 -26.61006,10.37256l0.00001,0z" opacity="NaN" fill="#000000" stroke-width="0" stroke="#000"/>
  </g>
  <g id="svg_79" stroke="null">
   <path id="svg_77" d="m233.2818,322.96367c0,0 -0.68792,-52.22968 -0.71801,-52.81816c0.0301,0.58847 33.73816,-6.76783 33.70806,-7.3563c0.0301,0.58847 -1.34575,48.40438 -1.34575,48.40438c0,0 -31.64431,11.77008 -31.64431,11.77008l0.00001,0z" opacity="NaN" fill="#ccb192" stroke-width="0" stroke="#000"/>
   <path id="svg_78" d="m232.40148,315.81894c0,0 -0.57849,-46.02827 -0.60379,-46.54687c0.0253,0.5186 28.3708,-5.96425 28.34551,-6.48285c0.02529,0.5186 -1.13167,42.65716 -1.13167,42.65716c0,0 -26.61006,10.37256 -26.61006,10.37256l0.00001,0z" opacity="NaN" fill="#000000" stroke-width="0" stroke="#000"/>
  </g>
  <g id="svg_82" stroke="null">
   <path id="svg_80" d="m309.188,368.02059c0,0 -2.34842,-110.6155 -2.45117,-111.8618c0.10275,1.24632 115.17516,-14.33332 115.07244,-15.57965c0.10271,1.24632 -4.59409,102.51402 -4.59409,102.51402c0,0 -108.02718,24.92742 -108.02718,24.92742l0,0.00001z" opacity="NaN" fill="#ccb192" stroke-width="0" stroke="#000"/>
   <path id="svg_81" d="m308.73776,352.44095c0,0 -1.91706,-97.09284 -2.00093,-98.18678c0.08388,1.09397 94.02086,-12.58109 93.93696,-13.67506c0.08387,1.09397 -3.75031,89.98174 -3.75031,89.98174c0,0 -88.18572,21.88007 -88.18572,21.88007l0,0.00002l0,0.00001z" opacity="NaN" fill="#000000" stroke-width="0" stroke="#000"/>
  </g>
  <path id="svg_83" d="m393.38068,348.38819c0,0 -1.99569,-105.9727 -2.08301,-107.16668c0.08732,1.19401 91.05783,-23.5802 96.27357,-23.25906c3.11759,-7.13932 -2.38891,106.54458 -2.38891,106.54458c0,0 -91.80166,23.88116 -91.80166,23.88116l0.00001,0z" opacity="NaN" fill="#ccb192" stroke-width="0" stroke="#000"/>
  <path id="svg_84" d="m380.70708,333.96247c0,0 -1.90627,-90.87447 -1.98966,-91.89835c0.08339,1.0239 86.67307,-21.6238 91.89267,-20.37498c-2.10639,-4.08558 -2.21403,91.79456 -2.21403,91.79456c-9.48905,2.91971 -87.68897,20.47874 -87.68897,20.47874l0,0.00002l-0.00001,0.00001z" opacity="NaN" fill="#000000" stroke-width="0" stroke="#000"/>
  <path fill="#ffffff" stroke-width="0" opacity="NaN" d="m29.61473,163.80024l-1.28767,138.80766l154.81806,93.60817l0,-155.12211l-153.53038,-77.29373l-0.00001,0.00001z" id="svg_87" stroke="#000"/>
  <g stroke="null" id="svg_196">
   <title stroke="null" id="svg_177">Layer 1</title>
   <path stroke="#000000" fill="#845335" stroke-width="0" opacity="undefined" d="m433.15108,136.49893c-18.49687,0 -32.60785,-2.15436 -33.47934,-6.23597c-0.87148,-4.0816 14.98247,-6.23596 33.47934,-6.23596c18.49688,0 33.47934,2.79068 33.47934,6.23596c0,3.44529 -14.98247,6.23597 -33.47934,6.23597z" id="svg_178"/>
   <path stroke="#000000" fill="#aaaaaa" stroke-width="0" opacity="NaN" d="m394.56612,103.41015c1.45879,10.30842 0.87528,5.47238 2.91758,15.14448c2.04231,9.6721 2.18819,9.54484 2.33407,9.6721c0.14588,0.12727 1.31291,1.78171 4.95989,3.18162c3.64698,1.39991 7.43984,1.90897 12.69148,2.54529c5.25165,0.63632 8.89863,0.3818 13.275,0.3818c4.37638,0 7.7316,-0.50906 15.17143,-0.76359c7.43984,-0.25453 16.33846,-2.03623 18.38077,-2.79982c2.04231,-0.76359 3.5011,-5.34511 4.66813,-9.92664c1.16703,-4.58152 2.33406,-10.56295 3.06346,-23.28941c0.72939,-12.72645 0.72939,-11.8356 -0.29176,-19.98052c-1.02115,-8.14494 -0.29175,-16.92618 -2.62582,-23.6712c-2.33406,-6.74502 -36.76154,-9.92663 -55.72583,-6.49049c-18.96429,3.43614 -16.7761,6.61775 -16.92198,6.49049c0.14588,0.12726 -3.06346,26.08923 -3.06346,32.96151c0,6.87229 -0.29176,6.23597 1.16703,16.54439l0,0z" id="svg_179"/>
   <ellipse stroke="#000000" fill="#845335" stroke-width="0" cx="432.71352" cy="53.64972" id="svg_180" rx="33.62514" ry="6.23596"/>
   <ellipse stroke="#000000" fill="#000000" stroke-width="0" cx="432.71352" cy="53.84062" id="svg_181" rx="36.10508" ry="7.6995" fill-opacity="0.19"/>
   <path stroke="#000000" fill="#000000" stroke-width="0" fill-opacity="0.19" opacity="NaN" d="m399.23426,56.70407c0,0 -1.02115,15.01722 -1.16703,14.88995c0.14588,0.12726 -0.58352,15.90806 -0.58352,15.90806c0,0 0.43764,16.92619 0.58352,16.92619c0.14588,0 3.50109,15.65353 3.50109,15.65353c0,0 1.75056,10.69022 1.75056,10.69022c0,0 -3.35523,-1.90896 -3.35523,-2.03623c0,-0.12726 -4.23049,-16.54439 -4.37637,-16.54439c-0.14588,0 -2.18819,-19.47146 -2.33406,-19.59873c0.14588,0.12726 0.58352,-16.28986 0.43764,-16.41713c0.14588,0.12726 2.18818,-15.65354 2.18818,-15.65354c0,0 0.58352,-6.61775 0.43765,-6.74502c0.14588,0.12726 -0.14589,1.39991 2.91758,2.92708l0,0z" id="svg_182"/>
   <path stroke="#000000" fill="#000000" stroke-width="0" fill-opacity="0.19" opacity="NaN" d="m465.79803,123.47288c0.75719,-3.44624 0.21072,-10.16904 0.3566,-10.04178c-0.14588,-0.12725 1.97284,-13.68598 1.85706,-17.62512c0,-4.44416 0.95169,-11.876 -0.35196,-16.92618c-1.30365,-5.05018 -0.66116,-10.66871 -1.35582,-15.71888c-0.23156,-4.34316 -1.36236,-5.75888 -1.05589,-5.83611c0.30648,-0.07725 3.17816,-2.27377 3.87282,-3.05554c0.69466,-0.78176 1.91496,14.0193 2.52394,17.55442c0.60899,3.53513 1.09061,11.3427 0.94474,16.77063c-0.14588,5.42794 -1.91264,23.81664 -1.24808,20.25526c0.66457,-3.56138 -2.99862,15.65354 -2.99862,15.65354c0,0 -3.53352,6.46826 -4.02672,5.83598c-0.49321,-0.63228 0.72477,-3.41998 1.48194,-6.86622l0,0z" id="svg_183"/>
   <path stroke="#000000" fill="#000000" stroke-width="0" fill-opacity="0.19" opacity="NaN" d="m403.87091,58.25925c0,0 -0.49001,14.407 -0.49001,14.407c0,0 0.29176,15.78079 0.29176,15.78079c0,0 -0.29176,9.67207 -0.14589,15.39901c0.58352,4.83608 2.18819,14.25363 2.18819,14.25363c0,0 1.45878,11.83561 1.45878,11.83561c0,0 0,2.29076 0,2.29076c0,0 5.54341,1.01811 5.54341,1.01811c0,0 -1.75056,-16.28985 -1.89643,-16.28985c-0.14588,0 -1.60467,-9.79935 -1.60467,-14.25363c-0.87528,-3.18163 0,-15.52627 -0.14588,-15.65353c0.14588,0.12726 0.29175,-13.9991 0.14588,-14.12637c0.14588,0.12726 0,-9.16305 -0.14588,-9.29031c0.14588,0.12726 0.28053,-3.12614 0.28053,-4.14425c-2.10589,-0.12726 -3.41881,-0.33611 -5.47981,-1.22696z" id="svg_184"/>
   <path stroke="#000000" fill="#000000" stroke-width="0" fill-opacity="0.19" opacity="NaN" d="m415.81685,60.87856c-0.45887,0.35973 -0.57433,13.8185 -0.57433,13.8185c0,0 0.29176,15.78079 0.29176,15.78079c0,0 -0.29176,9.67207 -0.14589,15.39901c0.58352,4.83608 2.18819,14.25363 2.18819,14.25363c0,0 1.45878,11.83561 1.45878,11.83561c0,0 0,2.29076 0,2.29076c0,0 1.63424,-0.22957 5.16202,0.18632c-0.85811,-4.32531 -1.36916,-15.45807 -1.51505,-15.45807c-0.14588,0 -1.60467,-9.79935 -1.60467,-14.25363c-0.87528,-3.18163 0,-15.52627 -0.14588,-15.65353c0.14588,0.12726 0.29176,-13.9991 0.14589,-14.12637c0.14588,0.12726 -0.00001,-9.16305 -0.14589,-9.29031c0.14588,0.12726 0.28053,-3.42039 0.28053,-4.43851c-2.10589,-0.12726 -4.93662,-0.70392 -5.39549,-0.34421z" id="svg_185"/>
   <path stroke="#000000" fill="#000000" stroke-width="0" fill-opacity="0.19" opacity="NaN" d="m462.63599,131.21163c0,0 2.57399,-13.12491 2.57399,-13.12491c0,0 -0.07239,-12.43174 -0.07239,-15.7808c0.32905,-3.44475 0.7305,-12.63839 0.58461,-18.36532c-0.58352,-4.83608 -0.54293,-7.65118 -1.31072,-11.28732c-0.10968,-2.48787 -0.71389,-4.69545 -0.89288,-7.03773c-0.0895,-0.70269 -2.10148,-7.08863 -2.10148,-7.08863c0,0 -2.7406,0.95591 -5.8471,1.24565c0.53698,2.57652 2.05425,14.02609 2.20012,14.02609c0.14588,0 1.60467,9.79935 1.60467,14.25363c-0.01968,4.11854 0,15.52627 0.14588,15.65353c-0.14588,-0.12726 -0.29175,13.99909 -0.14588,14.12636c-0.14588,-0.12726 -1.09684,7.15361 -1.06064,9.29031c-0.14588,1.40374 -0.43059,4.31725 -0.43059,5.33536c2.10589,-0.18504 2.69139,-0.65364 4.75241,-1.24623l0,0z" id="svg_186"/>
   <path stroke="#000000" fill="#000000" stroke-width="0" fill-opacity="0.19" opacity="NaN" d="m454.51402,132.18428c0,0 0.49,-12.45509 0.49,-12.45509c0,0 -0.29175,-15.7808 -0.29175,-15.7808c0,0 0.29176,-9.67207 0.14589,-15.39901c-0.58352,-4.83607 -2.18819,-14.25363 -2.18819,-14.25363c0,0 -0.38483,-4.88681 -0.56383,-7.2291c-0.0895,-0.70269 -0.55767,-4.69036 -0.81064,-6.38232c-2.36105,0.14713 -5.72551,0.19816 -5.62773,0.34077c0.09777,0.14262 1.75055,14.41603 1.89642,14.41603c0.14589,0 1.60468,9.79935 1.60468,14.25363c-0.01968,4.11854 -0.00001,15.52627 0.14587,15.65353c-0.14588,-0.12726 -0.29175,13.99909 -0.14588,14.12636c-0.14588,-0.12726 0,9.16305 0.14588,9.29031c-0.14588,-0.12726 -0.10154,3.36037 -0.10154,4.37849c2.1059,-0.18504 3.23981,-0.36658 5.30083,-0.95918z" id="svg_187"/>
   <path stroke="#000000" fill="#000000" stroke-width="0" fill-opacity="0.19" opacity="NaN" d="m426.72839,61.63991c0.38138,2.24583 0.17741,13.73195 0.17741,13.73195c0,0 0.29176,15.78079 0.29176,15.78079c0,0 0.46606,9.67207 0.61194,15.39901c0.58599,8.15893 0.09553,15.33495 0.47692,17.08172c0.57207,4.24213 0.50534,6.17942 0.40999,10.67109c0.38138,-0.49907 1.23949,0.1281 1.81156,0.04493c1.33484,-0.16636 1.54755,0.26735 4.21721,0.01781c-0.09534,-2.4122 -0.23366,-14.7073 -0.37955,-14.7073c-0.14588,0 -1.22576,-9.79935 -1.22576,-14.25363c0.07818,-4.67885 -0.37891,-15.52627 -0.52479,-15.65353c0.14588,0.12726 0.29176,-13.9991 0.14589,-14.12637c0.14588,0.12726 -0.00001,-9.16305 -0.14589,-9.29031c0.14588,0.12726 0.28053,-3.77233 0.28053,-4.79045c-3.63142,0.28863 -2.04738,0.01111 -6.14723,0.09429z" id="svg_188"/>
   <path stroke="#000000" fill="#000000" stroke-width="0" fill-opacity="0.19" opacity="NaN" d="m445.31481,133.80423c-0.38138,-2.24584 -0.17741,-13.73195 -0.17741,-13.73195c0,0 -0.29176,-15.78079 -0.29176,-15.78079c0,0 -0.46606,-9.67207 -0.61194,-15.39901c-0.58599,-8.15893 -0.09553,-15.33495 -0.47692,-17.08172c-0.57208,-4.24213 -0.50534,-6.17942 -0.40999,-10.67109c-0.38138,0.49907 -1.23949,0.23551 -1.81156,0.31868c-1.33484,0.16636 -1.61701,0.03566 -4.28668,0.2852c0.09534,2.41219 0.30313,14.04068 0.44901,14.04068c0.14588,0 1.22576,9.79935 1.22576,14.25363c-0.07818,4.67885 0.37891,15.52627 0.52479,15.65353c-0.14588,-0.12726 -0.29176,13.9991 -0.14589,14.12637c-0.14588,-0.12726 0.00001,9.16305 0.14589,9.29031c-0.14588,-0.12726 -0.28054,3.77233 -0.28054,4.79045c3.63143,-0.28863 2.04738,-0.01111 6.14724,-0.09429z" id="svg_189"/>
   <g stroke="null" id="svg_192">
    <path stroke="#000000" fill="#845335" stroke-width="0" opacity="NaN" d="m393.4895,71.21223l-1.54901,2.41802c-0.58047,3.43614 -0.72559,3.69067 1.02764,5.85417c1.75323,2.1635 13.03694,6.74503 42.4958,6.36323c29.45886,-0.3818 33.66727,-3.94521 34.53797,-4.83605c0.87071,-0.89085 4.78888,-3.43614 2.90236,-6.87228c-1.88654,-3.43614 -0.29024,-2.41803 -1.45117,-2.67256c-1.16094,-0.25452 -2.03165,1.01811 -6.38517,1.90897c-4.35353,0.89086 -5.94983,0.76359 -30.6198,1.39991l-5.51447,0.12726c-29.7491,-1.14538 -27.6078,-3.05435 -35.44415,-3.69067z" id="svg_190"/>
    <path stroke="#000000" fill="#593723" stroke-width="0" opacity="NaN" d="m393.63856,77.32092l-2.14524,-1.00771c-0.58047,2.00413 1.65933,4.44334 3.41257,5.7052c1.75323,1.26186 11.24825,4.06129 40.70711,3.83861c29.45885,-0.22268 32.77292,-2.68282 33.64363,-3.20241c0.8707,-0.51958 5.68322,-4.29489 3.79669,-6.29901c-1.88653,-2.00413 -0.29023,1.26224 -1.45117,1.11379c-1.16094,-0.14845 -2.03165,0.59381 -6.38517,1.1134c-4.35352,0.51959 -5.94982,0.44536 -30.6198,0.8165l-5.51447,0.07423c-29.7491,-0.66805 -27.60779,-1.78145 -35.44414,-2.15259z" id="svg_191"/>
   </g>
   <g stroke="null" id="svg_195">
    <path stroke="#000000" fill="#845335" stroke-width="0" opacity="NaN" d="m394.90372,105.95544l-1.51597,2.41802c-0.56809,3.43614 -0.71012,3.69067 1.00572,5.85417c1.71584,2.1635 12.75892,6.74503 41.58957,6.36323c28.83063,-0.3818 32.9493,-3.94521 33.80144,-4.83605c0.85214,-0.89085 4.68675,-3.43614 2.84045,-6.87228c-1.8463,-3.43614 -0.28404,-2.41803 -1.42022,-2.67256c-1.13618,-0.25452 -1.98833,1.01811 -6.24901,1.90897c-4.26068,0.89086 -5.82294,0.76359 -29.96683,1.39991l-5.39686,0.12726c-29.11469,-1.14538 -27.01906,-3.05435 -34.68829,-3.69067z" id="svg_193"/>
    <path stroke="#000000" fill="#593723" stroke-width="0" opacity="NaN" d="m395.0496,112.06414l-2.09949,-1.00771c-0.56809,2.00413 1.62395,4.44334 3.3398,5.7052c1.71584,1.26186 11.00837,4.06129 39.83902,3.83861c28.83064,-0.22268 32.07403,-2.68282 32.92616,-3.20241c0.85214,-0.51958 5.56204,-4.29489 3.71573,-6.29901c-1.8463,-2.00413 -0.28404,1.26224 -1.42022,1.11379c-1.13618,-0.14845 -1.98833,0.59381 -6.24901,1.1134c-4.26068,0.51959 -5.82294,0.44536 -29.96683,0.8165l-5.39686,0.07423c-29.11469,-0.66805 -27.01905,-1.78145 -34.68829,-2.15259z" id="svg_194"/>
   </g>
  </g>
  <path stroke="#000" id="svg_91" d="m228.52012,133.20686l221.94223,-31.30336l125.238,52.26209l-200.20948,46.62517l-146.97075,-67.5839z" opacity="NaN" fill="#7c4041" stroke-width="0"/>
  <g stroke="null" id="svg_236">
   <title stroke="null" id="svg_217">Layer 1</title>
   <path stroke="#000000" fill="#845335" stroke-width="0" opacity="undefined" d="m494.49562,159.188c-18.49687,0 -32.60785,-2.15436 -33.47934,-6.23597c-0.87148,-4.0816 14.98247,-6.23595 33.47934,-6.23595c18.49687,0 33.47934,2.79068 33.47934,6.23595c0,3.44529 -14.98247,6.23597 -33.47934,6.23597z" id="svg_218"/>
   <path stroke="#000000" fill="#aaaaaa" stroke-width="0" opacity="NaN" d="m455.91066,126.09922c1.4588,10.30843 0.87528,5.47238 2.91758,15.14448c2.04231,9.6721 2.18819,9.54484 2.33407,9.6721c0.14588,0.12727 1.31291,1.78171 4.95989,3.18162c3.64698,1.39991 7.43983,1.90897 12.69148,2.54528c5.25165,0.63633 8.89863,0.3818 13.275,0.3818c4.37638,0 7.7316,-0.50906 15.17144,-0.76358c7.43983,-0.25453 16.33846,-2.03624 18.38077,-2.79982c2.04231,-0.76359 3.5011,-5.34511 4.66813,-9.92664c1.16703,-4.58152 2.33406,-10.56295 3.06347,-23.28941c0.72939,-12.72644 0.72939,-11.83559 -0.29177,-19.98052c-1.02115,-8.14494 -0.29175,-16.92618 -2.62582,-23.67121c-2.33406,-6.74501 -36.76154,-9.92662 -55.72583,-6.49049c-18.96429,3.43615 -16.7761,6.61776 -16.92198,6.49049c0.14588,0.12727 -3.06346,26.08923 -3.06346,32.96151c0,6.87229 -0.29176,6.23597 1.16703,16.54439l0,0z" id="svg_219"/>
   <ellipse stroke="#000000" fill="#845335" stroke-width="0" cx="494.05805" cy="76.3388" id="svg_220" rx="33.62514" ry="6.23596"/>
   <ellipse stroke="#000000" fill="#000000" stroke-width="0" cx="494.05805" cy="76.52969" id="svg_221" rx="36.10508" ry="7.6995" fill-opacity="0.19"/>
   <path stroke="#000000" fill="#000000" stroke-width="0" fill-opacity="0.19" opacity="NaN" d="m460.5788,79.39315c0,0 -1.02116,15.01721 -1.16704,14.88995c0.14588,0.12726 -0.58352,15.90806 -0.58352,15.90806c0,0 0.43764,16.92618 0.58352,16.92618c0.14588,0 3.5011,15.65353 3.5011,15.65353c0,0 1.75055,10.69023 1.75055,10.69023c0,0 -3.35522,-1.90897 -3.35522,-2.03624c0,-0.12726 -4.2305,-16.54439 -4.37637,-16.54439c-0.14588,0 -2.18819,-19.47146 -2.33407,-19.59873c0.14588,0.12727 0.58352,-16.28986 0.43764,-16.41712c0.14588,0.12726 2.18818,-15.65354 2.18818,-15.65354c0,0 0.58352,-6.61776 0.43765,-6.74502c0.14587,0.12726 -0.14589,1.39991 2.91758,2.92709l0,0z" id="svg_222"/>
   <path stroke="#000000" fill="#000000" stroke-width="0" fill-opacity="0.19" opacity="NaN" d="m527.14257,146.16196c0.75719,-3.44624 0.21072,-10.16904 0.3566,-10.04179c-0.14588,-0.12725 1.97284,-13.68597 1.85706,-17.62512c0,-4.44416 0.95169,-11.876 -0.35196,-16.92618c-1.30365,-5.05018 -0.66116,-10.6687 -1.35583,-15.71888c-0.23155,-4.34316 -1.36235,-5.75888 -1.05588,-5.83611c0.30647,-0.07725 3.17816,-2.27377 3.87282,-3.05555c0.69465,-0.78176 1.91495,14.0193 2.52394,17.55443c0.60899,3.53513 1.09061,11.3427 0.94474,16.77063c-0.14588,5.42794 -1.91265,23.81664 -1.24809,20.25526c0.66457,-3.56138 -2.99862,15.65354 -2.99862,15.65354c0,0 -3.53352,6.46826 -4.02672,5.83598c-0.49321,-0.63227 0.72476,-3.41997 1.48194,-6.86621l0,0z" id="svg_223"/>
   <path stroke="#000000" fill="#000000" stroke-width="0" fill-opacity="0.19" opacity="NaN" d="m465.21544,80.94833c0,0 -0.49001,14.40699 -0.49001,14.40699c0,0 0.29177,15.7808 0.29177,15.7808c0,0 -0.29177,9.67207 -0.14589,15.399c0.58352,4.83609 2.1882,14.25363 2.1882,14.25363c0,0 1.45878,11.83561 1.45878,11.83561c0,0 0,2.29076 0,2.29076c0,0 5.54341,1.01811 5.54341,1.01811c0,0 -1.75055,-16.28985 -1.89643,-16.28985c-0.14588,0 -1.60467,-9.79935 -1.60467,-14.25363c-0.87528,-3.18163 0,-15.52627 -0.14588,-15.65353c0.14588,0.12726 0.29176,-13.99911 0.14588,-14.12637c0.14588,0.12726 0,-9.16305 -0.14588,-9.29031c0.14588,0.12726 0.28053,-3.12614 0.28053,-4.14426c-2.10589,-0.12726 -3.4188,-0.3361 -5.47981,-1.22695z" id="svg_224"/>
   <path stroke="#000000" fill="#000000" stroke-width="0" fill-opacity="0.19" opacity="NaN" d="m477.16139,83.56763c-0.45887,0.35973 -0.57433,13.8185 -0.57433,13.8185c0,0 0.29176,15.78079 0.29176,15.78079c0,0 -0.29176,9.67207 -0.14588,15.399c0.58351,4.83609 2.18819,14.25363 2.18819,14.25363c0,0 1.45879,11.83561 1.45879,11.83561c0,0 0,2.29076 0,2.29076c0,0 1.63424,-0.22957 5.16202,0.18632c-0.8581,-4.32531 -1.36916,-15.45806 -1.51504,-15.45806c-0.14588,0 -1.60467,-9.79935 -1.60467,-14.25363c-0.87528,-3.18163 0,-15.52627 -0.14588,-15.65353c0.14588,0.12726 0.29176,-13.99911 0.14589,-14.12637c0.14587,0.12726 -0.00001,-9.16305 -0.14589,-9.29031c0.14588,0.12726 0.28053,-3.42039 0.28053,-4.43851c-2.10589,-0.12726 -4.93662,-0.70392 -5.39549,-0.3442z" id="svg_225"/>
   <path stroke="#000000" fill="#000000" stroke-width="0" fill-opacity="0.19" opacity="NaN" d="m523.98053,153.90071c0,0 2.57399,-13.12491 2.57399,-13.12491c0,0 -0.07239,-12.43174 -0.07239,-15.78081c0.32905,-3.44475 0.7305,-12.63838 0.58461,-18.36531c-0.58351,-4.83608 -0.54293,-7.65119 -1.31072,-11.28732c-0.10968,-2.48787 -0.71389,-4.69545 -0.89287,-7.03773c-0.0895,-0.70268 -2.10149,-7.08863 -2.10149,-7.08863c0,0 -2.7406,0.95591 -5.8471,1.24565c0.53698,2.57652 2.05425,14.02609 2.20012,14.02609c0.14588,0 1.60467,9.79935 1.60467,14.25363c-0.01967,4.11854 0,15.52627 0.14588,15.65354c-0.14588,-0.12727 -0.29175,13.99909 -0.14588,14.12635c-0.14587,-0.12726 -1.09683,7.15361 -1.06064,9.29031c-0.14587,1.40375 -0.43059,4.31726 -0.43059,5.33537c2.10589,-0.18504 2.69139,-0.65364 4.75241,-1.24623l0,0z" id="svg_226"/>
   <path stroke="#000000" fill="#000000" stroke-width="0" fill-opacity="0.19" opacity="NaN" d="m515.85855,154.87335c0,0 0.49,-12.45509 0.49,-12.45509c0,0 -0.29175,-15.7808 -0.29175,-15.7808c0,0 0.29176,-9.67208 0.14589,-15.39901c-0.58353,-4.83607 -2.1882,-14.25363 -2.1882,-14.25363c0,0 -0.38483,-4.88681 -0.56383,-7.2291c-0.0895,-0.70269 -0.55767,-4.69036 -0.81064,-6.38232c-2.36104,0.14713 -5.72551,0.19817 -5.62773,0.34077c0.09778,0.14262 1.75055,14.41604 1.89643,14.41604c0.14588,0 1.60468,9.79934 1.60468,14.25363c-0.01969,4.11854 -0.00001,15.52627 0.14586,15.65353c-0.14587,-0.12726 -0.29175,13.99909 -0.14587,14.12636c-0.14588,-0.12727 0,9.16304 0.14587,9.29031c-0.14587,-0.12727 -0.10153,3.36036 -0.10153,4.37849c2.1059,-0.18504 3.23981,-0.36658 5.30082,-0.95918z" id="svg_227"/>
   <path stroke="#000000" fill="#000000" stroke-width="0" fill-opacity="0.19" opacity="NaN" d="m488.07293,84.32899c0.38137,2.24583 0.1774,13.73195 0.1774,13.73195c0,0 0.29177,15.78079 0.29177,15.78079c0,0 0.46606,9.67207 0.61193,15.39901c0.58599,8.15893 0.09553,15.33496 0.47692,17.08172c0.57207,4.24213 0.50534,6.17942 0.40999,10.67109c0.38138,-0.49907 1.23949,0.1281 1.81156,0.04493c1.33484,-0.16636 1.54755,0.26734 4.21721,0.01781c-0.09534,-2.4122 -0.23366,-14.7073 -0.37954,-14.7073c-0.14588,0 -1.22576,-9.79935 -1.22576,-14.25363c0.07818,-4.67886 -0.37891,-15.52627 -0.52479,-15.65353c0.14588,0.12726 0.29176,-13.99911 0.14589,-14.12637c0.14587,0.12726 -0.00001,-9.16305 -0.14589,-9.29031c0.14588,0.12726 0.28053,-3.77233 0.28053,-4.79045c-3.63142,0.28863 -2.04738,0.01111 -6.14722,0.09429z" id="svg_228"/>
   <path stroke="#000000" fill="#000000" stroke-width="0" fill-opacity="0.19" opacity="NaN" d="m506.65935,156.4933c-0.38138,-2.24584 -0.17741,-13.73195 -0.17741,-13.73195c0,0 -0.29177,-15.78079 -0.29177,-15.78079c0,0 -0.46605,-9.67208 -0.61193,-15.39902c-0.58599,-8.15892 -0.09553,-15.33495 -0.47692,-17.08171c-0.57208,-4.24213 -0.50534,-6.17942 -0.40999,-10.67109c-0.38138,0.49907 -1.23949,0.23551 -1.81156,0.31868c-1.33484,0.16636 -1.61701,0.03567 -4.28668,0.2852c0.09534,2.41219 0.30313,14.04068 0.44901,14.04068c0.14588,0 1.22576,9.79934 1.22576,14.25363c-0.07818,4.67885 0.37891,15.52627 0.52479,15.65353c-0.14588,-0.12726 -0.29176,13.9991 -0.14589,14.12637c-0.14587,-0.12727 0.00001,9.16304 0.14589,9.29031c-0.14588,-0.12727 -0.28054,3.77233 -0.28054,4.79045c3.63143,-0.28863 2.04738,-0.01111 6.14724,-0.09429z" id="svg_229"/>
   <g stroke="null" id="svg_232">
    <path stroke="#000000" fill="#845335" stroke-width="0" opacity="NaN" d="m454.83404,93.9013l-1.54901,2.41802c-0.58047,3.43615 -0.72559,3.69067 1.02764,5.85417c1.75323,2.1635 13.03694,6.74503 42.4958,6.36323c29.45886,-0.3818 33.66727,-3.94521 34.53797,-4.83606c0.87071,-0.89085 4.78888,-3.43614 2.90236,-6.87228c-1.88654,-3.43614 -0.29024,-2.41803 -1.45118,-2.67255c-1.16093,-0.25452 -2.03165,1.01811 -6.38517,1.90897c-4.35353,0.89086 -5.94982,0.76358 -30.6198,1.39991l-5.51447,0.12726c-29.7491,-1.14538 -27.6078,-3.05435 -35.44414,-3.69067z" id="svg_230"/>
    <path stroke="#000000" fill="#593723" stroke-width="0" opacity="NaN" d="m454.9831,100.00999l-2.14525,-1.00771c-0.58046,2.00413 1.65934,4.44334 3.41257,5.7052c1.75323,1.26186 11.24825,4.06129 40.70711,3.8386c29.45885,-0.22268 32.77292,-2.68282 33.64363,-3.20241c0.87069,-0.51959 5.68322,-4.29489 3.79669,-6.29901c-1.88653,-2.00413 -0.29023,1.26224 -1.45117,1.11379c-1.16094,-0.14845 -2.03165,0.59381 -6.38518,1.1134c-4.35352,0.5196 -5.94981,0.44537 -30.6198,0.8165l-5.51447,0.07423c-29.74909,-0.66805 -27.60779,-1.78145 -35.44413,-2.15259z" id="svg_231"/>
   </g>
   <g stroke="null" id="svg_235">
    <path stroke="#000000" fill="#845335" stroke-width="0" opacity="NaN" d="m456.24826,128.64452l-1.51597,2.41802c-0.56809,3.43614 -0.71011,3.69067 1.00573,5.85417c1.71584,2.16349 12.75892,6.74502 41.58957,6.36322c28.83063,-0.38179 32.9493,-3.9452 33.80144,-4.83605c0.85213,-0.89085 4.68675,-3.43614 2.84045,-6.87228c-1.84629,-3.43615 -0.28404,-2.41803 -1.42022,-2.67256c-1.13618,-0.25452 -1.98833,1.01811 -6.24901,1.90897c-4.26068,0.89086 -5.82294,0.76359 -29.96683,1.39991l-5.39686,0.12727c-29.1147,-1.14539 -27.01907,-3.05435 -34.6883,-3.69067z" id="svg_233"/>
    <path stroke="#000000" fill="#593723" stroke-width="0" opacity="NaN" d="m456.39414,134.75321l-2.09949,-1.00772c-0.56809,2.00413 1.62395,4.44334 3.3398,5.7052c1.71584,1.26186 11.00837,4.06129 39.83901,3.83861c28.83064,-0.22268 32.07403,-2.68283 32.92617,-3.20242c0.85213,-0.51958 5.56203,-4.29489 3.71573,-6.29901c-1.8463,-2.00412 -0.28404,1.26224 -1.42022,1.1138c-1.13618,-0.14845 -1.98833,0.59381 -6.24901,1.1134c-4.26068,0.51959 -5.82294,0.44536 -29.96683,0.8165l-5.39687,0.07422c-29.11469,-0.66804 -27.01905,-1.78145 -34.68829,-2.15258z" id="svg_234"/>
   </g>
  </g>
  <line fill="none" stroke="#482816" x1="183.33183" y1="397.39636" x2="185.55405" y2="265.17413" id="svg_96" stroke-width="6"/>
  <line fill="none" stroke="#482816" x1="394.29233" y1="349.52795" x2="396.51455" y2="217.30572" id="svg_98" stroke-width="6"/>
  <path fill="#000000" stroke="#000" stroke-width="0" opacity="NaN" d="m183.55332,240.33857l1.62604,61.30253c0.81299,0.48609 50.40648,-8.457 49.59347,-8.457c-0.81301,0 -3.25203,-13.82114 -4.06502,-14.30723c0.81299,0.48609 38.21136,-6.83098 37.39837,-7.31707c0.81299,0.48609 2.439,28.12837 1.62602,27.64228c0.81299,0.48609 39.83737,-6.01798 39.83737,-6.01798c0,0 -3.25203,-38.21138 -4.06502,-38.69747c0.81298,0.48609 85.36583,-11.70903 84.55285,-12.19512c0.81298,0.48609 74.79672,-20.65212 75.60973,-19.83911c0.81301,0.81301 -13.00813,-37.39837 -13.00813,-36.58536c0,0.81301 -313.01655,-18.37229 -269.10568,54.47154l0,-0.00001z" id="svg_102" fill-opacity="0.38"/>
  <line fill="none" x1="31.48832" y1="167.67165" x2="33.86624" y2="34.15462" id="svg_42" stroke-width="6" stroke="#482816"/>
  <path fill="#7c4041" stroke-width="0" opacity="NaN" d="m30.13283,27.57967c0,0 185.41629,81.87577 185.41629,81.87577c0,0 -4.03079,142.07855 -5.36043,140.87451c1.32964,1.20404 -184.08665,-79.46768 -185.41629,-80.67171c1.32964,1.20403 5.36043,-142.07857 5.36043,-142.07857z" id="svg_43" stroke="#000"/>
  <g stroke="null" id="svg_175">
   <title id="svg_197" stroke="null">Layer 1</title>
   <path stroke="#000000" fill="#845335" stroke-width="0" opacity="undefined" d="m435.74448,174.31405c-20.39039,0 -35.94591,-2.43447 -36.90661,-7.04678c-0.96069,-4.6123 16.51622,-7.04677 36.90661,-7.04677c20.3904,0 36.90662,3.15353 36.90662,7.04677c0,3.89325 -16.51622,7.04678 -36.90662,7.04678z" id="svg_198"/>
   <path stroke="#000000" fill="#aaaaaa" stroke-width="0" opacity="NaN" d="m393.20959,136.92299c1.60813,11.64875 0.96488,6.18391 3.21625,17.1136c2.25138,10.92969 2.4122,10.78588 2.57301,10.92969c0.16081,0.14382 1.44731,2.01337 5.46763,3.5953c4.02032,1.58193 8.20145,2.15718 13.99071,2.87623c5.78926,0.71906 9.80958,0.43144 14.63396,0.43144c4.82439,0 8.52308,-0.57525 16.72453,-0.86287c8.20145,-0.28762 18.01103,-2.30099 20.26241,-3.16386c2.25138,-0.86287 3.85951,-6.04009 5.14601,-11.21732c1.2865,-5.17722 2.573,-11.93637 3.37707,-26.31755c0.80406,-14.38117 0.80406,-13.37449 -0.32163,-22.57844c-1.12569,-9.20396 -0.32162,-19.12696 -2.89463,-26.74899c-2.573,-7.62202 -40.52481,-11.21731 -61.43047,-7.3344c-20.90566,3.88292 -18.49347,7.47821 -18.65428,7.3344c0.16081,0.14381 -3.37707,29.48141 -3.37707,37.24724c0,7.76584 -0.32163,7.04678 1.2865,18.69553l0,0z" id="svg_199"/>
   <ellipse stroke="#000000" fill="#845335" stroke-width="0" cx="435.26213" cy="80.6926" id="svg_200" rx="37.06734" ry="7.04678"/>
   <ellipse stroke="#000000" fill="#000000" stroke-width="0" cx="435.26213" cy="80.90832" id="svg_201" rx="39.80116" ry="8.70061" fill-opacity="0.19"/>
   <path stroke="#000000" fill="#000000" stroke-width="0" fill-opacity="0.19" opacity="NaN" d="m398.3556,84.14408c0,0 -1.12569,16.96979 -1.2865,16.82598c0.16081,0.14381 -0.64326,17.97646 -0.64326,17.97646c0,0 0.48244,19.12697 0.64326,19.12697c0.16081,0 3.8595,17.68884 3.8595,17.68884c0,0 1.92976,12.08019 1.92976,12.08019c0,0 -3.6987,-2.15717 -3.6987,-2.30099c0,-0.14381 -4.66357,-18.69553 -4.82438,-18.69553c-0.16081,0 -2.41219,-22.00319 -2.573,-22.147c0.16081,0.14381 0.64325,-18.40791 0.48244,-18.55172c0.16081,0.14381 2.41218,-17.68885 2.41218,-17.68885c0,0 0.64326,-7.47821 0.48245,-7.62202c0.16081,0.14381 -0.16082,1.58193 3.21625,3.30767l0,0z" id="svg_202"/>
   <path stroke="#000000" fill="#000000" stroke-width="0" fill-opacity="0.19" opacity="NaN" d="m471.7335,159.59433c0.8347,-3.89433 0.23229,-11.49124 0.3931,-11.34744c-0.16081,-0.1438 2.1748,-15.46546 2.04717,-19.91678c0,-5.022 1.04911,-13.42015 -0.38799,-19.12696c-1.4371,-5.70682 -0.72884,-12.05588 -1.49462,-17.76269c-0.25526,-4.90787 -1.50182,-6.50766 -1.16398,-6.59494c0.33785,-0.08729 3.50351,-2.56941 4.26928,-3.45283c0.76577,-0.88341 2.11099,15.84212 2.78232,19.83689c0.67133,3.99478 1.20226,12.81751 1.04145,18.95119c-0.16081,6.13369 -2.10844,26.91334 -1.37585,22.8889c0.7326,-4.02444 -3.30559,17.68885 -3.30559,17.68885c0,0 -3.89525,7.30928 -4.43894,6.59479c-0.5437,-0.71449 0.79896,-3.86465 1.63365,-7.75898l0,0z" id="svg_203"/>
   <path stroke="#000000" fill="#000000" stroke-width="0" fill-opacity="0.19" opacity="NaN" d="m403.4669,85.90147c0,0 -0.54017,16.28023 -0.54017,16.28023c0,0 0.32163,17.83265 0.32163,17.83265c0,0 -0.32163,10.92966 -0.16082,17.40122c0.64325,5.46488 2.4122,16.10692 2.4122,16.10692c0,0 1.60812,13.3745 1.60812,13.3745c0,0 0,2.58861 0,2.58861c0,0 6.11089,1.15049 6.11089,1.15049c0,0 -1.92976,-18.4079 -2.09057,-18.4079c-0.16081,0 -1.76894,-11.07348 -1.76894,-16.10692c-0.96488,-3.59531 0,-17.54503 -0.16081,-17.68884c0.16081,0.14381 0.32162,-15.8193 0.16081,-15.96311c0.16081,0.14381 0,-10.35445 -0.16081,-10.49826c0.16081,0.14381 0.30925,-3.53261 0.30925,-4.6831c-2.32147,-0.14381 -3.76879,-0.37981 -6.04078,-1.38649z" id="svg_204"/>
   <path stroke="#000000" fill="#000000" stroke-width="0" fill-opacity="0.19" opacity="NaN" d="m416.63575,88.86134c-0.50584,0.4065 -0.63312,15.61521 -0.63312,15.61521c0,0 0.32163,17.83265 0.32163,17.83265c0,0 -0.32163,10.92966 -0.16082,17.40122c0.64325,5.46488 2.4122,16.10692 2.4122,16.10692c0,0 1.60812,13.3745 1.60812,13.3745c0,0 0,2.58861 0,2.58861c0,0 1.80154,-0.25942 5.69046,0.21055c-0.94595,-4.8877 -1.50932,-17.46796 -1.67014,-17.46796c-0.16081,0 -1.76894,-11.07348 -1.76894,-16.10692c-0.96488,-3.59531 0,-17.54503 -0.16081,-17.68884c0.16081,0.14381 0.32163,-15.8193 0.16082,-15.96311c0.16081,0.14381 -0.00001,-10.35445 -0.16082,-10.49826c0.16081,0.14381 0.30925,-3.86512 0.30925,-5.01561c-2.32147,-0.14381 -5.44198,-0.79545 -5.94783,-0.38896z" id="svg_205"/>
   <path stroke="#000000" fill="#000000" stroke-width="0" fill-opacity="0.19" opacity="NaN" d="m468.24776,168.33929c0,0 2.83749,-14.83144 2.83749,-14.83144c0,0 -0.0798,-14.04814 -0.0798,-17.83266c0.36273,-3.89265 0.80528,-14.28166 0.64446,-20.75322c-0.64325,-5.46488 -0.59851,-8.64601 -1.4449,-12.75492c-0.12091,-2.81135 -0.78697,-5.30596 -0.98428,-7.95279c-0.09866,-0.79405 -2.31661,-8.01031 -2.31661,-8.01031c0,0 -3.02116,1.0802 -6.44567,1.40761c0.59195,2.91152 2.26454,15.8498 2.42535,15.8498c0.16081,0 1.76894,11.07348 1.76894,16.10692c-0.02169,4.65404 0,17.54503 0.16081,17.68884c-0.16081,-0.14381 -0.32162,15.81929 -0.16081,15.9631c-0.16081,-0.14381 -1.20912,8.08374 -1.16922,10.49826c-0.16081,1.58626 -0.47467,4.87859 -0.47467,6.02908c2.32147,-0.2091 2.96691,-0.73863 5.23891,-1.40827l0,0z" id="svg_206"/>
   <path stroke="#000000" fill="#000000" stroke-width="0" fill-opacity="0.19" opacity="NaN" d="m459.29434,169.4384c0,0 0.54016,-14.07453 0.54016,-14.07453c0,0 -0.32162,-17.83266 -0.32162,-17.83266c0,0 0.32163,-10.92966 0.16082,-17.40122c-0.64326,-5.46487 -2.4122,-16.10692 -2.4122,-16.10692c0,0 -0.42423,-5.52221 -0.62155,-8.16905c-0.09866,-0.79405 -0.61476,-5.30021 -0.89362,-7.21216c-2.60275,0.16626 -6.31163,0.22393 -6.20384,0.38508c0.10778,0.16116 1.92975,16.29044 2.09056,16.29044c0.16082,0 1.76895,11.07348 1.76895,16.10692c-0.0217,4.65404 -0.00001,17.54503 0.1608,17.68884c-0.16081,-0.14381 -0.32162,15.81929 -0.16081,15.9631c-0.16081,-0.14381 0,10.35445 0.16081,10.49826c-0.16081,-0.14381 -0.11193,3.79729 -0.11193,4.94779c2.32148,-0.2091 3.57147,-0.41424 5.84347,-1.08389z" id="svg_207"/>
   <path stroke="#000000" fill="#000000" stroke-width="0" fill-opacity="0.19" opacity="NaN" d="m428.6643,89.72169c0.42042,2.53784 0.19557,15.51741 0.19557,15.51741c0,0 0.32163,17.83265 0.32163,17.83265c0,0 0.51377,10.92966 0.67458,17.40123c0.64598,9.21977 0.10531,17.32884 0.52574,19.30272c0.63063,4.7937 0.55707,6.98288 0.45196,12.05857c0.42042,-0.56396 1.36638,0.14476 1.99701,0.05077c1.47149,-0.18799 1.70597,0.30211 4.64893,0.02013c-0.1051,-2.72584 -0.25758,-16.61958 -0.4184,-16.61958c-0.16081,0 -1.35124,-11.07348 -1.35124,-16.10692c0.08618,-5.28721 -0.4177,-17.54503 -0.57851,-17.68884c0.16081,0.14381 0.32163,-15.8193 0.16082,-15.96311c0.16081,0.14381 -0.00001,-10.35445 -0.16082,-10.49826c0.16081,0.14381 0.30925,-4.26282 0.30925,-5.41332c-4.00317,0.32616 -2.25697,0.01256 -6.77652,0.10655z" id="svg_208"/>
   <path stroke="#000000" fill="#000000" stroke-width="0" fill-opacity="0.19" opacity="NaN" d="m449.15341,171.26898c-0.42042,-2.53785 -0.19557,-15.51741 -0.19557,-15.51741c0,0 -0.32163,-17.83265 -0.32163,-17.83265c0,0 -0.51377,-10.92966 -0.67458,-17.40123c-0.64598,-9.21977 -0.10531,-17.32884 -0.52574,-19.30272c-0.63064,-4.7937 -0.55707,-6.98288 -0.45196,-12.05857c-0.42042,0.56396 -1.36638,0.26613 -1.99701,0.36012c-1.47149,0.18799 -1.78254,0.0403 -4.72551,0.32228c0.1051,2.72583 0.33416,15.86628 0.49498,15.86628c0.16081,0 1.35124,11.07348 1.35124,16.10692c-0.08618,5.28721 0.4177,17.54503 0.57851,17.68884c-0.16081,-0.14381 -0.32163,15.8193 -0.16082,15.96311c-0.16081,-0.14381 0.00001,10.35445 0.16082,10.49826c-0.16081,-0.14381 -0.30926,4.26282 -0.30926,5.41332c4.00318,-0.32616 2.25697,-0.01256 6.77653,-0.10655z" id="svg_209"/>
   <g stroke="null" id="svg_212">
    <path stroke="#000000" fill="#845335" stroke-width="0" opacity="NaN" d="m392.02275,100.53862l-1.70758,2.73242c-0.63989,3.88292 -0.79987,4.17054 1.13284,6.61534c1.93271,2.4448 14.37153,7.62203 46.84609,7.19059c32.47456,-0.43144 37.11378,-4.45817 38.07362,-5.46485c0.95984,-1.00668 5.27912,-3.88292 3.19947,-7.76583c-2.07966,-3.88292 -0.31995,-2.73243 -1.59973,-3.02005c-1.27978,-0.28761 -2.23963,1.15049 -7.03882,2.15718c-4.7992,1.00669 -6.55891,0.86287 -33.75435,1.58193l-6.07898,0.14381c-32.79451,-1.29431 -30.43401,-3.45148 -39.07256,-4.17054z" id="svg_210"/>
    <path stroke="#000000" fill="#593723" stroke-width="0" opacity="NaN" d="m392.18707,107.44158l-2.36485,-1.13874c-0.63989,2.26471 1.8292,5.02107 3.76191,6.447c1.93271,1.42593 12.39973,4.58935 44.87429,4.33771c32.47455,-0.25163 36.12788,-3.03165 37.08772,-3.6188c0.95983,-0.58714 6.26501,-4.85332 4.18536,-7.11802c-2.07965,-2.26471 -0.31994,1.42636 -1.59973,1.25861c-1.27978,-0.16775 -2.23963,0.67102 -7.03882,1.25817c-4.79919,0.58715 -6.5589,0.50327 -33.75435,0.92266l-6.07898,0.08388c-32.79451,-0.75491 -30.434,-2.01308 -39.07255,-2.43247z" id="svg_211"/>
   </g>
   <g stroke="null" id="svg_215">
    <path stroke="#000000" fill="#845335" stroke-width="0" opacity="NaN" d="m393.58175,139.79923l-1.67116,2.73242c-0.62625,3.88292 -0.78281,4.17054 1.10868,6.61534c1.89149,2.4448 14.06505,7.62203 45.84709,7.19059c31.78202,-0.43144 36.32232,-4.45817 37.26169,-5.46485c0.93937,-1.00668 5.16653,-3.88291 3.13123,-7.76583c-2.0353,-3.88292 -0.31312,-2.73243 -1.56561,-3.02005c-1.25249,-0.28761 -2.19187,1.15049 -6.88872,2.15718c-4.69685,1.00669 -6.41903,0.86287 -33.03453,1.58193l-5.94934,0.14381c-32.09516,-1.29431 -29.785,-3.45148 -38.23933,-4.17054z" id="svg_213"/>
    <path stroke="#000000" fill="#593723" stroke-width="0" opacity="NaN" d="m393.74256,146.70219l-2.31441,-1.13874c-0.62625,2.26471 1.79019,5.02107 3.68169,6.447c1.89149,1.42593 12.1353,4.58935 43.91733,4.33771c31.78203,-0.25163 35.35744,-3.03165 36.29681,-3.6188c0.93937,-0.58714 6.13142,-4.85332 4.09611,-7.11802c-2.0353,-2.26471 -0.31312,1.42636 -1.56561,1.25861c-1.25249,-0.16775 -2.19187,0.67102 -6.88872,1.25817c-4.69684,0.58715 -6.41903,0.50327 -33.03453,0.92266l-5.94934,0.08388c-32.09516,-0.75491 -29.78499,-2.01308 -38.23933,-2.43247z" id="svg_214"/>
   </g>
  </g>
  <path fill="#4D2425" stroke-width="0" opacity="NaN" d="m210.07576,107.54738c0,0 211.63523,-41.5137 210.45862,-42.63567c1.17661,1.12197 -3.57924,130.15103 -3.57924,131.27302c0,1.12199 -206.87938,44.87967 -208.05599,43.7577c1.17661,1.12197 1.17661,-132.39505 1.17661,-132.39505z" id="svg_44" stroke="#000"/>
  <path id="svg_41" d="m31.02844,32.07622l247.53399,-36.34555l141.00005,70.71418l-224.61635,44.10133l-163.91769,-78.46996z" opacity="NaN" fill="#7c4041" stroke-width="0" stroke="#000"/>
  <path id="svg_46" d="m240.6921,185.1182c0,0 -0.68793,-52.22968 -0.71801,-52.81816c0.03009,0.58847 33.73816,-6.76783 33.70806,-7.3563c0.0301,0.58847 -1.34575,48.40438 -1.34575,48.40438c0,0 -31.6443,11.77008 -31.6443,11.77008z" opacity="NaN" fill="#ccb192" stroke-width="0" stroke="#000"/>
  <path id="svg_47" d="m239.81178,177.97347c0,0 -0.57849,-46.02827 -0.60379,-46.54686c0.0253,0.5186 28.37081,-5.96425 28.34551,-6.48285c0.0253,0.5186 -1.13166,42.65715 -1.13166,42.65715c0,0 -26.61006,10.37256 -26.61006,10.37256z" opacity="NaN" fill="#000000" stroke-width="0" stroke="#000"/>
  <path id="svg_97" d="m183.72085,372.67408l2.22222,-132.22223" opacity="undefined" stroke-width="6" stroke="#482816" fill="none"/>
  <g stroke="null" id="svg_115">
   <title id="svg_90" stroke="null">Layer 1</title>
   <path stroke="#000000" fill="#845335" stroke-width="0" opacity="undefined" d="m67.67724,374.31406c-20.39039,0 -35.94592,-2.43447 -36.90661,-7.04678c-0.96069,-4.6123 16.51622,-7.04677 36.90661,-7.04677c20.39039,0 36.90661,3.15353 36.90661,7.04677c0,3.89325 -16.51622,7.04678 -36.90661,7.04678z" id="svg_92"/>
   <path stroke="#000000" fill="#aaaaaa" stroke-width="0" opacity="NaN" d="m25.14235,336.923c1.60812,11.64875 0.96487,6.18391 3.21625,17.1136c2.25138,10.92969 2.41219,10.78588 2.57301,10.92969c0.16081,0.14382 1.44731,2.01337 5.46763,3.5953c4.02032,1.58193 8.20145,2.15718 13.99071,2.87623c5.78926,0.71906 9.80958,0.43144 14.63396,0.43144c4.82438,0 8.52308,-0.57525 16.72453,-0.86287c8.20145,-0.28762 18.01103,-2.30099 20.26241,-3.16386c2.25137,-0.86287 3.8595,-6.04009 5.146,-11.21732c1.28651,-5.17722 2.57301,-11.93637 3.37707,-26.31755c0.80407,-14.38117 0.80407,-13.37449 -0.32162,-22.57844c-1.12569,-9.20396 -0.32162,-19.12696 -2.89463,-26.74899c-2.57301,-7.62202 -40.52481,-11.21731 -61.43047,-7.3344c-20.90566,3.88292 -18.49347,7.47821 -18.65428,7.3344c0.16081,0.14381 -3.37707,29.48141 -3.37707,37.24724c0,7.76584 -0.32163,7.04678 1.2865,18.69553l0,0z" id="svg_93"/>
   <ellipse stroke="#000000" fill="#845335" stroke-width="0" cx="67.19488" cy="280.6926" id="svg_94" rx="37.06734" ry="7.04678"/>
   <ellipse stroke="#000000" fill="#000000" stroke-width="0" cx="67.19488" cy="280.90832" id="svg_95" rx="39.80116" ry="8.70061" fill-opacity="0.19"/>
   <path stroke="#000000" fill="#000000" stroke-width="0" fill-opacity="0.19" opacity="NaN" d="m30.28835,284.14409c0,0 -1.12569,16.96979 -1.28649,16.82598c0.1608,0.14381 -0.64326,17.97646 -0.64326,17.97646c0,0 0.48244,19.12697 0.64325,19.12697c0.16081,0 3.85951,17.68884 3.85951,17.68884c0,0 1.92975,12.08019 1.92975,12.08019c0,0 -3.69869,-2.15717 -3.69869,-2.30099c0,-0.14381 -4.66357,-18.69553 -4.82438,-18.69553c-0.16082,0 -2.4122,-22.00319 -2.57301,-22.147c0.16081,0.14381 0.64325,-18.40791 0.48244,-18.55172c0.16081,0.14381 2.41219,-17.68885 2.41219,-17.68885c0,0 0.64325,-7.47821 0.48244,-7.62202c0.16081,0.14381 -0.16081,1.58193 3.21625,3.30767l0,0z" id="svg_99"/>
   <path stroke="#000000" fill="#000000" stroke-width="0" fill-opacity="0.19" opacity="NaN" d="m103.66626,359.59434c0.8347,-3.89433 0.23228,-11.49124 0.39309,-11.34744c-0.16081,-0.1438 2.17481,-15.46546 2.04718,-19.91678c0,-5.022 1.04911,-13.42015 -0.38799,-19.12696c-1.43711,-5.70682 -0.72885,-12.05588 -1.49462,-17.76269c-0.25526,-4.90787 -1.50183,-6.50766 -1.16398,-6.59494c0.33785,-0.08729 3.5035,-2.56941 4.26928,-3.45283c0.76577,-0.88341 2.11098,15.84212 2.78231,19.83689c0.67133,3.99478 1.20226,12.81751 1.04145,18.95119c-0.16081,6.13369 -2.10843,26.91334 -1.37584,22.8889c0.7326,-4.02444 -3.30559,17.68885 -3.30559,17.68885c0,0 -3.89525,7.30928 -4.43895,6.59479c-0.5437,-0.71449 0.79896,-3.86465 1.63366,-7.75898l0,0z" id="svg_100"/>
   <path stroke="#000000" fill="#000000" stroke-width="0" fill-opacity="0.19" opacity="NaN" d="m35.39965,285.90148c0,0 -0.54016,16.28023 -0.54016,16.28023c0,0 0.32162,17.83265 0.32162,17.83265c0,0 -0.32163,10.92966 -0.16081,17.40122c0.64325,5.46488 2.41219,16.10692 2.41219,16.10692c0,0 1.60813,13.3745 1.60813,13.3745c0,0 0,2.58861 0,2.58861c0,0 6.11088,1.15049 6.11088,1.15049c0,0 -1.92975,-18.4079 -2.09056,-18.4079c-0.16081,0 -1.76895,-11.07348 -1.76895,-16.10692c-0.96488,-3.59531 0.00001,-17.54503 -0.1608,-17.68884c0.16081,0.14381 0.32162,-15.8193 0.16081,-15.96311c0.16081,0.14381 0,-10.35445 -0.16081,-10.49826c0.16081,0.14381 0.30925,-3.53261 0.30925,-4.6831c-2.32148,-0.14381 -3.76879,-0.37981 -6.04079,-1.38649z" id="svg_103"/>
   <path stroke="#000000" fill="#000000" stroke-width="0" fill-opacity="0.19" opacity="NaN" d="m48.56851,288.86135c-0.50585,0.4065 -0.63312,15.61521 -0.63312,15.61521c0,0 0.32162,17.83265 0.32162,17.83265c0,0 -0.32163,10.92966 -0.16081,17.40122c0.64325,5.46488 2.41219,16.10692 2.41219,16.10692c0,0 1.60813,13.3745 1.60813,13.3745c0,0 0,2.58861 0,2.58861c0,0 1.80154,-0.25942 5.69046,0.21055c-0.94595,-4.8877 -1.50933,-17.46796 -1.67014,-17.46796c-0.16081,0 -1.76895,-11.07348 -1.76895,-16.10692c-0.96488,-3.59531 0.00001,-17.54503 -0.1608,-17.68884c0.16081,0.14381 0.32162,-15.8193 0.16081,-15.96311c0.16081,0.14381 0,-10.35445 -0.16081,-10.49826c0.16081,0.14381 0.30925,-3.86512 0.30925,-5.01561c-2.32148,-0.14381 -5.44198,-0.79545 -5.94783,-0.38896z" id="svg_104"/>
   <path stroke="#000000" fill="#000000" stroke-width="0" fill-opacity="0.19" opacity="NaN" d="m100.18051,368.3393c0,0 2.8375,-14.83144 2.8375,-14.83144c0,0 -0.07981,-14.04814 -0.07981,-17.83266c0.36274,-3.89265 0.80528,-14.28166 0.64447,-20.75322c-0.64326,-5.46488 -0.59852,-8.64601 -1.4449,-12.75492c-0.12091,-2.81135 -0.78697,-5.30596 -0.98429,-7.95279c-0.09866,-0.79405 -2.31661,-8.01031 -2.31661,-8.01031c0,0 -3.02115,1.0802 -6.44566,1.40761c0.59195,2.91152 2.26453,15.8498 2.42534,15.8498c0.16082,0 1.76895,11.07348 1.76895,16.10692c-0.0217,4.65404 0,17.54503 0.1608,17.68884c-0.1608,-0.14381 -0.32162,15.81929 -0.16081,15.9631c-0.16081,-0.14381 -1.20911,8.08374 -1.16922,10.49826c-0.16081,1.58626 -0.47467,4.87859 -0.47467,6.02908c2.32148,-0.2091 2.96692,-0.73863 5.23891,-1.40827l0,0z" id="svg_105"/>
   <path stroke="#000000" fill="#000000" stroke-width="0" fill-opacity="0.19" opacity="NaN" d="m91.22709,369.43841c0,0 0.54017,-14.07453 0.54017,-14.07453c0,0 -0.32162,-17.83266 -0.32162,-17.83266c0,0 0.32163,-10.92966 0.16081,-17.40122c-0.64325,-5.46487 -2.41219,-16.10692 -2.41219,-16.10692c0,0 -0.42424,-5.52221 -0.62155,-8.16905c-0.09866,-0.79405 -0.61476,-5.30021 -0.89363,-7.21216c-2.60274,0.16626 -6.31162,0.22393 -6.20384,0.38508c0.10779,0.16116 1.92976,16.29044 2.09057,16.29044c0.16081,0 1.76895,11.07348 1.76895,16.10692c-0.0217,4.65404 -0.00001,17.54503 0.1608,17.68884c-0.16081,-0.14381 -0.32162,15.81929 -0.16081,15.9631c-0.16081,-0.14381 0,10.35445 0.16081,10.49826c-0.16081,-0.14381 -0.11194,3.79729 -0.11194,4.94779c2.32148,-0.2091 3.57148,-0.41424 5.84347,-1.08389z" id="svg_106"/>
   <path stroke="#000000" fill="#000000" stroke-width="0" fill-opacity="0.19" opacity="NaN" d="m60.59706,289.7217c0.42042,2.53784 0.19557,15.51741 0.19557,15.51741c0,0 0.32162,17.83265 0.32162,17.83265c0,0 0.51378,10.92966 0.67459,17.40123c0.64598,9.21977 0.10531,17.32884 0.52573,19.30272c0.63064,4.7937 0.55707,6.98288 0.45197,12.05857c0.42042,-0.56396 1.36637,0.14476 1.99701,0.05077c1.47148,-0.18799 1.70596,0.30211 4.64893,0.02013c-0.10511,-2.72584 -0.25759,-16.61958 -0.4184,-16.61958c-0.16081,0 -1.35124,-11.07348 -1.35124,-16.10692c0.08618,-5.28721 -0.4177,-17.54503 -0.57851,-17.68884c0.16081,0.14381 0.32162,-15.8193 0.16081,-15.96311c0.16081,0.14381 0,-10.35445 -0.16081,-10.49826c0.16081,0.14381 0.30925,-4.26282 0.30925,-5.41332c-4.00317,0.32616 -2.25697,0.01256 -6.77652,0.10655z" id="svg_107"/>
   <path stroke="#000000" fill="#000000" stroke-width="0" fill-opacity="0.19" opacity="NaN" d="m81.08617,371.26899c-0.42043,-2.53785 -0.19558,-15.51741 -0.19558,-15.51741c0,0 -0.32162,-17.83265 -0.32162,-17.83265c0,0 -0.51378,-10.92966 -0.67459,-17.40123c-0.64597,-9.21977 -0.10531,-17.32884 -0.52573,-19.30272c-0.63064,-4.7937 -0.55707,-6.98288 -0.45196,-12.05857c-0.42043,0.56396 -1.36638,0.26613 -1.99702,0.36012c-1.47148,0.18799 -1.78254,0.0403 -4.7255,0.32228c0.1051,2.72583 0.33416,15.86628 0.49497,15.86628c0.16081,0 1.35125,11.07348 1.35125,16.10692c-0.08618,5.28721 0.41769,17.54503 0.5785,17.68884c-0.16081,-0.14381 -0.32162,15.8193 -0.16081,15.96311c-0.16081,-0.14381 0,10.35445 0.16081,10.49826c-0.16081,-0.14381 -0.30925,4.26282 -0.30925,5.41332c4.00317,-0.32616 2.25697,-0.01256 6.77653,-0.10655z" id="svg_108"/>
   <g stroke="null" id="svg_111">
    <path stroke="#000000" fill="#845335" stroke-width="0" opacity="NaN" d="m23.95551,300.53863l-1.70758,2.73242c-0.6399,3.88292 -0.79987,4.17054 1.13284,6.61534c1.93271,2.4448 14.37153,7.62203 46.84609,7.19059c32.47455,-0.43144 37.11378,-4.45817 38.07362,-5.46485c0.95984,-1.00668 5.27911,-3.88292 3.19946,-7.76583c-2.07965,-3.88292 -0.31994,-2.73243 -1.59973,-3.02005c-1.27978,-0.28761 -2.23963,1.15049 -7.03882,2.15718c-4.79919,1.00669 -6.5589,0.86287 -33.75435,1.58193l-6.07898,0.14381c-32.79451,-1.29431 -30.434,-3.45148 -39.07255,-4.17054z" id="svg_109"/>
    <path stroke="#000000" fill="#593723" stroke-width="0" opacity="NaN" d="m24.11982,307.44159l-2.36484,-1.13874c-0.6399,2.26471 1.8292,5.02107 3.76191,6.447c1.93271,1.42593 12.39973,4.58935 44.87428,4.33771c32.47456,-0.25163 36.12788,-3.03165 37.08772,-3.6188c0.95984,-0.58714 6.26502,-4.85332 4.18537,-7.11802c-2.07965,-2.26471 -0.31995,1.42636 -1.59973,1.25861c-1.27978,-0.16775 -2.23963,0.67102 -7.03882,1.25817c-4.79919,0.58715 -6.55891,0.50327 -33.75435,0.92266l-6.07898,0.08388c-32.79451,-0.75491 -30.434,-2.01308 -39.07256,-2.43247z" id="svg_110"/>
   </g>
   <g stroke="null" id="svg_114">
    <path stroke="#000000" fill="#845335" stroke-width="0" opacity="NaN" d="m25.51451,339.79924l-1.67117,2.73242c-0.62625,3.88292 -0.78281,4.17054 1.10869,6.61534c1.89149,2.4448 14.06505,7.62203 45.84708,7.19059c31.78203,-0.43144 36.32232,-4.45817 37.26169,-5.46485c0.93937,-1.00668 5.16654,-3.88291 3.13124,-7.76583c-2.03531,-3.88292 -0.31313,-2.73243 -1.56562,-3.02005c-1.25249,-0.28761 -2.19186,1.15049 -6.88871,2.15718c-4.69685,1.00669 -6.41904,0.86287 -33.03453,1.58193l-5.94935,0.14381c-32.09516,-1.29431 -29.78499,-3.45148 -38.23932,-4.17054z" id="svg_112"/>
    <path stroke="#000000" fill="#593723" stroke-width="0" opacity="NaN" d="m25.67532,346.7022l-2.31441,-1.13874c-0.62625,2.26471 1.79019,5.02107 3.68168,6.447c1.8915,1.42593 12.1353,4.58935 43.91733,4.33771c31.78203,-0.25163 35.35745,-3.03165 36.29682,-3.6188c0.93937,-0.58714 6.13141,-4.85332 4.09611,-7.11802c-2.0353,-2.26471 -0.31312,1.42636 -1.56561,1.25861c-1.25249,-0.16775 -2.19187,0.67102 -6.88872,1.25817c-4.69685,0.58715 -6.41904,0.50327 -33.03453,0.92266l-5.94935,0.08388c-32.09515,-0.75491 -29.78499,-2.01308 -38.23932,-2.43247z" id="svg_113"/>
   </g>
  </g>
  <g stroke="null" id="svg_51">
   <title id="svg_116" stroke="null">Layer 1</title>
   <path stroke="#000000" fill="#845335" stroke-width="0" opacity="undefined" d="m130.70245,402.88549c-20.39039,0 -35.94591,-2.43447 -36.90661,-7.04678c-0.96069,-4.6123 16.51622,-7.04677 36.90661,-7.04677c20.3904,0 36.90662,3.15353 36.90662,7.04677c0,3.89325 -16.51622,7.04678 -36.90662,7.04678z" id="svg_117"/>
   <path stroke="#000000" fill="#aaaaaa" stroke-width="0" opacity="NaN" d="m88.16756,365.49443c1.60813,11.64875 0.96488,6.18391 3.21625,17.1136c2.25138,10.92969 2.4122,10.78588 2.57301,10.92969c0.16081,0.14382 1.44731,2.01337 5.46763,3.5953c4.02032,1.58193 8.20145,2.15718 13.99071,2.87623c5.78926,0.71906 9.80958,0.43144 14.63396,0.43144c4.82439,0 8.52308,-0.57525 16.72453,-0.86287c8.20145,-0.28762 18.01103,-2.30099 20.26241,-3.16386c2.25138,-0.86287 3.85951,-6.04009 5.14601,-11.21732c1.2865,-5.17722 2.573,-11.93637 3.37707,-26.31755c0.80406,-14.38117 0.80406,-13.37449 -0.32163,-22.57844c-1.12569,-9.20396 -0.32162,-19.12696 -2.89463,-26.74899c-2.573,-7.62202 -40.52481,-11.21731 -61.43047,-7.3344c-20.90566,3.88292 -18.49347,7.47821 -18.65428,7.3344c0.16081,0.14381 -3.37707,29.48141 -3.37707,37.24724c0,7.76584 -0.32163,7.04678 1.2865,18.69553l0,0z" id="svg_118"/>
   <ellipse stroke="#000000" fill="#845335" stroke-width="0" cx="130.22009" cy="309.26403" id="svg_119" rx="37.06734" ry="7.04678"/>
   <ellipse stroke="#000000" fill="#000000" stroke-width="0" cx="130.22009" cy="309.47975" id="svg_120" rx="39.80116" ry="8.70061" fill-opacity="0.19"/>
   <path stroke="#000000" fill="#000000" stroke-width="0" fill-opacity="0.19" opacity="NaN" d="m93.31357,312.71552c0,0 -1.12569,16.96979 -1.2865,16.82598c0.16081,0.14381 -0.64326,17.97646 -0.64326,17.97646c0,0 0.48244,19.12697 0.64326,19.12697c0.16081,0 3.8595,17.68884 3.8595,17.68884c0,0 1.92976,12.08019 1.92976,12.08019c0,0 -3.6987,-2.15717 -3.6987,-2.30099c0,-0.14381 -4.66357,-18.69553 -4.82438,-18.69553c-0.16081,0 -2.41219,-22.00319 -2.573,-22.147c0.16081,0.14381 0.64325,-18.40791 0.48244,-18.55172c0.16081,0.14381 2.41218,-17.68885 2.41218,-17.68885c0,0 0.64326,-7.47821 0.48245,-7.62202c0.16081,0.14381 -0.16082,1.58193 3.21625,3.30767l0,0z" id="svg_121"/>
   <path stroke="#000000" fill="#000000" stroke-width="0" fill-opacity="0.19" opacity="NaN" d="m166.69147,388.16577c0.8347,-3.89433 0.23229,-11.49124 0.3931,-11.34744c-0.16081,-0.1438 2.1748,-15.46546 2.04717,-19.91678c0,-5.022 1.04911,-13.42015 -0.38799,-19.12696c-1.4371,-5.70682 -0.72884,-12.05588 -1.49462,-17.76269c-0.25526,-4.90787 -1.50182,-6.50766 -1.16398,-6.59494c0.33785,-0.08729 3.50351,-2.56941 4.26928,-3.45283c0.76577,-0.88341 2.11099,15.84212 2.78232,19.83689c0.67133,3.99478 1.20226,12.81751 1.04145,18.95119c-0.16081,6.13369 -2.10844,26.91334 -1.37585,22.8889c0.7326,-4.02444 -3.30559,17.68885 -3.30559,17.68885c0,0 -3.89525,7.30928 -4.43894,6.59479c-0.5437,-0.71449 0.79896,-3.86465 1.63365,-7.75898l0,0z" id="svg_122"/>
   <path stroke="#000000" fill="#000000" stroke-width="0" fill-opacity="0.19" opacity="NaN" d="m98.42487,314.47291c0,0 -0.54017,16.28023 -0.54017,16.28023c0,0 0.32163,17.83265 0.32163,17.83265c0,0 -0.32163,10.92966 -0.16082,17.40122c0.64325,5.46488 2.4122,16.10692 2.4122,16.10692c0,0 1.60812,13.3745 1.60812,13.3745c0,0 0,2.58861 0,2.58861c0,0 6.11089,1.15049 6.11089,1.15049c0,0 -1.92976,-18.4079 -2.09057,-18.4079c-0.16081,0 -1.76894,-11.07348 -1.76894,-16.10692c-0.96488,-3.59531 0,-17.54503 -0.16081,-17.68884c0.16081,0.14381 0.32162,-15.8193 0.16081,-15.96311c0.16081,0.14381 0,-10.35445 -0.16081,-10.49826c0.16081,0.14381 0.30925,-3.53261 0.30925,-4.6831c-2.32147,-0.14381 -3.76879,-0.37981 -6.04078,-1.38649z" id="svg_123"/>
   <path stroke="#000000" fill="#000000" stroke-width="0" fill-opacity="0.19" opacity="NaN" d="m111.59372,317.43278c-0.50584,0.4065 -0.63312,15.61521 -0.63312,15.61521c0,0 0.32163,17.83265 0.32163,17.83265c0,0 -0.32163,10.92966 -0.16082,17.40122c0.64325,5.46488 2.4122,16.10692 2.4122,16.10692c0,0 1.60812,13.3745 1.60812,13.3745c0,0 0,2.58861 0,2.58861c0,0 1.80154,-0.25942 5.69046,0.21055c-0.94595,-4.8877 -1.50932,-17.46796 -1.67014,-17.46796c-0.16081,0 -1.76894,-11.07348 -1.76894,-16.10692c-0.96488,-3.59531 0,-17.54503 -0.16081,-17.68884c0.16081,0.14381 0.32163,-15.8193 0.16082,-15.96311c0.16081,0.14381 -0.00001,-10.35445 -0.16082,-10.49826c0.16081,0.14381 0.30925,-3.86512 0.30925,-5.01561c-2.32147,-0.14381 -5.44198,-0.79545 -5.94783,-0.38896z" id="svg_124"/>
   <path stroke="#000000" fill="#000000" stroke-width="0" fill-opacity="0.19" opacity="NaN" d="m163.20573,396.91073c0,0 2.83749,-14.83144 2.83749,-14.83144c0,0 -0.0798,-14.04814 -0.0798,-17.83266c0.36273,-3.89265 0.80528,-14.28166 0.64446,-20.75322c-0.64325,-5.46488 -0.59851,-8.64601 -1.4449,-12.75492c-0.12091,-2.81135 -0.78697,-5.30596 -0.98428,-7.95279c-0.09866,-0.79405 -2.31661,-8.01031 -2.31661,-8.01031c0,0 -3.02116,1.0802 -6.44567,1.40761c0.59195,2.91152 2.26454,15.8498 2.42535,15.8498c0.16081,0 1.76894,11.07348 1.76894,16.10692c-0.02169,4.65404 0,17.54503 0.16081,17.68884c-0.16081,-0.14381 -0.32162,15.81929 -0.16081,15.9631c-0.16081,-0.14381 -1.20912,8.08374 -1.16922,10.49826c-0.16081,1.58626 -0.47467,4.87859 -0.47467,6.02908c2.32147,-0.2091 2.96691,-0.73863 5.23891,-1.40827l0,0z" id="svg_125"/>
   <path stroke="#000000" fill="#000000" stroke-width="0" fill-opacity="0.19" opacity="NaN" d="m154.25231,398.00984c0,0 0.54016,-14.07453 0.54016,-14.07453c0,0 -0.32162,-17.83266 -0.32162,-17.83266c0,0 0.32163,-10.92966 0.16082,-17.40122c-0.64326,-5.46487 -2.4122,-16.10692 -2.4122,-16.10692c0,0 -0.42423,-5.52221 -0.62155,-8.16905c-0.09866,-0.79405 -0.61476,-5.30021 -0.89362,-7.21216c-2.60275,0.16626 -6.31163,0.22393 -6.20384,0.38508c0.10778,0.16116 1.92975,16.29044 2.09056,16.29044c0.16082,0 1.76895,11.07348 1.76895,16.10692c-0.0217,4.65404 -0.00001,17.54503 0.1608,17.68884c-0.16081,-0.14381 -0.32162,15.81929 -0.16081,15.9631c-0.16081,-0.14381 0,10.35445 0.16081,10.49826c-0.16081,-0.14381 -0.11193,3.79729 -0.11193,4.94779c2.32148,-0.2091 3.57147,-0.41424 5.84347,-1.08389z" id="svg_126"/>
   <path stroke="#000000" fill="#000000" stroke-width="0" fill-opacity="0.19" opacity="NaN" d="m123.62227,318.29313c0.42042,2.53784 0.19557,15.51741 0.19557,15.51741c0,0 0.32163,17.83265 0.32163,17.83265c0,0 0.51377,10.92966 0.67458,17.40123c0.64598,9.21977 0.10531,17.32884 0.52574,19.30272c0.63063,4.7937 0.55707,6.98288 0.45196,12.05857c0.42042,-0.56396 1.36638,0.14476 1.99701,0.05077c1.47149,-0.18799 1.70597,0.30211 4.64893,0.02013c-0.1051,-2.72584 -0.25758,-16.61958 -0.4184,-16.61958c-0.16081,0 -1.35124,-11.07348 -1.35124,-16.10692c0.08618,-5.28721 -0.4177,-17.54503 -0.57851,-17.68884c0.16081,0.14381 0.32163,-15.8193 0.16082,-15.96311c0.16081,0.14381 -0.00001,-10.35445 -0.16082,-10.49826c0.16081,0.14381 0.30925,-4.26282 0.30925,-5.41332c-4.00317,0.32616 -2.25697,0.01256 -6.77652,0.10655z" id="svg_127"/>
   <path stroke="#000000" fill="#000000" stroke-width="0" fill-opacity="0.19" opacity="NaN" d="m144.11138,399.84042c-0.42042,-2.53785 -0.19557,-15.51741 -0.19557,-15.51741c0,0 -0.32163,-17.83265 -0.32163,-17.83265c0,0 -0.51377,-10.92966 -0.67458,-17.40123c-0.64598,-9.21977 -0.10531,-17.32884 -0.52574,-19.30272c-0.63064,-4.7937 -0.55707,-6.98288 -0.45196,-12.05857c-0.42042,0.56396 -1.36638,0.26613 -1.99701,0.36012c-1.47149,0.18799 -1.78254,0.0403 -4.72551,0.32228c0.1051,2.72583 0.33416,15.86628 0.49498,15.86628c0.16081,0 1.35124,11.07348 1.35124,16.10692c-0.08618,5.28721 0.4177,17.54503 0.57851,17.68884c-0.16081,-0.14381 -0.32163,15.8193 -0.16082,15.96311c-0.16081,-0.14381 0.00001,10.35445 0.16082,10.49826c-0.16081,-0.14381 -0.30926,4.26282 -0.30926,5.41332c4.00318,-0.32616 2.25697,-0.01256 6.77653,-0.10655z" id="svg_128"/>
   <g stroke="null" id="svg_131">
    <path stroke="#000000" fill="#845335" stroke-width="0" opacity="NaN" d="m86.98072,329.11006l-1.70758,2.73242c-0.63989,3.88292 -0.79987,4.17054 1.13284,6.61534c1.93271,2.4448 14.37153,7.62203 46.84609,7.19059c32.47456,-0.43144 37.11378,-4.45817 38.07362,-5.46485c0.95984,-1.00668 5.27912,-3.88292 3.19947,-7.76583c-2.07966,-3.88292 -0.31995,-2.73243 -1.59973,-3.02005c-1.27978,-0.28761 -2.23963,1.15049 -7.03882,2.15718c-4.7992,1.00669 -6.55891,0.86287 -33.75435,1.58193l-6.07898,0.14381c-32.79451,-1.29431 -30.43401,-3.45148 -39.07256,-4.17054z" id="svg_129"/>
    <path stroke="#000000" fill="#593723" stroke-width="0" opacity="NaN" d="m87.14504,336.01302l-2.36485,-1.13874c-0.63989,2.26471 1.8292,5.02107 3.76191,6.447c1.93271,1.42593 12.39973,4.58935 44.87429,4.33771c32.47455,-0.25163 36.12788,-3.03165 37.08772,-3.6188c0.95983,-0.58714 6.26501,-4.85332 4.18536,-7.11802c-2.07965,-2.26471 -0.31994,1.42636 -1.59973,1.25861c-1.27978,-0.16775 -2.23963,0.67102 -7.03882,1.25817c-4.79919,0.58715 -6.5589,0.50327 -33.75435,0.92266l-6.07898,0.08388c-32.79451,-0.75491 -30.434,-2.01308 -39.07255,-2.43247z" id="svg_130"/>
   </g>
   <g stroke="null" id="svg_134">
    <path stroke="#000000" fill="#845335" stroke-width="0" opacity="NaN" d="m88.53972,368.37067l-1.67116,2.73242c-0.62625,3.88292 -0.78281,4.17054 1.10868,6.61534c1.89149,2.4448 14.06505,7.62203 45.84709,7.19059c31.78202,-0.43144 36.32232,-4.45817 37.26169,-5.46485c0.93937,-1.00668 5.16653,-3.88291 3.13123,-7.76583c-2.0353,-3.88292 -0.31312,-2.73243 -1.56561,-3.02005c-1.25249,-0.28761 -2.19187,1.15049 -6.88872,2.15718c-4.69685,1.00669 -6.41903,0.86287 -33.03453,1.58193l-5.94934,0.14381c-32.09516,-1.29431 -29.785,-3.45148 -38.23933,-4.17054z" id="svg_132"/>
    <path stroke="#000000" fill="#593723" stroke-width="0" opacity="NaN" d="m88.70053,375.27363l-2.31441,-1.13874c-0.62625,2.26471 1.79019,5.02107 3.68169,6.447c1.89149,1.42593 12.1353,4.58935 43.91733,4.33771c31.78203,-0.25163 35.35744,-3.03165 36.29681,-3.6188c0.93937,-0.58714 6.13142,-4.85332 4.09611,-7.11802c-2.0353,-2.26471 -0.31312,1.42636 -1.56561,1.25861c-1.25249,-0.16775 -2.19187,0.67102 -6.88872,1.25817c-4.69684,0.58715 -6.41903,0.50327 -33.03453,0.92266l-5.94934,0.08388c-32.09516,-0.75491 -29.78499,-2.01308 -38.23933,-2.43247z" id="svg_133"/>
   </g>
  </g>
  <g stroke="null" id="svg_155">
   <title id="svg_136" stroke="null">Layer 1</title>
   <path stroke="#000000" fill="#845335" stroke-width="0" opacity="undefined" d="m108.85371,315.49053c-20.39039,0 -35.94591,-2.43447 -36.90661,-7.04678c-0.96069,-4.6123 16.51622,-7.04677 36.90661,-7.04677c20.3904,0 36.90662,3.15353 36.90662,7.04677c0,3.89325 -16.51622,7.04678 -36.90662,7.04678z" id="svg_137"/>
   <path stroke="#000000" fill="#aaaaaa" stroke-width="0" opacity="NaN" d="m66.31882,278.09947c1.60813,11.64875 0.96488,6.18391 3.21625,17.1136c2.25138,10.92969 2.4122,10.78588 2.57301,10.92969c0.16081,0.14382 1.44731,2.01337 5.46763,3.5953c4.02032,1.58193 8.20145,2.15718 13.99071,2.87623c5.78926,0.71906 9.80958,0.43144 14.63396,0.43144c4.82439,0 8.52308,-0.57525 16.72453,-0.86287c8.20145,-0.28762 18.01103,-2.30099 20.26241,-3.16386c2.25138,-0.86287 3.85951,-6.04009 5.14601,-11.21732c1.2865,-5.17722 2.573,-11.93637 3.37707,-26.31755c0.80406,-14.38117 0.80406,-13.37449 -0.32163,-22.57844c-1.12569,-9.20396 -0.32162,-19.12696 -2.89463,-26.74899c-2.573,-7.62202 -40.52481,-11.21731 -61.43047,-7.3344c-20.90566,3.88292 -18.49347,7.47821 -18.65428,7.3344c0.16081,0.14381 -3.37707,29.48141 -3.37707,37.24724c0,7.76584 -0.32163,7.04678 1.2865,18.69553l0,0z" id="svg_138"/>
   <ellipse stroke="#000000" fill="#845335" stroke-width="0" cx="108.37135" cy="221.86907" id="svg_139" rx="37.06734" ry="7.04678"/>
   <ellipse stroke="#000000" fill="#000000" stroke-width="0" cx="108.37135" cy="222.08479" id="svg_140" rx="39.80116" ry="8.70061" fill-opacity="0.19"/>
   <path stroke="#000000" fill="#000000" stroke-width="0" fill-opacity="0.19" opacity="NaN" d="m71.46483,225.32056c0,0 -1.12569,16.96979 -1.2865,16.82598c0.16081,0.14381 -0.64326,17.97646 -0.64326,17.97646c0,0 0.48244,19.12697 0.64326,19.12697c0.16081,0 3.8595,17.68884 3.8595,17.68884c0,0 1.92976,12.08019 1.92976,12.08019c0,0 -3.6987,-2.15717 -3.6987,-2.30099c0,-0.14381 -4.66357,-18.69553 -4.82438,-18.69553c-0.16081,0 -2.41219,-22.00319 -2.573,-22.147c0.16081,0.14381 0.64325,-18.40791 0.48244,-18.55172c0.16081,0.14381 2.41218,-17.68885 2.41218,-17.68885c0,0 0.64326,-7.47821 0.48245,-7.62202c0.16081,0.14381 -0.16082,1.58193 3.21625,3.30767l0,0z" id="svg_141"/>
   <path stroke="#000000" fill="#000000" stroke-width="0" fill-opacity="0.19" opacity="NaN" d="m144.84273,300.77081c0.8347,-3.89433 0.23229,-11.49124 0.3931,-11.34744c-0.16081,-0.1438 2.1748,-15.46546 2.04717,-19.91678c0,-5.022 1.04911,-13.42015 -0.38799,-19.12696c-1.4371,-5.70682 -0.72884,-12.05588 -1.49462,-17.76269c-0.25526,-4.90787 -1.50182,-6.50766 -1.16398,-6.59494c0.33785,-0.08729 3.50351,-2.56941 4.26928,-3.45283c0.76577,-0.88341 2.11099,15.84212 2.78232,19.83689c0.67133,3.99478 1.20226,12.81751 1.04145,18.95119c-0.16081,6.13369 -2.10844,26.91334 -1.37585,22.8889c0.7326,-4.02444 -3.30559,17.68885 -3.30559,17.68885c0,0 -3.89525,7.30928 -4.43894,6.59479c-0.5437,-0.71449 0.79896,-3.86465 1.63365,-7.75898l0,0z" id="svg_142"/>
   <path stroke="#000000" fill="#000000" stroke-width="0" fill-opacity="0.19" opacity="NaN" d="m76.57613,227.07795c0,0 -0.54017,16.28023 -0.54017,16.28023c0,0 0.32163,17.83265 0.32163,17.83265c0,0 -0.32163,10.92966 -0.16082,17.40122c0.64325,5.46488 2.4122,16.10692 2.4122,16.10692c0,0 1.60812,13.3745 1.60812,13.3745c0,0 0,2.58861 0,2.58861c0,0 6.11089,1.15049 6.11089,1.15049c0,0 -1.92976,-18.4079 -2.09057,-18.4079c-0.16081,0 -1.76894,-11.07348 -1.76894,-16.10692c-0.96488,-3.59531 0,-17.54503 -0.16081,-17.68884c0.16081,0.14381 0.32162,-15.8193 0.16081,-15.96311c0.16081,0.14381 0,-10.35445 -0.16081,-10.49826c0.16081,0.14381 0.30925,-3.53261 0.30925,-4.6831c-2.32147,-0.14381 -3.76879,-0.37981 -6.04078,-1.38649z" id="svg_143"/>
   <path stroke="#000000" fill="#000000" stroke-width="0" fill-opacity="0.19" opacity="NaN" d="m89.74498,230.03782c-0.50584,0.4065 -0.63312,15.61521 -0.63312,15.61521c0,0 0.32163,17.83265 0.32163,17.83265c0,0 -0.32163,10.92966 -0.16082,17.40122c0.64325,5.46488 2.4122,16.10692 2.4122,16.10692c0,0 1.60812,13.3745 1.60812,13.3745c0,0 0,2.58861 0,2.58861c0,0 1.80154,-0.25942 5.69046,0.21055c-0.94595,-4.8877 -1.50932,-17.46796 -1.67014,-17.46796c-0.16081,0 -1.76894,-11.07348 -1.76894,-16.10692c-0.96488,-3.59531 0,-17.54503 -0.16081,-17.68884c0.16081,0.14381 0.32163,-15.8193 0.16082,-15.96311c0.16081,0.14381 -0.00001,-10.35445 -0.16082,-10.49826c0.16081,0.14381 0.30925,-3.86512 0.30925,-5.01561c-2.32147,-0.14381 -5.44198,-0.79545 -5.94783,-0.38896z" id="svg_144"/>
   <path stroke="#000000" fill="#000000" stroke-width="0" fill-opacity="0.19" opacity="NaN" d="m141.35699,309.51577c0,0 2.83749,-14.83144 2.83749,-14.83144c0,0 -0.0798,-14.04814 -0.0798,-17.83266c0.36273,-3.89265 0.80528,-14.28166 0.64446,-20.75322c-0.64325,-5.46488 -0.59851,-8.64601 -1.4449,-12.75492c-0.12091,-2.81135 -0.78697,-5.30596 -0.98428,-7.95279c-0.09866,-0.79405 -2.31661,-8.01031 -2.31661,-8.01031c0,0 -3.02116,1.0802 -6.44567,1.40761c0.59195,2.91152 2.26454,15.8498 2.42535,15.8498c0.16081,0 1.76894,11.07348 1.76894,16.10692c-0.02169,4.65404 0,17.54503 0.16081,17.68884c-0.16081,-0.14381 -0.32162,15.81929 -0.16081,15.9631c-0.16081,-0.14381 -1.20912,8.08374 -1.16922,10.49826c-0.16081,1.58626 -0.47467,4.87859 -0.47467,6.02908c2.32147,-0.2091 2.96691,-0.73863 5.23891,-1.40827l0,0z" id="svg_145"/>
   <path stroke="#000000" fill="#000000" stroke-width="0" fill-opacity="0.19" opacity="NaN" d="m132.40357,310.61488c0,0 0.54016,-14.07453 0.54016,-14.07453c0,0 -0.32162,-17.83266 -0.32162,-17.83266c0,0 0.32163,-10.92966 0.16082,-17.40122c-0.64326,-5.46487 -2.4122,-16.10692 -2.4122,-16.10692c0,0 -0.42423,-5.52221 -0.62155,-8.16905c-0.09866,-0.79405 -0.61476,-5.30021 -0.89362,-7.21216c-2.60275,0.16626 -6.31163,0.22393 -6.20384,0.38508c0.10778,0.16116 1.92975,16.29044 2.09056,16.29044c0.16082,0 1.76895,11.07348 1.76895,16.10692c-0.0217,4.65404 -0.00001,17.54503 0.1608,17.68884c-0.16081,-0.14381 -0.32162,15.81929 -0.16081,15.9631c-0.16081,-0.14381 0,10.35445 0.16081,10.49826c-0.16081,-0.14381 -0.11193,3.79729 -0.11193,4.94779c2.32148,-0.2091 3.57147,-0.41424 5.84347,-1.08389z" id="svg_146"/>
   <path stroke="#000000" fill="#000000" stroke-width="0" fill-opacity="0.19" opacity="NaN" d="m101.77353,230.89817c0.42042,2.53784 0.19557,15.51741 0.19557,15.51741c0,0 0.32163,17.83265 0.32163,17.83265c0,0 0.51377,10.92966 0.67458,17.40123c0.64598,9.21977 0.10531,17.32884 0.52574,19.30272c0.63063,4.7937 0.55707,6.98288 0.45196,12.05857c0.42042,-0.56396 1.36638,0.14476 1.99701,0.05077c1.47149,-0.18799 1.70597,0.30211 4.64893,0.02013c-0.1051,-2.72584 -0.25758,-16.61958 -0.4184,-16.61958c-0.16081,0 -1.35124,-11.07348 -1.35124,-16.10692c0.08618,-5.28721 -0.4177,-17.54503 -0.57851,-17.68884c0.16081,0.14381 0.32163,-15.8193 0.16082,-15.96311c0.16081,0.14381 -0.00001,-10.35445 -0.16082,-10.49826c0.16081,0.14381 0.30925,-4.26282 0.30925,-5.41332c-4.00317,0.32616 -2.25697,0.01256 -6.77652,0.10655z" id="svg_147"/>
   <path stroke="#000000" fill="#000000" stroke-width="0" fill-opacity="0.19" opacity="NaN" d="m122.26264,312.44546c-0.42042,-2.53785 -0.19557,-15.51741 -0.19557,-15.51741c0,0 -0.32163,-17.83265 -0.32163,-17.83265c0,0 -0.51377,-10.92966 -0.67458,-17.40123c-0.64598,-9.21977 -0.10531,-17.32884 -0.52574,-19.30272c-0.63064,-4.7937 -0.55707,-6.98288 -0.45196,-12.05857c-0.42042,0.56396 -1.36638,0.26613 -1.99701,0.36012c-1.47149,0.18799 -1.78254,0.0403 -4.72551,0.32228c0.1051,2.72583 0.33416,15.86628 0.49498,15.86628c0.16081,0 1.35124,11.07348 1.35124,16.10692c-0.08618,5.28721 0.4177,17.54503 0.57851,17.68884c-0.16081,-0.14381 -0.32163,15.8193 -0.16082,15.96311c-0.16081,-0.14381 0.00001,10.35445 0.16082,10.49826c-0.16081,-0.14381 -0.30926,4.26282 -0.30926,5.41332c4.00318,-0.32616 2.25697,-0.01256 6.77653,-0.10655z" id="svg_148"/>
   <g stroke="null" id="svg_151">
    <path stroke="#000000" fill="#845335" stroke-width="0" opacity="NaN" d="m65.13198,241.7151l-1.70758,2.73242c-0.63989,3.88292 -0.79987,4.17054 1.13284,6.61534c1.93271,2.4448 14.37153,7.62203 46.84609,7.19059c32.47456,-0.43144 37.11378,-4.45817 38.07362,-5.46485c0.95984,-1.00668 5.27912,-3.88292 3.19947,-7.76583c-2.07966,-3.88292 -0.31995,-2.73243 -1.59973,-3.02005c-1.27978,-0.28761 -2.23963,1.15049 -7.03882,2.15718c-4.7992,1.00669 -6.55891,0.86287 -33.75435,1.58193l-6.07898,0.14381c-32.79451,-1.29431 -30.43401,-3.45148 -39.07256,-4.17054z" id="svg_149"/>
    <path stroke="#000000" fill="#593723" stroke-width="0" opacity="NaN" d="m65.2963,248.61806l-2.36485,-1.13874c-0.63989,2.26471 1.8292,5.02107 3.76191,6.447c1.93271,1.42593 12.39973,4.58935 44.87429,4.33771c32.47455,-0.25163 36.12788,-3.03165 37.08772,-3.6188c0.95983,-0.58714 6.26501,-4.85332 4.18536,-7.11802c-2.07965,-2.26471 -0.31994,1.42636 -1.59973,1.25861c-1.27978,-0.16775 -2.23963,0.67102 -7.03882,1.25817c-4.79919,0.58715 -6.5589,0.50327 -33.75435,0.92266l-6.07898,0.08388c-32.79451,-0.75491 -30.434,-2.01308 -39.07255,-2.43247z" id="svg_150"/>
   </g>
   <g stroke="null" id="svg_154">
    <path stroke="#000000" fill="#845335" stroke-width="0" opacity="NaN" d="m66.69098,280.97571l-1.67116,2.73242c-0.62625,3.88292 -0.78281,4.17054 1.10868,6.61534c1.89149,2.4448 14.06505,7.62203 45.84709,7.19059c31.78202,-0.43144 36.32232,-4.45817 37.26169,-5.46485c0.93937,-1.00668 5.16653,-3.88291 3.13123,-7.76583c-2.0353,-3.88292 -0.31312,-2.73243 -1.56561,-3.02005c-1.25249,-0.28761 -2.19187,1.15049 -6.88872,2.15718c-4.69685,1.00669 -6.41903,0.86287 -33.03453,1.58193l-5.94934,0.14381c-32.09516,-1.29431 -29.785,-3.45148 -38.23933,-4.17054z" id="svg_152"/>
    <path stroke="#000000" fill="#593723" stroke-width="0" opacity="NaN" d="m66.85179,287.87867l-2.31441,-1.13874c-0.62625,2.26471 1.79019,5.02107 3.68169,6.447c1.89149,1.42593 12.1353,4.58935 43.91733,4.33771c31.78203,-0.25163 35.35744,-3.03165 36.29681,-3.6188c0.93937,-0.58714 6.13142,-4.85332 4.09611,-7.11802c-2.0353,-2.26471 -0.31312,1.42636 -1.56561,1.25861c-1.25249,-0.16775 -2.19187,0.67102 -6.88872,1.25817c-4.69684,0.58715 -6.41903,0.50327 -33.03453,0.92266l-5.94934,0.08388c-32.09516,-0.75491 -29.78499,-2.01308 -38.23933,-2.43247z" id="svg_153"/>
   </g>
  </g>
 </g>

</svg>