<svg width="635" height="440" xmlns="http://www.w3.org/2000/svg">
 <g id="Layer_1">
  <title>Layer 1</title>
  <rect id="svg_36" height="2" width="1" y="530.99998" x="593.49997" stroke-width="13" stroke="null" fill="#000000"/>
  <g stroke="null" id="svg_1">
   <path stroke="null" fill="#482816" stroke-width="13" opacity="NaN" d="m7.25192,424.63256c19.848,11.9422 419.64998,10.93803 456.59685,8.08951c36.94689,-2.84852 115.76574,3.68591 142.38591,-3.89362c26.62016,-7.57953 -62.65843,-53.07673 -74.32586,-55.92524c-11.66745,-2.84852 -167.23326,1.42426 -213.90301,-1.42426c-46.66976,-2.84852 -173.06699,1.42426 -206.12471,0c-33.05775,-1.42425 -97.03978,0.85815 -92.96176,13.9865l-11.66744,39.16711z" id="svg_29"/>
   <path stroke="null" fill="#BBBBBB" stroke-width="13" opacity="NaN" d="m42.84578,128.54376c52.42257,3.15355 269.91878,-120.95025 270.66944,-121.13319c0.75067,-0.18296 215.77131,141.85784 221.18766,142.95549c5.41633,1.09765 -157.50121,-48.2355 -237.10927,-28.83502c-79.60807,19.40049 -307.17038,3.85919 -254.74783,7.01273z" id="svg_14"/>
   <path stroke="null" fill="#FFAC8D" stroke-width="13" opacity="NaN" d="m11.54028,400.48431c39.14559,-2.32722 413.21744,8.74273 450.16432,5.89421c36.94689,-2.84852 125.41454,4.78355 152.03471,-2.79597c26.62017,-7.57953 -72.30722,-54.17436 -83.97466,-57.02289c-11.66745,-2.84852 -167.23326,1.42426 -213.90301,-1.42425c-46.66976,-2.84852 -173.06699,1.42425 -206.12471,0c-33.05775,-1.42425 -114.00739,-20.65809 -86.52922,16.1818l-11.66744,39.1671z" id="svg_16"/>
   <path stroke="null" fill="#BBBBBB" stroke-width="13" opacity="NaN" d="m515.5111,152.16933c-117.98369,141.5058 -649.02892,220.5192 -425.81284,185.93528c223.21607,-34.58392 441.30522,9.59441 426.77712,6.92344c-14.5281,-2.67097 3.37797,-222.40445 -0.96428,-192.85872l0,0.00001z" id="svg_13"/>
   <path stroke="null" fill="#845335" stroke-width="13" opacity="NaN" d="m47.75206,355.14117c-25.32987,-3.04323 254.1838,-0.80438 312.08058,1.47804c57.89678,2.2824 73.8184,-1.1412 112.89873,-2.2824c39.08032,-1.1412 14.68981,1.18476 43.6382,0.04355c15.92161,6.84723 43.37067,26.37838 54.46689,26.37838c11.09622,0 15.00925,11.28137 4.60978,14.57431c-10.39947,3.29294 -82.45101,0.08711 -83.17467,-0.29327c0.72368,0.38039 -206.25732,-1.90203 -206.25732,-1.90203c0,0 -150.53164,0 -151.25532,-0.38039c0.72368,0.38039 -97.96836,-1.98914 -91.18743,-4.56482l4.18054,-33.05138l0.00001,0.00001z" id="svg_23"/>
   <path stroke="null" fill="#482816" stroke-width="13" opacity="NaN" d="m36.09015,355.07959c1.95748,0.73927 -3.81365,-223.6928 -5.76231,-223.91606c1.94866,0.22326 13.70009,-9.26376 14.87775,5.7096c1.17766,14.97337 8.33027,214.79763 8.38305,217.89373c0.05278,3.09609 -19.45597,-0.42657 -17.49849,0.31272l0,0.00001z" id="svg_2"/>
   <path stroke="null" fill="#482816" stroke-width="13" opacity="NaN" d="m13.01309,394.12829c1.94458,0.71 0,-205.19211 -1.94455,-205.42878c1.94455,0.23666 23.33485,0.94667 23.33485,6.62673c0,5.68005 -3.88914,195.96202 -3.88914,198.80205c0,2.84002 -19.44573,-0.71002 -17.50116,0l0,0z" id="svg_7"/>
   <path stroke="null" fill="#482816" stroke-width="13" opacity="NaN" d="m518.32422,353.96834c1.94458,0.71 0,-205.19211 -1.94455,-205.42878c1.94455,0.23666 23.33485,0.94667 23.33485,6.62673c0,5.68005 -3.88914,195.96202 -3.88914,198.80205c0,2.84002 -19.44573,-0.71002 -17.50116,0l0,0z" id="svg_8"/>
   <path stroke="null" fill="#ffffff" stroke-width="13" opacity="NaN" d="m531.10117,36.73343c0,0 108.83495,11.11773 100.28589,8.9375c-8.54905,-2.18024 -109.61739,36.87245 -104.43948,30.60497c5.17791,-6.26748 6.14233,-35.39273 4.15358,-39.54247z" id="svg_4"/>
   <path stroke="null" id="svg_30" d="m10.73414,398.82016c0,0 1.07209,26.34355 1.07209,26.34355c0,0 26.80222,5.48824 26.80222,5.48824c0,0 5.36044,-21.95296 4.82441,-23.05058c0.53603,1.09763 -32.69872,-8.7812 -32.69872,-8.7812z" opacity="NaN" stroke-width="13" fill="#482816"/>
   <path stroke="null" id="svg_31" d="m621.82482,428.45665c0,0 -2.14418,-29.63649 -2.14418,-28.53884c0,1.09765 -5.36044,6.58589 -39.66729,7.68353c-34.30685,1.09765 28.94646,20.85535 6.96861,24.14827c-21.97786,3.29292 34.84286,-3.29297 34.84286,-3.29297z" opacity="NaN" stroke-width="13" fill="#482816"/>
   <path stroke="null" fill="#aaa9a9" stroke-width="13" opacity="NaN" d="m533.4361,350.59557c22.56777,-42.7175 69.02881,39.62334 59.15843,30.30134c-9.87038,-9.322 -60.71365,-235.70985 -51.54599,-206.69533c9.16766,29.01452 0.91038,178.49854 -7.61243,176.39401l0,-0.00001z" id="svg_33"/>
   <path stroke="null" fill="#482816" stroke-width="13" opacity="NaN" d="m518.36465,154.70866c0.85901,0.42364 0,-122.43078 -0.859,-122.57198c0.859,0.14121 10.30808,0.56484 10.30808,3.95392c0,3.38909 -1.71801,116.92351 -1.71801,118.61805c0,1.69454 -8.59008,-0.42365 -7.73107,0l0,0z" id="svg_19"/>
   <path stroke="null" fill="#ffffff" stroke-width="13" opacity="NaN" d="m314.79898,8.89292c14.75376,-12.1068 -370.2212,219.87209 -287.01853,176.20512c83.20267,-43.66696 547.40289,-11.89192 574.25987,12.28306c26.85699,24.17498 -301.9951,-176.38138 -287.24134,-188.48819z" id="svg_3"/>
   <path stroke="null" fill="#482816" stroke-width="13" opacity="NaN" d="m607.3001,196.57816c-1.94458,-0.71 0,205.19211 1.94455,205.42878c-1.94455,-0.23666 -23.33485,-0.94667 -23.33485,-6.62673c0,-5.68005 3.88914,-195.96202 3.88914,-198.80205c0,-2.84002 19.44573,0.71002 17.50116,0l0,0z" id="svg_9"/>
  </g>
 </g>

</svg>