<svg width="996" height="440.00000000000006" xmlns="http://www.w3.org/2000/svg">
 <g id="Layer_1">
  <title>Layer 1</title>
  <path id="svg_26" d="m353.97972,294.44443c0,0 25.22059,-235.88888 7.5905,-271.99999c-17.63009,-36.11111 208.03429,310.33332 237.13121,310.33332c-20.24133,-14 -84.05612,-130.33333 -153.6357,-113.33333c-69.57959,17 -91.08601,75 -91.08601,75z" opacity="NaN" stroke-width="13" fill="#BBBBBB" stroke="null"/>
  <path id="svg_13" d="m333.17426,21.99999c-2.17357,25.88995 -332.14518,212.25106 -303.64819,203.21393c28.49698,-9.03714 295.67845,-172.87771 299.30106,-85.8747c3.62261,87.00302 6.5207,-143.22918 4.34713,-117.33924l0,0.00001z" opacity="NaN" stroke-width="13" fill="#BBBBBB" stroke="null"/>
  <rect id="svg_12" height="1" width="3.01914" y="434.11109" x="973.75862" stroke-width="13" fill="#000000" stroke="null"/>
  <path id="svg_1" d="m17.04973,237.51555c-5,10 16.05672,120.50873 93.12339,156.97661c77.06665,36.46788 194.6947,41.67758 235.2561,39.59369c40.5614,-2.08387 283.92978,3.12583 322.4631,-1.04193c38.53333,-4.16776 164.27366,6.25163 192.66664,-12.50328c28.39298,-18.75491 93.29122,-46.88727 93.29122,-75.01964c0,-28.13236 0,-47.9292 0,-47.9292c0,0 -214.97541,-6.25164 -214.97541,1.04193c0,7.29358 12.16841,51.05504 0,46.88727c-12.16843,-4.16775 -174.41401,2.08389 -223.08768,-2.08387c-48.67369,-4.16776 -180.49822,2.08387 -214.97541,0c-34.4772,-2.08388 -141.96489,-2.08388 -178.47015,-6.25164c-36.50526,-4.16775 -104.2918,-90.66994 -105.2918,-99.66994z" opacity="NaN" stroke-width="13" fill="#482816" stroke="null"/>
  <path id="svg_16" d="m16.66084,230.92706c0,0 17.44563,85.46849 95.51228,120.30903c78.06665,34.84054 157.6947,30.96062 233.2561,32.71258c75.5614,1.75196 283.92978,1.87205 322.4631,-0.62401c38.53333,-2.49606 164.27366,3.74409 192.66664,-7.48819c28.39298,-11.23228 93.29122,-28.08069 93.29122,-44.92911c0,-16.84841 0,-28.7047 0,-28.7047c0,0 -214.97541,-3.74409 -214.97541,0.62401c0,4.36811 12.16841,30.57676 0,28.08069c-12.16843,-2.49606 -174.41401,1.24804 -223.08768,-1.24803c-48.67369,-2.49606 -180.49822,1.24803 -214.97541,0c-34.4772,-1.24803 -141.96489,-1.24803 -178.47015,-3.74409c-36.50526,-2.49606 -64.01402,-29.7104 -105.68069,-94.98818z" opacity="NaN" stroke-width="13" fill="#FFAC8D" stroke="null"/>
  <path id="svg_23" d="m78.85699,316.86297c6.13668,13.5743 94.73633,23.08146 105.57993,23.63462c39.61565,-1.38889 266.6242,4.56035 240.2067,1.89367c-26.4175,-2.66668 77.7428,-2.66668 138.12559,-0.66668c60.38278,2 76.98805,-1 117.74643,-2c40.75838,-1 33.21053,2 63.40192,1c16.60527,6 70.94977,26 72.45934,26c1.50957,0 0,7 -3.01914,7c-3.01914,0 -111.70815,2 -112.46289,1.66668c0.75475,0.33332 -215.1137,-1.66668 -215.1137,-1.66668c0,0 -156.99524,0 -157.74999,-0.33332c0.75475,0.33332 -94.34811,-3.66668 -95.10288,-4c0.75477,0.33332 -86.17364,-11.52156 -96.48209,-15.66668c-10.30845,-4.14512 -41.62218,-16.89912 -56.39902,-26.94206l-23.88959,-29.55147l22.69939,19.63191z" opacity="NaN" stroke-width="13" fill="#845335" stroke="null"/>
  <path id="svg_2" d="m339.59839,357.26734c1.56511,1.19965 0,-346.70078 -1.56509,-347.10066c1.56509,0.39988 18.78125,1.59953 18.78125,11.19678c0,9.59725 -3.13021,331.10524 -3.13021,335.90387c0,4.79862 -15.65107,-1.19967 -14.08595,0l0,0.00001z" opacity="NaN" stroke-width="13" fill="#482816" stroke="null"/>
  <path id="svg_24" d="m741.28491,304.33332c0,0 84.5359,18 84.5359,18c0,0 126.80385,-23 126.80385,-23c0,0 -209.83017,-2 -210.58491,-2.33332c0.75475,0.33332 -0.75481,7.33332 -0.75481,7.33332l-0.00002,0l-0.00001,0z" opacity="NaN" stroke-width="13" fill="#482816" stroke="null"/>
  <path id="svg_25" d="m843.93563,380.1111c0,0 -10.56699,-54 -9.05742,-54c1.50957,0 125.29428,-22 125.29428,-22c0,0 -4.52871,33 -4.52871,33c0,0 -86.04547,35 -86.80021,34.66668c0.75474,0.33332 -24.90794,8.33332 -24.90794,8.33332z" opacity="NaN" stroke-width="13" fill="#482816" stroke="null"/>
  <path id="svg_6" d="m597.93173,354.48956c1.56511,1.19965 0,-346.70078 -1.56508,-347.10066c1.56508,0.39988 18.78125,1.59953 18.78125,11.19678c0,9.59725 -3.13021,331.10524 -3.13021,335.90387c0,4.79862 -15.65107,-1.19967 -14.08596,0l0,0.00001z" opacity="NaN" stroke-width="13" fill="#482816" stroke="null"/>
  <path id="svg_14" d="m609.53528,298.6111c0,0 5.06033,-292.99999 7.5905,-271.99999c24.03658,0 298.31207,170.05554 327.40899,170.05554c-20.24133,-14 -174.3339,9.94445 -243.91348,26.94445c-69.57959,17 -91.08601,75 -91.08601,75z" opacity="NaN" stroke-width="13" fill="#BBBBBB" stroke="null"/>
  <path id="svg_7" d="m744.06269,202.94443c0,0 84.5359,18 84.5359,18c0,0 126.80385,-23 126.80385,-23c0,0 -209.83018,-2 -210.58492,-2.33332c0.75476,0.33332 -0.75481,7.33332 -0.75481,7.33332l-0.00002,0z" opacity="NaN" stroke-width="13" fill="#482816" stroke="null"/>
  <path id="svg_8" d="m942.95491,300.28034c0.75492,0.34505 0,-99.72087 -0.75491,-99.83589c0.75491,0.11502 9.05903,0.46007 9.05903,3.22051c0,2.76044 -1.50984,95.23516 -1.50984,96.61538c0,1.38022 -7.5492,-0.34506 -6.79428,0l0,0z" opacity="NaN" stroke-width="13" fill="#482816" stroke="null"/>
  <path id="svg_9" d="m742.95491,296.11367c0.75492,0.34506 0,-99.72087 -0.75491,-99.83588c0.75491,0.11501 9.05903,0.46007 9.05903,3.2205c0,2.76044 -1.50984,95.23516 -1.50984,96.61538c0,1.38022 -7.5492,-0.34506 -6.79428,0l0,0z" opacity="NaN" stroke-width="13" fill="#482816" stroke="null"/>
  <rect fill="#000000" stroke="null" stroke-width="13" x="1018.82581" y="424.16665" width="0" height="2.77778" id="svg_15"/>
  <path id="svg_3" d="m338.66627,18.0801c1.30959,1.12403 -221.62393,192.37741 -302.12268,207.03505c-80.49874,14.65764 296.89287,-36.20548 299.38486,103.82558c2.49198,140.03106 1.42822,-311.98466 2.73782,-310.86063z" opacity="NaN" stroke-width="13" fill="#ffffff" stroke="null"/>
  <path fill="#482816" stroke="null" stroke-width="13" opacity="NaN" d="m429.93691,-111.94446c0,2.77778 -25,27.77778 -22.22222,30.55556" id="svg_20"/>
  <path id="svg_21" d="m595.67426,12.27777c-2.17356,25.88995 -268.25629,362.25106 -234.20375,329.60281c34.05254,-32.64825 226.23401,-299.26659 229.85662,-212.26358c3.62261,87.00302 6.5207,-143.22918 4.34713,-117.33924l0,0.00001z" opacity="NaN" stroke-width="13" fill="#BBBBBB" stroke="null"/>
  <path id="svg_22" d="m599.77739,12.52454c1.30959,1.12403 -153.56838,285.43296 -231.28934,326.47949c-77.72097,41.04653 226.05953,-155.64992 228.55152,-15.61886c2.49198,140.03106 1.42822,-311.98466 2.73782,-310.86063z" opacity="NaN" stroke-width="13" fill="#ffffff" stroke="null"/>
  <path id="svg_27" d="m361.71083,21.18734c0,0 220.62439,315.50273 237.73015,323.50273c17.10575,8 -222.82814,-209.87475 -234.89908,-32.15372c-12.07095,177.72103 5.17995,-258.75209 -2.83107,-291.34901z" opacity="NaN" stroke-width="13" fill="#ffffff" stroke="null"/>
  <path id="svg_28" d="m753.78491,305.10087c0,0 70.64701,13.06579 70.64701,13.06579c0,0 105.97051,-16.69517 105.97051,-16.69517c0,0 -175.35596,-1.45175 -175.9867,-1.6937c0.63076,0.24195 -0.6308,5.32309 -0.6308,5.32309l-0.00002,0l0,-0.00001z" opacity="NaN" stroke-width="13" fill="#c4836b" stroke="null"/>
  <path id="svg_10" d="m823.51047,321.0911c0.75492,0.35938 0,-103.8602 -0.75491,-103.97998c0.75491,0.11978 9.05903,0.47917 9.05903,3.35418c0,2.87502 -1.50984,99.18829 -1.50984,100.6258c0,1.43751 -7.5492,-0.35938 -6.79428,0l0,0z" opacity="NaN" stroke-width="13" fill="#482816" stroke="null"/>
  <path id="svg_4" d="m613.09973,14.2429c0,0 316.45772,173.83606 333.56348,181.83606c17.10575,8 -318.66147,-68.20808 -330.73241,109.51295c-12.07095,177.72103 5.17995,-258.75209 -2.83107,-291.34901z" opacity="NaN" stroke-width="13" fill="#ffffff" stroke="null"/>
 </g>

</svg>